%FSLAX46Y46*%
%MOMM*%
%AMPS26*
21,1,0.800000,0.600000,0.000000,0.000000,90.000000*
%
%ADD26PS26*%
%AMPS27*
21,1,0.800000,0.600000,0.000000,0.000000,270.000000*
%
%ADD27PS27*%
%AMPS36*
21,1,0.600000,1.550000,0.000000,0.000000,90.000000*
%
%ADD36PS36*%
%AMPS37*
21,1,0.600000,1.550000,0.000000,0.000000,270.000000*
%
%ADD37PS37*%
%AMPS33*
21,1,1.600000,2.500000,0.000000,0.000000,90.000000*
%
%ADD33PS33*%
%AMPS32*
21,1,1.600000,2.500000,0.000000,0.000000,270.000000*
%
%ADD32PS32*%
%AMPS23*
21,1,0.900000,1.000000,0.000000,0.000000,0.000000*
%
%ADD23PS23*%
%AMPS22*
21,1,0.900000,1.000000,0.000000,0.000000,180.000000*
%
%ADD22PS22*%
%AMPS14*
21,1,1.600000,3.200000,0.000000,0.000000,90.000000*
%
%ADD14PS14*%
%AMPS15*
21,1,1.600000,3.200000,0.000000,0.000000,270.000000*
%
%ADD15PS15*%
%AMPS39*
21,1,0.400000,0.900000,0.000000,0.000000,90.000000*
%
%ADD39PS39*%
%AMPS38*
21,1,0.400000,0.900000,0.000000,0.000000,270.000000*
%
%ADD38PS38*%
%AMPS11*
21,1,1.300000,1.000000,0.000000,0.000000,0.000000*
%
%ADD11PS11*%
%AMPS10*
21,1,1.300000,1.000000,0.000000,0.000000,180.000000*
%
%ADD10PS10*%
%AMPS25*
21,1,0.600000,1.800000,0.000000,0.000000,0.000000*
%
%ADD25PS25*%
%AMPS24*
21,1,0.600000,1.800000,0.000000,0.000000,180.000000*
%
%ADD24PS24*%
%AMPS34*
21,1,0.701421,1.491421,0.000000,0.000000,90.000000*
%
%ADD34PS34*%
%AMPS35*
21,1,0.701421,1.491421,0.000000,0.000000,270.000000*
%
%ADD35PS35*%
%AMPS18*
21,1,0.700000,0.900000,0.000000,0.000000,90.000000*
%
%ADD18PS18*%
%AMPS19*
21,1,0.700000,0.900000,0.000000,0.000000,270.000000*
%
%ADD19PS19*%
%AMPS30*
21,1,1.800000,1.100000,0.000000,0.000000,0.000000*
%
%ADD30PS30*%
%AMPS16*
21,1,1.800000,1.100000,0.000000,0.000000,90.000000*
%
%ADD16PS16*%
%AMPS31*
21,1,1.800000,1.100000,0.000000,0.000000,180.000000*
%
%ADD31PS31*%
%AMPS17*
21,1,1.800000,1.100000,0.000000,0.000000,270.000000*
%
%ADD17PS17*%
%AMPS28*
21,1,1.831662,1.171341,0.000000,0.000000,0.000000*
%
%ADD28PS28*%
%AMPS29*
21,1,1.831662,1.171341,0.000000,0.000000,180.000000*
%
%ADD29PS29*%
%AMPS21*
21,1,1.000000,0.900000,0.000000,0.000000,0.000000*
%
%ADD21PS21*%
%AMPS13*
21,1,1.000000,0.900000,0.000000,0.000000,90.000000*
%
%ADD13PS13*%
%AMPS20*
21,1,1.000000,0.900000,0.000000,0.000000,180.000000*
%
%ADD20PS20*%
%AMPS12*
21,1,1.000000,0.900000,0.000000,0.000000,270.000000*
%
%ADD12PS12*%
G01*
%LPD*%
G36*
X-42828883Y-37100693D02*
X-42650000Y-38000000D01*
X-42650000Y-38000000D01*
X-42828883Y-38899306D01*
X-43338299Y-39661700D01*
X-44100693Y-40171116D01*
X-45000000Y-40350000D01*
X-45899306Y-40171116D01*
X-46661700Y-39661700D01*
X-47171116Y-38899306D01*
X-47350000Y-38000000D01*
X-47171116Y-37100693D01*
X-46661700Y-36338299D01*
X-45899306Y-35828883D01*
X-45000000Y-35650000D01*
X-44100693Y-35828883D01*
X-43338299Y-36338299D01*
X-42828883Y-37100693D01*
D02*
G37*
G36*
X-42828883Y-4100693D02*
X-42650000Y-5000000D01*
X-42650000Y-5000000D01*
X-42828883Y-5899306D01*
X-43338299Y-6661700D01*
X-44100693Y-7171116D01*
X-45000000Y-7350000D01*
X-45899306Y-7171116D01*
X-46661700Y-6661700D01*
X-47171116Y-5899306D01*
X-47350000Y-5000000D01*
X-47171116Y-4100693D01*
X-46661700Y-3338299D01*
X-45899306Y-2828883D01*
X-45000000Y-2650000D01*
X-44100693Y-2828883D01*
X-43338299Y-3338299D01*
X-42828883Y-4100693D01*
D02*
G37*
G36*
X47171116Y-37100693D02*
X47350000Y-38000000D01*
X47350000Y-38000000D01*
X47171116Y-38899306D01*
X46661700Y-39661700D01*
X45899306Y-40171116D01*
X45000000Y-40350000D01*
X44100693Y-40171116D01*
X43338299Y-39661700D01*
X42828883Y-38899306D01*
X42650000Y-38000000D01*
X42828883Y-37100693D01*
X43338299Y-36338299D01*
X44100693Y-35828883D01*
X45000000Y-35650000D01*
X45899306Y-35828883D01*
X46661700Y-36338299D01*
X47171116Y-37100693D01*
D02*
G37*
G36*
X47171116Y-4100693D02*
X47350000Y-5000000D01*
X47350000Y-5000000D01*
X47171116Y-5899306D01*
X46661700Y-6661700D01*
X45899306Y-7171116D01*
X45000000Y-7350000D01*
X44100693Y-7171116D01*
X43338299Y-6661700D01*
X42828883Y-5899306D01*
X42650000Y-5000000D01*
X42828883Y-4100693D01*
X43338299Y-3338299D01*
X44100693Y-2828883D01*
X45000000Y-2650000D01*
X45899306Y-2828883D01*
X46661700Y-3338299D01*
X47171116Y-4100693D01*
D02*
G37*
G01*
%LPD*%
G75*
D10*
X11550000Y-13867954D03*
D11*
X11550000Y-17202922D03*
D12*
X21170000Y-21655000D03*
D13*
X22770000Y-21655000D03*
D14*
X-2850000Y-15002922D03*
D15*
X-7850000Y-15002922D03*
D16*
X14970000Y-26480000D03*
D17*
X11970000Y-26480000D03*
D18*
X-12620000Y-30020000D03*
D18*
X-12620000Y-28720000D03*
D19*
X-14520000Y-29370000D03*
D20*
X-15500000Y-23100000D03*
D21*
X-15500000Y-24700000D03*
D22*
X1250000Y-15002922D03*
D23*
X2200000Y-17202922D03*
D22*
X3150000Y-15002922D03*
D23*
X-17390000Y-24700000D03*
D22*
X-18340000Y-22500000D03*
D23*
X-19290000Y-24700000D03*
D24*
X-18610000Y-32500000D03*
D25*
X-16110000Y-38800000D03*
D25*
X-18610000Y-38800000D03*
D24*
X-16110000Y-32500000D03*
D26*
X23185000Y-30213001D03*
D27*
X21485002Y-30213001D03*
D26*
X9920000Y-23045000D03*
D27*
X8220002Y-23045000D03*
D28*
X6980000Y-17202922D03*
D29*
X6980000Y-14250000D03*
D12*
X-14030000Y-32505000D03*
D13*
X-12430000Y-32505000D03*
D30*
X25580000Y-27555000D03*
D31*
X25580000Y-24555000D03*
D12*
X8220002Y-26905000D03*
D13*
X9820002Y-26905000D03*
D12*
X1550000Y-11902922D03*
D13*
X3150000Y-11902922D03*
D12*
X-14030000Y-34435000D03*
D13*
X-12430000Y-34435000D03*
D32*
X-27610000Y-25200000D03*
D33*
X-24110000Y-25200000D03*
D27*
X8220002Y-24975000D03*
D26*
X9920000Y-24975000D03*
D16*
X14970000Y-23550000D03*
D17*
X11970000Y-23550000D03*
D34*
X-21025000Y-32600000D03*
D35*
X-28175000Y-35140000D03*
D35*
X-28175000Y-40220000D03*
D35*
X-28175000Y-37680000D03*
D34*
X-21025000Y-35140000D03*
D34*
X-21025000Y-40220000D03*
D35*
X-28175000Y-32600000D03*
D34*
X-21025000Y-37680000D03*
D31*
X5820002Y-23905000D03*
D30*
X5820002Y-26905000D03*
D31*
X12320000Y-29135000D03*
D30*
X12320000Y-32135000D03*
D13*
X16280000Y-29675000D03*
D12*
X14680000Y-29675000D03*
D12*
X8220002Y-30205000D03*
D13*
X9820002Y-30205000D03*
D20*
X-21170000Y-23100000D03*
D21*
X-21170000Y-24700000D03*
D21*
X28010000Y-27555000D03*
D20*
X28010000Y-25955000D03*
D31*
X5820002Y-29135000D03*
D30*
X5820002Y-32135000D03*
D36*
X22770000Y-23745000D03*
D36*
X22770000Y-26285000D03*
D36*
X22770000Y-27555000D03*
D37*
X17430000Y-27555000D03*
D37*
X17430000Y-25015000D03*
D36*
X22770000Y-25015000D03*
D37*
X17430000Y-23745000D03*
D37*
X17430000Y-26285000D03*
D26*
X23184998Y-32135000D03*
D27*
X21485000Y-32135000D03*
D16*
X700000Y-33820000D03*
D17*
X-2300000Y-33820000D03*
D36*
X-4840000Y-30315000D03*
D36*
X-4840000Y-32855000D03*
D36*
X-4840000Y-34125000D03*
D37*
X-10180000Y-34125000D03*
D37*
X-10180000Y-31585000D03*
D36*
X-4840000Y-31585000D03*
D37*
X-10180000Y-30315000D03*
D37*
X-10180000Y-32855000D03*
D38*
X-28175000Y-29780000D03*
D39*
X-25975000Y-29780000D03*
D26*
X9920000Y-32135000D03*
D27*
X8220002Y-32135000D03*
D13*
X-8580000Y-28235000D03*
D12*
X-10180000Y-28235000D03*
M02*
