%FSLAX46Y46*%
%MOMM*%
%ADD12C,0.200000*%
%ADD11C,0.300000*%
%ADD15C,0.400000*%
%ADD10C,0.580000*%
%ADD13C,0.600000*%
%ADD14C,0.800000*%
%ADD16C,1.000000*%
%AMPS43*
1,1,0.600000,0.000000,0.000000*
%
%ADD43PS43*%
%AMPS40*
1,1,2.300000,0.000000,0.000000*
%
%ADD40PS40*%
%AMPS45*
1,1,1.300000,0.000000,0.000000*
%
%ADD45PS45*%
%AMPS48*
1,1,1.700000,0.000000,0.000000*
%
%ADD48PS48*%
%AMPS51*
1,1,1.700000,0.000000,0.000000*
%
%ADD51PS51*%
%AMPS29*
1,1,1.700000,0.000000,0.000000*
%
%ADD29PS29*%
%AMPS33*
21,1,0.800000,0.600000,0.000000,0.000000,0.000000*
%
%ADD33PS33*%
%AMPS32*
21,1,0.800000,0.600000,0.000000,0.000000,180.000000*
%
%ADD32PS32*%
%AMPS46*
21,1,0.600000,1.550000,0.000000,0.000000,0.000000*
%
%ADD46PS46*%
%AMPS50*
21,1,0.600000,1.550000,0.000000,0.000000,90.000000*
%
%ADD50PS50*%
%AMPS47*
21,1,0.600000,1.550000,0.000000,0.000000,180.000000*
%
%ADD47PS47*%
%AMPS49*
21,1,0.600000,1.550000,0.000000,0.000000,270.000000*
%
%ADD49PS49*%
%AMPS27*
21,1,0.900000,1.000000,0.000000,0.000000,0.000000*
%
%ADD27PS27*%
%AMPS28*
21,1,0.900000,1.000000,0.000000,0.000000,180.000000*
%
%ADD28PS28*%
%AMPS22*
21,1,1.600000,3.200000,0.000000,0.000000,90.000000*
%
%ADD22PS22*%
%AMPS21*
21,1,1.600000,3.200000,0.000000,0.000000,270.000000*
%
%ADD21PS21*%
%AMPS52*
21,1,0.400000,0.900000,0.000000,0.000000,90.000000*
%
%ADD52PS52*%
%AMPS53*
21,1,0.400000,0.900000,0.000000,0.000000,270.000000*
%
%ADD53PS53*%
%AMPS17*
21,1,1.300000,1.000000,0.000000,0.000000,0.000000*
%
%ADD17PS17*%
%AMPS18*
21,1,1.300000,1.000000,0.000000,0.000000,180.000000*
%
%ADD18PS18*%
%AMPS30*
21,1,0.600000,1.800000,0.000000,0.000000,0.000000*
%
%ADD30PS30*%
%AMPS31*
21,1,0.600000,1.800000,0.000000,0.000000,180.000000*
%
%ADD31PS31*%
%AMPS42*
21,1,0.701421,1.491421,0.000000,0.000000,90.000000*
%
%ADD42PS42*%
%AMPS41*
21,1,0.701421,1.491421,0.000000,0.000000,270.000000*
%
%ADD41PS41*%
%AMPS44*
21,1,0.500000,0.500000,0.000000,0.000000,0.000000*
%
%ADD44PS44*%
%AMPS26*
21,1,0.700000,0.900000,0.000000,0.000000,0.000000*
%
%ADD26PS26*%
%AMPS25*
21,1,0.700000,0.900000,0.000000,0.000000,180.000000*
%
%ADD25PS25*%
%AMPS38*
21,1,1.800000,1.100000,0.000000,0.000000,0.000000*
%
%ADD38PS38*%
%AMPS23*
21,1,1.800000,1.100000,0.000000,0.000000,90.000000*
%
%ADD23PS23*%
%AMPS39*
21,1,1.800000,1.100000,0.000000,0.000000,180.000000*
%
%ADD39PS39*%
%AMPS24*
21,1,1.800000,1.100000,0.000000,0.000000,270.000000*
%
%ADD24PS24*%
%AMPS35*
21,1,1.831662,1.171341,0.000000,0.000000,0.000000*
%
%ADD35PS35*%
%AMPS34*
21,1,1.831662,1.171341,0.000000,0.000000,180.000000*
%
%ADD34PS34*%
%AMPS20*
21,1,1.000000,0.900000,0.000000,0.000000,0.000000*
%
%ADD20PS20*%
%AMPS36*
21,1,1.000000,0.900000,0.000000,0.000000,90.000000*
%
%ADD36PS36*%
%AMPS19*
21,1,1.000000,0.900000,0.000000,0.000000,180.000000*
%
%ADD19PS19*%
%AMPS37*
21,1,1.000000,0.900000,0.000000,0.000000,270.000000*
%
%ADD37PS37*%
%AMPS58*
1,1,1.400000,0.000000,0.000000*
%
%ADD58PS58*%
%AMPS55*
1,1,0.700000,0.000000,0.000000*
%
%ADD55PS55*%
%AMPS57*
1,1,0.900000,0.000000,0.000000*
%
%ADD57PS57*%
%AMPS56*
1,1,1.000000,0.000000,0.000000*
%
%ADD56PS56*%
%AMPS54*
1,1,0.700000,0.000000,0.000000*
%
%ADD54PS54*%
G01*
%LPD*%
G36*
X62640000Y360000D02*
X62640000Y46640000D01*
X360000Y46640000D01*
X360000Y360000D01*
X62640000Y360000D01*
D02*
G37*
%LPC*%
G36*
X3250000Y44660000D02*
X2371906Y44660000D01*
X2379760Y44712942D01*
X2404565Y44811966D01*
X2438955Y44908079D01*
X2482595Y45000350D01*
X2535084Y45087923D01*
X2595895Y45169917D01*
X2664448Y45245552D01*
X2740083Y45314105D01*
X2822077Y45374916D01*
X2909650Y45427405D01*
X3001921Y45471045D01*
X3098034Y45505435D01*
X3197058Y45530240D01*
X3250000Y45538094D01*
X3250000Y44660000D01*
D02*
G37*
%LPC*%
G36*
X4428094Y44660000D02*
X3550000Y44660000D01*
X3550000Y45538094D01*
X3602942Y45530240D01*
X3701966Y45505435D01*
X3798079Y45471045D01*
X3890350Y45427405D01*
X3977923Y45374916D01*
X4059917Y45314105D01*
X4135552Y45245552D01*
X4204105Y45169917D01*
X4264916Y45087923D01*
X4317405Y45000350D01*
X4361045Y44908079D01*
X4395435Y44811966D01*
X4420240Y44712942D01*
X4428094Y44660000D01*
D02*
G37*
%LPC*%
G36*
X3550000Y43481906D02*
X3550000Y44360000D01*
X4428094Y44360000D01*
X4420240Y44307058D01*
X4395435Y44208034D01*
X4361045Y44111921D01*
X4317405Y44019650D01*
X4264916Y43932077D01*
X4204105Y43850083D01*
X4135552Y43774448D01*
X4059917Y43705895D01*
X3977923Y43645084D01*
X3890350Y43592595D01*
X3798079Y43548955D01*
X3701966Y43514565D01*
X3602942Y43489760D01*
X3550000Y43481906D01*
D02*
G37*
%LPC*%
G36*
X3250000Y43481906D02*
X3197058Y43489760D01*
X3098034Y43514565D01*
X3001921Y43548955D01*
X2909650Y43592595D01*
X2822077Y43645084D01*
X2740083Y43705895D01*
X2664448Y43774448D01*
X2595895Y43850083D01*
X2535084Y43932077D01*
X2482595Y44019650D01*
X2438955Y44111921D01*
X2404565Y44208034D01*
X2379760Y44307058D01*
X2371906Y44360000D01*
X3250000Y44360000D01*
X3250000Y43481906D01*
D02*
G37*
%LPC*%
G36*
X57800000Y42754753D02*
X57735774Y42757909D01*
X57672167Y42767345D01*
X57609790Y42782968D01*
X57549243Y42804634D01*
X57491122Y42832123D01*
X57435966Y42865182D01*
X57384316Y42903488D01*
X57336670Y42946670D01*
X57293488Y42994316D01*
X57255182Y43045966D01*
X57222123Y43101122D01*
X57194634Y43159243D01*
X57172968Y43219790D01*
X57157345Y43282167D01*
X57147909Y43345774D01*
X57144753Y43410000D01*
X57147909Y43474226D01*
X57157345Y43537833D01*
X57172968Y43600210D01*
X57194634Y43660757D01*
X57222123Y43718878D01*
X57255182Y43774034D01*
X57293488Y43825684D01*
X57336670Y43873330D01*
X57384316Y43916512D01*
X57435966Y43954818D01*
X57491122Y43987877D01*
X57549243Y44015366D01*
X57609790Y44037032D01*
X57672167Y44052655D01*
X57735774Y44062091D01*
X57800000Y44065247D01*
X57864226Y44062091D01*
X57927833Y44052655D01*
X57990210Y44037032D01*
X58050757Y44015366D01*
X58108878Y43987877D01*
X58164034Y43954818D01*
X58215684Y43916512D01*
X58263330Y43873330D01*
X58306515Y43825681D01*
X58351517Y43765000D01*
X58734290Y43765000D01*
X58734290Y43955710D01*
X60615710Y43955710D01*
X60615710Y42864290D01*
X58734290Y42864290D01*
X58734290Y43055000D01*
X58351517Y43055000D01*
X58306515Y42994319D01*
X58263330Y42946670D01*
X58215684Y42903488D01*
X58164034Y42865182D01*
X58108878Y42832123D01*
X58050757Y42804634D01*
X57990210Y42782968D01*
X57927833Y42767345D01*
X57864226Y42757909D01*
X57800000Y42754753D01*
D02*
G37*
%LPC*%
G36*
X42752917Y38553382D02*
X42640653Y38558897D01*
X42529464Y38575391D01*
X42420436Y38602701D01*
X42314612Y38640565D01*
X42213007Y38688620D01*
X42116589Y38746411D01*
X42026308Y38813368D01*
X41943029Y38888849D01*
X41867548Y38972128D01*
X41800591Y39062409D01*
X41742800Y39158827D01*
X41694745Y39260432D01*
X41656881Y39366256D01*
X41629571Y39475284D01*
X41613077Y39586473D01*
X41607562Y39698737D01*
X41613077Y39811001D01*
X41629571Y39922190D01*
X41656881Y40031218D01*
X41694745Y40137042D01*
X41742800Y40238647D01*
X41800591Y40335065D01*
X41867548Y40425346D01*
X41943029Y40508625D01*
X42026308Y40584106D01*
X42116589Y40651063D01*
X42213007Y40708854D01*
X42314612Y40756909D01*
X42420436Y40794773D01*
X42529464Y40822083D01*
X42640652Y40838577D01*
X42741485Y40843531D01*
X45742401Y43844448D01*
X45748877Y43852220D01*
X45802222Y43895996D01*
X45863770Y43928893D01*
X45930548Y43949151D01*
X45989923Y43955000D01*
X51584290Y43955000D01*
X51584290Y43955710D01*
X53465710Y43955710D01*
X53465710Y42864290D01*
X51584290Y42864290D01*
X51584290Y43245000D01*
X46147047Y43245000D01*
X43483003Y40580957D01*
X43562809Y40508621D01*
X43638286Y40425346D01*
X43705243Y40335065D01*
X43763034Y40238647D01*
X43811089Y40137042D01*
X43848953Y40031218D01*
X43876263Y39922190D01*
X43892757Y39811001D01*
X43898272Y39698737D01*
X43892757Y39586473D01*
X43876263Y39475284D01*
X43848953Y39366256D01*
X43811089Y39260432D01*
X43763034Y39158827D01*
X43705243Y39062409D01*
X43638286Y38972128D01*
X43562805Y38888849D01*
X43479526Y38813368D01*
X43389245Y38746411D01*
X43292827Y38688620D01*
X43191222Y38640565D01*
X43085398Y38602701D01*
X42976370Y38575391D01*
X42865181Y38558897D01*
X42752917Y38553382D01*
D02*
G37*
%LPC*%
G36*
X31485000Y34910000D02*
X29995000Y34910000D01*
X29995000Y35510000D01*
X26884924Y35510000D01*
X26798238Y35518538D01*
X26705192Y35546762D01*
X26619441Y35592596D01*
X26544159Y35654381D01*
X26537745Y35662220D01*
X24994965Y37205000D01*
X18889924Y37205000D01*
X18803238Y37213538D01*
X18710192Y37241762D01*
X18624441Y37287596D01*
X18549159Y37349381D01*
X18542745Y37357220D01*
X16814965Y39085000D01*
X12008441Y39085000D01*
X11930769Y38980274D01*
X11868467Y38911533D01*
X11799726Y38849231D01*
X11725206Y38793962D01*
X11645644Y38746275D01*
X11561771Y38706606D01*
X11474422Y38675351D01*
X11384435Y38652811D01*
X11292661Y38639197D01*
X11200000Y38634645D01*
X11107339Y38639197D01*
X11015565Y38652811D01*
X10925578Y38675351D01*
X10838229Y38706606D01*
X10754356Y38746275D01*
X10674794Y38793962D01*
X10600274Y38849231D01*
X10531533Y38911533D01*
X10469231Y38980274D01*
X10413962Y39054794D01*
X10366275Y39134356D01*
X10326606Y39218229D01*
X10295351Y39305578D01*
X10272811Y39395565D01*
X10259197Y39487339D01*
X10254645Y39580000D01*
X10259197Y39672662D01*
X10278329Y39801637D01*
X8881637Y41198329D01*
X8752662Y41179197D01*
X8660000Y41174645D01*
X8567339Y41179197D01*
X8475565Y41192811D01*
X8385578Y41215351D01*
X8298229Y41246606D01*
X8214356Y41286275D01*
X8134794Y41333962D01*
X8060274Y41389231D01*
X7991533Y41451533D01*
X7929231Y41520274D01*
X7873962Y41594794D01*
X7826275Y41674356D01*
X7786606Y41758229D01*
X7755351Y41845578D01*
X7732811Y41935565D01*
X7719197Y42027339D01*
X7714645Y42120000D01*
X7719197Y42212661D01*
X7732811Y42304435D01*
X7755351Y42394422D01*
X7786606Y42481771D01*
X7826275Y42565644D01*
X7873962Y42645206D01*
X7929231Y42719726D01*
X7991533Y42788467D01*
X8060274Y42850769D01*
X8134794Y42906038D01*
X8214356Y42953725D01*
X8298229Y42993394D01*
X8385578Y43024649D01*
X8475565Y43047189D01*
X8567339Y43060803D01*
X8660000Y43065355D01*
X8752661Y43060803D01*
X8844435Y43047189D01*
X8934422Y43024649D01*
X9021771Y42993394D01*
X9105644Y42953725D01*
X9185206Y42906038D01*
X9259726Y42850769D01*
X9328467Y42788467D01*
X9390769Y42719726D01*
X9446038Y42645206D01*
X9493725Y42565644D01*
X9533394Y42481771D01*
X9564649Y42394422D01*
X9587189Y42304435D01*
X9600803Y42212661D01*
X9605355Y42120000D01*
X9600803Y42027338D01*
X9581671Y41898363D01*
X10978363Y40501671D01*
X11107338Y40520803D01*
X11200000Y40525355D01*
X11292661Y40520803D01*
X11384435Y40507189D01*
X11474422Y40484649D01*
X11561771Y40453394D01*
X11645644Y40413725D01*
X11725206Y40366038D01*
X11799726Y40310769D01*
X11868467Y40248467D01*
X11930769Y40179726D01*
X12008441Y40075000D01*
X17030076Y40075000D01*
X17116762Y40066461D01*
X17209808Y40038237D01*
X17295557Y39992403D01*
X17362895Y39937138D01*
X19105035Y38195000D01*
X25210076Y38195000D01*
X25296762Y38186461D01*
X25389808Y38158237D01*
X25475557Y38112403D01*
X25542895Y38057138D01*
X27100035Y36500000D01*
X29995000Y36500000D01*
X29995000Y37100000D01*
X31485000Y37100000D01*
X31485000Y34910000D01*
D02*
G37*
%LPC*%
G36*
X25252917Y38553382D02*
X25140653Y38558897D01*
X25029464Y38575391D01*
X24920436Y38602701D01*
X24814612Y38640565D01*
X24713007Y38688620D01*
X24616589Y38746411D01*
X24526308Y38813368D01*
X24443029Y38888849D01*
X24367548Y38972128D01*
X24300591Y39062409D01*
X24242800Y39158827D01*
X24194745Y39260432D01*
X24156881Y39366256D01*
X24129571Y39475284D01*
X24113077Y39586473D01*
X24107562Y39698737D01*
X24113077Y39811001D01*
X24129571Y39922190D01*
X24156881Y40031218D01*
X24194745Y40137042D01*
X24242800Y40238647D01*
X24300591Y40335065D01*
X24370559Y40429406D01*
X23174965Y41625000D01*
X14548441Y41625000D01*
X14470769Y41520274D01*
X14408467Y41451533D01*
X14339726Y41389231D01*
X14265206Y41333962D01*
X14185644Y41286275D01*
X14101771Y41246606D01*
X14014422Y41215351D01*
X13924435Y41192811D01*
X13832661Y41179197D01*
X13740000Y41174645D01*
X13647339Y41179197D01*
X13555565Y41192811D01*
X13465578Y41215351D01*
X13378229Y41246606D01*
X13294356Y41286275D01*
X13214794Y41333962D01*
X13140274Y41389231D01*
X13071533Y41451533D01*
X13009231Y41520274D01*
X12953962Y41594794D01*
X12906275Y41674356D01*
X12866606Y41758229D01*
X12835351Y41845578D01*
X12812811Y41935565D01*
X12799197Y42027339D01*
X12794645Y42120000D01*
X12799197Y42212661D01*
X12812811Y42304435D01*
X12835351Y42394422D01*
X12866606Y42481771D01*
X12906275Y42565644D01*
X12953962Y42645206D01*
X13009231Y42719726D01*
X13071533Y42788467D01*
X13140274Y42850769D01*
X13214794Y42906038D01*
X13294356Y42953725D01*
X13378229Y42993394D01*
X13465578Y43024649D01*
X13555565Y43047189D01*
X13647339Y43060803D01*
X13740000Y43065355D01*
X13832661Y43060803D01*
X13924435Y43047189D01*
X14014422Y43024649D01*
X14101771Y42993394D01*
X14185644Y42953725D01*
X14265206Y42906038D01*
X14339726Y42850769D01*
X14408467Y42788467D01*
X14470769Y42719726D01*
X14548441Y42615000D01*
X23390076Y42615000D01*
X23476762Y42606461D01*
X23569808Y42578237D01*
X23655557Y42532403D01*
X23722895Y42477138D01*
X25360806Y40839227D01*
X25476360Y40822085D01*
X25585398Y40794773D01*
X25691222Y40756909D01*
X25792827Y40708854D01*
X25889245Y40651063D01*
X25979526Y40584106D01*
X26062805Y40508625D01*
X26138286Y40425346D01*
X26205243Y40335065D01*
X26263034Y40238647D01*
X26311089Y40137042D01*
X26348953Y40031218D01*
X26376263Y39922190D01*
X26392757Y39811001D01*
X26398272Y39698737D01*
X26392757Y39586473D01*
X26376263Y39475284D01*
X26348953Y39366256D01*
X26311089Y39260432D01*
X26263034Y39158827D01*
X26205243Y39062409D01*
X26138286Y38972128D01*
X26062805Y38888849D01*
X25979526Y38813368D01*
X25889245Y38746411D01*
X25792827Y38688620D01*
X25691222Y38640565D01*
X25585398Y38602701D01*
X25476370Y38575391D01*
X25365181Y38558897D01*
X25252917Y38553382D01*
D02*
G37*
%LPC*%
G36*
X46175000Y35830000D02*
X44885000Y35830000D01*
X44885000Y37220000D01*
X45225000Y37220000D01*
X45225000Y37940066D01*
X45229887Y37989699D01*
X45247301Y38047098D01*
X45275578Y38100001D01*
X45313137Y38145767D01*
X45320906Y38152241D01*
X46577758Y39409093D01*
X46584232Y39416862D01*
X46629998Y39454421D01*
X46682900Y39482698D01*
X46740300Y39500112D01*
X46789923Y39505000D01*
X48163665Y39505000D01*
X49615000Y40956335D01*
X49615000Y42945000D01*
X50605000Y42945000D01*
X50605000Y40755000D01*
X50276335Y40755000D01*
X48512241Y38990906D01*
X48505767Y38983137D01*
X48460001Y38945578D01*
X48407098Y38917301D01*
X48349699Y38899887D01*
X48300066Y38895000D01*
X46926335Y38895000D01*
X45835000Y37803665D01*
X45835000Y37220000D01*
X46175000Y37220000D01*
X46175000Y35830000D01*
D02*
G37*
%LPC*%
G36*
X47460000Y42000000D02*
X47120000Y42000000D01*
X47120000Y42940000D01*
X47460000Y42940000D01*
X47460000Y42000000D01*
D02*
G37*
%LPC*%
G36*
X48100000Y42000000D02*
X47760000Y42000000D01*
X47760000Y42940000D01*
X48100000Y42940000D01*
X48100000Y42000000D01*
D02*
G37*
%LPC*%
G36*
X47460000Y40760000D02*
X47120000Y40760000D01*
X47120000Y41700000D01*
X47460000Y41700000D01*
X47460000Y40760000D01*
D02*
G37*
%LPC*%
G36*
X48100000Y40760000D02*
X47760000Y40760000D01*
X47760000Y41700000D01*
X48100000Y41700000D01*
X48100000Y40760000D01*
D02*
G37*
%LPC*%
G36*
X57800000Y40214753D02*
X57735774Y40217909D01*
X57672167Y40227345D01*
X57609790Y40242968D01*
X57549243Y40264634D01*
X57491122Y40292123D01*
X57435966Y40325182D01*
X57384316Y40363488D01*
X57336670Y40406670D01*
X57293488Y40454316D01*
X57255182Y40505966D01*
X57222123Y40561122D01*
X57194634Y40619243D01*
X57172968Y40679790D01*
X57157345Y40742167D01*
X57147909Y40805774D01*
X57144753Y40870000D01*
X57147909Y40934226D01*
X57157345Y40997833D01*
X57172968Y41060210D01*
X57194634Y41120757D01*
X57222123Y41178878D01*
X57255182Y41234034D01*
X57293488Y41285684D01*
X57336670Y41333330D01*
X57384316Y41376512D01*
X57435966Y41414818D01*
X57491122Y41447877D01*
X57549243Y41475366D01*
X57609790Y41497032D01*
X57672167Y41512655D01*
X57735774Y41522091D01*
X57800000Y41525247D01*
X57864226Y41522091D01*
X57927833Y41512655D01*
X57990210Y41497032D01*
X58050757Y41475366D01*
X58108878Y41447877D01*
X58164034Y41414818D01*
X58215684Y41376512D01*
X58263330Y41333330D01*
X58306515Y41285681D01*
X58351517Y41225000D01*
X58734290Y41225000D01*
X58734290Y41415710D01*
X60615710Y41415710D01*
X60615710Y40324290D01*
X58734290Y40324290D01*
X58734290Y40515000D01*
X58351517Y40515000D01*
X58306515Y40454319D01*
X58263330Y40406670D01*
X58215684Y40363488D01*
X58164034Y40325182D01*
X58108878Y40292123D01*
X58050757Y40264634D01*
X57990210Y40242968D01*
X57927833Y40227345D01*
X57864226Y40217909D01*
X57800000Y40214753D01*
D02*
G37*
%LPC*%
G36*
X50110000Y32894753D02*
X50045774Y32897909D01*
X49982167Y32907345D01*
X49919790Y32922968D01*
X49859243Y32944634D01*
X49801122Y32972123D01*
X49745966Y33005182D01*
X49694316Y33043488D01*
X49646670Y33086670D01*
X49603488Y33134316D01*
X49565182Y33185966D01*
X49532123Y33241122D01*
X49504634Y33299243D01*
X49482968Y33359790D01*
X49467345Y33422167D01*
X49457909Y33485774D01*
X49454753Y33550000D01*
X49457909Y33614226D01*
X49467345Y33677833D01*
X49482968Y33740210D01*
X49504634Y33800757D01*
X49532123Y33858878D01*
X49565182Y33914034D01*
X49603488Y33965684D01*
X49646670Y34013330D01*
X49694319Y34056515D01*
X49755000Y34101517D01*
X49755000Y34455000D01*
X49615000Y34455000D01*
X49615000Y36645000D01*
X49755000Y36645000D01*
X49755000Y38465066D01*
X49760849Y38524451D01*
X49781106Y38591229D01*
X49814003Y38652777D01*
X49857779Y38706122D01*
X49865551Y38712598D01*
X51584290Y40431336D01*
X51584290Y41415710D01*
X53465710Y41415710D01*
X53465710Y40324290D01*
X52481336Y40324290D01*
X50465000Y38307953D01*
X50465000Y36645000D01*
X50605000Y36645000D01*
X50605000Y34455000D01*
X50465000Y34455000D01*
X50465000Y34101517D01*
X50525681Y34056515D01*
X50573330Y34013330D01*
X50616512Y33965684D01*
X50654818Y33914034D01*
X50687877Y33858878D01*
X50715366Y33800757D01*
X50737032Y33740210D01*
X50752655Y33677833D01*
X50762091Y33614226D01*
X50765247Y33550000D01*
X50762091Y33485774D01*
X50752655Y33422167D01*
X50737032Y33359790D01*
X50715366Y33299243D01*
X50687877Y33241122D01*
X50654818Y33185966D01*
X50616512Y33134316D01*
X50573330Y33086670D01*
X50525684Y33043488D01*
X50474034Y33005182D01*
X50418878Y32972123D01*
X50360757Y32944634D01*
X50300210Y32922968D01*
X50237833Y32907345D01*
X50174226Y32897909D01*
X50110000Y32894753D01*
D02*
G37*
%LPC*%
G36*
X20252917Y38553382D02*
X20140653Y38558897D01*
X20029464Y38575391D01*
X19920436Y38602701D01*
X19814612Y38640565D01*
X19713007Y38688620D01*
X19616589Y38746411D01*
X19526308Y38813368D01*
X19443029Y38888849D01*
X19367548Y38972128D01*
X19300591Y39062409D01*
X19242800Y39158827D01*
X19194745Y39260432D01*
X19156881Y39366256D01*
X19129571Y39475284D01*
X19113077Y39586473D01*
X19107562Y39698737D01*
X19113077Y39811001D01*
X19129571Y39922190D01*
X19156881Y40031218D01*
X19194745Y40137042D01*
X19242800Y40238647D01*
X19300591Y40335065D01*
X19367548Y40425346D01*
X19443029Y40508625D01*
X19526308Y40584106D01*
X19616589Y40651063D01*
X19713007Y40708854D01*
X19814612Y40756909D01*
X19920436Y40794773D01*
X20029464Y40822083D01*
X20140653Y40838577D01*
X20252917Y40844092D01*
X20365181Y40838577D01*
X20476370Y40822083D01*
X20585398Y40794773D01*
X20691222Y40756909D01*
X20792827Y40708854D01*
X20889245Y40651063D01*
X20979526Y40584106D01*
X21062805Y40508625D01*
X21138286Y40425346D01*
X21205243Y40335065D01*
X21263034Y40238647D01*
X21311089Y40137042D01*
X21348953Y40031218D01*
X21376263Y39922190D01*
X21392757Y39811001D01*
X21398272Y39698737D01*
X21392757Y39586473D01*
X21376263Y39475284D01*
X21348953Y39366256D01*
X21311089Y39260432D01*
X21263034Y39158827D01*
X21205243Y39062409D01*
X21138286Y38972128D01*
X21062805Y38888849D01*
X20979526Y38813368D01*
X20889245Y38746411D01*
X20792827Y38688620D01*
X20691222Y38640565D01*
X20585398Y38602701D01*
X20476370Y38575391D01*
X20365181Y38558897D01*
X20252917Y38553382D01*
D02*
G37*
%LPC*%
G36*
X27752917Y38553382D02*
X27640653Y38558897D01*
X27529464Y38575391D01*
X27420436Y38602701D01*
X27314612Y38640565D01*
X27213007Y38688620D01*
X27116589Y38746411D01*
X27026308Y38813368D01*
X26943029Y38888849D01*
X26867548Y38972128D01*
X26800591Y39062409D01*
X26742800Y39158827D01*
X26694745Y39260432D01*
X26656881Y39366256D01*
X26629571Y39475284D01*
X26613077Y39586473D01*
X26607562Y39698737D01*
X26613077Y39811001D01*
X26629571Y39922190D01*
X26656881Y40031218D01*
X26694745Y40137042D01*
X26742800Y40238647D01*
X26800591Y40335065D01*
X26867548Y40425346D01*
X26943029Y40508625D01*
X27026308Y40584106D01*
X27116589Y40651063D01*
X27213007Y40708854D01*
X27314612Y40756909D01*
X27420436Y40794773D01*
X27529464Y40822083D01*
X27640653Y40838577D01*
X27752917Y40844092D01*
X27865181Y40838577D01*
X27976370Y40822083D01*
X28085398Y40794773D01*
X28191222Y40756909D01*
X28292827Y40708854D01*
X28389245Y40651063D01*
X28479526Y40584106D01*
X28562805Y40508625D01*
X28638286Y40425346D01*
X28705243Y40335065D01*
X28763034Y40238647D01*
X28811089Y40137042D01*
X28848953Y40031218D01*
X28876263Y39922190D01*
X28892757Y39811001D01*
X28898272Y39698737D01*
X28892757Y39586473D01*
X28876263Y39475284D01*
X28848953Y39366256D01*
X28811089Y39260432D01*
X28763034Y39158827D01*
X28705243Y39062409D01*
X28638286Y38972128D01*
X28562805Y38888849D01*
X28479526Y38813368D01*
X28389245Y38746411D01*
X28292827Y38688620D01*
X28191222Y38640565D01*
X28085398Y38602701D01*
X27976370Y38575391D01*
X27865181Y38558897D01*
X27752917Y38553382D01*
D02*
G37*
%LPC*%
G36*
X30252917Y38553382D02*
X30140653Y38558897D01*
X30029464Y38575391D01*
X29920436Y38602701D01*
X29814612Y38640565D01*
X29713007Y38688620D01*
X29616589Y38746411D01*
X29526308Y38813368D01*
X29443029Y38888849D01*
X29367548Y38972128D01*
X29300591Y39062409D01*
X29242800Y39158827D01*
X29194745Y39260432D01*
X29156881Y39366256D01*
X29129571Y39475284D01*
X29113077Y39586473D01*
X29107562Y39698737D01*
X29113077Y39811001D01*
X29129571Y39922190D01*
X29156881Y40031218D01*
X29194745Y40137042D01*
X29242800Y40238647D01*
X29300591Y40335065D01*
X29367548Y40425346D01*
X29443029Y40508625D01*
X29526308Y40584106D01*
X29616589Y40651063D01*
X29713007Y40708854D01*
X29814612Y40756909D01*
X29920436Y40794773D01*
X30029464Y40822083D01*
X30140653Y40838577D01*
X30252917Y40844092D01*
X30365181Y40838577D01*
X30476370Y40822083D01*
X30585398Y40794773D01*
X30691222Y40756909D01*
X30792827Y40708854D01*
X30889245Y40651063D01*
X30979526Y40584106D01*
X31062805Y40508625D01*
X31138286Y40425346D01*
X31205243Y40335065D01*
X31263034Y40238647D01*
X31311089Y40137042D01*
X31348953Y40031218D01*
X31376263Y39922190D01*
X31392757Y39811001D01*
X31398272Y39698737D01*
X31392757Y39586473D01*
X31376263Y39475284D01*
X31348953Y39366256D01*
X31311089Y39260432D01*
X31263034Y39158827D01*
X31205243Y39062409D01*
X31138286Y38972128D01*
X31062805Y38888849D01*
X30979526Y38813368D01*
X30889245Y38746411D01*
X30792827Y38688620D01*
X30691222Y38640565D01*
X30585398Y38602701D01*
X30476370Y38575391D01*
X30365181Y38558897D01*
X30252917Y38553382D01*
D02*
G37*
%LPC*%
G36*
X32752917Y38553382D02*
X32640653Y38558897D01*
X32529464Y38575391D01*
X32420436Y38602701D01*
X32314612Y38640565D01*
X32213007Y38688620D01*
X32116589Y38746411D01*
X32026308Y38813368D01*
X31943029Y38888849D01*
X31867548Y38972128D01*
X31800591Y39062409D01*
X31742800Y39158827D01*
X31694745Y39260432D01*
X31656881Y39366256D01*
X31629571Y39475284D01*
X31613077Y39586473D01*
X31607562Y39698737D01*
X31613077Y39811001D01*
X31629571Y39922190D01*
X31656881Y40031218D01*
X31694745Y40137042D01*
X31742800Y40238647D01*
X31800591Y40335065D01*
X31867548Y40425346D01*
X31943029Y40508625D01*
X32026308Y40584106D01*
X32116589Y40651063D01*
X32213007Y40708854D01*
X32314612Y40756909D01*
X32420436Y40794773D01*
X32529464Y40822083D01*
X32640653Y40838577D01*
X32752917Y40844092D01*
X32865181Y40838577D01*
X32976370Y40822083D01*
X33085398Y40794773D01*
X33191222Y40756909D01*
X33292827Y40708854D01*
X33389245Y40651063D01*
X33479526Y40584106D01*
X33562805Y40508625D01*
X33638286Y40425346D01*
X33705243Y40335065D01*
X33763034Y40238647D01*
X33811089Y40137042D01*
X33848953Y40031218D01*
X33876263Y39922190D01*
X33892757Y39811001D01*
X33898272Y39698737D01*
X33892757Y39586473D01*
X33876263Y39475284D01*
X33848953Y39366256D01*
X33811089Y39260432D01*
X33763034Y39158827D01*
X33705243Y39062409D01*
X33638286Y38972128D01*
X33562805Y38888849D01*
X33479526Y38813368D01*
X33389245Y38746411D01*
X33292827Y38688620D01*
X33191222Y38640565D01*
X33085398Y38602701D01*
X32976370Y38575391D01*
X32865181Y38558897D01*
X32752917Y38553382D01*
D02*
G37*
%LPC*%
G36*
X42650000Y33180000D02*
X40710000Y33180000D01*
X40710000Y33380489D01*
X40634999Y33420578D01*
X40588509Y33458732D01*
X40582095Y33466570D01*
X38791570Y35257095D01*
X38783732Y35263509D01*
X38745576Y35310001D01*
X38717301Y35362901D01*
X38699887Y35420301D01*
X38695000Y35469935D01*
X38695000Y37673665D01*
X37812365Y38556301D01*
X37752919Y38553382D01*
X37640653Y38558897D01*
X37529464Y38575391D01*
X37420436Y38602701D01*
X37314612Y38640565D01*
X37213007Y38688620D01*
X37116589Y38746411D01*
X37026308Y38813368D01*
X36943029Y38888849D01*
X36867548Y38972128D01*
X36800591Y39062409D01*
X36742800Y39158827D01*
X36694745Y39260432D01*
X36656881Y39366256D01*
X36629571Y39475284D01*
X36613077Y39586473D01*
X36607562Y39698737D01*
X36613077Y39811001D01*
X36629571Y39922190D01*
X36656881Y40031218D01*
X36694745Y40137042D01*
X36742800Y40238647D01*
X36800591Y40335065D01*
X36867548Y40425346D01*
X36943029Y40508625D01*
X37026308Y40584106D01*
X37116589Y40651063D01*
X37213007Y40708854D01*
X37314612Y40756909D01*
X37420436Y40794773D01*
X37529464Y40822083D01*
X37640653Y40838577D01*
X37752917Y40844092D01*
X37865181Y40838577D01*
X37976370Y40822083D01*
X38085398Y40794773D01*
X38191222Y40756909D01*
X38292827Y40708854D01*
X38389245Y40651063D01*
X38479526Y40584106D01*
X38562805Y40508625D01*
X38638286Y40425346D01*
X38705243Y40335065D01*
X38763034Y40238647D01*
X38811089Y40137042D01*
X38848953Y40031218D01*
X38876263Y39922190D01*
X38892757Y39811001D01*
X38898272Y39698737D01*
X38892757Y39586473D01*
X38876263Y39475284D01*
X38848953Y39366256D01*
X38811089Y39260432D01*
X38763034Y39158827D01*
X38705243Y39062409D01*
X38638286Y38972128D01*
X38562805Y38888849D01*
X38447234Y38784101D01*
X39222792Y38008542D01*
X39254421Y37970002D01*
X39282699Y37917097D01*
X39300110Y37859703D01*
X39305000Y37810075D01*
X39305000Y35606335D01*
X40741335Y34170000D01*
X42650000Y34170000D01*
X42650000Y33180000D01*
D02*
G37*
%LPC*%
G36*
X36281011Y39848737D02*
X35402917Y39848737D01*
X35402917Y40726831D01*
X35455859Y40718977D01*
X35554883Y40694172D01*
X35650996Y40659782D01*
X35743267Y40616142D01*
X35830840Y40563653D01*
X35912834Y40502842D01*
X35988469Y40434289D01*
X36057022Y40358654D01*
X36117833Y40276660D01*
X36170322Y40189087D01*
X36213962Y40096816D01*
X36248352Y40000703D01*
X36273157Y39901679D01*
X36281011Y39848737D01*
D02*
G37*
%LPC*%
G36*
X35102917Y39848737D02*
X34224823Y39848737D01*
X34232677Y39901679D01*
X34257482Y40000703D01*
X34291872Y40096816D01*
X34335512Y40189087D01*
X34388001Y40276660D01*
X34448812Y40358654D01*
X34517365Y40434289D01*
X34593000Y40502842D01*
X34674994Y40563653D01*
X34762567Y40616142D01*
X34854838Y40659782D01*
X34950951Y40694172D01*
X35049975Y40718977D01*
X35102917Y40726831D01*
X35102917Y39848737D01*
D02*
G37*
%LPC*%
G36*
X40102917Y39848737D02*
X39224823Y39848737D01*
X39232677Y39901679D01*
X39257482Y40000703D01*
X39291872Y40096816D01*
X39335512Y40189087D01*
X39388001Y40276660D01*
X39448812Y40358654D01*
X39517365Y40434289D01*
X39593000Y40502842D01*
X39674994Y40563653D01*
X39762567Y40616142D01*
X39854838Y40659782D01*
X39950951Y40694172D01*
X40049975Y40718977D01*
X40102917Y40726831D01*
X40102917Y39848737D01*
D02*
G37*
%LPC*%
G36*
X41281011Y39848737D02*
X40402917Y39848737D01*
X40402917Y40726831D01*
X40455859Y40718977D01*
X40554883Y40694172D01*
X40650996Y40659782D01*
X40743267Y40616142D01*
X40830840Y40563653D01*
X40912834Y40502842D01*
X40988469Y40434289D01*
X41057022Y40358654D01*
X41117833Y40276660D01*
X41170322Y40189087D01*
X41213962Y40096816D01*
X41248352Y40000703D01*
X41273157Y39901679D01*
X41281011Y39848737D01*
D02*
G37*
%LPC*%
G36*
X23781011Y39848737D02*
X22902917Y39848737D01*
X22902917Y40726831D01*
X22955859Y40718977D01*
X23054883Y40694172D01*
X23150996Y40659782D01*
X23243267Y40616142D01*
X23330840Y40563653D01*
X23412834Y40502842D01*
X23488469Y40434289D01*
X23557022Y40358654D01*
X23617833Y40276660D01*
X23670322Y40189087D01*
X23713962Y40096816D01*
X23748352Y40000703D01*
X23773157Y39901679D01*
X23781011Y39848737D01*
D02*
G37*
%LPC*%
G36*
X22602917Y39848737D02*
X21724823Y39848737D01*
X21732677Y39901679D01*
X21757482Y40000703D01*
X21791872Y40096816D01*
X21835512Y40189087D01*
X21888001Y40276660D01*
X21948812Y40358654D01*
X22017365Y40434289D01*
X22093000Y40502842D01*
X22174994Y40563653D01*
X22262567Y40616142D01*
X22354838Y40659782D01*
X22450951Y40694172D01*
X22549975Y40718977D01*
X22602917Y40726831D01*
X22602917Y39848737D01*
D02*
G37*
%LPC*%
G36*
X40402917Y38670643D02*
X40402917Y39548737D01*
X41281011Y39548737D01*
X41273157Y39495795D01*
X41248352Y39396771D01*
X41213962Y39300658D01*
X41170322Y39208387D01*
X41117833Y39120814D01*
X41057022Y39038820D01*
X40988469Y38963185D01*
X40912834Y38894632D01*
X40830840Y38833821D01*
X40743267Y38781332D01*
X40650996Y38737692D01*
X40554883Y38703302D01*
X40455859Y38678497D01*
X40402917Y38670643D01*
D02*
G37*
%LPC*%
G36*
X40102917Y38670643D02*
X40049975Y38678497D01*
X39950951Y38703302D01*
X39854838Y38737692D01*
X39762567Y38781332D01*
X39674994Y38833821D01*
X39593000Y38894632D01*
X39517365Y38963185D01*
X39448812Y39038820D01*
X39388001Y39120814D01*
X39335512Y39208387D01*
X39291872Y39300658D01*
X39257482Y39396771D01*
X39232677Y39495795D01*
X39224823Y39548737D01*
X40102917Y39548737D01*
X40102917Y38670643D01*
D02*
G37*
%LPC*%
G36*
X35402917Y38670643D02*
X35402917Y39548737D01*
X36281011Y39548737D01*
X36273157Y39495795D01*
X36248352Y39396771D01*
X36213962Y39300658D01*
X36170322Y39208387D01*
X36117833Y39120814D01*
X36057022Y39038820D01*
X35988469Y38963185D01*
X35912834Y38894632D01*
X35830840Y38833821D01*
X35743267Y38781332D01*
X35650996Y38737692D01*
X35554883Y38703302D01*
X35455859Y38678497D01*
X35402917Y38670643D01*
D02*
G37*
%LPC*%
G36*
X35102917Y38670643D02*
X35049975Y38678497D01*
X34950951Y38703302D01*
X34854838Y38737692D01*
X34762567Y38781332D01*
X34674994Y38833821D01*
X34593000Y38894632D01*
X34517365Y38963185D01*
X34448812Y39038820D01*
X34388001Y39120814D01*
X34335512Y39208387D01*
X34291872Y39300658D01*
X34257482Y39396771D01*
X34232677Y39495795D01*
X34224823Y39548737D01*
X35102917Y39548737D01*
X35102917Y38670643D01*
D02*
G37*
%LPC*%
G36*
X22902917Y38670643D02*
X22902917Y39548737D01*
X23781011Y39548737D01*
X23773157Y39495795D01*
X23748352Y39396771D01*
X23713962Y39300658D01*
X23670322Y39208387D01*
X23617833Y39120814D01*
X23557022Y39038820D01*
X23488469Y38963185D01*
X23412834Y38894632D01*
X23330840Y38833821D01*
X23243267Y38781332D01*
X23150996Y38737692D01*
X23054883Y38703302D01*
X22955859Y38678497D01*
X22902917Y38670643D01*
D02*
G37*
%LPC*%
G36*
X22602917Y38670643D02*
X22549975Y38678497D01*
X22450951Y38703302D01*
X22354838Y38737692D01*
X22262567Y38781332D01*
X22174994Y38833821D01*
X22093000Y38894632D01*
X22017365Y38963185D01*
X21948812Y39038820D01*
X21888001Y39120814D01*
X21835512Y39208387D01*
X21791872Y39300658D01*
X21757482Y39396771D01*
X21732677Y39495795D01*
X21724823Y39548737D01*
X22602917Y39548737D01*
X22602917Y38670643D01*
D02*
G37*
%LPC*%
G36*
X53465710Y37784290D02*
X51584290Y37784290D01*
X51584290Y38875710D01*
X53465710Y38875710D01*
X53465710Y38685000D01*
X58734290Y38685000D01*
X58734290Y38875710D01*
X60615710Y38875710D01*
X60615710Y37784290D01*
X58734290Y37784290D01*
X58734290Y37975000D01*
X53465710Y37975000D01*
X53465710Y37784290D01*
D02*
G37*
%LPC*%
G36*
X37310000Y33180000D02*
X35370000Y33180000D01*
X35370000Y33370000D01*
X27614935Y33370000D01*
X27565301Y33374887D01*
X27507901Y33392301D01*
X27455001Y33420576D01*
X27408509Y33458732D01*
X27402095Y33466570D01*
X24523665Y36345000D01*
X4407067Y36345000D01*
X4352326Y36253672D01*
X4285369Y36163391D01*
X4209888Y36080112D01*
X4126609Y36004631D01*
X4036328Y35937674D01*
X3939910Y35879883D01*
X3838305Y35831828D01*
X3732481Y35793964D01*
X3623453Y35766654D01*
X3512264Y35750160D01*
X3400000Y35744645D01*
X3287736Y35750160D01*
X3176547Y35766654D01*
X3067519Y35793964D01*
X2961695Y35831828D01*
X2860090Y35879883D01*
X2763672Y35937674D01*
X2673391Y36004631D01*
X2590112Y36080112D01*
X2514631Y36163391D01*
X2447674Y36253672D01*
X2389883Y36350090D01*
X2341828Y36451695D01*
X2303964Y36557519D01*
X2276654Y36666547D01*
X2260160Y36777736D01*
X2254645Y36890000D01*
X2260160Y37002264D01*
X2276654Y37113453D01*
X2303964Y37222481D01*
X2341828Y37328305D01*
X2389883Y37429910D01*
X2447674Y37526328D01*
X2514631Y37616609D01*
X2590112Y37699888D01*
X2673391Y37775369D01*
X2763672Y37842326D01*
X2860090Y37900117D01*
X2961695Y37948172D01*
X3067519Y37986036D01*
X3176547Y38013346D01*
X3287736Y38029840D01*
X3400000Y38035355D01*
X3512264Y38029840D01*
X3623453Y38013346D01*
X3732481Y37986036D01*
X3838305Y37948172D01*
X3939910Y37900117D01*
X4036328Y37842326D01*
X4126609Y37775369D01*
X4209888Y37699888D01*
X4285369Y37616609D01*
X4352326Y37526328D01*
X4410117Y37429910D01*
X4458172Y37328305D01*
X4496036Y37222481D01*
X4523346Y37113453D01*
X4546852Y36955000D01*
X24660075Y36955000D01*
X24709703Y36950110D01*
X24767097Y36932699D01*
X24820002Y36904421D01*
X24858542Y36872792D01*
X27751335Y33980000D01*
X35370000Y33980000D01*
X35370000Y34170000D01*
X37310000Y34170000D01*
X37310000Y33180000D01*
D02*
G37*
%LPC*%
G36*
X42650000Y35720000D02*
X40710000Y35720000D01*
X40710000Y36710000D01*
X42650000Y36710000D01*
X42650000Y36520000D01*
X43285000Y36520000D01*
X43285000Y37220000D01*
X44575000Y37220000D01*
X44575000Y35830000D01*
X43285000Y35830000D01*
X43285000Y35910000D01*
X42650000Y35910000D01*
X42650000Y35720000D01*
D02*
G37*
%LPC*%
G36*
X34485000Y34910000D02*
X32995000Y34910000D01*
X32995000Y37100000D01*
X34485000Y37100000D01*
X34485000Y36710000D01*
X37310000Y36710000D01*
X37310000Y35720000D01*
X34485000Y35720000D01*
X34485000Y34910000D01*
D02*
G37*
%LPC*%
G36*
X58445000Y28575000D02*
X43945000Y28575000D01*
X43945000Y30455000D01*
X46545000Y30455000D01*
X46545000Y32055000D01*
X51245000Y32055000D01*
X51245000Y36675000D01*
X53805000Y36675000D01*
X53805000Y33705000D01*
X58445000Y33705000D01*
X58445000Y28575000D01*
D02*
G37*
%LPD*%
G36*
X58190000Y28830000D02*
X58190000Y33450000D01*
X53550000Y33450000D01*
X53550000Y36420000D01*
X51500000Y36420000D01*
X51500000Y31800000D01*
X46800000Y31800000D01*
X46800000Y30200000D01*
X44200000Y30200000D01*
X44200000Y28830000D01*
X58190000Y28830000D01*
D02*
G37*
%LPC*%
G36*
X47460000Y35700000D02*
X47120000Y35700000D01*
X47120000Y36640000D01*
X47460000Y36640000D01*
X47460000Y35700000D01*
D02*
G37*
%LPC*%
G36*
X48100000Y35700000D02*
X47760000Y35700000D01*
X47760000Y36640000D01*
X48100000Y36640000D01*
X48100000Y35700000D01*
D02*
G37*
%LPC*%
G36*
X59675000Y30364753D02*
X59586268Y30369113D01*
X59498388Y30382149D01*
X59412224Y30403731D01*
X59328579Y30433661D01*
X59248263Y30471648D01*
X59172079Y30517310D01*
X59100715Y30570237D01*
X59034894Y30629894D01*
X58975237Y30695715D01*
X58922310Y30767079D01*
X58876648Y30843263D01*
X58838661Y30923579D01*
X58808731Y31007224D01*
X58787149Y31093388D01*
X58774113Y31181268D01*
X58769753Y31270000D01*
X58774113Y31358732D01*
X58787149Y31446612D01*
X58808731Y31532776D01*
X58838661Y31616421D01*
X58876648Y31696737D01*
X58922310Y31772921D01*
X58975237Y31844285D01*
X59034892Y31910104D01*
X59070000Y31941923D01*
X59070000Y32575000D01*
X59030000Y32575000D01*
X59030000Y33365000D01*
X59170000Y33365000D01*
X59170000Y35244290D01*
X58734290Y35244290D01*
X58734290Y36335710D01*
X60615710Y36335710D01*
X60615710Y35244290D01*
X60180000Y35244290D01*
X60180000Y33365000D01*
X60320000Y33365000D01*
X60320000Y32575000D01*
X60280000Y32575000D01*
X60280000Y31941923D01*
X60315108Y31910104D01*
X60374763Y31844285D01*
X60427690Y31772921D01*
X60473352Y31696737D01*
X60511339Y31616421D01*
X60541269Y31532776D01*
X60562851Y31446612D01*
X60575887Y31358732D01*
X60580247Y31270000D01*
X60575887Y31181268D01*
X60562851Y31093388D01*
X60541269Y31007224D01*
X60511339Y30923579D01*
X60473352Y30843263D01*
X60427690Y30767079D01*
X60374763Y30695715D01*
X60315106Y30629894D01*
X60249285Y30570237D01*
X60177921Y30517310D01*
X60101737Y30471648D01*
X60021421Y30433661D01*
X59937776Y30403731D01*
X59851612Y30382149D01*
X59763732Y30369113D01*
X59675000Y30364753D01*
D02*
G37*
%LPC*%
G36*
X18490000Y31985000D02*
X15370000Y31985000D01*
X15370000Y32975000D01*
X17400000Y32975000D01*
X17400000Y33785000D01*
X17150000Y33785000D01*
X17150000Y35975000D01*
X18640000Y35975000D01*
X18640000Y33785000D01*
X18390000Y33785000D01*
X18390000Y32975000D01*
X18490000Y32975000D01*
X18490000Y31985000D01*
D02*
G37*
%LPC*%
G36*
X12930000Y31100000D02*
X11940000Y31100000D01*
X11940000Y33785000D01*
X11920000Y33785000D01*
X11920000Y35975000D01*
X13410000Y35975000D01*
X13410000Y35585000D01*
X14150000Y35585000D01*
X14150000Y35975000D01*
X15640000Y35975000D01*
X15640000Y33785000D01*
X14150000Y33785000D01*
X14150000Y34175000D01*
X13410000Y34175000D01*
X13410000Y33785000D01*
X12930000Y33785000D01*
X12930000Y31100000D01*
D02*
G37*
%LPC*%
G36*
X5440000Y28985000D02*
X3250000Y28985000D01*
X3250000Y30475000D01*
X3850000Y30475000D01*
X3850000Y32515075D01*
X3858538Y32601761D01*
X3886762Y32694807D01*
X3932596Y32780558D01*
X3993789Y32855119D01*
X4001556Y32861591D01*
X6363408Y35223443D01*
X6369880Y35231210D01*
X6444441Y35292403D01*
X6530191Y35338237D01*
X6623238Y35366462D01*
X6709924Y35375000D01*
X6890000Y35375000D01*
X6890000Y35525000D01*
X8280000Y35525000D01*
X8280000Y35485000D01*
X8920000Y35485000D01*
X8920000Y35975000D01*
X10410000Y35975000D01*
X10410000Y33785000D01*
X8920000Y33785000D01*
X8920000Y34275000D01*
X8280000Y34275000D01*
X8280000Y34235000D01*
X6775035Y34235000D01*
X4840000Y32299965D01*
X4840000Y30475000D01*
X5440000Y30475000D01*
X5440000Y28985000D01*
D02*
G37*
%LPC*%
G36*
X37915000Y29825000D02*
X37025000Y29825000D01*
X37025000Y30715000D01*
X37483665Y30715000D01*
X37695000Y30926335D01*
X37695000Y34093665D01*
X37338665Y34450000D01*
X35370000Y34450000D01*
X35370000Y35440000D01*
X37310000Y35440000D01*
X37310000Y35252602D01*
X37392101Y35227697D01*
X37445002Y35199421D01*
X37483542Y35167792D01*
X38222792Y34428542D01*
X38254421Y34390002D01*
X38282699Y34337097D01*
X38300110Y34279703D01*
X38305000Y34230075D01*
X38305000Y30789923D01*
X38300112Y30740300D01*
X38282698Y30682900D01*
X38254421Y30629998D01*
X38216862Y30584232D01*
X38209093Y30577758D01*
X37915000Y30283665D01*
X37915000Y29825000D01*
D02*
G37*
%LPC*%
G36*
X44575000Y33900000D02*
X43285000Y33900000D01*
X43285000Y34640000D01*
X42650000Y34640000D01*
X42650000Y34450000D01*
X40710000Y34450000D01*
X40710000Y35440000D01*
X42650000Y35440000D01*
X42650000Y35250000D01*
X43285000Y35250000D01*
X43285000Y35290000D01*
X44575000Y35290000D01*
X44575000Y33900000D01*
D02*
G37*
%LPC*%
G36*
X47460000Y34460000D02*
X47120000Y34460000D01*
X47120000Y35400000D01*
X47460000Y35400000D01*
X47460000Y34460000D01*
D02*
G37*
%LPC*%
G36*
X48100000Y34460000D02*
X47760000Y34460000D01*
X47760000Y35400000D01*
X48100000Y35400000D01*
X48100000Y34460000D01*
D02*
G37*
%LPC*%
G36*
X46075000Y30770000D02*
X44985000Y30770000D01*
X44985000Y32060000D01*
X45225000Y32060000D01*
X45225000Y33900000D01*
X44885000Y33900000D01*
X44885000Y35290000D01*
X46175000Y35290000D01*
X46175000Y33900000D01*
X45835000Y33900000D01*
X45835000Y32060000D01*
X46075000Y32060000D01*
X46075000Y30770000D01*
D02*
G37*
%LPC*%
G36*
X25735000Y28695000D02*
X20845000Y28695000D01*
X20845000Y29690000D01*
X17040000Y29690000D01*
X17040000Y31535000D01*
X20845000Y31535000D01*
X20845000Y34555000D01*
X25735000Y34555000D01*
X25735000Y28695000D01*
D02*
G37*
%LPD*%
G36*
X25480000Y28950000D02*
X25480000Y34300000D01*
X21100000Y34300000D01*
X21100000Y31280000D01*
X17295000Y31280000D01*
X17295000Y29945000D01*
X21100000Y29945000D01*
X21100000Y28950000D01*
X25480000Y28950000D01*
D02*
G37*
%LPC*%
G36*
X10390000Y31100000D02*
X9400000Y31100000D01*
X9400000Y31575000D01*
X8784924Y31575000D01*
X8698238Y31583538D01*
X8605192Y31611762D01*
X8519441Y31657596D01*
X8444159Y31719381D01*
X8437745Y31727220D01*
X7529966Y32635000D01*
X6890000Y32635000D01*
X6890000Y33925000D01*
X8280000Y33925000D01*
X8280000Y33285034D01*
X9000035Y32565000D01*
X9400000Y32565000D01*
X9400000Y33040000D01*
X10390000Y33040000D01*
X10390000Y32080069D01*
X10390992Y32069999D01*
X10390000Y32059928D01*
X10390000Y31100000D01*
D02*
G37*
%LPC*%
G36*
X13705000Y29264752D02*
X13635883Y29268148D01*
X13567405Y29278307D01*
X13500284Y29295118D01*
X13435114Y29318438D01*
X13372551Y29348027D01*
X13313179Y29383614D01*
X13257599Y29424834D01*
X13206315Y29471315D01*
X13159834Y29522599D01*
X13118614Y29578179D01*
X13083027Y29637551D01*
X13053438Y29700114D01*
X13030118Y29765284D01*
X13013307Y29832405D01*
X13003148Y29900883D01*
X12999752Y29970000D01*
X13003148Y30039117D01*
X13013307Y30107595D01*
X13030118Y30174716D01*
X13053438Y30239886D01*
X13083027Y30302449D01*
X13118614Y30361821D01*
X13159834Y30417401D01*
X13210000Y30472751D01*
X13210000Y33040000D01*
X14200000Y33040000D01*
X14200000Y30465000D01*
X14949963Y30465000D01*
X15370000Y30885036D01*
X15370000Y31275002D01*
X15954947Y31275002D01*
X15965000Y31275992D01*
X15975053Y31275002D01*
X16560000Y31275002D01*
X16560000Y30285002D01*
X16170034Y30285002D01*
X15511589Y29626556D01*
X15505117Y29618789D01*
X15430556Y29557596D01*
X15344805Y29511762D01*
X15251759Y29483538D01*
X15165073Y29475000D01*
X14207751Y29475000D01*
X14152401Y29424834D01*
X14096821Y29383614D01*
X14037449Y29348027D01*
X13974886Y29318438D01*
X13909716Y29295118D01*
X13842595Y29278307D01*
X13774117Y29268148D01*
X13705000Y29264752D01*
D02*
G37*
%LPC*%
G36*
X11655000Y32220000D02*
X11315000Y32220000D01*
X11315000Y33035000D01*
X11655000Y33035000D01*
X11655000Y32220000D01*
D02*
G37*
%LPC*%
G36*
X11015000Y32220000D02*
X10675000Y32220000D01*
X10675000Y33035000D01*
X11015000Y33035000D01*
X11015000Y32220000D01*
D02*
G37*
%LPC*%
G36*
X20515000Y32530002D02*
X19975000Y32530002D01*
X19975000Y33020002D01*
X20515000Y33020002D01*
X20515000Y32530002D01*
D02*
G37*
%LPC*%
G36*
X19675000Y32530002D02*
X19135000Y32530002D01*
X19135000Y33020002D01*
X19675000Y33020002D01*
X19675000Y32530002D01*
D02*
G37*
%LPC*%
G36*
X41680000Y27609753D02*
X41591268Y27614113D01*
X41503388Y27627149D01*
X41417224Y27648731D01*
X41333579Y27678661D01*
X41253263Y27716648D01*
X41177079Y27762310D01*
X41105715Y27815237D01*
X41039894Y27874894D01*
X40980237Y27940715D01*
X40927310Y28012079D01*
X40881648Y28088263D01*
X40843661Y28168579D01*
X40813731Y28252224D01*
X40792149Y28338388D01*
X40779113Y28426268D01*
X40774753Y28515000D01*
X40779113Y28603732D01*
X40792149Y28691612D01*
X40813731Y28777776D01*
X40843661Y28861421D01*
X40881648Y28941737D01*
X40927310Y29017921D01*
X40980237Y29089285D01*
X41039892Y29155104D01*
X41075000Y29186923D01*
X41075000Y29630000D01*
X41035000Y29630000D01*
X41035000Y31020000D01*
X41175000Y31020000D01*
X41175000Y31910000D01*
X40710000Y31910000D01*
X40710000Y32900000D01*
X41568410Y32900000D01*
X41680000Y32910992D01*
X41791590Y32900000D01*
X42650000Y32900000D01*
X42650000Y31910000D01*
X42185000Y31910000D01*
X42185000Y31020000D01*
X42325000Y31020000D01*
X42325000Y29630000D01*
X42285000Y29630000D01*
X42285000Y29186923D01*
X42320108Y29155104D01*
X42379763Y29089285D01*
X42432690Y29017921D01*
X42478352Y28941737D01*
X42516339Y28861421D01*
X42546269Y28777776D01*
X42567851Y28691612D01*
X42580887Y28603732D01*
X42585247Y28515000D01*
X42580887Y28426268D01*
X42567851Y28338388D01*
X42546269Y28252224D01*
X42516339Y28168579D01*
X42478352Y28088263D01*
X42432690Y28012079D01*
X42379763Y27940715D01*
X42320106Y27874894D01*
X42254285Y27815237D01*
X42182921Y27762310D01*
X42106737Y27716648D01*
X42026421Y27678661D01*
X41942776Y27648731D01*
X41856612Y27627149D01*
X41768732Y27614113D01*
X41680000Y27609753D01*
D02*
G37*
%LPC*%
G36*
X37305000Y32555000D02*
X36490000Y32555000D01*
X36490000Y32895000D01*
X37305000Y32895000D01*
X37305000Y32555000D01*
D02*
G37*
%LPC*%
G36*
X36190000Y32555000D02*
X35375000Y32555000D01*
X35375000Y32895000D01*
X36190000Y32895000D01*
X36190000Y32555000D01*
D02*
G37*
%LPC*%
G36*
X37305000Y31915000D02*
X36490000Y31915000D01*
X36490000Y32255000D01*
X37305000Y32255000D01*
X37305000Y31915000D01*
D02*
G37*
%LPC*%
G36*
X36190000Y31915000D02*
X35375000Y31915000D01*
X35375000Y32255000D01*
X36190000Y32255000D01*
X36190000Y31915000D01*
D02*
G37*
%LPC*%
G36*
X20515000Y31740002D02*
X19975000Y31740002D01*
X19975000Y32230002D01*
X20515000Y32230002D01*
X20515000Y31740002D01*
D02*
G37*
%LPC*%
G36*
X19675000Y31740002D02*
X19135000Y31740002D01*
X19135000Y32230002D01*
X19675000Y32230002D01*
X19675000Y31740002D01*
D02*
G37*
%LPC*%
G36*
X44770000Y31565000D02*
X44380000Y31565000D01*
X44380000Y32055000D01*
X44770000Y32055000D01*
X44770000Y31565000D01*
D02*
G37*
%LPC*%
G36*
X44080000Y31565000D02*
X43690000Y31565000D01*
X43690000Y32055000D01*
X44080000Y32055000D01*
X44080000Y31565000D01*
D02*
G37*
%LPC*%
G36*
X11015000Y31105000D02*
X10675000Y31105000D01*
X10675000Y31920000D01*
X11015000Y31920000D01*
X11015000Y31105000D01*
D02*
G37*
%LPC*%
G36*
X11655000Y31105000D02*
X11315000Y31105000D01*
X11315000Y31920000D01*
X11655000Y31920000D01*
X11655000Y31105000D01*
D02*
G37*
%LPC*%
G36*
X29969995Y30600001D02*
X28329995Y30600001D01*
X28329995Y31440001D01*
X29969995Y31440001D01*
X29969995Y30600001D01*
D02*
G37*
%LPC*%
G36*
X28029995Y30600001D02*
X26389995Y30600001D01*
X26389995Y31440001D01*
X28029995Y31440001D01*
X28029995Y30600001D01*
D02*
G37*
%LPC*%
G36*
X44770000Y30775000D02*
X44380000Y30775000D01*
X44380000Y31265000D01*
X44770000Y31265000D01*
X44770000Y30775000D01*
D02*
G37*
%LPC*%
G36*
X44080000Y30775000D02*
X43690000Y30775000D01*
X43690000Y31265000D01*
X44080000Y31265000D01*
X44080000Y30775000D01*
D02*
G37*
%LPC*%
G36*
X40720000Y30475000D02*
X40230000Y30475000D01*
X40230000Y31015000D01*
X40720000Y31015000D01*
X40720000Y30475000D01*
D02*
G37*
%LPC*%
G36*
X39930000Y30475000D02*
X39440000Y30475000D01*
X39440000Y31015000D01*
X39930000Y31015000D01*
X39930000Y30475000D01*
D02*
G37*
%LPC*%
G36*
X34780000Y30420000D02*
X34463633Y30420000D01*
X34477089Y30457605D01*
X34497655Y30501089D01*
X34522394Y30542362D01*
X34551043Y30580992D01*
X34583355Y30616645D01*
X34619008Y30648957D01*
X34657638Y30677606D01*
X34698911Y30702345D01*
X34742395Y30722911D01*
X34780000Y30736367D01*
X34780000Y30420000D01*
D02*
G37*
%LPC*%
G36*
X35396367Y30420000D02*
X35080000Y30420000D01*
X35080000Y30736367D01*
X35117605Y30722911D01*
X35161089Y30702345D01*
X35202362Y30677606D01*
X35240992Y30648957D01*
X35276645Y30616645D01*
X35308957Y30580992D01*
X35337606Y30542362D01*
X35362345Y30501089D01*
X35382911Y30457605D01*
X35396367Y30420000D01*
D02*
G37*
%LPC*%
G36*
X36050000Y30420000D02*
X35760000Y30420000D01*
X35760000Y30710000D01*
X36050000Y30710000D01*
X36050000Y30420000D01*
D02*
G37*
%LPC*%
G36*
X36640000Y30420000D02*
X36350000Y30420000D01*
X36350000Y30710000D01*
X36640000Y30710000D01*
X36640000Y30420000D01*
D02*
G37*
%LPC*%
G36*
X8365000Y29880000D02*
X7425000Y29880000D01*
X7425000Y30470000D01*
X8365000Y30470000D01*
X8365000Y29880000D01*
D02*
G37*
%LPC*%
G36*
X7125000Y29880000D02*
X6185000Y29880000D01*
X6185000Y30470000D01*
X7125000Y30470000D01*
X7125000Y29880000D01*
D02*
G37*
%LPC*%
G36*
X29969995Y29460001D02*
X28329995Y29460001D01*
X28329995Y30300001D01*
X29969995Y30300001D01*
X29969995Y29460001D01*
D02*
G37*
%LPC*%
G36*
X28029995Y29460001D02*
X26389995Y29460001D01*
X26389995Y30300001D01*
X28029995Y30300001D01*
X28029995Y29460001D01*
D02*
G37*
%LPC*%
G36*
X40720000Y29635000D02*
X40230000Y29635000D01*
X40230000Y30175000D01*
X40720000Y30175000D01*
X40720000Y29635000D01*
D02*
G37*
%LPC*%
G36*
X39930000Y29635000D02*
X39440000Y29635000D01*
X39440000Y30175000D01*
X39930000Y30175000D01*
X39930000Y29635000D01*
D02*
G37*
%LPC*%
G36*
X36050000Y29830000D02*
X35760000Y29830000D01*
X35760000Y30120000D01*
X36050000Y30120000D01*
X36050000Y29830000D01*
D02*
G37*
%LPC*%
G36*
X34780000Y29803633D02*
X34742395Y29817089D01*
X34698911Y29837655D01*
X34657638Y29862394D01*
X34619008Y29891043D01*
X34583355Y29923355D01*
X34551043Y29959008D01*
X34522394Y29997638D01*
X34497655Y30038911D01*
X34477089Y30082395D01*
X34463633Y30120000D01*
X34780000Y30120000D01*
X34780000Y29803633D01*
D02*
G37*
%LPC*%
G36*
X35080000Y29803633D02*
X35080000Y30120000D01*
X35396367Y30120000D01*
X35382911Y30082395D01*
X35362345Y30038911D01*
X35337606Y29997638D01*
X35308957Y29959008D01*
X35276645Y29923355D01*
X35240992Y29891043D01*
X35202362Y29862394D01*
X35161089Y29837655D01*
X35117605Y29817089D01*
X35080000Y29803633D01*
D02*
G37*
%LPC*%
G36*
X36640000Y29830000D02*
X36350000Y29830000D01*
X36350000Y30120000D01*
X36640000Y30120000D01*
X36640000Y29830000D01*
D02*
G37*
%LPC*%
G36*
X8365000Y28990000D02*
X7425000Y28990000D01*
X7425000Y29580000D01*
X8365000Y29580000D01*
X8365000Y28990000D01*
D02*
G37*
%LPC*%
G36*
X7125000Y28990000D02*
X6185000Y28990000D01*
X6185000Y29580000D01*
X7125000Y29580000D01*
X7125000Y28990000D01*
D02*
G37*
%LPC*%
G36*
X37320000Y29150000D02*
X37003633Y29150000D01*
X37017089Y29187605D01*
X37037655Y29231089D01*
X37062394Y29272362D01*
X37091043Y29310992D01*
X37123355Y29346645D01*
X37159008Y29378957D01*
X37197638Y29407606D01*
X37238911Y29432345D01*
X37282395Y29452911D01*
X37320000Y29466367D01*
X37320000Y29150000D01*
D02*
G37*
%LPC*%
G36*
X37936367Y29150000D02*
X37620000Y29150000D01*
X37620000Y29466367D01*
X37657605Y29452911D01*
X37701089Y29432345D01*
X37742362Y29407606D01*
X37780992Y29378957D01*
X37816645Y29346645D01*
X37848957Y29310992D01*
X37877606Y29272362D01*
X37902345Y29231089D01*
X37922911Y29187605D01*
X37936367Y29150000D01*
D02*
G37*
%LPC*%
G36*
X36200000Y26894752D02*
X36130883Y26898148D01*
X36062405Y26908307D01*
X35995284Y26925118D01*
X35930114Y26948438D01*
X35867551Y26978027D01*
X35808179Y27013614D01*
X35752599Y27054834D01*
X35701315Y27101315D01*
X35654834Y27152599D01*
X35613614Y27208179D01*
X35578027Y27267551D01*
X35548438Y27330114D01*
X35525118Y27395284D01*
X35508307Y27462405D01*
X35498149Y27530881D01*
X35494752Y27600000D01*
X35498148Y27669117D01*
X35508307Y27737595D01*
X35525118Y27804716D01*
X35548438Y27869886D01*
X35578027Y27932449D01*
X35613614Y27991821D01*
X35654834Y28047401D01*
X35701315Y28098685D01*
X35752597Y28145164D01*
X35795000Y28176613D01*
X35795000Y28555000D01*
X35755000Y28555000D01*
X35755000Y29445000D01*
X36645000Y29445000D01*
X36645000Y28555000D01*
X36605000Y28555000D01*
X36605000Y28176613D01*
X36647403Y28145164D01*
X36698685Y28098685D01*
X36745166Y28047401D01*
X36786386Y27991821D01*
X36821973Y27932449D01*
X36851562Y27869886D01*
X36874882Y27804716D01*
X36891693Y27737595D01*
X36901852Y27669117D01*
X36905248Y27600000D01*
X36901851Y27530881D01*
X36891693Y27462405D01*
X36874882Y27395284D01*
X36851562Y27330114D01*
X36821973Y27267551D01*
X36786386Y27208179D01*
X36745166Y27152599D01*
X36698685Y27101315D01*
X36647401Y27054834D01*
X36591821Y27013614D01*
X36532449Y26978027D01*
X36469886Y26948438D01*
X36404716Y26925118D01*
X36337595Y26908307D01*
X36269117Y26898148D01*
X36200000Y26894752D01*
D02*
G37*
%LPC*%
G36*
X35370000Y29150000D02*
X35080000Y29150000D01*
X35080000Y29440000D01*
X35370000Y29440000D01*
X35370000Y29150000D01*
D02*
G37*
%LPC*%
G36*
X34780000Y29150000D02*
X34490000Y29150000D01*
X34490000Y29440000D01*
X34780000Y29440000D01*
X34780000Y29150000D01*
D02*
G37*
%LPC*%
G36*
X16485000Y28480000D02*
X15945000Y28480000D01*
X15945000Y28970000D01*
X16485000Y28970000D01*
X16485000Y28480000D01*
D02*
G37*
%LPC*%
G36*
X15645000Y28480000D02*
X15105000Y28480000D01*
X15105000Y28970000D01*
X15645000Y28970000D01*
X15645000Y28480000D01*
D02*
G37*
%LPC*%
G36*
X37320000Y28533633D02*
X37282395Y28547089D01*
X37238911Y28567655D01*
X37197638Y28592394D01*
X37159008Y28621043D01*
X37123355Y28653355D01*
X37091043Y28689008D01*
X37062394Y28727638D01*
X37037655Y28768911D01*
X37017089Y28812395D01*
X37003633Y28850000D01*
X37320000Y28850000D01*
X37320000Y28533633D01*
D02*
G37*
%LPC*%
G36*
X34780000Y28560000D02*
X34490000Y28560000D01*
X34490000Y28850000D01*
X34780000Y28850000D01*
X34780000Y28560000D01*
D02*
G37*
%LPC*%
G36*
X35370000Y28560000D02*
X35080000Y28560000D01*
X35080000Y28850000D01*
X35370000Y28850000D01*
X35370000Y28560000D01*
D02*
G37*
%LPC*%
G36*
X37620000Y28533633D02*
X37620000Y28850000D01*
X37936367Y28850000D01*
X37922911Y28812395D01*
X37902345Y28768911D01*
X37877606Y28727638D01*
X37848957Y28689008D01*
X37816645Y28653355D01*
X37780992Y28621043D01*
X37742362Y28592394D01*
X37701089Y28567655D01*
X37657605Y28547089D01*
X37620000Y28533633D01*
D02*
G37*
%LPC*%
G36*
X16485000Y27690000D02*
X15945000Y27690000D01*
X15945000Y28180000D01*
X16485000Y28180000D01*
X16485000Y27690000D01*
D02*
G37*
%LPC*%
G36*
X15645000Y27690000D02*
X15105000Y27690000D01*
X15105000Y28180000D01*
X15645000Y28180000D01*
X15645000Y27690000D01*
D02*
G37*
%LPC*%
G36*
X14200000Y25760000D02*
X13210000Y25760000D01*
X13210000Y26719927D01*
X13209008Y26729999D01*
X13210000Y26740069D01*
X13210000Y27700000D01*
X14200000Y27700000D01*
X14200000Y27225000D01*
X15100000Y27225000D01*
X15100000Y27375000D01*
X16490000Y27375000D01*
X16490000Y27335000D01*
X17023077Y27335000D01*
X17054896Y27370108D01*
X17120715Y27429763D01*
X17192079Y27482690D01*
X17268263Y27528352D01*
X17348579Y27566339D01*
X17432224Y27596269D01*
X17518388Y27617851D01*
X17606268Y27630887D01*
X17695000Y27635247D01*
X17783732Y27630887D01*
X17871612Y27617851D01*
X17957776Y27596269D01*
X18041421Y27566339D01*
X18121737Y27528352D01*
X18197921Y27482690D01*
X18269285Y27429763D01*
X18335106Y27370106D01*
X18394763Y27304285D01*
X18447690Y27232921D01*
X18493352Y27156737D01*
X18531339Y27076421D01*
X18561269Y26992776D01*
X18582851Y26906612D01*
X18595887Y26818732D01*
X18600247Y26730000D01*
X18595887Y26641268D01*
X18582851Y26553388D01*
X18561269Y26467224D01*
X18531339Y26383579D01*
X18493352Y26303263D01*
X18447690Y26227079D01*
X18394763Y26155715D01*
X18335106Y26089894D01*
X18269285Y26030237D01*
X18197921Y25977310D01*
X18121737Y25931648D01*
X18041421Y25893661D01*
X17957776Y25863731D01*
X17871612Y25842149D01*
X17783732Y25829113D01*
X17695000Y25824753D01*
X17606268Y25829113D01*
X17518388Y25842149D01*
X17432224Y25863731D01*
X17348579Y25893661D01*
X17268263Y25931648D01*
X17192079Y25977310D01*
X17120715Y26030237D01*
X17054896Y26089892D01*
X17023077Y26125000D01*
X16490000Y26125000D01*
X16490000Y26085000D01*
X15100000Y26085000D01*
X15100000Y26235000D01*
X14200000Y26235000D01*
X14200000Y25760000D01*
D02*
G37*
%LPC*%
G36*
X9895000Y22024008D02*
X9884927Y22025000D01*
X9300000Y22025000D01*
X9300000Y23015000D01*
X9400000Y23015000D01*
X9400000Y23725000D01*
X9250000Y23725000D01*
X9250000Y25115000D01*
X9400000Y25115000D01*
X9400000Y26235000D01*
X8370000Y26235000D01*
X8370000Y25985000D01*
X6180000Y25985000D01*
X6180000Y27475000D01*
X8370000Y27475000D01*
X8370000Y27225000D01*
X9400000Y27225000D01*
X9400000Y27700000D01*
X10390000Y27700000D01*
X10390000Y25115000D01*
X10540000Y25115000D01*
X10540000Y23725000D01*
X10390000Y23725000D01*
X10390000Y23015000D01*
X10490000Y23015000D01*
X10490000Y22025000D01*
X9905073Y22025000D01*
X9895000Y22024008D01*
D02*
G37*
%LPC*%
G36*
X12930000Y25760000D02*
X11940000Y25760000D01*
X11940000Y27700000D01*
X12930000Y27700000D01*
X12930000Y25760000D01*
D02*
G37*
%LPC*%
G36*
X11660000Y25760000D02*
X10670000Y25760000D01*
X10670000Y27700000D01*
X11660000Y27700000D01*
X11660000Y25760000D01*
D02*
G37*
%LPC*%
G36*
X55605000Y22245000D02*
X50345000Y22245000D01*
X50345000Y22945000D01*
X48525000Y22945000D01*
X48525000Y22645000D01*
X46745000Y22645000D01*
X46745000Y24800000D01*
X50345000Y24800000D01*
X50345000Y27655000D01*
X55605000Y27655000D01*
X55605000Y22245000D01*
D02*
G37*
%LPD*%
G36*
X55350000Y22500000D02*
X55350000Y27400000D01*
X50600000Y27400000D01*
X50600000Y24545000D01*
X47000000Y24545000D01*
X47000000Y22900000D01*
X48270000Y22900000D01*
X48270000Y23200000D01*
X50600000Y23200000D01*
X50600000Y22500000D01*
X55350000Y22500000D01*
D02*
G37*
%LPC*%
G36*
X12420000Y20325002D02*
X7169922Y20325002D01*
X7083236Y20333540D01*
X6990190Y20361764D01*
X6904439Y20407598D01*
X6829157Y20469383D01*
X6822743Y20477222D01*
X4002220Y23297745D01*
X3994381Y23304159D01*
X3932596Y23379441D01*
X3886762Y23465192D01*
X3858538Y23558238D01*
X3850000Y23644924D01*
X3850000Y25985000D01*
X3250000Y25985000D01*
X3250000Y27475000D01*
X5440000Y27475000D01*
X5440000Y25985000D01*
X4840000Y25985000D01*
X4840000Y23860035D01*
X7385033Y21315002D01*
X12420000Y21315002D01*
X12420000Y20325002D01*
D02*
G37*
%LPC*%
G36*
X21100000Y20089000D02*
X16245000Y20089000D01*
X16245000Y21765000D01*
X10945000Y21765000D01*
X10945000Y23455000D01*
X16245000Y23455000D01*
X16245000Y25500000D01*
X21100000Y25500000D01*
X21100000Y20089000D01*
D02*
G37*
%LPD*%
G36*
X20845000Y20344000D02*
X20845000Y25245000D01*
X16500000Y25245000D01*
X16500000Y23200000D01*
X11200000Y23200000D01*
X11200000Y22020000D01*
X16500000Y22020000D01*
X16500000Y20344000D01*
X20845000Y20344000D01*
D02*
G37*
%LPC*%
G36*
X12135000Y24570000D02*
X11645000Y24570000D01*
X11645000Y25110000D01*
X12135000Y25110000D01*
X12135000Y24570000D01*
D02*
G37*
%LPC*%
G36*
X11345000Y24570000D02*
X10855000Y24570000D01*
X10855000Y25110000D01*
X11345000Y25110000D01*
X11345000Y24570000D01*
D02*
G37*
%LPC*%
G36*
X42855000Y22345000D02*
X40245000Y22345000D01*
X40245000Y25055000D01*
X42855000Y25055000D01*
X42855000Y24800000D01*
X46455000Y24800000D01*
X46455000Y22645000D01*
X44675000Y22645000D01*
X44675000Y22945000D01*
X42855000Y22945000D01*
X42855000Y22345000D01*
D02*
G37*
%LPD*%
G36*
X42600000Y22600000D02*
X42600000Y23200000D01*
X44930000Y23200000D01*
X44930000Y22900000D01*
X46200000Y22900000D01*
X46200000Y24545000D01*
X42600000Y24545000D01*
X42600000Y24800000D01*
X40500000Y24800000D01*
X40500000Y22600000D01*
X42600000Y22600000D01*
D02*
G37*
%LPC*%
G36*
X58200000Y23850000D02*
X56560000Y23850000D01*
X56560000Y24690000D01*
X58200000Y24690000D01*
X58200000Y23850000D01*
D02*
G37*
%LPC*%
G36*
X60140000Y23850000D02*
X58500000Y23850000D01*
X58500000Y24690000D01*
X60140000Y24690000D01*
X60140000Y23850000D01*
D02*
G37*
%LPC*%
G36*
X11345000Y23730000D02*
X10855000Y23730000D01*
X10855000Y24270000D01*
X11345000Y24270000D01*
X11345000Y23730000D01*
D02*
G37*
%LPC*%
G36*
X12135000Y23730000D02*
X11645000Y23730000D01*
X11645000Y24270000D01*
X12135000Y24270000D01*
X12135000Y23730000D01*
D02*
G37*
%LPC*%
G36*
X60140000Y22710000D02*
X58500000Y22710000D01*
X58500000Y23550000D01*
X60140000Y23550000D01*
X60140000Y22710000D01*
D02*
G37*
%LPC*%
G36*
X58200000Y22710000D02*
X56560000Y22710000D01*
X56560000Y23550000D01*
X58200000Y23550000D01*
X58200000Y22710000D01*
D02*
G37*
%LPC*%
G36*
X8555000Y22670000D02*
X8115000Y22670000D01*
X8115000Y23010000D01*
X8555000Y23010000D01*
X8555000Y22670000D01*
D02*
G37*
%LPC*%
G36*
X7815000Y22670000D02*
X7375000Y22670000D01*
X7375000Y23010000D01*
X7815000Y23010000D01*
X7815000Y22670000D01*
D02*
G37*
%LPC*%
G36*
X25395000Y21940000D02*
X23755000Y21940000D01*
X23755000Y22780000D01*
X25395000Y22780000D01*
X25395000Y21940000D01*
D02*
G37*
%LPC*%
G36*
X23455000Y21940000D02*
X21815000Y21940000D01*
X21815000Y22780000D01*
X23455000Y22780000D01*
X23455000Y21940000D01*
D02*
G37*
%LPC*%
G36*
X43610000Y22250000D02*
X43070000Y22250000D01*
X43070000Y22740000D01*
X43610000Y22740000D01*
X43610000Y22250000D01*
D02*
G37*
%LPC*%
G36*
X44450000Y22250000D02*
X43910000Y22250000D01*
X43910000Y22740000D01*
X44450000Y22740000D01*
X44450000Y22250000D01*
D02*
G37*
%LPC*%
G36*
X49280000Y22250000D02*
X48740000Y22250000D01*
X48740000Y22740000D01*
X49280000Y22740000D01*
X49280000Y22250000D01*
D02*
G37*
%LPC*%
G36*
X50120000Y22250000D02*
X49580000Y22250000D01*
X49580000Y22740000D01*
X50120000Y22740000D01*
X50120000Y22250000D01*
D02*
G37*
%LPC*%
G36*
X7815000Y22030000D02*
X7375000Y22030000D01*
X7375000Y22370000D01*
X7815000Y22370000D01*
X7815000Y22030000D01*
D02*
G37*
%LPC*%
G36*
X8555000Y22030000D02*
X8115000Y22030000D01*
X8115000Y22370000D01*
X8555000Y22370000D01*
X8555000Y22030000D01*
D02*
G37*
%LPC*%
G36*
X47240000Y21650000D02*
X46750000Y21650000D01*
X46750000Y22190000D01*
X47240000Y22190000D01*
X47240000Y21650000D01*
D02*
G37*
%LPC*%
G36*
X46450000Y21650000D02*
X45960000Y21650000D01*
X45960000Y22190000D01*
X46450000Y22190000D01*
X46450000Y21650000D01*
D02*
G37*
%LPC*%
G36*
X50120000Y21460000D02*
X49580000Y21460000D01*
X49580000Y21950000D01*
X50120000Y21950000D01*
X50120000Y21460000D01*
D02*
G37*
%LPC*%
G36*
X43610000Y21460000D02*
X43070000Y21460000D01*
X43070000Y21950000D01*
X43610000Y21950000D01*
X43610000Y21460000D01*
D02*
G37*
%LPC*%
G36*
X44450000Y21460000D02*
X43910000Y21460000D01*
X43910000Y21950000D01*
X44450000Y21950000D01*
X44450000Y21460000D01*
D02*
G37*
%LPC*%
G36*
X49280000Y21460000D02*
X48740000Y21460000D01*
X48740000Y21950000D01*
X49280000Y21950000D01*
X49280000Y21460000D01*
D02*
G37*
%LPC*%
G36*
X23455000Y20800000D02*
X21815000Y20800000D01*
X21815000Y21640000D01*
X23455000Y21640000D01*
X23455000Y20800000D01*
D02*
G37*
%LPC*%
G36*
X25395000Y20800000D02*
X23755000Y20800000D01*
X23755000Y21640000D01*
X25395000Y21640000D01*
X25395000Y20800000D01*
D02*
G37*
%LPC*%
G36*
X13605000Y21070000D02*
X13065000Y21070000D01*
X13065000Y21560000D01*
X13605000Y21560000D01*
X13605000Y21070000D01*
D02*
G37*
%LPC*%
G36*
X14445000Y21070000D02*
X13905000Y21070000D01*
X13905000Y21560000D01*
X14445000Y21560000D01*
X14445000Y21070000D01*
D02*
G37*
%LPC*%
G36*
X46450000Y20810000D02*
X45960000Y20810000D01*
X45960000Y21350000D01*
X46450000Y21350000D01*
X46450000Y20810000D01*
D02*
G37*
%LPC*%
G36*
X47240000Y20810000D02*
X46750000Y20810000D01*
X46750000Y21350000D01*
X47240000Y21350000D01*
X47240000Y20810000D01*
D02*
G37*
%LPC*%
G36*
X13605000Y20280000D02*
X13065000Y20280000D01*
X13065000Y20770000D01*
X13605000Y20770000D01*
X13605000Y20280000D01*
D02*
G37*
%LPC*%
G36*
X14445000Y20280000D02*
X13905000Y20280000D01*
X13905000Y20770000D01*
X14445000Y20770000D01*
X14445000Y20280000D01*
D02*
G37*
%LPC*%
G36*
X4280000Y15579645D02*
X4138329Y15586605D01*
X3998022Y15607418D01*
X3860433Y15641882D01*
X3726894Y15689663D01*
X3598662Y15750312D01*
X3477007Y15823229D01*
X3363074Y15907727D01*
X3257980Y16002980D01*
X3162727Y16108074D01*
X3078229Y16222007D01*
X3005312Y16343662D01*
X2944663Y16471894D01*
X2896882Y16605433D01*
X2862418Y16743022D01*
X2841605Y16883329D01*
X2834645Y17025000D01*
X2841605Y17166671D01*
X2862418Y17306978D01*
X2896882Y17444567D01*
X2944663Y17578106D01*
X3005312Y17706338D01*
X3078229Y17827993D01*
X3162727Y17941926D01*
X3257980Y18047020D01*
X3363074Y18142273D01*
X3477007Y18226771D01*
X3598662Y18299688D01*
X3726894Y18360337D01*
X3860433Y18408118D01*
X3998022Y18442582D01*
X4138329Y18463395D01*
X4280000Y18470355D01*
X4421671Y18463395D01*
X4561978Y18442582D01*
X4699567Y18408118D01*
X4833106Y18360337D01*
X4961338Y18299688D01*
X5082993Y18226771D01*
X5196926Y18142273D01*
X5302020Y18047020D01*
X5397273Y17941926D01*
X5481771Y17827993D01*
X5554688Y17706338D01*
X5615337Y17578106D01*
X5663118Y17444567D01*
X5697582Y17306978D01*
X5718395Y17166671D01*
X5725355Y17025000D01*
X5718395Y16883329D01*
X5697582Y16743022D01*
X5663118Y16605433D01*
X5615337Y16471894D01*
X5554688Y16343662D01*
X5481771Y16222007D01*
X5397273Y16108074D01*
X5302020Y16002980D01*
X5196926Y15907727D01*
X5082993Y15823229D01*
X4961338Y15750312D01*
X4833106Y15689663D01*
X4699567Y15641882D01*
X4561978Y15607418D01*
X4421671Y15586605D01*
X4280000Y15579645D01*
D02*
G37*
%LPC*%
G36*
X15700000Y15579645D02*
X15558329Y15586605D01*
X15418022Y15607418D01*
X15280433Y15641882D01*
X15146894Y15689663D01*
X15018662Y15750312D01*
X14897007Y15823229D01*
X14783074Y15907727D01*
X14677980Y16002980D01*
X14582727Y16108074D01*
X14498229Y16222007D01*
X14425312Y16343662D01*
X14364663Y16471894D01*
X14316882Y16605433D01*
X14282418Y16743022D01*
X14261605Y16883329D01*
X14254645Y17025000D01*
X14261605Y17166671D01*
X14282418Y17306978D01*
X14316882Y17444567D01*
X14364663Y17578106D01*
X14425312Y17706338D01*
X14498229Y17827993D01*
X14582727Y17941926D01*
X14677980Y18047020D01*
X14783074Y18142273D01*
X14897007Y18226771D01*
X15018662Y18299688D01*
X15146894Y18360337D01*
X15280433Y18408118D01*
X15418022Y18442582D01*
X15558329Y18463395D01*
X15700000Y18470355D01*
X15841671Y18463395D01*
X15981978Y18442582D01*
X16119567Y18408118D01*
X16253106Y18360337D01*
X16381338Y18299688D01*
X16502993Y18226771D01*
X16616926Y18142273D01*
X16722020Y18047020D01*
X16817273Y17941926D01*
X16901771Y17827993D01*
X16974688Y17706338D01*
X17035337Y17578106D01*
X17083118Y17444567D01*
X17117582Y17306978D01*
X17138395Y17166671D01*
X17145355Y17025000D01*
X17138395Y16883329D01*
X17117582Y16743022D01*
X17083118Y16605433D01*
X17035337Y16471894D01*
X16974688Y16343662D01*
X16901771Y16222007D01*
X16817273Y16108074D01*
X16722020Y16002980D01*
X16616926Y15907727D01*
X16502993Y15823229D01*
X16381338Y15750312D01*
X16253106Y15689663D01*
X16119567Y15641882D01*
X15981978Y15607418D01*
X15841671Y15586605D01*
X15700000Y15579645D01*
D02*
G37*
%LPC*%
G36*
X44280000Y15579645D02*
X44138329Y15586605D01*
X43998022Y15607418D01*
X43860433Y15641882D01*
X43726894Y15689663D01*
X43598662Y15750312D01*
X43477007Y15823229D01*
X43363074Y15907727D01*
X43257980Y16002980D01*
X43162727Y16108074D01*
X43078229Y16222007D01*
X43005312Y16343662D01*
X42944663Y16471894D01*
X42896882Y16605433D01*
X42862418Y16743022D01*
X42841605Y16883329D01*
X42834645Y17025000D01*
X42841605Y17166671D01*
X42862418Y17306978D01*
X42896882Y17444567D01*
X42944663Y17578106D01*
X43005312Y17706338D01*
X43078229Y17827993D01*
X43162727Y17941926D01*
X43257980Y18047020D01*
X43363074Y18142273D01*
X43477007Y18226771D01*
X43598662Y18299688D01*
X43726894Y18360337D01*
X43860433Y18408118D01*
X43998022Y18442582D01*
X44138329Y18463395D01*
X44280000Y18470355D01*
X44421671Y18463395D01*
X44561978Y18442582D01*
X44699567Y18408118D01*
X44833106Y18360337D01*
X44961338Y18299688D01*
X45082993Y18226771D01*
X45196926Y18142273D01*
X45302020Y18047020D01*
X45397273Y17941926D01*
X45481771Y17827993D01*
X45554688Y17706338D01*
X45615337Y17578106D01*
X45663118Y17444567D01*
X45697582Y17306978D01*
X45718395Y17166671D01*
X45725355Y17025000D01*
X45718395Y16883329D01*
X45697582Y16743022D01*
X45663118Y16605433D01*
X45615337Y16471894D01*
X45554688Y16343662D01*
X45481771Y16222007D01*
X45397273Y16108074D01*
X45302020Y16002980D01*
X45196926Y15907727D01*
X45082993Y15823229D01*
X44961338Y15750312D01*
X44833106Y15689663D01*
X44699567Y15641882D01*
X44561978Y15607418D01*
X44421671Y15586605D01*
X44280000Y15579645D01*
D02*
G37*
%LPC*%
G36*
X55700000Y15579645D02*
X55558329Y15586605D01*
X55418022Y15607418D01*
X55280433Y15641882D01*
X55146894Y15689663D01*
X55018662Y15750312D01*
X54897007Y15823229D01*
X54783074Y15907727D01*
X54677980Y16002980D01*
X54582727Y16108074D01*
X54498229Y16222007D01*
X54425312Y16343662D01*
X54364663Y16471894D01*
X54316882Y16605433D01*
X54282418Y16743022D01*
X54261605Y16883329D01*
X54254645Y17025000D01*
X54261605Y17166671D01*
X54282418Y17306978D01*
X54316882Y17444567D01*
X54364663Y17578106D01*
X54425312Y17706338D01*
X54498229Y17827993D01*
X54582727Y17941926D01*
X54677980Y18047020D01*
X54783074Y18142273D01*
X54897007Y18226771D01*
X55018662Y18299688D01*
X55146894Y18360337D01*
X55280433Y18408118D01*
X55418022Y18442582D01*
X55558329Y18463395D01*
X55700000Y18470355D01*
X55841671Y18463395D01*
X55981978Y18442582D01*
X56119567Y18408118D01*
X56253106Y18360337D01*
X56381338Y18299688D01*
X56502993Y18226771D01*
X56616926Y18142273D01*
X56722020Y18047020D01*
X56817273Y17941926D01*
X56901771Y17827993D01*
X56974688Y17706338D01*
X57035337Y17578106D01*
X57083118Y17444567D01*
X57117582Y17306978D01*
X57138395Y17166671D01*
X57145355Y17025000D01*
X57138395Y16883329D01*
X57117582Y16743022D01*
X57083118Y16605433D01*
X57035337Y16471894D01*
X56974688Y16343662D01*
X56901771Y16222007D01*
X56817273Y16108074D01*
X56722020Y16002980D01*
X56616926Y15907727D01*
X56502993Y15823229D01*
X56381338Y15750312D01*
X56253106Y15689663D01*
X56119567Y15641882D01*
X55981978Y15607418D01*
X55841671Y15586605D01*
X55700000Y15579645D01*
D02*
G37*
%LPC*%
G36*
X36705000Y11645000D02*
X29245000Y11645000D01*
X29245000Y14140844D01*
X18445000Y14140844D01*
X18445000Y16755000D01*
X30595000Y16755000D01*
X30595000Y14395000D01*
X31745000Y14395000D01*
X31745000Y17355000D01*
X36705000Y17355000D01*
X36705000Y11645000D01*
D02*
G37*
%LPD*%
G36*
X36450000Y11900000D02*
X36450000Y17100000D01*
X32000000Y17100000D01*
X32000000Y14140000D01*
X29500000Y14140000D01*
X29500000Y11900000D01*
X36450000Y11900000D01*
D02*
G37*
%LPD*%
G36*
X30340000Y14395844D02*
X30340000Y16500000D01*
X18700000Y16500000D01*
X18700000Y14395844D01*
X30340000Y14395844D01*
D02*
G37*
%LPC*%
G36*
X41140000Y13352922D02*
X39500000Y13352922D01*
X39500000Y14192922D01*
X41140000Y14192922D01*
X41140000Y13352922D01*
D02*
G37*
%LPC*%
G36*
X39200000Y13352922D02*
X37560000Y13352922D01*
X37560000Y14192922D01*
X39200000Y14192922D01*
X39200000Y13352922D01*
D02*
G37*
%LPC*%
G36*
X28995000Y9407922D02*
X27705000Y9407922D01*
X27705000Y10797922D01*
X27745000Y10797922D01*
X27745000Y12507922D01*
X27705000Y12507922D01*
X27705000Y13897922D01*
X28995000Y13897922D01*
X28995000Y12507922D01*
X28955000Y12507922D01*
X28955000Y10797922D01*
X28995000Y10797922D01*
X28995000Y9407922D01*
D02*
G37*
%LPC*%
G36*
X25155000Y4105000D02*
X21145000Y4105000D01*
X21145000Y10355000D01*
X22545000Y10355000D01*
X22545000Y13755000D01*
X26495000Y13755000D01*
X26495000Y6745000D01*
X25155000Y6745000D01*
X25155000Y4105000D01*
D02*
G37*
%LPD*%
G36*
X24900000Y4360000D02*
X24900000Y7000000D01*
X26240000Y7000000D01*
X26240000Y13500000D01*
X22800000Y13500000D01*
X22800000Y10100000D01*
X21400000Y10100000D01*
X21400000Y4360000D01*
X24900000Y4360000D01*
D02*
G37*
%LPC*%
G36*
X41140000Y12212922D02*
X39500000Y12212922D01*
X39500000Y13052922D01*
X41140000Y13052922D01*
X41140000Y12212922D01*
D02*
G37*
%LPC*%
G36*
X39200000Y12212922D02*
X37560000Y12212922D01*
X37560000Y13052922D01*
X39200000Y13052922D01*
X39200000Y12212922D01*
D02*
G37*
%LPC*%
G36*
X20790000Y12217954D02*
X20100000Y12217954D01*
X20100000Y12757954D01*
X20790000Y12757954D01*
X20790000Y12217954D01*
D02*
G37*
%LPC*%
G36*
X19800000Y12217954D02*
X19110000Y12217954D01*
X19110000Y12757954D01*
X19800000Y12757954D01*
X19800000Y12217954D01*
D02*
G37*
%LPC*%
G36*
X15700000Y9229645D02*
X15558329Y9236605D01*
X15418022Y9257418D01*
X15280433Y9291882D01*
X15146894Y9339663D01*
X15018662Y9400312D01*
X14897007Y9473229D01*
X14783074Y9557727D01*
X14677980Y9652980D01*
X14582727Y9758074D01*
X14498229Y9872007D01*
X14425312Y9993662D01*
X14364663Y10121894D01*
X14316882Y10255433D01*
X14282418Y10393022D01*
X14261605Y10533329D01*
X14254645Y10675000D01*
X14261605Y10816671D01*
X14282418Y10956978D01*
X14316882Y11094567D01*
X14364663Y11228106D01*
X14425312Y11356338D01*
X14498229Y11477993D01*
X14582727Y11591926D01*
X14677980Y11697020D01*
X14783074Y11792273D01*
X14897007Y11876771D01*
X15018662Y11949688D01*
X15146894Y12010337D01*
X15280433Y12058118D01*
X15418022Y12092582D01*
X15558329Y12113395D01*
X15700000Y12120355D01*
X15841671Y12113395D01*
X15981978Y12092582D01*
X16119567Y12058118D01*
X16253106Y12010337D01*
X16381338Y11949688D01*
X16502993Y11876771D01*
X16616926Y11792273D01*
X16722020Y11697020D01*
X16817273Y11591926D01*
X16901771Y11477993D01*
X16974688Y11356338D01*
X17035337Y11228106D01*
X17083118Y11094567D01*
X17117582Y10956978D01*
X17138395Y10816671D01*
X17145355Y10675000D01*
X17138395Y10533329D01*
X17117582Y10393022D01*
X17083118Y10255433D01*
X17035337Y10121894D01*
X16974688Y9993662D01*
X16901771Y9872007D01*
X16817273Y9758074D01*
X16722020Y9652980D01*
X16616926Y9557727D01*
X16502993Y9473229D01*
X16381338Y9400312D01*
X16253106Y9339663D01*
X16119567Y9291882D01*
X15981978Y9257418D01*
X15841671Y9236605D01*
X15700000Y9229645D01*
D02*
G37*
%LPC*%
G36*
X4280000Y9229645D02*
X4138329Y9236605D01*
X3998022Y9257418D01*
X3860433Y9291882D01*
X3726894Y9339663D01*
X3598662Y9400312D01*
X3477007Y9473229D01*
X3363074Y9557727D01*
X3257980Y9652980D01*
X3162727Y9758074D01*
X3078229Y9872007D01*
X3005312Y9993662D01*
X2944663Y10121894D01*
X2896882Y10255433D01*
X2862418Y10393022D01*
X2841605Y10533329D01*
X2834645Y10675000D01*
X2841605Y10816671D01*
X2862418Y10956978D01*
X2896882Y11094567D01*
X2944663Y11228106D01*
X3005312Y11356338D01*
X3078229Y11477993D01*
X3162727Y11591926D01*
X3257980Y11697020D01*
X3363074Y11792273D01*
X3477007Y11876771D01*
X3598662Y11949688D01*
X3726894Y12010337D01*
X3860433Y12058118D01*
X3998022Y12092582D01*
X4138329Y12113395D01*
X4280000Y12120355D01*
X4421671Y12113395D01*
X4561978Y12092582D01*
X4699567Y12058118D01*
X4833106Y12010337D01*
X4961338Y11949688D01*
X5082993Y11876771D01*
X5196926Y11792273D01*
X5302020Y11697020D01*
X5397273Y11591926D01*
X5481771Y11477993D01*
X5554688Y11356338D01*
X5615337Y11228106D01*
X5663118Y11094567D01*
X5697582Y10956978D01*
X5718395Y10816671D01*
X5725355Y10675000D01*
X5718395Y10533329D01*
X5697582Y10393022D01*
X5663118Y10255433D01*
X5615337Y10121894D01*
X5554688Y9993662D01*
X5481771Y9872007D01*
X5397273Y9758074D01*
X5302020Y9652980D01*
X5196926Y9557727D01*
X5082993Y9473229D01*
X4961338Y9400312D01*
X4833106Y9339663D01*
X4699567Y9291882D01*
X4561978Y9257418D01*
X4421671Y9236605D01*
X4280000Y9229645D01*
D02*
G37*
%LPC*%
G36*
X44280000Y9229645D02*
X44138329Y9236605D01*
X43998022Y9257418D01*
X43860433Y9291882D01*
X43726894Y9339663D01*
X43598662Y9400312D01*
X43477007Y9473229D01*
X43363074Y9557727D01*
X43257980Y9652980D01*
X43162727Y9758074D01*
X43078229Y9872007D01*
X43005312Y9993662D01*
X42944663Y10121894D01*
X42896882Y10255433D01*
X42862418Y10393022D01*
X42841605Y10533329D01*
X42834645Y10675000D01*
X42841605Y10816671D01*
X42862418Y10956978D01*
X42896882Y11094567D01*
X42944663Y11228106D01*
X43005312Y11356338D01*
X43078229Y11477993D01*
X43162727Y11591926D01*
X43257980Y11697020D01*
X43363074Y11792273D01*
X43477007Y11876771D01*
X43598662Y11949688D01*
X43726894Y12010337D01*
X43860433Y12058118D01*
X43998022Y12092582D01*
X44138329Y12113395D01*
X44280000Y12120355D01*
X44421671Y12113395D01*
X44561978Y12092582D01*
X44699567Y12058118D01*
X44833106Y12010337D01*
X44961338Y11949688D01*
X45082993Y11876771D01*
X45196926Y11792273D01*
X45302020Y11697020D01*
X45397273Y11591926D01*
X45481771Y11477993D01*
X45554688Y11356338D01*
X45615337Y11228106D01*
X45663118Y11094567D01*
X45697582Y10956978D01*
X45718395Y10816671D01*
X45725355Y10675000D01*
X45718395Y10533329D01*
X45697582Y10393022D01*
X45663118Y10255433D01*
X45615337Y10121894D01*
X45554688Y9993662D01*
X45481771Y9872007D01*
X45397273Y9758074D01*
X45302020Y9652980D01*
X45196926Y9557727D01*
X45082993Y9473229D01*
X44961338Y9400312D01*
X44833106Y9339663D01*
X44699567Y9291882D01*
X44561978Y9257418D01*
X44421671Y9236605D01*
X44280000Y9229645D01*
D02*
G37*
%LPC*%
G36*
X55700000Y9229645D02*
X55558329Y9236605D01*
X55418022Y9257418D01*
X55280433Y9291882D01*
X55146894Y9339663D01*
X55018662Y9400312D01*
X54897007Y9473229D01*
X54783074Y9557727D01*
X54677980Y9652980D01*
X54582727Y9758074D01*
X54498229Y9872007D01*
X54425312Y9993662D01*
X54364663Y10121894D01*
X54316882Y10255433D01*
X54282418Y10393022D01*
X54261605Y10533329D01*
X54254645Y10675000D01*
X54261605Y10816671D01*
X54282418Y10956978D01*
X54316882Y11094567D01*
X54364663Y11228106D01*
X54425312Y11356338D01*
X54498229Y11477993D01*
X54582727Y11591926D01*
X54677980Y11697020D01*
X54783074Y11792273D01*
X54897007Y11876771D01*
X55018662Y11949688D01*
X55146894Y12010337D01*
X55280433Y12058118D01*
X55418022Y12092582D01*
X55558329Y12113395D01*
X55700000Y12120355D01*
X55841671Y12113395D01*
X55981978Y12092582D01*
X56119567Y12058118D01*
X56253106Y12010337D01*
X56381338Y11949688D01*
X56502993Y11876771D01*
X56616926Y11792273D01*
X56722020Y11697020D01*
X56817273Y11591926D01*
X56901771Y11477993D01*
X56974688Y11356338D01*
X57035337Y11228106D01*
X57083118Y11094567D01*
X57117582Y10956978D01*
X57138395Y10816671D01*
X57145355Y10675000D01*
X57138395Y10533329D01*
X57117582Y10393022D01*
X57083118Y10255433D01*
X57035337Y10121894D01*
X56974688Y9993662D01*
X56901771Y9872007D01*
X56817273Y9758074D01*
X56722020Y9652980D01*
X56616926Y9557727D01*
X56502993Y9473229D01*
X56381338Y9400312D01*
X56253106Y9339663D01*
X56119567Y9291882D01*
X55981978Y9257418D01*
X55841671Y9236605D01*
X55700000Y9229645D01*
D02*
G37*
%LPC*%
G36*
X20790000Y11377954D02*
X20100000Y11377954D01*
X20100000Y11917954D01*
X20790000Y11917954D01*
X20790000Y11377954D01*
D02*
G37*
%LPC*%
G36*
X19800000Y11377954D02*
X19110000Y11377954D01*
X19110000Y11917954D01*
X19800000Y11917954D01*
X19800000Y11377954D01*
D02*
G37*
%LPC*%
G36*
X30590000Y10252922D02*
X30100000Y10252922D01*
X30100000Y10792922D01*
X30590000Y10792922D01*
X30590000Y10252922D01*
D02*
G37*
%LPC*%
G36*
X29800000Y10252922D02*
X29310000Y10252922D01*
X29310000Y10792922D01*
X29800000Y10792922D01*
X29800000Y10252922D01*
D02*
G37*
%LPC*%
G36*
X30590000Y9412922D02*
X30100000Y9412922D01*
X30100000Y9952922D01*
X30590000Y9952922D01*
X30590000Y9412922D01*
D02*
G37*
%LPC*%
G36*
X29800000Y9412922D02*
X29310000Y9412922D01*
X29310000Y9952922D01*
X29800000Y9952922D01*
X29800000Y9412922D01*
D02*
G37*
%LPC*%
G36*
X55700000Y2879645D02*
X55558329Y2886605D01*
X55418022Y2907418D01*
X55280433Y2941882D01*
X55146894Y2989663D01*
X55018662Y3050312D01*
X54897007Y3123229D01*
X54783074Y3207727D01*
X54677980Y3302980D01*
X54582727Y3408074D01*
X54498229Y3522007D01*
X54425312Y3643662D01*
X54364663Y3771894D01*
X54316882Y3905433D01*
X54282418Y4043022D01*
X54261605Y4183329D01*
X54254645Y4325000D01*
X54261605Y4466671D01*
X54282418Y4606978D01*
X54316882Y4744567D01*
X54364663Y4878106D01*
X54425312Y5006338D01*
X54498229Y5127993D01*
X54582727Y5241926D01*
X54677980Y5347020D01*
X54783074Y5442273D01*
X54897007Y5526771D01*
X55018662Y5599688D01*
X55146894Y5660337D01*
X55280433Y5708118D01*
X55418022Y5742582D01*
X55558329Y5763395D01*
X55700000Y5770355D01*
X55841671Y5763395D01*
X55981978Y5742582D01*
X56119567Y5708118D01*
X56253106Y5660337D01*
X56381338Y5599688D01*
X56502993Y5526771D01*
X56616926Y5442273D01*
X56722020Y5347020D01*
X56817273Y5241926D01*
X56901771Y5127993D01*
X56974688Y5006338D01*
X57035337Y4878106D01*
X57083118Y4744567D01*
X57117582Y4606978D01*
X57138395Y4466671D01*
X57145355Y4325000D01*
X57138395Y4183329D01*
X57117582Y4043022D01*
X57083118Y3905433D01*
X57035337Y3771894D01*
X56974688Y3643662D01*
X56901771Y3522007D01*
X56817273Y3408074D01*
X56722020Y3302980D01*
X56616926Y3207727D01*
X56502993Y3123229D01*
X56381338Y3050312D01*
X56253106Y2989663D01*
X56119567Y2941882D01*
X55981978Y2907418D01*
X55841671Y2886605D01*
X55700000Y2879645D01*
D02*
G37*
%LPC*%
G36*
X15700000Y2879645D02*
X15558329Y2886605D01*
X15418022Y2907418D01*
X15280433Y2941882D01*
X15146894Y2989663D01*
X15018662Y3050312D01*
X14897007Y3123229D01*
X14783074Y3207727D01*
X14677980Y3302980D01*
X14582727Y3408074D01*
X14498229Y3522007D01*
X14425312Y3643662D01*
X14364663Y3771894D01*
X14316882Y3905433D01*
X14282418Y4043022D01*
X14261605Y4183329D01*
X14254645Y4325000D01*
X14261605Y4466671D01*
X14282418Y4606978D01*
X14316882Y4744567D01*
X14364663Y4878106D01*
X14425312Y5006338D01*
X14498229Y5127993D01*
X14582727Y5241926D01*
X14677980Y5347020D01*
X14783074Y5442273D01*
X14897007Y5526771D01*
X15018662Y5599688D01*
X15146894Y5660337D01*
X15280433Y5708118D01*
X15418022Y5742582D01*
X15558329Y5763395D01*
X15700000Y5770355D01*
X15841671Y5763395D01*
X15981978Y5742582D01*
X16119567Y5708118D01*
X16253106Y5660337D01*
X16381338Y5599688D01*
X16502993Y5526771D01*
X16616926Y5442273D01*
X16722020Y5347020D01*
X16817273Y5241926D01*
X16901771Y5127993D01*
X16974688Y5006338D01*
X17035337Y4878106D01*
X17083118Y4744567D01*
X17117582Y4606978D01*
X17138395Y4466671D01*
X17145355Y4325000D01*
X17138395Y4183329D01*
X17117582Y4043022D01*
X17083118Y3905433D01*
X17035337Y3771894D01*
X16974688Y3643662D01*
X16901771Y3522007D01*
X16817273Y3408074D01*
X16722020Y3302980D01*
X16616926Y3207727D01*
X16502993Y3123229D01*
X16381338Y3050312D01*
X16253106Y2989663D01*
X16119567Y2941882D01*
X15981978Y2907418D01*
X15841671Y2886605D01*
X15700000Y2879645D01*
D02*
G37*
%LPC*%
G36*
X45611011Y4475000D02*
X44430000Y4475000D01*
X44430000Y5656011D01*
X44541469Y5639476D01*
X44669051Y5607518D01*
X44792881Y5563211D01*
X44911777Y5506977D01*
X45024593Y5439358D01*
X45130231Y5361013D01*
X45227684Y5272684D01*
X45316013Y5175231D01*
X45394358Y5069593D01*
X45461977Y4956777D01*
X45518211Y4837881D01*
X45562518Y4714051D01*
X45594476Y4586469D01*
X45611011Y4475000D01*
D02*
G37*
%LPC*%
G36*
X44130000Y4475000D02*
X42948989Y4475000D01*
X42965524Y4586469D01*
X42997482Y4714051D01*
X43041789Y4837881D01*
X43098023Y4956777D01*
X43165642Y5069593D01*
X43243987Y5175231D01*
X43332316Y5272684D01*
X43429769Y5361013D01*
X43535407Y5439358D01*
X43648223Y5506977D01*
X43767119Y5563211D01*
X43890949Y5607518D01*
X44018531Y5639476D01*
X44130000Y5656011D01*
X44130000Y4475000D01*
D02*
G37*
%LPC*%
G36*
X5611011Y4475000D02*
X4430000Y4475000D01*
X4430000Y5656011D01*
X4541469Y5639476D01*
X4669051Y5607518D01*
X4792881Y5563211D01*
X4911777Y5506977D01*
X5024593Y5439358D01*
X5130231Y5361013D01*
X5227684Y5272684D01*
X5316013Y5175231D01*
X5394358Y5069593D01*
X5461977Y4956777D01*
X5518211Y4837881D01*
X5562518Y4714051D01*
X5594476Y4586469D01*
X5611011Y4475000D01*
D02*
G37*
%LPC*%
G36*
X4130000Y4475000D02*
X2948989Y4475000D01*
X2965524Y4586469D01*
X2997482Y4714051D01*
X3041789Y4837881D01*
X3098023Y4956777D01*
X3165642Y5069593D01*
X3243987Y5175231D01*
X3332316Y5272684D01*
X3429769Y5361013D01*
X3535407Y5439358D01*
X3648223Y5506977D01*
X3767119Y5563211D01*
X3890949Y5607518D01*
X4018531Y5639476D01*
X4130000Y5656011D01*
X4130000Y4475000D01*
D02*
G37*
%LPC*%
G36*
X4130000Y2993989D02*
X4018531Y3010524D01*
X3890949Y3042482D01*
X3767119Y3086789D01*
X3648223Y3143023D01*
X3535407Y3210642D01*
X3429769Y3288987D01*
X3332316Y3377316D01*
X3243987Y3474769D01*
X3165642Y3580407D01*
X3098023Y3693223D01*
X3041789Y3812119D01*
X2997482Y3935949D01*
X2965524Y4063531D01*
X2948989Y4175000D01*
X4130000Y4175000D01*
X4130000Y2993989D01*
D02*
G37*
%LPC*%
G36*
X4430000Y2993989D02*
X4430000Y4175000D01*
X5611011Y4175000D01*
X5594476Y4063531D01*
X5562518Y3935949D01*
X5518211Y3812119D01*
X5461977Y3693223D01*
X5394358Y3580407D01*
X5316013Y3474769D01*
X5227684Y3377316D01*
X5130231Y3288987D01*
X5024593Y3210642D01*
X4911777Y3143023D01*
X4792881Y3086789D01*
X4669051Y3042482D01*
X4541469Y3010524D01*
X4430000Y2993989D01*
D02*
G37*
%LPC*%
G36*
X44130000Y2993989D02*
X44018531Y3010524D01*
X43890949Y3042482D01*
X43767119Y3086789D01*
X43648223Y3143023D01*
X43535407Y3210642D01*
X43429769Y3288987D01*
X43332316Y3377316D01*
X43243987Y3474769D01*
X43165642Y3580407D01*
X43098023Y3693223D01*
X43041789Y3812119D01*
X42997482Y3935949D01*
X42965524Y4063531D01*
X42948989Y4175000D01*
X44130000Y4175000D01*
X44130000Y2993989D01*
D02*
G37*
%LPC*%
G36*
X44430000Y2993989D02*
X44430000Y4175000D01*
X45611011Y4175000D01*
X45594476Y4063531D01*
X45562518Y3935949D01*
X45518211Y3812119D01*
X45461977Y3693223D01*
X45394358Y3580407D01*
X45316013Y3474769D01*
X45227684Y3377316D01*
X45130231Y3288987D01*
X45024593Y3210642D01*
X44911777Y3143023D01*
X44792881Y3086789D01*
X44669051Y3042482D01*
X44541469Y3010524D01*
X44430000Y2993989D01*
D02*
G37*
%LPC*%
G36*
X22900000Y3000000D02*
X22021906Y3000000D01*
X22029760Y3052942D01*
X22054565Y3151966D01*
X22088955Y3248079D01*
X22132595Y3340350D01*
X22185084Y3427923D01*
X22245895Y3509917D01*
X22314448Y3585552D01*
X22390083Y3654105D01*
X22472077Y3714916D01*
X22559650Y3767405D01*
X22651921Y3811045D01*
X22748034Y3845435D01*
X22847058Y3870240D01*
X22900000Y3878094D01*
X22900000Y3000000D01*
D02*
G37*
%LPC*%
G36*
X24078094Y3000000D02*
X23200000Y3000000D01*
X23200000Y3878094D01*
X23252942Y3870240D01*
X23351966Y3845435D01*
X23448079Y3811045D01*
X23540350Y3767405D01*
X23627923Y3714916D01*
X23709917Y3654105D01*
X23785552Y3585552D01*
X23854105Y3509917D01*
X23914916Y3427923D01*
X23967405Y3340350D01*
X24011045Y3248079D01*
X24045435Y3151966D01*
X24070240Y3052942D01*
X24078094Y3000000D01*
D02*
G37*
%LPC*%
G36*
X23200000Y1821906D02*
X23200000Y2700000D01*
X24078094Y2700000D01*
X24070240Y2647058D01*
X24045435Y2548034D01*
X24011045Y2451921D01*
X23967405Y2359650D01*
X23914916Y2272077D01*
X23854105Y2190083D01*
X23785552Y2114448D01*
X23709917Y2045895D01*
X23627923Y1985084D01*
X23540350Y1932595D01*
X23448079Y1888955D01*
X23351966Y1854565D01*
X23252942Y1829760D01*
X23200000Y1821906D01*
D02*
G37*
%LPC*%
G36*
X22900000Y1821906D02*
X22847058Y1829760D01*
X22748034Y1854565D01*
X22651921Y1888955D01*
X22559650Y1932595D01*
X22472077Y1985084D01*
X22390083Y2045895D01*
X22314448Y2114448D01*
X22245895Y2190083D01*
X22185084Y2272077D01*
X22132595Y2359650D01*
X22088955Y2451921D01*
X22054565Y2548034D01*
X22029760Y2647058D01*
X22021906Y2700000D01*
X22900000Y2700000D01*
X22900000Y1821906D01*
D02*
G37*
%LPD*%
G01*
%LPD*%
D10*
X25200000Y37700000D02*
X26895000Y36005000D01*
D11*
X59675000Y43410000D02*
X57800000Y43410000D01*
D10*
X11200000Y39580000D02*
X17020000Y39580000D01*
D12*
X38000000Y34220000D02*
X38000000Y30800000D01*
D11*
X50110000Y38455000D02*
X52525000Y40870000D01*
D13*
X41680000Y30325000D02*
X41680000Y32405000D01*
D11*
X52335000Y43600000D02*
X52525000Y43410000D01*
D12*
X39000000Y37800000D02*
X37752917Y39047083D01*
D10*
X13740000Y42120000D02*
X23380000Y42120000D01*
D10*
X13705000Y29970000D02*
X15154998Y29970000D01*
D10*
X17895000Y32480000D02*
X17895000Y34880000D01*
D12*
X41680000Y36215000D02*
X43620000Y36215000D01*
D14*
X7585000Y34880000D02*
X9665000Y34880000D01*
D12*
X24650000Y36650000D02*
X3640000Y36650000D01*
D10*
X23380000Y42120000D02*
X25252917Y40247083D01*
D12*
X3640000Y36650000D02*
X3400000Y36890000D01*
D10*
X18900000Y37700000D02*
X25200000Y37700000D01*
D10*
X7179998Y20820002D02*
X7965000Y20820002D01*
D11*
X50110000Y33550000D02*
X50110000Y35550000D01*
D10*
X12435000Y34650000D02*
X12665000Y34880000D01*
D10*
X15154998Y29970000D02*
X15965000Y30780002D01*
D10*
X33950000Y36215000D02*
X33740000Y36005000D01*
D13*
X59675000Y35790000D02*
X59675000Y32970000D01*
D10*
X15965000Y32480000D02*
X17895000Y32480000D01*
D12*
X45530000Y37930000D02*
X46800000Y39200000D01*
D10*
X26895000Y36005000D02*
X30740000Y36005000D01*
D10*
X13705000Y29970000D02*
X13705000Y32070000D01*
D10*
X9895000Y20820002D02*
X11825000Y20820002D01*
D10*
X17020000Y39580000D02*
X18900000Y37700000D01*
D11*
X59675000Y40870000D02*
X57800000Y40870000D01*
D12*
X41680000Y34945000D02*
X43580000Y34945000D01*
D10*
X11200000Y39580000D02*
X8660000Y42120000D01*
D10*
X9895000Y32070000D02*
X8795000Y32070000D01*
D14*
X59675000Y32970000D02*
X59675000Y31270000D01*
D15*
X36200000Y27600000D02*
X36200000Y29000000D01*
D16*
X14895000Y34880000D02*
X12665000Y34880000D01*
D12*
X45530000Y36525000D02*
X45530000Y37930000D01*
D10*
X6720000Y34880000D02*
X4345000Y32505000D01*
D10*
X9895000Y26730000D02*
X7275000Y26730000D01*
D10*
X7585000Y34880000D02*
X6720000Y34880000D01*
D10*
X4345000Y23655000D02*
X7179998Y20820002D01*
D12*
X36340000Y34945000D02*
X37275000Y34945000D01*
D12*
X40805000Y33675000D02*
X39000000Y35480000D01*
D10*
X9895000Y26730000D02*
X9895000Y24420000D01*
D12*
X46800000Y39200000D02*
X48290000Y39200000D01*
D11*
X42752917Y39698737D02*
X42752917Y40352917D01*
D14*
X28350000Y13202922D02*
X28350000Y10102922D01*
D12*
X41680000Y33675000D02*
X40805000Y33675000D01*
D10*
X15795000Y26730000D02*
X13705000Y26730000D01*
D10*
X8795000Y32070000D02*
X7585000Y33280000D01*
D12*
X43580000Y34945000D02*
X43930000Y34595000D01*
D10*
X25252917Y40247083D02*
X25252917Y39698737D01*
D11*
X46000000Y43600000D02*
X52335000Y43600000D01*
D10*
X4345000Y32505000D02*
X4345000Y29730000D01*
D10*
X36340000Y36215000D02*
X33950000Y36215000D01*
D12*
X48290000Y39200000D02*
X50110000Y41020000D01*
D12*
X36340000Y33675000D02*
X27625000Y33675000D01*
D12*
X38000000Y30800000D02*
X37470000Y30270000D01*
D10*
X4345000Y26730000D02*
X4345000Y23655000D01*
D14*
X17695000Y26730000D02*
X15795000Y26730000D01*
D12*
X43620000Y36215000D02*
X43930000Y36525000D01*
D11*
X50110000Y35550000D02*
X50110000Y38455000D01*
D11*
X52525000Y38330000D02*
X59675000Y38330000D01*
D12*
X37275000Y34945000D02*
X38000000Y34220000D01*
D12*
X39000000Y35480000D02*
X39000000Y37800000D01*
D12*
X27625000Y33675000D02*
X24650000Y36650000D01*
D14*
X41680000Y28515000D02*
X41680000Y30325000D01*
D10*
X9895000Y20820002D02*
X7965000Y20820002D01*
D10*
X12435000Y32070000D02*
X12435000Y34650000D01*
D12*
X45530000Y34595000D02*
X45530000Y31415000D01*
D12*
X50110000Y41020000D02*
X50110000Y41850000D01*
D12*
X37752917Y39047083D02*
X37752917Y39698737D01*
D11*
X42752917Y40352917D02*
X46000000Y43600000D01*
D10*
X9895000Y24420000D02*
X9895000Y22520000D01*
G75*
D17*
X19950000Y12067954D03*
D18*
X19950000Y15402922D03*
D19*
X15795000Y28330000D03*
D20*
X15795000Y26730000D03*
D21*
X34350000Y13202922D03*
D22*
X39350000Y13202922D03*
D23*
X12665000Y34880000D03*
D24*
X9665000Y34880000D03*
D25*
X45530000Y31415000D03*
D25*
X44230000Y31415000D03*
D26*
X44880000Y29515000D03*
D20*
X43760000Y22100000D03*
D19*
X43760000Y23700000D03*
D27*
X30250000Y13202922D03*
D28*
X29300000Y15402922D03*
D27*
X28350000Y13202922D03*
D29*
X23050000Y5350000D03*
D29*
X23050000Y2850000D03*
D21*
X23179995Y30450001D03*
D22*
X28179995Y30450001D03*
D28*
X45650000Y23700000D03*
D27*
X46600000Y21500000D03*
D28*
X47550000Y23700000D03*
D30*
X50110000Y35550000D03*
D31*
X47610000Y41850000D03*
D31*
X50110000Y41850000D03*
D30*
X47610000Y35550000D03*
D32*
X9895000Y22520000D03*
D33*
X9895000Y20820002D03*
D32*
X15965000Y32480000D03*
D33*
X15965000Y30780002D03*
D34*
X24520000Y15402922D03*
D35*
X24520000Y12450000D03*
D36*
X45530000Y34595000D03*
D37*
X43930000Y34595000D03*
D38*
X7275000Y26730000D03*
D39*
X7275000Y29730000D03*
D20*
X19825000Y30780002D03*
D19*
X19825000Y32380002D03*
D36*
X29950000Y10102922D03*
D37*
X28350000Y10102922D03*
D36*
X45530000Y36525000D03*
D37*
X43930000Y36525000D03*
D40*
X15700000Y10675000D03*
D40*
X4280000Y10675000D03*
D40*
X4280000Y4325000D03*
D40*
X4280000Y17025000D03*
D40*
X15700000Y17025000D03*
D40*
X15700000Y4325000D03*
D33*
X17895000Y30780002D03*
D32*
X17895000Y32480000D03*
D24*
X14895000Y34880000D03*
D23*
X17895000Y34880000D03*
D41*
X52525000Y35790000D03*
D42*
X59675000Y38330000D03*
D42*
X59675000Y43410000D03*
D42*
X59675000Y40870000D03*
D41*
X52525000Y38330000D03*
D41*
X52525000Y43410000D03*
D42*
X59675000Y35790000D03*
D41*
X52525000Y40870000D03*
D39*
X4345000Y29730000D03*
D38*
X4345000Y26730000D03*
D20*
X7585000Y33280000D03*
D19*
X7585000Y34880000D03*
D21*
X53350000Y23700000D03*
D22*
X58350000Y23700000D03*
D19*
X13755000Y22520000D03*
D20*
X13755000Y20920000D03*
D43*
X34930000Y30270000D03*
D44*
X36200000Y30270000D03*
D44*
X37470000Y30270000D03*
D43*
X37470000Y29000000D03*
D44*
X34930000Y29000000D03*
D44*
X36200000Y29000000D03*
D20*
X49430000Y22100000D03*
D19*
X49430000Y23700000D03*
D37*
X9895000Y24420000D03*
D36*
X11495000Y24420000D03*
D45*
X13740000Y42120000D03*
D45*
X11200000Y39580000D03*
D45*
X8660000Y42120000D03*
D46*
X13705000Y26730000D03*
D46*
X11165000Y26730000D03*
D46*
X9895000Y26730000D03*
D47*
X9895000Y32070000D03*
D47*
X12435000Y32070000D03*
D46*
X12435000Y26730000D03*
D47*
X13705000Y32070000D03*
D47*
X11165000Y32070000D03*
D32*
X7965000Y22520000D03*
D33*
X7965000Y20820002D03*
D24*
X30740000Y36005000D03*
D23*
X33740000Y36005000D03*
D48*
X3400000Y36890000D03*
D48*
X3400000Y44510000D03*
D49*
X36340000Y32405000D03*
D49*
X36340000Y34945000D03*
D49*
X36340000Y36215000D03*
D50*
X41680000Y36215000D03*
D50*
X41680000Y33675000D03*
D49*
X36340000Y33675000D03*
D50*
X41680000Y32405000D03*
D50*
X41680000Y34945000D03*
D51*
X27752917Y39698737D03*
D51*
X42752917Y39698737D03*
D51*
X20252917Y39698737D03*
D51*
X30252917Y39698737D03*
D51*
X35252917Y39698737D03*
D51*
X25252917Y39698737D03*
D51*
X40252917Y39698737D03*
D51*
X37752917Y39698737D03*
D51*
X22752917Y39698737D03*
D51*
X32752917Y39698737D03*
D52*
X59675000Y32970000D03*
D53*
X57475000Y32970000D03*
D33*
X11825000Y20820002D03*
D32*
X11825000Y22520000D03*
D37*
X40080000Y30325000D03*
D36*
X41680000Y30325000D03*
D40*
X55700000Y10675000D03*
D40*
X44280000Y10675000D03*
D40*
X44280000Y4325000D03*
D40*
X44280000Y17025000D03*
D40*
X55700000Y17025000D03*
D40*
X55700000Y4325000D03*
D22*
X23605000Y21790000D03*
D21*
X18605000Y21790000D03*
D54*
X46410000Y41850000D03*
D54*
X28119995Y28810001D03*
D55*
X31500000Y1000000D03*
D55*
X62000000Y46000000D03*
D54*
X58350000Y25350000D03*
D54*
X17145000Y28330000D03*
D54*
X44230000Y32715000D03*
D55*
X1000000Y8500000D03*
D54*
X39350000Y11562922D03*
D56*
X13705000Y29970000D03*
D56*
X36200000Y27600000D03*
D54*
X39125000Y8500000D03*
D55*
X62000000Y38500000D03*
D54*
X7965000Y23660000D03*
D54*
X8625000Y38500000D03*
D54*
X15095000Y20920000D03*
D55*
X46750000Y46000000D03*
D55*
X39125000Y1000000D03*
D57*
X57800000Y43410000D03*
D54*
X43030000Y31415000D03*
D55*
X62000000Y31000000D03*
D58*
X34350000Y15702922D03*
D54*
X48810000Y35550000D03*
D54*
X13035000Y24420000D03*
D54*
X41790000Y13202922D03*
D54*
X19950000Y10767954D03*
D54*
X36340000Y31265000D03*
D55*
X46750000Y1000000D03*
D54*
X47610000Y33850000D03*
D58*
X59675000Y31270000D03*
D55*
X54375000Y46000000D03*
D54*
X11165000Y30450000D03*
D55*
X8625000Y1000000D03*
D54*
X7275000Y31120000D03*
D54*
X18450000Y12067954D03*
D54*
X40080000Y29025000D03*
D55*
X1000000Y23500000D03*
D54*
X29950000Y8802922D03*
D55*
X1000000Y31000000D03*
D55*
X16250000Y1000000D03*
D54*
X48810000Y41850000D03*
D58*
X17695000Y26730000D03*
D54*
X49430000Y20800000D03*
D54*
X58350000Y22050000D03*
D57*
X50110000Y33550000D03*
D55*
X39125000Y46000000D03*
D58*
X18605000Y23990000D03*
D54*
X46600000Y20170000D03*
D55*
X62000000Y23500000D03*
D54*
X47610000Y37250000D03*
D54*
X8625000Y16000000D03*
D55*
X23875000Y1000000D03*
D57*
X57800000Y40870000D03*
D54*
X54375000Y39500000D03*
D54*
X28119995Y32090001D03*
D55*
X31500000Y46000000D03*
D54*
X46750000Y8500000D03*
D55*
X62000000Y16000000D03*
D54*
X43760000Y20800000D03*
D55*
X62000000Y8500000D03*
D55*
X1000000Y1000000D03*
D58*
X41550000Y23700000D03*
D55*
X62000000Y1000000D03*
D54*
X54375000Y8500000D03*
D54*
X23605000Y23440000D03*
D54*
X47610000Y40150000D03*
D54*
X16250000Y37800000D03*
D55*
X23875000Y46000000D03*
D54*
X16250000Y8500000D03*
D58*
X53350000Y26200000D03*
D55*
X16250000Y46000000D03*
D54*
X46750000Y16000000D03*
D54*
X26055000Y21790000D03*
D54*
X53775000Y16000000D03*
D55*
X8625000Y46000000D03*
D54*
X8625000Y8500000D03*
D58*
X41680000Y28515000D03*
D55*
X1000000Y46000000D03*
D54*
X39350000Y14852922D03*
D54*
X19825000Y33670002D03*
D54*
X21450000Y12067954D03*
D58*
X23179995Y32850001D03*
D55*
X1000000Y38500000D03*
D55*
X54375000Y1000000D03*
D55*
X1000000Y16000000D03*
M02*
