%FSLAX46Y46*%
%MOMM*%
%AMPS12*
1,1,0.600000,0.000000,0.000000*
%
%ADD12PS12*%
%AMPS11*
1,1,2.300000,0.000000,0.000000*
%
%ADD11PS11*%
%AMPS13*
1,1,1.300000,0.000000,0.000000*
%
%ADD13PS13*%
%AMPS14*
1,1,1.700000,0.000000,0.000000*
%
%ADD14PS14*%
%AMPS15*
1,1,1.700000,0.000000,0.000000*
%
%ADD15PS15*%
%AMPS10*
1,1,1.700000,0.000000,0.000000*
%
%ADD10PS10*%
%AMPS20*
1,1,1.400000,0.000000,0.000000*
%
%ADD20PS20*%
%AMPS17*
1,1,0.700000,0.000000,0.000000*
%
%ADD17PS17*%
%AMPS19*
1,1,0.900000,0.000000,0.000000*
%
%ADD19PS19*%
%AMPS18*
1,1,1.000000,0.000000,0.000000*
%
%ADD18PS18*%
%AMPS16*
1,1,0.700000,0.000000,0.000000*
%
%ADD16PS16*%
G01*
%LPD*%
G36*
X62640000Y360000D02*
X62640000Y46640000D01*
X360000Y46640000D01*
X360000Y360000D01*
X62640000Y360000D01*
D02*
G37*
%LPC*%
G36*
X57800000Y42754753D02*
X57735774Y42757909D01*
X57672167Y42767345D01*
X57609790Y42782968D01*
X57549243Y42804634D01*
X57491122Y42832123D01*
X57435966Y42865182D01*
X57384316Y42903488D01*
X57336670Y42946670D01*
X57293488Y42994316D01*
X57255182Y43045966D01*
X57222123Y43101122D01*
X57194634Y43159243D01*
X57172968Y43219790D01*
X57157345Y43282167D01*
X57147909Y43345774D01*
X57144753Y43410000D01*
X57147909Y43474226D01*
X57157345Y43537833D01*
X57172968Y43600210D01*
X57194634Y43660757D01*
X57222123Y43718878D01*
X57255182Y43774034D01*
X57293488Y43825684D01*
X57336670Y43873330D01*
X57384316Y43916512D01*
X57435966Y43954818D01*
X57491122Y43987877D01*
X57549243Y44015366D01*
X57609790Y44037032D01*
X57672167Y44052655D01*
X57735774Y44062091D01*
X57800000Y44065247D01*
X57864226Y44062091D01*
X57927833Y44052655D01*
X57990210Y44037032D01*
X58050757Y44015366D01*
X58108878Y43987877D01*
X58164034Y43954818D01*
X58215684Y43916512D01*
X58263330Y43873330D01*
X58306512Y43825684D01*
X58344818Y43774034D01*
X58377877Y43718878D01*
X58405366Y43660757D01*
X58427032Y43600210D01*
X58442655Y43537833D01*
X58452091Y43474226D01*
X58455247Y43410000D01*
X58452091Y43345774D01*
X58442655Y43282167D01*
X58427032Y43219790D01*
X58405366Y43159243D01*
X58377877Y43101122D01*
X58344818Y43045966D01*
X58306512Y42994316D01*
X58263330Y42946670D01*
X58215684Y42903488D01*
X58164034Y42865182D01*
X58108878Y42832123D01*
X58050757Y42804634D01*
X57990210Y42782968D01*
X57927833Y42767345D01*
X57864226Y42757909D01*
X57800000Y42754753D01*
D02*
G37*
%LPC*%
G36*
X13740000Y41174645D02*
X13647339Y41179197D01*
X13555565Y41192811D01*
X13465578Y41215351D01*
X13378229Y41246606D01*
X13294356Y41286275D01*
X13214794Y41333962D01*
X13140274Y41389231D01*
X13071533Y41451533D01*
X13009231Y41520274D01*
X12953962Y41594794D01*
X12906275Y41674356D01*
X12866606Y41758229D01*
X12835351Y41845578D01*
X12812811Y41935565D01*
X12799197Y42027339D01*
X12794645Y42120000D01*
X12799197Y42212661D01*
X12812811Y42304435D01*
X12835351Y42394422D01*
X12866606Y42481771D01*
X12906275Y42565644D01*
X12953962Y42645206D01*
X13009231Y42719726D01*
X13071533Y42788467D01*
X13140274Y42850769D01*
X13214794Y42906038D01*
X13294356Y42953725D01*
X13378229Y42993394D01*
X13465578Y43024649D01*
X13555565Y43047189D01*
X13647339Y43060803D01*
X13740000Y43065355D01*
X13832661Y43060803D01*
X13924435Y43047189D01*
X14014422Y43024649D01*
X14101771Y42993394D01*
X14185644Y42953725D01*
X14265206Y42906038D01*
X14339726Y42850769D01*
X14408467Y42788467D01*
X14470769Y42719726D01*
X14526038Y42645206D01*
X14573725Y42565644D01*
X14613394Y42481771D01*
X14644649Y42394422D01*
X14667189Y42304435D01*
X14680803Y42212661D01*
X14685355Y42120000D01*
X14680803Y42027339D01*
X14667189Y41935565D01*
X14644649Y41845578D01*
X14613394Y41758229D01*
X14573725Y41674356D01*
X14526038Y41594794D01*
X14470769Y41520274D01*
X14408467Y41451533D01*
X14339726Y41389231D01*
X14265206Y41333962D01*
X14185644Y41286275D01*
X14101771Y41246606D01*
X14014422Y41215351D01*
X13924435Y41192811D01*
X13832661Y41179197D01*
X13740000Y41174645D01*
D02*
G37*
%LPC*%
G36*
X8660000Y41174645D02*
X8567339Y41179197D01*
X8475565Y41192811D01*
X8385578Y41215351D01*
X8298229Y41246606D01*
X8214356Y41286275D01*
X8134794Y41333962D01*
X8060274Y41389231D01*
X7991533Y41451533D01*
X7929231Y41520274D01*
X7873962Y41594794D01*
X7826275Y41674356D01*
X7786606Y41758229D01*
X7755351Y41845578D01*
X7732811Y41935565D01*
X7719197Y42027339D01*
X7714645Y42120000D01*
X7719197Y42212661D01*
X7732811Y42304435D01*
X7755351Y42394422D01*
X7786606Y42481771D01*
X7826275Y42565644D01*
X7873962Y42645206D01*
X7929231Y42719726D01*
X7991533Y42788467D01*
X8060274Y42850769D01*
X8134794Y42906038D01*
X8214356Y42953725D01*
X8298229Y42993394D01*
X8385578Y43024649D01*
X8475565Y43047189D01*
X8567339Y43060803D01*
X8660000Y43065355D01*
X8752661Y43060803D01*
X8844435Y43047189D01*
X8934422Y43024649D01*
X9021771Y42993394D01*
X9105644Y42953725D01*
X9185206Y42906038D01*
X9259726Y42850769D01*
X9328467Y42788467D01*
X9390769Y42719726D01*
X9446038Y42645206D01*
X9493725Y42565644D01*
X9533394Y42481771D01*
X9564649Y42394422D01*
X9587189Y42304435D01*
X9600803Y42212661D01*
X9605355Y42120000D01*
X9600803Y42027339D01*
X9587189Y41935565D01*
X9564649Y41845578D01*
X9533394Y41758229D01*
X9493725Y41674356D01*
X9446038Y41594794D01*
X9390769Y41520274D01*
X9328467Y41451533D01*
X9259726Y41389231D01*
X9185206Y41333962D01*
X9105644Y41286275D01*
X9021771Y41246606D01*
X8934422Y41215351D01*
X8844435Y41192811D01*
X8752661Y41179197D01*
X8660000Y41174645D01*
D02*
G37*
%LPC*%
G36*
X57800000Y40214753D02*
X57735774Y40217909D01*
X57672167Y40227345D01*
X57609790Y40242968D01*
X57549243Y40264634D01*
X57491122Y40292123D01*
X57435966Y40325182D01*
X57384316Y40363488D01*
X57336670Y40406670D01*
X57293488Y40454316D01*
X57255182Y40505966D01*
X57222123Y40561122D01*
X57194634Y40619243D01*
X57172968Y40679790D01*
X57157345Y40742167D01*
X57147909Y40805774D01*
X57144753Y40870000D01*
X57147909Y40934226D01*
X57157345Y40997833D01*
X57172968Y41060210D01*
X57194634Y41120757D01*
X57222123Y41178878D01*
X57255182Y41234034D01*
X57293488Y41285684D01*
X57336670Y41333330D01*
X57384316Y41376512D01*
X57435966Y41414818D01*
X57491122Y41447877D01*
X57549243Y41475366D01*
X57609790Y41497032D01*
X57672167Y41512655D01*
X57735774Y41522091D01*
X57800000Y41525247D01*
X57864226Y41522091D01*
X57927833Y41512655D01*
X57990210Y41497032D01*
X58050757Y41475366D01*
X58108878Y41447877D01*
X58164034Y41414818D01*
X58215684Y41376512D01*
X58263330Y41333330D01*
X58306512Y41285684D01*
X58344818Y41234034D01*
X58377877Y41178878D01*
X58405366Y41120757D01*
X58427032Y41060210D01*
X58442655Y40997833D01*
X58452091Y40934226D01*
X58455247Y40870000D01*
X58452091Y40805774D01*
X58442655Y40742167D01*
X58427032Y40679790D01*
X58405366Y40619243D01*
X58377877Y40561122D01*
X58344818Y40505966D01*
X58306512Y40454316D01*
X58263330Y40406670D01*
X58215684Y40363488D01*
X58164034Y40325182D01*
X58108878Y40292123D01*
X58050757Y40264634D01*
X57990210Y40242968D01*
X57927833Y40227345D01*
X57864226Y40217909D01*
X57800000Y40214753D01*
D02*
G37*
%LPC*%
G36*
X37752917Y38553382D02*
X37640653Y38558897D01*
X37529464Y38575391D01*
X37420436Y38602701D01*
X37314612Y38640565D01*
X37213007Y38688620D01*
X37116589Y38746411D01*
X37026308Y38813368D01*
X36943029Y38888849D01*
X36867548Y38972128D01*
X36800591Y39062409D01*
X36742800Y39158827D01*
X36694745Y39260432D01*
X36656881Y39366256D01*
X36629571Y39475284D01*
X36613077Y39586473D01*
X36607562Y39698737D01*
X36613077Y39811001D01*
X36629571Y39922190D01*
X36656881Y40031218D01*
X36694745Y40137042D01*
X36742800Y40238647D01*
X36800591Y40335065D01*
X36867548Y40425346D01*
X36943029Y40508625D01*
X37026308Y40584106D01*
X37116589Y40651063D01*
X37213007Y40708854D01*
X37314612Y40756909D01*
X37420436Y40794773D01*
X37529464Y40822083D01*
X37640653Y40838577D01*
X37752917Y40844092D01*
X37865181Y40838577D01*
X37976370Y40822083D01*
X38085398Y40794773D01*
X38191222Y40756909D01*
X38292827Y40708854D01*
X38389245Y40651063D01*
X38479526Y40584106D01*
X38562805Y40508625D01*
X38638286Y40425346D01*
X38705243Y40335065D01*
X38763034Y40238647D01*
X38811089Y40137042D01*
X38848953Y40031218D01*
X38876263Y39922190D01*
X38892757Y39811001D01*
X38898272Y39698737D01*
X38892757Y39586473D01*
X38876263Y39475284D01*
X38848953Y39366256D01*
X38811089Y39260432D01*
X38763034Y39158827D01*
X38705243Y39062409D01*
X38638286Y38972128D01*
X38562805Y38888849D01*
X38479526Y38813368D01*
X38389245Y38746411D01*
X38292827Y38688620D01*
X38191222Y38640565D01*
X38085398Y38602701D01*
X37976370Y38575391D01*
X37865181Y38558897D01*
X37752917Y38553382D01*
D02*
G37*
%LPC*%
G36*
X42752917Y38553382D02*
X42640653Y38558897D01*
X42529464Y38575391D01*
X42420436Y38602701D01*
X42314612Y38640565D01*
X42213007Y38688620D01*
X42116589Y38746411D01*
X42026308Y38813368D01*
X41943029Y38888849D01*
X41867548Y38972128D01*
X41800591Y39062409D01*
X41742800Y39158827D01*
X41694745Y39260432D01*
X41656881Y39366256D01*
X41629571Y39475284D01*
X41613077Y39586473D01*
X41607562Y39698737D01*
X41613077Y39811001D01*
X41629571Y39922190D01*
X41656881Y40031218D01*
X41694745Y40137042D01*
X41742800Y40238647D01*
X41800591Y40335065D01*
X41867548Y40425346D01*
X41943029Y40508625D01*
X42026308Y40584106D01*
X42116589Y40651063D01*
X42213007Y40708854D01*
X42314612Y40756909D01*
X42420436Y40794773D01*
X42529464Y40822083D01*
X42640653Y40838577D01*
X42752917Y40844092D01*
X42865181Y40838577D01*
X42976370Y40822083D01*
X43085398Y40794773D01*
X43191222Y40756909D01*
X43292827Y40708854D01*
X43389245Y40651063D01*
X43479526Y40584106D01*
X43562805Y40508625D01*
X43638286Y40425346D01*
X43705243Y40335065D01*
X43763034Y40238647D01*
X43811089Y40137042D01*
X43848953Y40031218D01*
X43876263Y39922190D01*
X43892757Y39811001D01*
X43898272Y39698737D01*
X43892757Y39586473D01*
X43876263Y39475284D01*
X43848953Y39366256D01*
X43811089Y39260432D01*
X43763034Y39158827D01*
X43705243Y39062409D01*
X43638286Y38972128D01*
X43562805Y38888849D01*
X43479526Y38813368D01*
X43389245Y38746411D01*
X43292827Y38688620D01*
X43191222Y38640565D01*
X43085398Y38602701D01*
X42976370Y38575391D01*
X42865181Y38558897D01*
X42752917Y38553382D01*
D02*
G37*
%LPC*%
G36*
X32752917Y38553382D02*
X32640653Y38558897D01*
X32529464Y38575391D01*
X32420436Y38602701D01*
X32314612Y38640565D01*
X32213007Y38688620D01*
X32116589Y38746411D01*
X32026308Y38813368D01*
X31943029Y38888849D01*
X31867548Y38972128D01*
X31800591Y39062409D01*
X31742800Y39158827D01*
X31694745Y39260432D01*
X31656881Y39366256D01*
X31629571Y39475284D01*
X31613077Y39586473D01*
X31607562Y39698737D01*
X31613077Y39811001D01*
X31629571Y39922190D01*
X31656881Y40031218D01*
X31694745Y40137042D01*
X31742800Y40238647D01*
X31800591Y40335065D01*
X31867548Y40425346D01*
X31943029Y40508625D01*
X32026308Y40584106D01*
X32116589Y40651063D01*
X32213007Y40708854D01*
X32314612Y40756909D01*
X32420436Y40794773D01*
X32529464Y40822083D01*
X32640653Y40838577D01*
X32752917Y40844092D01*
X32865181Y40838577D01*
X32976370Y40822083D01*
X33085398Y40794773D01*
X33191222Y40756909D01*
X33292827Y40708854D01*
X33389245Y40651063D01*
X33479526Y40584106D01*
X33562805Y40508625D01*
X33638286Y40425346D01*
X33705243Y40335065D01*
X33763034Y40238647D01*
X33811089Y40137042D01*
X33848953Y40031218D01*
X33876263Y39922190D01*
X33892757Y39811001D01*
X33898272Y39698737D01*
X33892757Y39586473D01*
X33876263Y39475284D01*
X33848953Y39366256D01*
X33811089Y39260432D01*
X33763034Y39158827D01*
X33705243Y39062409D01*
X33638286Y38972128D01*
X33562805Y38888849D01*
X33479526Y38813368D01*
X33389245Y38746411D01*
X33292827Y38688620D01*
X33191222Y38640565D01*
X33085398Y38602701D01*
X32976370Y38575391D01*
X32865181Y38558897D01*
X32752917Y38553382D01*
D02*
G37*
%LPC*%
G36*
X30252917Y38553382D02*
X30140653Y38558897D01*
X30029464Y38575391D01*
X29920436Y38602701D01*
X29814612Y38640565D01*
X29713007Y38688620D01*
X29616589Y38746411D01*
X29526308Y38813368D01*
X29443029Y38888849D01*
X29367548Y38972128D01*
X29300591Y39062409D01*
X29242800Y39158827D01*
X29194745Y39260432D01*
X29156881Y39366256D01*
X29129571Y39475284D01*
X29113077Y39586473D01*
X29107562Y39698737D01*
X29113077Y39811001D01*
X29129571Y39922190D01*
X29156881Y40031218D01*
X29194745Y40137042D01*
X29242800Y40238647D01*
X29300591Y40335065D01*
X29367548Y40425346D01*
X29443029Y40508625D01*
X29526308Y40584106D01*
X29616589Y40651063D01*
X29713007Y40708854D01*
X29814612Y40756909D01*
X29920436Y40794773D01*
X30029464Y40822083D01*
X30140653Y40838577D01*
X30252917Y40844092D01*
X30365181Y40838577D01*
X30476370Y40822083D01*
X30585398Y40794773D01*
X30691222Y40756909D01*
X30792827Y40708854D01*
X30889245Y40651063D01*
X30979526Y40584106D01*
X31062805Y40508625D01*
X31138286Y40425346D01*
X31205243Y40335065D01*
X31263034Y40238647D01*
X31311089Y40137042D01*
X31348953Y40031218D01*
X31376263Y39922190D01*
X31392757Y39811001D01*
X31398272Y39698737D01*
X31392757Y39586473D01*
X31376263Y39475284D01*
X31348953Y39366256D01*
X31311089Y39260432D01*
X31263034Y39158827D01*
X31205243Y39062409D01*
X31138286Y38972128D01*
X31062805Y38888849D01*
X30979526Y38813368D01*
X30889245Y38746411D01*
X30792827Y38688620D01*
X30691222Y38640565D01*
X30585398Y38602701D01*
X30476370Y38575391D01*
X30365181Y38558897D01*
X30252917Y38553382D01*
D02*
G37*
%LPC*%
G36*
X27752917Y38553382D02*
X27640653Y38558897D01*
X27529464Y38575391D01*
X27420436Y38602701D01*
X27314612Y38640565D01*
X27213007Y38688620D01*
X27116589Y38746411D01*
X27026308Y38813368D01*
X26943029Y38888849D01*
X26867548Y38972128D01*
X26800591Y39062409D01*
X26742800Y39158827D01*
X26694745Y39260432D01*
X26656881Y39366256D01*
X26629571Y39475284D01*
X26613077Y39586473D01*
X26607562Y39698737D01*
X26613077Y39811001D01*
X26629571Y39922190D01*
X26656881Y40031218D01*
X26694745Y40137042D01*
X26742800Y40238647D01*
X26800591Y40335065D01*
X26867548Y40425346D01*
X26943029Y40508625D01*
X27026308Y40584106D01*
X27116589Y40651063D01*
X27213007Y40708854D01*
X27314612Y40756909D01*
X27420436Y40794773D01*
X27529464Y40822083D01*
X27640653Y40838577D01*
X27752917Y40844092D01*
X27865181Y40838577D01*
X27976370Y40822083D01*
X28085398Y40794773D01*
X28191222Y40756909D01*
X28292827Y40708854D01*
X28389245Y40651063D01*
X28479526Y40584106D01*
X28562805Y40508625D01*
X28638286Y40425346D01*
X28705243Y40335065D01*
X28763034Y40238647D01*
X28811089Y40137042D01*
X28848953Y40031218D01*
X28876263Y39922190D01*
X28892757Y39811001D01*
X28898272Y39698737D01*
X28892757Y39586473D01*
X28876263Y39475284D01*
X28848953Y39366256D01*
X28811089Y39260432D01*
X28763034Y39158827D01*
X28705243Y39062409D01*
X28638286Y38972128D01*
X28562805Y38888849D01*
X28479526Y38813368D01*
X28389245Y38746411D01*
X28292827Y38688620D01*
X28191222Y38640565D01*
X28085398Y38602701D01*
X27976370Y38575391D01*
X27865181Y38558897D01*
X27752917Y38553382D01*
D02*
G37*
%LPC*%
G36*
X25252917Y38553382D02*
X25140653Y38558897D01*
X25029464Y38575391D01*
X24920436Y38602701D01*
X24814612Y38640565D01*
X24713007Y38688620D01*
X24616589Y38746411D01*
X24526308Y38813368D01*
X24443029Y38888849D01*
X24367548Y38972128D01*
X24300591Y39062409D01*
X24242800Y39158827D01*
X24194745Y39260432D01*
X24156881Y39366256D01*
X24129571Y39475284D01*
X24113077Y39586473D01*
X24107562Y39698737D01*
X24113077Y39811001D01*
X24129571Y39922190D01*
X24156881Y40031218D01*
X24194745Y40137042D01*
X24242800Y40238647D01*
X24300591Y40335065D01*
X24367548Y40425346D01*
X24443029Y40508625D01*
X24526308Y40584106D01*
X24616589Y40651063D01*
X24713007Y40708854D01*
X24814612Y40756909D01*
X24920436Y40794773D01*
X25029464Y40822083D01*
X25140653Y40838577D01*
X25252917Y40844092D01*
X25365181Y40838577D01*
X25476370Y40822083D01*
X25585398Y40794773D01*
X25691222Y40756909D01*
X25792827Y40708854D01*
X25889245Y40651063D01*
X25979526Y40584106D01*
X26062805Y40508625D01*
X26138286Y40425346D01*
X26205243Y40335065D01*
X26263034Y40238647D01*
X26311089Y40137042D01*
X26348953Y40031218D01*
X26376263Y39922190D01*
X26392757Y39811001D01*
X26398272Y39698737D01*
X26392757Y39586473D01*
X26376263Y39475284D01*
X26348953Y39366256D01*
X26311089Y39260432D01*
X26263034Y39158827D01*
X26205243Y39062409D01*
X26138286Y38972128D01*
X26062805Y38888849D01*
X25979526Y38813368D01*
X25889245Y38746411D01*
X25792827Y38688620D01*
X25691222Y38640565D01*
X25585398Y38602701D01*
X25476370Y38575391D01*
X25365181Y38558897D01*
X25252917Y38553382D01*
D02*
G37*
%LPC*%
G36*
X20252917Y38553382D02*
X20140653Y38558897D01*
X20029464Y38575391D01*
X19920436Y38602701D01*
X19814612Y38640565D01*
X19713007Y38688620D01*
X19616589Y38746411D01*
X19526308Y38813368D01*
X19443029Y38888849D01*
X19367548Y38972128D01*
X19300591Y39062409D01*
X19242800Y39158827D01*
X19194745Y39260432D01*
X19156881Y39366256D01*
X19129571Y39475284D01*
X19113077Y39586473D01*
X19107562Y39698737D01*
X19113077Y39811001D01*
X19129571Y39922190D01*
X19156881Y40031218D01*
X19194745Y40137042D01*
X19242800Y40238647D01*
X19300591Y40335065D01*
X19367548Y40425346D01*
X19443029Y40508625D01*
X19526308Y40584106D01*
X19616589Y40651063D01*
X19713007Y40708854D01*
X19814612Y40756909D01*
X19920436Y40794773D01*
X20029464Y40822083D01*
X20140653Y40838577D01*
X20252917Y40844092D01*
X20365181Y40838577D01*
X20476370Y40822083D01*
X20585398Y40794773D01*
X20691222Y40756909D01*
X20792827Y40708854D01*
X20889245Y40651063D01*
X20979526Y40584106D01*
X21062805Y40508625D01*
X21138286Y40425346D01*
X21205243Y40335065D01*
X21263034Y40238647D01*
X21311089Y40137042D01*
X21348953Y40031218D01*
X21376263Y39922190D01*
X21392757Y39811001D01*
X21398272Y39698737D01*
X21392757Y39586473D01*
X21376263Y39475284D01*
X21348953Y39366256D01*
X21311089Y39260432D01*
X21263034Y39158827D01*
X21205243Y39062409D01*
X21138286Y38972128D01*
X21062805Y38888849D01*
X20979526Y38813368D01*
X20889245Y38746411D01*
X20792827Y38688620D01*
X20691222Y38640565D01*
X20585398Y38602701D01*
X20476370Y38575391D01*
X20365181Y38558897D01*
X20252917Y38553382D01*
D02*
G37*
%LPC*%
G36*
X11200000Y38634645D02*
X11107339Y38639197D01*
X11015565Y38652811D01*
X10925578Y38675351D01*
X10838229Y38706606D01*
X10754356Y38746275D01*
X10674794Y38793962D01*
X10600274Y38849231D01*
X10531533Y38911533D01*
X10469231Y38980274D01*
X10413962Y39054794D01*
X10366275Y39134356D01*
X10326606Y39218229D01*
X10295351Y39305578D01*
X10272811Y39395565D01*
X10259197Y39487339D01*
X10254645Y39580000D01*
X10259197Y39672661D01*
X10272811Y39764435D01*
X10295351Y39854422D01*
X10326606Y39941771D01*
X10366275Y40025644D01*
X10413962Y40105206D01*
X10469231Y40179726D01*
X10531533Y40248467D01*
X10600274Y40310769D01*
X10674794Y40366038D01*
X10754356Y40413725D01*
X10838229Y40453394D01*
X10925578Y40484649D01*
X11015565Y40507189D01*
X11107339Y40520803D01*
X11200000Y40525355D01*
X11292661Y40520803D01*
X11384435Y40507189D01*
X11474422Y40484649D01*
X11561771Y40453394D01*
X11645644Y40413725D01*
X11725206Y40366038D01*
X11799726Y40310769D01*
X11868467Y40248467D01*
X11930769Y40179726D01*
X11986038Y40105206D01*
X12033725Y40025644D01*
X12073394Y39941771D01*
X12104649Y39854422D01*
X12127189Y39764435D01*
X12140803Y39672661D01*
X12145355Y39580000D01*
X12140803Y39487339D01*
X12127189Y39395565D01*
X12104649Y39305578D01*
X12073394Y39218229D01*
X12033725Y39134356D01*
X11986038Y39054794D01*
X11930769Y38980274D01*
X11868467Y38911533D01*
X11799726Y38849231D01*
X11725206Y38793962D01*
X11645644Y38746275D01*
X11561771Y38706606D01*
X11474422Y38675351D01*
X11384435Y38652811D01*
X11292661Y38639197D01*
X11200000Y38634645D01*
D02*
G37*
%LPC*%
G36*
X3400000Y35744645D02*
X3287736Y35750160D01*
X3176547Y35766654D01*
X3067519Y35793964D01*
X2961695Y35831828D01*
X2860090Y35879883D01*
X2763672Y35937674D01*
X2673391Y36004631D01*
X2590112Y36080112D01*
X2514631Y36163391D01*
X2447674Y36253672D01*
X2389883Y36350090D01*
X2341828Y36451695D01*
X2303964Y36557519D01*
X2276654Y36666547D01*
X2260160Y36777736D01*
X2254645Y36890000D01*
X2260160Y37002264D01*
X2276654Y37113453D01*
X2303964Y37222481D01*
X2341828Y37328305D01*
X2389883Y37429910D01*
X2447674Y37526328D01*
X2514631Y37616609D01*
X2590112Y37699888D01*
X2673391Y37775369D01*
X2763672Y37842326D01*
X2860090Y37900117D01*
X2961695Y37948172D01*
X3067519Y37986036D01*
X3176547Y38013346D01*
X3287736Y38029840D01*
X3400000Y38035355D01*
X3512264Y38029840D01*
X3623453Y38013346D01*
X3732481Y37986036D01*
X3838305Y37948172D01*
X3939910Y37900117D01*
X4036328Y37842326D01*
X4126609Y37775369D01*
X4209888Y37699888D01*
X4285369Y37616609D01*
X4352326Y37526328D01*
X4410117Y37429910D01*
X4458172Y37328305D01*
X4496036Y37222481D01*
X4523346Y37113453D01*
X4539840Y37002264D01*
X4545355Y36890000D01*
X4539840Y36777736D01*
X4523346Y36666547D01*
X4496036Y36557519D01*
X4458172Y36451695D01*
X4410117Y36350090D01*
X4352326Y36253672D01*
X4285369Y36163391D01*
X4209888Y36080112D01*
X4126609Y36004631D01*
X4036328Y35937674D01*
X3939910Y35879883D01*
X3838305Y35831828D01*
X3732481Y35793964D01*
X3623453Y35766654D01*
X3512264Y35750160D01*
X3400000Y35744645D01*
D02*
G37*
%LPC*%
G36*
X50110000Y32894753D02*
X50045774Y32897909D01*
X49982167Y32907345D01*
X49919790Y32922968D01*
X49859243Y32944634D01*
X49801122Y32972123D01*
X49745966Y33005182D01*
X49694316Y33043488D01*
X49646670Y33086670D01*
X49603488Y33134316D01*
X49565182Y33185966D01*
X49532123Y33241122D01*
X49504634Y33299243D01*
X49482968Y33359790D01*
X49467345Y33422167D01*
X49457909Y33485774D01*
X49454753Y33550000D01*
X49457909Y33614226D01*
X49467345Y33677833D01*
X49482968Y33740210D01*
X49504634Y33800757D01*
X49532123Y33858878D01*
X49565182Y33914034D01*
X49603488Y33965684D01*
X49646670Y34013330D01*
X49694316Y34056512D01*
X49745966Y34094818D01*
X49801122Y34127877D01*
X49859243Y34155366D01*
X49919790Y34177032D01*
X49982167Y34192655D01*
X50045774Y34202091D01*
X50110000Y34205247D01*
X50174226Y34202091D01*
X50237833Y34192655D01*
X50300210Y34177032D01*
X50360757Y34155366D01*
X50418878Y34127877D01*
X50474034Y34094818D01*
X50525684Y34056512D01*
X50573330Y34013330D01*
X50616512Y33965684D01*
X50654818Y33914034D01*
X50687877Y33858878D01*
X50715366Y33800757D01*
X50737032Y33740210D01*
X50752655Y33677833D01*
X50762091Y33614226D01*
X50765247Y33550000D01*
X50762091Y33485774D01*
X50752655Y33422167D01*
X50737032Y33359790D01*
X50715366Y33299243D01*
X50687877Y33241122D01*
X50654818Y33185966D01*
X50616512Y33134316D01*
X50573330Y33086670D01*
X50525684Y33043488D01*
X50474034Y33005182D01*
X50418878Y32972123D01*
X50360757Y32944634D01*
X50300210Y32922968D01*
X50237833Y32907345D01*
X50174226Y32897909D01*
X50110000Y32894753D01*
D02*
G37*
%LPC*%
G36*
X23179995Y31944754D02*
X23091263Y31949114D01*
X23003383Y31962150D01*
X22917219Y31983732D01*
X22833574Y32013662D01*
X22753258Y32051649D01*
X22677074Y32097311D01*
X22605710Y32150238D01*
X22539889Y32209895D01*
X22480232Y32275716D01*
X22427305Y32347080D01*
X22381643Y32423264D01*
X22343656Y32503580D01*
X22313726Y32587225D01*
X22292144Y32673389D01*
X22279108Y32761269D01*
X22274748Y32850001D01*
X22279108Y32938733D01*
X22292144Y33026613D01*
X22313726Y33112777D01*
X22343656Y33196422D01*
X22381643Y33276738D01*
X22427305Y33352922D01*
X22480232Y33424286D01*
X22539889Y33490107D01*
X22605710Y33549764D01*
X22677074Y33602691D01*
X22753258Y33648353D01*
X22833574Y33686340D01*
X22917219Y33716270D01*
X23003383Y33737852D01*
X23091263Y33750888D01*
X23179995Y33755248D01*
X23268727Y33750888D01*
X23356607Y33737852D01*
X23442771Y33716270D01*
X23526416Y33686340D01*
X23606732Y33648353D01*
X23682916Y33602691D01*
X23754280Y33549764D01*
X23820101Y33490107D01*
X23879758Y33424286D01*
X23932685Y33352922D01*
X23978347Y33276738D01*
X24016334Y33196422D01*
X24046264Y33112777D01*
X24067846Y33026613D01*
X24080882Y32938733D01*
X24085242Y32850001D01*
X24080882Y32761269D01*
X24067846Y32673389D01*
X24046264Y32587225D01*
X24016334Y32503580D01*
X23978347Y32423264D01*
X23932685Y32347080D01*
X23879758Y32275716D01*
X23820101Y32209895D01*
X23754280Y32150238D01*
X23682916Y32097311D01*
X23606732Y32051649D01*
X23526416Y32013662D01*
X23442771Y31983732D01*
X23356607Y31962150D01*
X23268727Y31949114D01*
X23179995Y31944754D01*
D02*
G37*
%LPC*%
G36*
X59675000Y30364753D02*
X59586268Y30369113D01*
X59498388Y30382149D01*
X59412224Y30403731D01*
X59328579Y30433661D01*
X59248263Y30471648D01*
X59172079Y30517310D01*
X59100715Y30570237D01*
X59034894Y30629894D01*
X58975237Y30695715D01*
X58922310Y30767079D01*
X58876648Y30843263D01*
X58838661Y30923579D01*
X58808731Y31007224D01*
X58787149Y31093388D01*
X58774113Y31181268D01*
X58769753Y31270000D01*
X58774113Y31358732D01*
X58787149Y31446612D01*
X58808731Y31532776D01*
X58838661Y31616421D01*
X58876648Y31696737D01*
X58922310Y31772921D01*
X58975237Y31844285D01*
X59034894Y31910106D01*
X59100715Y31969763D01*
X59172079Y32022690D01*
X59248263Y32068352D01*
X59328579Y32106339D01*
X59412224Y32136269D01*
X59498388Y32157851D01*
X59586268Y32170887D01*
X59675000Y32175247D01*
X59763732Y32170887D01*
X59851612Y32157851D01*
X59937776Y32136269D01*
X60021421Y32106339D01*
X60101737Y32068352D01*
X60177921Y32022690D01*
X60249285Y31969763D01*
X60315106Y31910106D01*
X60374763Y31844285D01*
X60427690Y31772921D01*
X60473352Y31696737D01*
X60511339Y31616421D01*
X60541269Y31532776D01*
X60562851Y31446612D01*
X60575887Y31358732D01*
X60580247Y31270000D01*
X60575887Y31181268D01*
X60562851Y31093388D01*
X60541269Y31007224D01*
X60511339Y30923579D01*
X60473352Y30843263D01*
X60427690Y30767079D01*
X60374763Y30695715D01*
X60315106Y30629894D01*
X60249285Y30570237D01*
X60177921Y30517310D01*
X60101737Y30471648D01*
X60021421Y30433661D01*
X59937776Y30403731D01*
X59851612Y30382149D01*
X59763732Y30369113D01*
X59675000Y30364753D01*
D02*
G37*
%LPC*%
G36*
X13705000Y29264752D02*
X13635883Y29268148D01*
X13567405Y29278307D01*
X13500284Y29295118D01*
X13435114Y29318438D01*
X13372551Y29348027D01*
X13313179Y29383614D01*
X13257599Y29424834D01*
X13206315Y29471315D01*
X13159834Y29522599D01*
X13118614Y29578179D01*
X13083027Y29637551D01*
X13053438Y29700114D01*
X13030118Y29765284D01*
X13013307Y29832405D01*
X13003148Y29900883D01*
X12999752Y29970000D01*
X13003148Y30039117D01*
X13013307Y30107595D01*
X13030118Y30174716D01*
X13053438Y30239886D01*
X13083027Y30302449D01*
X13118614Y30361821D01*
X13159834Y30417401D01*
X13206315Y30468685D01*
X13257599Y30515166D01*
X13313179Y30556386D01*
X13372551Y30591973D01*
X13435114Y30621562D01*
X13500284Y30644882D01*
X13567405Y30661693D01*
X13635883Y30671852D01*
X13705000Y30675248D01*
X13774117Y30671852D01*
X13842595Y30661693D01*
X13909716Y30644882D01*
X13974886Y30621562D01*
X14037449Y30591973D01*
X14096821Y30556386D01*
X14152401Y30515166D01*
X14203685Y30468685D01*
X14250166Y30417401D01*
X14291386Y30361821D01*
X14326973Y30302449D01*
X14356562Y30239886D01*
X14379882Y30174716D01*
X14396693Y30107595D01*
X14406852Y30039117D01*
X14410248Y29970000D01*
X14406852Y29900883D01*
X14396693Y29832405D01*
X14379882Y29765284D01*
X14356562Y29700114D01*
X14326973Y29637551D01*
X14291386Y29578179D01*
X14250166Y29522599D01*
X14203685Y29471315D01*
X14152401Y29424834D01*
X14096821Y29383614D01*
X14037449Y29348027D01*
X13974886Y29318438D01*
X13909716Y29295118D01*
X13842595Y29278307D01*
X13774117Y29268148D01*
X13705000Y29264752D01*
D02*
G37*
%LPC*%
G36*
X41680000Y27609753D02*
X41591268Y27614113D01*
X41503388Y27627149D01*
X41417224Y27648731D01*
X41333579Y27678661D01*
X41253263Y27716648D01*
X41177079Y27762310D01*
X41105715Y27815237D01*
X41039894Y27874894D01*
X40980237Y27940715D01*
X40927310Y28012079D01*
X40881648Y28088263D01*
X40843661Y28168579D01*
X40813731Y28252224D01*
X40792149Y28338388D01*
X40779113Y28426268D01*
X40774753Y28515000D01*
X40779113Y28603732D01*
X40792149Y28691612D01*
X40813731Y28777776D01*
X40843661Y28861421D01*
X40881648Y28941737D01*
X40927310Y29017921D01*
X40980237Y29089285D01*
X41039894Y29155106D01*
X41105715Y29214763D01*
X41177079Y29267690D01*
X41253263Y29313352D01*
X41333579Y29351339D01*
X41417224Y29381269D01*
X41503388Y29402851D01*
X41591268Y29415887D01*
X41680000Y29420247D01*
X41768732Y29415887D01*
X41856612Y29402851D01*
X41942776Y29381269D01*
X42026421Y29351339D01*
X42106737Y29313352D01*
X42182921Y29267690D01*
X42254285Y29214763D01*
X42320106Y29155106D01*
X42379763Y29089285D01*
X42432690Y29017921D01*
X42478352Y28941737D01*
X42516339Y28861421D01*
X42546269Y28777776D01*
X42567851Y28691612D01*
X42580887Y28603732D01*
X42585247Y28515000D01*
X42580887Y28426268D01*
X42567851Y28338388D01*
X42546269Y28252224D01*
X42516339Y28168579D01*
X42478352Y28088263D01*
X42432690Y28012079D01*
X42379763Y27940715D01*
X42320106Y27874894D01*
X42254285Y27815237D01*
X42182921Y27762310D01*
X42106737Y27716648D01*
X42026421Y27678661D01*
X41942776Y27648731D01*
X41856612Y27627149D01*
X41768732Y27614113D01*
X41680000Y27609753D01*
D02*
G37*
%LPC*%
G36*
X36200000Y26894752D02*
X36130883Y26898148D01*
X36062405Y26908307D01*
X35995284Y26925118D01*
X35930114Y26948438D01*
X35867551Y26978027D01*
X35808179Y27013614D01*
X35752599Y27054834D01*
X35701315Y27101315D01*
X35654834Y27152599D01*
X35613614Y27208179D01*
X35578027Y27267551D01*
X35548438Y27330114D01*
X35525118Y27395284D01*
X35508307Y27462405D01*
X35498149Y27530881D01*
X35494752Y27600000D01*
X35498148Y27669117D01*
X35508307Y27737595D01*
X35525118Y27804716D01*
X35548438Y27869886D01*
X35578027Y27932449D01*
X35613614Y27991821D01*
X35654834Y28047401D01*
X35701315Y28098685D01*
X35752599Y28145166D01*
X35808179Y28186386D01*
X35867551Y28221973D01*
X35930114Y28251562D01*
X35995284Y28274882D01*
X36062405Y28291693D01*
X36130883Y28301852D01*
X36200000Y28305248D01*
X36269117Y28301852D01*
X36337595Y28291693D01*
X36404716Y28274882D01*
X36469886Y28251562D01*
X36532449Y28221973D01*
X36591821Y28186386D01*
X36647401Y28145166D01*
X36698685Y28098685D01*
X36745166Y28047401D01*
X36786386Y27991821D01*
X36821973Y27932449D01*
X36851562Y27869886D01*
X36874882Y27804716D01*
X36891693Y27737595D01*
X36901852Y27669117D01*
X36905248Y27600000D01*
X36901851Y27530881D01*
X36891693Y27462405D01*
X36874882Y27395284D01*
X36851562Y27330114D01*
X36821973Y27267551D01*
X36786386Y27208179D01*
X36745166Y27152599D01*
X36698685Y27101315D01*
X36647401Y27054834D01*
X36591821Y27013614D01*
X36532449Y26978027D01*
X36469886Y26948438D01*
X36404716Y26925118D01*
X36337595Y26908307D01*
X36269117Y26898148D01*
X36200000Y26894752D01*
D02*
G37*
%LPC*%
G36*
X17695000Y25824753D02*
X17606268Y25829113D01*
X17518388Y25842149D01*
X17432224Y25863731D01*
X17348579Y25893661D01*
X17268263Y25931648D01*
X17192079Y25977310D01*
X17120715Y26030237D01*
X17054894Y26089894D01*
X16995237Y26155715D01*
X16942310Y26227079D01*
X16896648Y26303263D01*
X16858661Y26383579D01*
X16828731Y26467224D01*
X16807149Y26553388D01*
X16794113Y26641268D01*
X16789753Y26730000D01*
X16794113Y26818732D01*
X16807149Y26906612D01*
X16828731Y26992776D01*
X16858661Y27076421D01*
X16896648Y27156737D01*
X16942310Y27232921D01*
X16995237Y27304285D01*
X17054894Y27370106D01*
X17120715Y27429763D01*
X17192079Y27482690D01*
X17268263Y27528352D01*
X17348579Y27566339D01*
X17432224Y27596269D01*
X17518388Y27617851D01*
X17606268Y27630887D01*
X17695000Y27635247D01*
X17783732Y27630887D01*
X17871612Y27617851D01*
X17957776Y27596269D01*
X18041421Y27566339D01*
X18121737Y27528352D01*
X18197921Y27482690D01*
X18269285Y27429763D01*
X18335106Y27370106D01*
X18394763Y27304285D01*
X18447690Y27232921D01*
X18493352Y27156737D01*
X18531339Y27076421D01*
X18561269Y26992776D01*
X18582851Y26906612D01*
X18595887Y26818732D01*
X18600247Y26730000D01*
X18595887Y26641268D01*
X18582851Y26553388D01*
X18561269Y26467224D01*
X18531339Y26383579D01*
X18493352Y26303263D01*
X18447690Y26227079D01*
X18394763Y26155715D01*
X18335106Y26089894D01*
X18269285Y26030237D01*
X18197921Y25977310D01*
X18121737Y25931648D01*
X18041421Y25893661D01*
X17957776Y25863731D01*
X17871612Y25842149D01*
X17783732Y25829113D01*
X17695000Y25824753D01*
D02*
G37*
%LPC*%
G36*
X53350000Y25294753D02*
X53261268Y25299113D01*
X53173388Y25312149D01*
X53087224Y25333731D01*
X53003579Y25363661D01*
X52923263Y25401648D01*
X52847079Y25447310D01*
X52775715Y25500237D01*
X52709894Y25559894D01*
X52650237Y25625715D01*
X52597310Y25697079D01*
X52551648Y25773263D01*
X52513661Y25853579D01*
X52483731Y25937224D01*
X52462149Y26023388D01*
X52449113Y26111268D01*
X52444753Y26200000D01*
X52449113Y26288732D01*
X52462149Y26376612D01*
X52483731Y26462776D01*
X52513661Y26546421D01*
X52551648Y26626737D01*
X52597310Y26702921D01*
X52650237Y26774285D01*
X52709894Y26840106D01*
X52775715Y26899763D01*
X52847079Y26952690D01*
X52923263Y26998352D01*
X53003579Y27036339D01*
X53087224Y27066269D01*
X53173388Y27087851D01*
X53261268Y27100887D01*
X53350000Y27105247D01*
X53438732Y27100887D01*
X53526612Y27087851D01*
X53612776Y27066269D01*
X53696421Y27036339D01*
X53776737Y26998352D01*
X53852921Y26952690D01*
X53924285Y26899763D01*
X53990106Y26840106D01*
X54049763Y26774285D01*
X54102690Y26702921D01*
X54148352Y26626737D01*
X54186339Y26546421D01*
X54216269Y26462776D01*
X54237851Y26376612D01*
X54250887Y26288732D01*
X54255247Y26200000D01*
X54250887Y26111268D01*
X54237851Y26023388D01*
X54216269Y25937224D01*
X54186339Y25853579D01*
X54148352Y25773263D01*
X54102690Y25697079D01*
X54049763Y25625715D01*
X53990106Y25559894D01*
X53924285Y25500237D01*
X53852921Y25447310D01*
X53776737Y25401648D01*
X53696421Y25363661D01*
X53612776Y25333731D01*
X53526612Y25312149D01*
X53438732Y25299113D01*
X53350000Y25294753D01*
D02*
G37*
%LPC*%
G36*
X18605000Y23084753D02*
X18516268Y23089113D01*
X18428388Y23102149D01*
X18342224Y23123731D01*
X18258579Y23153661D01*
X18178263Y23191648D01*
X18102079Y23237310D01*
X18030715Y23290237D01*
X17964894Y23349894D01*
X17905237Y23415715D01*
X17852310Y23487079D01*
X17806648Y23563263D01*
X17768661Y23643579D01*
X17738731Y23727224D01*
X17717149Y23813388D01*
X17704113Y23901268D01*
X17699753Y23990000D01*
X17704113Y24078732D01*
X17717149Y24166612D01*
X17738731Y24252776D01*
X17768661Y24336421D01*
X17806648Y24416737D01*
X17852310Y24492921D01*
X17905237Y24564285D01*
X17964894Y24630106D01*
X18030715Y24689763D01*
X18102079Y24742690D01*
X18178263Y24788352D01*
X18258579Y24826339D01*
X18342224Y24856269D01*
X18428388Y24877851D01*
X18516268Y24890887D01*
X18605000Y24895247D01*
X18693732Y24890887D01*
X18781612Y24877851D01*
X18867776Y24856269D01*
X18951421Y24826339D01*
X19031737Y24788352D01*
X19107921Y24742690D01*
X19179285Y24689763D01*
X19245106Y24630106D01*
X19304763Y24564285D01*
X19357690Y24492921D01*
X19403352Y24416737D01*
X19441339Y24336421D01*
X19471269Y24252776D01*
X19492851Y24166612D01*
X19505887Y24078732D01*
X19510247Y23990000D01*
X19505887Y23901268D01*
X19492851Y23813388D01*
X19471269Y23727224D01*
X19441339Y23643579D01*
X19403352Y23563263D01*
X19357690Y23487079D01*
X19304763Y23415715D01*
X19245106Y23349894D01*
X19179285Y23290237D01*
X19107921Y23237310D01*
X19031737Y23191648D01*
X18951421Y23153661D01*
X18867776Y23123731D01*
X18781612Y23102149D01*
X18693732Y23089113D01*
X18605000Y23084753D01*
D02*
G37*
%LPC*%
G36*
X41550000Y22794753D02*
X41461268Y22799113D01*
X41373388Y22812149D01*
X41287224Y22833731D01*
X41203579Y22863661D01*
X41123263Y22901648D01*
X41047079Y22947310D01*
X40975715Y23000237D01*
X40909894Y23059894D01*
X40850237Y23125715D01*
X40797310Y23197079D01*
X40751648Y23273263D01*
X40713661Y23353579D01*
X40683731Y23437224D01*
X40662149Y23523388D01*
X40649113Y23611268D01*
X40644753Y23700000D01*
X40649113Y23788732D01*
X40662149Y23876612D01*
X40683731Y23962776D01*
X40713661Y24046421D01*
X40751648Y24126737D01*
X40797310Y24202921D01*
X40850237Y24274285D01*
X40909894Y24340106D01*
X40975715Y24399763D01*
X41047079Y24452690D01*
X41123263Y24498352D01*
X41203579Y24536339D01*
X41287224Y24566269D01*
X41373388Y24587851D01*
X41461268Y24600887D01*
X41550000Y24605247D01*
X41638732Y24600887D01*
X41726612Y24587851D01*
X41812776Y24566269D01*
X41896421Y24536339D01*
X41976737Y24498352D01*
X42052921Y24452690D01*
X42124285Y24399763D01*
X42190106Y24340106D01*
X42249763Y24274285D01*
X42302690Y24202921D01*
X42348352Y24126737D01*
X42386339Y24046421D01*
X42416269Y23962776D01*
X42437851Y23876612D01*
X42450887Y23788732D01*
X42455247Y23700000D01*
X42450887Y23611268D01*
X42437851Y23523388D01*
X42416269Y23437224D01*
X42386339Y23353579D01*
X42348352Y23273263D01*
X42302690Y23197079D01*
X42249763Y23125715D01*
X42190106Y23059894D01*
X42124285Y23000237D01*
X42052921Y22947310D01*
X41976737Y22901648D01*
X41896421Y22863661D01*
X41812776Y22833731D01*
X41726612Y22812149D01*
X41638732Y22799113D01*
X41550000Y22794753D01*
D02*
G37*
%LPC*%
G36*
X55700000Y15579645D02*
X55558329Y15586605D01*
X55418022Y15607418D01*
X55280433Y15641882D01*
X55146894Y15689663D01*
X55018662Y15750312D01*
X54897007Y15823229D01*
X54783074Y15907727D01*
X54677980Y16002980D01*
X54582727Y16108074D01*
X54498229Y16222007D01*
X54425312Y16343662D01*
X54364663Y16471894D01*
X54316882Y16605433D01*
X54282418Y16743022D01*
X54261605Y16883329D01*
X54254645Y17025000D01*
X54261605Y17166671D01*
X54282418Y17306978D01*
X54316882Y17444567D01*
X54364663Y17578106D01*
X54425312Y17706338D01*
X54498229Y17827993D01*
X54582727Y17941926D01*
X54677980Y18047020D01*
X54783074Y18142273D01*
X54897007Y18226771D01*
X55018662Y18299688D01*
X55146894Y18360337D01*
X55280433Y18408118D01*
X55418022Y18442582D01*
X55558329Y18463395D01*
X55700000Y18470355D01*
X55841671Y18463395D01*
X55981978Y18442582D01*
X56119567Y18408118D01*
X56253106Y18360337D01*
X56381338Y18299688D01*
X56502993Y18226771D01*
X56616926Y18142273D01*
X56722020Y18047020D01*
X56817273Y17941926D01*
X56901771Y17827993D01*
X56974688Y17706338D01*
X57035337Y17578106D01*
X57083118Y17444567D01*
X57117582Y17306978D01*
X57138395Y17166671D01*
X57145355Y17025000D01*
X57138395Y16883329D01*
X57117582Y16743022D01*
X57083118Y16605433D01*
X57035337Y16471894D01*
X56974688Y16343662D01*
X56901771Y16222007D01*
X56817273Y16108074D01*
X56722020Y16002980D01*
X56616926Y15907727D01*
X56502993Y15823229D01*
X56381338Y15750312D01*
X56253106Y15689663D01*
X56119567Y15641882D01*
X55981978Y15607418D01*
X55841671Y15586605D01*
X55700000Y15579645D01*
D02*
G37*
%LPC*%
G36*
X44280000Y15579645D02*
X44138329Y15586605D01*
X43998022Y15607418D01*
X43860433Y15641882D01*
X43726894Y15689663D01*
X43598662Y15750312D01*
X43477007Y15823229D01*
X43363074Y15907727D01*
X43257980Y16002980D01*
X43162727Y16108074D01*
X43078229Y16222007D01*
X43005312Y16343662D01*
X42944663Y16471894D01*
X42896882Y16605433D01*
X42862418Y16743022D01*
X42841605Y16883329D01*
X42834645Y17025000D01*
X42841605Y17166671D01*
X42862418Y17306978D01*
X42896882Y17444567D01*
X42944663Y17578106D01*
X43005312Y17706338D01*
X43078229Y17827993D01*
X43162727Y17941926D01*
X43257980Y18047020D01*
X43363074Y18142273D01*
X43477007Y18226771D01*
X43598662Y18299688D01*
X43726894Y18360337D01*
X43860433Y18408118D01*
X43998022Y18442582D01*
X44138329Y18463395D01*
X44280000Y18470355D01*
X44421671Y18463395D01*
X44561978Y18442582D01*
X44699567Y18408118D01*
X44833106Y18360337D01*
X44961338Y18299688D01*
X45082993Y18226771D01*
X45196926Y18142273D01*
X45302020Y18047020D01*
X45397273Y17941926D01*
X45481771Y17827993D01*
X45554688Y17706338D01*
X45615337Y17578106D01*
X45663118Y17444567D01*
X45697582Y17306978D01*
X45718395Y17166671D01*
X45725355Y17025000D01*
X45718395Y16883329D01*
X45697582Y16743022D01*
X45663118Y16605433D01*
X45615337Y16471894D01*
X45554688Y16343662D01*
X45481771Y16222007D01*
X45397273Y16108074D01*
X45302020Y16002980D01*
X45196926Y15907727D01*
X45082993Y15823229D01*
X44961338Y15750312D01*
X44833106Y15689663D01*
X44699567Y15641882D01*
X44561978Y15607418D01*
X44421671Y15586605D01*
X44280000Y15579645D01*
D02*
G37*
%LPC*%
G36*
X15700000Y15579645D02*
X15558329Y15586605D01*
X15418022Y15607418D01*
X15280433Y15641882D01*
X15146894Y15689663D01*
X15018662Y15750312D01*
X14897007Y15823229D01*
X14783074Y15907727D01*
X14677980Y16002980D01*
X14582727Y16108074D01*
X14498229Y16222007D01*
X14425312Y16343662D01*
X14364663Y16471894D01*
X14316882Y16605433D01*
X14282418Y16743022D01*
X14261605Y16883329D01*
X14254645Y17025000D01*
X14261605Y17166671D01*
X14282418Y17306978D01*
X14316882Y17444567D01*
X14364663Y17578106D01*
X14425312Y17706338D01*
X14498229Y17827993D01*
X14582727Y17941926D01*
X14677980Y18047020D01*
X14783074Y18142273D01*
X14897007Y18226771D01*
X15018662Y18299688D01*
X15146894Y18360337D01*
X15280433Y18408118D01*
X15418022Y18442582D01*
X15558329Y18463395D01*
X15700000Y18470355D01*
X15841671Y18463395D01*
X15981978Y18442582D01*
X16119567Y18408118D01*
X16253106Y18360337D01*
X16381338Y18299688D01*
X16502993Y18226771D01*
X16616926Y18142273D01*
X16722020Y18047020D01*
X16817273Y17941926D01*
X16901771Y17827993D01*
X16974688Y17706338D01*
X17035337Y17578106D01*
X17083118Y17444567D01*
X17117582Y17306978D01*
X17138395Y17166671D01*
X17145355Y17025000D01*
X17138395Y16883329D01*
X17117582Y16743022D01*
X17083118Y16605433D01*
X17035337Y16471894D01*
X16974688Y16343662D01*
X16901771Y16222007D01*
X16817273Y16108074D01*
X16722020Y16002980D01*
X16616926Y15907727D01*
X16502993Y15823229D01*
X16381338Y15750312D01*
X16253106Y15689663D01*
X16119567Y15641882D01*
X15981978Y15607418D01*
X15841671Y15586605D01*
X15700000Y15579645D01*
D02*
G37*
%LPC*%
G36*
X4280000Y15579645D02*
X4138329Y15586605D01*
X3998022Y15607418D01*
X3860433Y15641882D01*
X3726894Y15689663D01*
X3598662Y15750312D01*
X3477007Y15823229D01*
X3363074Y15907727D01*
X3257980Y16002980D01*
X3162727Y16108074D01*
X3078229Y16222007D01*
X3005312Y16343662D01*
X2944663Y16471894D01*
X2896882Y16605433D01*
X2862418Y16743022D01*
X2841605Y16883329D01*
X2834645Y17025000D01*
X2841605Y17166671D01*
X2862418Y17306978D01*
X2896882Y17444567D01*
X2944663Y17578106D01*
X3005312Y17706338D01*
X3078229Y17827993D01*
X3162727Y17941926D01*
X3257980Y18047020D01*
X3363074Y18142273D01*
X3477007Y18226771D01*
X3598662Y18299688D01*
X3726894Y18360337D01*
X3860433Y18408118D01*
X3998022Y18442582D01*
X4138329Y18463395D01*
X4280000Y18470355D01*
X4421671Y18463395D01*
X4561978Y18442582D01*
X4699567Y18408118D01*
X4833106Y18360337D01*
X4961338Y18299688D01*
X5082993Y18226771D01*
X5196926Y18142273D01*
X5302020Y18047020D01*
X5397273Y17941926D01*
X5481771Y17827993D01*
X5554688Y17706338D01*
X5615337Y17578106D01*
X5663118Y17444567D01*
X5697582Y17306978D01*
X5718395Y17166671D01*
X5725355Y17025000D01*
X5718395Y16883329D01*
X5697582Y16743022D01*
X5663118Y16605433D01*
X5615337Y16471894D01*
X5554688Y16343662D01*
X5481771Y16222007D01*
X5397273Y16108074D01*
X5302020Y16002980D01*
X5196926Y15907727D01*
X5082993Y15823229D01*
X4961338Y15750312D01*
X4833106Y15689663D01*
X4699567Y15641882D01*
X4561978Y15607418D01*
X4421671Y15586605D01*
X4280000Y15579645D01*
D02*
G37*
%LPC*%
G36*
X34350000Y14797675D02*
X34261268Y14802035D01*
X34173388Y14815071D01*
X34087224Y14836653D01*
X34003579Y14866583D01*
X33923263Y14904570D01*
X33847079Y14950232D01*
X33775715Y15003159D01*
X33709894Y15062816D01*
X33650237Y15128637D01*
X33597310Y15200001D01*
X33551648Y15276185D01*
X33513661Y15356501D01*
X33483731Y15440146D01*
X33462149Y15526310D01*
X33449113Y15614190D01*
X33444753Y15702922D01*
X33449113Y15791654D01*
X33462149Y15879534D01*
X33483731Y15965698D01*
X33513661Y16049343D01*
X33551648Y16129659D01*
X33597310Y16205843D01*
X33650237Y16277207D01*
X33709894Y16343028D01*
X33775715Y16402685D01*
X33847079Y16455612D01*
X33923263Y16501274D01*
X34003579Y16539261D01*
X34087224Y16569191D01*
X34173388Y16590773D01*
X34261268Y16603809D01*
X34350000Y16608169D01*
X34438732Y16603809D01*
X34526612Y16590773D01*
X34612776Y16569191D01*
X34696421Y16539261D01*
X34776737Y16501274D01*
X34852921Y16455612D01*
X34924285Y16402685D01*
X34990106Y16343028D01*
X35049763Y16277207D01*
X35102690Y16205843D01*
X35148352Y16129659D01*
X35186339Y16049343D01*
X35216269Y15965698D01*
X35237851Y15879534D01*
X35250887Y15791654D01*
X35255247Y15702922D01*
X35250887Y15614190D01*
X35237851Y15526310D01*
X35216269Y15440146D01*
X35186339Y15356501D01*
X35148352Y15276185D01*
X35102690Y15200001D01*
X35049763Y15128637D01*
X34990106Y15062816D01*
X34924285Y15003159D01*
X34852921Y14950232D01*
X34776737Y14904570D01*
X34696421Y14866583D01*
X34612776Y14836653D01*
X34526612Y14815071D01*
X34438732Y14802035D01*
X34350000Y14797675D01*
D02*
G37*
%LPC*%
G36*
X4280000Y9229645D02*
X4138329Y9236605D01*
X3998022Y9257418D01*
X3860433Y9291882D01*
X3726894Y9339663D01*
X3598662Y9400312D01*
X3477007Y9473229D01*
X3363074Y9557727D01*
X3257980Y9652980D01*
X3162727Y9758074D01*
X3078229Y9872007D01*
X3005312Y9993662D01*
X2944663Y10121894D01*
X2896882Y10255433D01*
X2862418Y10393022D01*
X2841605Y10533329D01*
X2834645Y10675000D01*
X2841605Y10816671D01*
X2862418Y10956978D01*
X2896882Y11094567D01*
X2944663Y11228106D01*
X3005312Y11356338D01*
X3078229Y11477993D01*
X3162727Y11591926D01*
X3257980Y11697020D01*
X3363074Y11792273D01*
X3477007Y11876771D01*
X3598662Y11949688D01*
X3726894Y12010337D01*
X3860433Y12058118D01*
X3998022Y12092582D01*
X4138329Y12113395D01*
X4280000Y12120355D01*
X4421671Y12113395D01*
X4561978Y12092582D01*
X4699567Y12058118D01*
X4833106Y12010337D01*
X4961338Y11949688D01*
X5082993Y11876771D01*
X5196926Y11792273D01*
X5302020Y11697020D01*
X5397273Y11591926D01*
X5481771Y11477993D01*
X5554688Y11356338D01*
X5615337Y11228106D01*
X5663118Y11094567D01*
X5697582Y10956978D01*
X5718395Y10816671D01*
X5725355Y10675000D01*
X5718395Y10533329D01*
X5697582Y10393022D01*
X5663118Y10255433D01*
X5615337Y10121894D01*
X5554688Y9993662D01*
X5481771Y9872007D01*
X5397273Y9758074D01*
X5302020Y9652980D01*
X5196926Y9557727D01*
X5082993Y9473229D01*
X4961338Y9400312D01*
X4833106Y9339663D01*
X4699567Y9291882D01*
X4561978Y9257418D01*
X4421671Y9236605D01*
X4280000Y9229645D01*
D02*
G37*
%LPC*%
G36*
X15700000Y9229645D02*
X15558329Y9236605D01*
X15418022Y9257418D01*
X15280433Y9291882D01*
X15146894Y9339663D01*
X15018662Y9400312D01*
X14897007Y9473229D01*
X14783074Y9557727D01*
X14677980Y9652980D01*
X14582727Y9758074D01*
X14498229Y9872007D01*
X14425312Y9993662D01*
X14364663Y10121894D01*
X14316882Y10255433D01*
X14282418Y10393022D01*
X14261605Y10533329D01*
X14254645Y10675000D01*
X14261605Y10816671D01*
X14282418Y10956978D01*
X14316882Y11094567D01*
X14364663Y11228106D01*
X14425312Y11356338D01*
X14498229Y11477993D01*
X14582727Y11591926D01*
X14677980Y11697020D01*
X14783074Y11792273D01*
X14897007Y11876771D01*
X15018662Y11949688D01*
X15146894Y12010337D01*
X15280433Y12058118D01*
X15418022Y12092582D01*
X15558329Y12113395D01*
X15700000Y12120355D01*
X15841671Y12113395D01*
X15981978Y12092582D01*
X16119567Y12058118D01*
X16253106Y12010337D01*
X16381338Y11949688D01*
X16502993Y11876771D01*
X16616926Y11792273D01*
X16722020Y11697020D01*
X16817273Y11591926D01*
X16901771Y11477993D01*
X16974688Y11356338D01*
X17035337Y11228106D01*
X17083118Y11094567D01*
X17117582Y10956978D01*
X17138395Y10816671D01*
X17145355Y10675000D01*
X17138395Y10533329D01*
X17117582Y10393022D01*
X17083118Y10255433D01*
X17035337Y10121894D01*
X16974688Y9993662D01*
X16901771Y9872007D01*
X16817273Y9758074D01*
X16722020Y9652980D01*
X16616926Y9557727D01*
X16502993Y9473229D01*
X16381338Y9400312D01*
X16253106Y9339663D01*
X16119567Y9291882D01*
X15981978Y9257418D01*
X15841671Y9236605D01*
X15700000Y9229645D01*
D02*
G37*
%LPC*%
G36*
X44280000Y9229645D02*
X44138329Y9236605D01*
X43998022Y9257418D01*
X43860433Y9291882D01*
X43726894Y9339663D01*
X43598662Y9400312D01*
X43477007Y9473229D01*
X43363074Y9557727D01*
X43257980Y9652980D01*
X43162727Y9758074D01*
X43078229Y9872007D01*
X43005312Y9993662D01*
X42944663Y10121894D01*
X42896882Y10255433D01*
X42862418Y10393022D01*
X42841605Y10533329D01*
X42834645Y10675000D01*
X42841605Y10816671D01*
X42862418Y10956978D01*
X42896882Y11094567D01*
X42944663Y11228106D01*
X43005312Y11356338D01*
X43078229Y11477993D01*
X43162727Y11591926D01*
X43257980Y11697020D01*
X43363074Y11792273D01*
X43477007Y11876771D01*
X43598662Y11949688D01*
X43726894Y12010337D01*
X43860433Y12058118D01*
X43998022Y12092582D01*
X44138329Y12113395D01*
X44280000Y12120355D01*
X44421671Y12113395D01*
X44561978Y12092582D01*
X44699567Y12058118D01*
X44833106Y12010337D01*
X44961338Y11949688D01*
X45082993Y11876771D01*
X45196926Y11792273D01*
X45302020Y11697020D01*
X45397273Y11591926D01*
X45481771Y11477993D01*
X45554688Y11356338D01*
X45615337Y11228106D01*
X45663118Y11094567D01*
X45697582Y10956978D01*
X45718395Y10816671D01*
X45725355Y10675000D01*
X45718395Y10533329D01*
X45697582Y10393022D01*
X45663118Y10255433D01*
X45615337Y10121894D01*
X45554688Y9993662D01*
X45481771Y9872007D01*
X45397273Y9758074D01*
X45302020Y9652980D01*
X45196926Y9557727D01*
X45082993Y9473229D01*
X44961338Y9400312D01*
X44833106Y9339663D01*
X44699567Y9291882D01*
X44561978Y9257418D01*
X44421671Y9236605D01*
X44280000Y9229645D01*
D02*
G37*
%LPC*%
G36*
X55700000Y9229645D02*
X55558329Y9236605D01*
X55418022Y9257418D01*
X55280433Y9291882D01*
X55146894Y9339663D01*
X55018662Y9400312D01*
X54897007Y9473229D01*
X54783074Y9557727D01*
X54677980Y9652980D01*
X54582727Y9758074D01*
X54498229Y9872007D01*
X54425312Y9993662D01*
X54364663Y10121894D01*
X54316882Y10255433D01*
X54282418Y10393022D01*
X54261605Y10533329D01*
X54254645Y10675000D01*
X54261605Y10816671D01*
X54282418Y10956978D01*
X54316882Y11094567D01*
X54364663Y11228106D01*
X54425312Y11356338D01*
X54498229Y11477993D01*
X54582727Y11591926D01*
X54677980Y11697020D01*
X54783074Y11792273D01*
X54897007Y11876771D01*
X55018662Y11949688D01*
X55146894Y12010337D01*
X55280433Y12058118D01*
X55418022Y12092582D01*
X55558329Y12113395D01*
X55700000Y12120355D01*
X55841671Y12113395D01*
X55981978Y12092582D01*
X56119567Y12058118D01*
X56253106Y12010337D01*
X56381338Y11949688D01*
X56502993Y11876771D01*
X56616926Y11792273D01*
X56722020Y11697020D01*
X56817273Y11591926D01*
X56901771Y11477993D01*
X56974688Y11356338D01*
X57035337Y11228106D01*
X57083118Y11094567D01*
X57117582Y10956978D01*
X57138395Y10816671D01*
X57145355Y10675000D01*
X57138395Y10533329D01*
X57117582Y10393022D01*
X57083118Y10255433D01*
X57035337Y10121894D01*
X56974688Y9993662D01*
X56901771Y9872007D01*
X56817273Y9758074D01*
X56722020Y9652980D01*
X56616926Y9557727D01*
X56502993Y9473229D01*
X56381338Y9400312D01*
X56253106Y9339663D01*
X56119567Y9291882D01*
X55981978Y9257418D01*
X55841671Y9236605D01*
X55700000Y9229645D01*
D02*
G37*
%LPC*%
G36*
X23050000Y4204645D02*
X22937736Y4210160D01*
X22826547Y4226654D01*
X22717519Y4253964D01*
X22611695Y4291828D01*
X22510090Y4339883D01*
X22413672Y4397674D01*
X22323391Y4464631D01*
X22240112Y4540112D01*
X22164631Y4623391D01*
X22097674Y4713672D01*
X22039883Y4810090D01*
X21991828Y4911695D01*
X21953964Y5017519D01*
X21926654Y5126547D01*
X21910160Y5237736D01*
X21904645Y5350000D01*
X21910160Y5462264D01*
X21926654Y5573453D01*
X21953964Y5682481D01*
X21991828Y5788305D01*
X22039883Y5889910D01*
X22097674Y5986328D01*
X22164631Y6076609D01*
X22240112Y6159888D01*
X22323391Y6235369D01*
X22413672Y6302326D01*
X22510090Y6360117D01*
X22611695Y6408172D01*
X22717519Y6446036D01*
X22826547Y6473346D01*
X22937736Y6489840D01*
X23050000Y6495355D01*
X23162264Y6489840D01*
X23273453Y6473346D01*
X23382481Y6446036D01*
X23488305Y6408172D01*
X23589910Y6360117D01*
X23686328Y6302326D01*
X23776609Y6235369D01*
X23859888Y6159888D01*
X23935369Y6076609D01*
X24002326Y5986328D01*
X24060117Y5889910D01*
X24108172Y5788305D01*
X24146036Y5682481D01*
X24173346Y5573453D01*
X24189840Y5462264D01*
X24195355Y5350000D01*
X24189840Y5237736D01*
X24173346Y5126547D01*
X24146036Y5017519D01*
X24108172Y4911695D01*
X24060117Y4810090D01*
X24002326Y4713672D01*
X23935369Y4623391D01*
X23859888Y4540112D01*
X23776609Y4464631D01*
X23686328Y4397674D01*
X23589910Y4339883D01*
X23488305Y4291828D01*
X23382481Y4253964D01*
X23273453Y4226654D01*
X23162264Y4210160D01*
X23050000Y4204645D01*
D02*
G37*
%LPC*%
G36*
X15700000Y2879645D02*
X15558329Y2886605D01*
X15418022Y2907418D01*
X15280433Y2941882D01*
X15146894Y2989663D01*
X15018662Y3050312D01*
X14897007Y3123229D01*
X14783074Y3207727D01*
X14677980Y3302980D01*
X14582727Y3408074D01*
X14498229Y3522007D01*
X14425312Y3643662D01*
X14364663Y3771894D01*
X14316882Y3905433D01*
X14282418Y4043022D01*
X14261605Y4183329D01*
X14254645Y4325000D01*
X14261605Y4466671D01*
X14282418Y4606978D01*
X14316882Y4744567D01*
X14364663Y4878106D01*
X14425312Y5006338D01*
X14498229Y5127993D01*
X14582727Y5241926D01*
X14677980Y5347020D01*
X14783074Y5442273D01*
X14897007Y5526771D01*
X15018662Y5599688D01*
X15146894Y5660337D01*
X15280433Y5708118D01*
X15418022Y5742582D01*
X15558329Y5763395D01*
X15700000Y5770355D01*
X15841671Y5763395D01*
X15981978Y5742582D01*
X16119567Y5708118D01*
X16253106Y5660337D01*
X16381338Y5599688D01*
X16502993Y5526771D01*
X16616926Y5442273D01*
X16722020Y5347020D01*
X16817273Y5241926D01*
X16901771Y5127993D01*
X16974688Y5006338D01*
X17035337Y4878106D01*
X17083118Y4744567D01*
X17117582Y4606978D01*
X17138395Y4466671D01*
X17145355Y4325000D01*
X17138395Y4183329D01*
X17117582Y4043022D01*
X17083118Y3905433D01*
X17035337Y3771894D01*
X16974688Y3643662D01*
X16901771Y3522007D01*
X16817273Y3408074D01*
X16722020Y3302980D01*
X16616926Y3207727D01*
X16502993Y3123229D01*
X16381338Y3050312D01*
X16253106Y2989663D01*
X16119567Y2941882D01*
X15981978Y2907418D01*
X15841671Y2886605D01*
X15700000Y2879645D01*
D02*
G37*
%LPC*%
G36*
X55700000Y2879645D02*
X55558329Y2886605D01*
X55418022Y2907418D01*
X55280433Y2941882D01*
X55146894Y2989663D01*
X55018662Y3050312D01*
X54897007Y3123229D01*
X54783074Y3207727D01*
X54677980Y3302980D01*
X54582727Y3408074D01*
X54498229Y3522007D01*
X54425312Y3643662D01*
X54364663Y3771894D01*
X54316882Y3905433D01*
X54282418Y4043022D01*
X54261605Y4183329D01*
X54254645Y4325000D01*
X54261605Y4466671D01*
X54282418Y4606978D01*
X54316882Y4744567D01*
X54364663Y4878106D01*
X54425312Y5006338D01*
X54498229Y5127993D01*
X54582727Y5241926D01*
X54677980Y5347020D01*
X54783074Y5442273D01*
X54897007Y5526771D01*
X55018662Y5599688D01*
X55146894Y5660337D01*
X55280433Y5708118D01*
X55418022Y5742582D01*
X55558329Y5763395D01*
X55700000Y5770355D01*
X55841671Y5763395D01*
X55981978Y5742582D01*
X56119567Y5708118D01*
X56253106Y5660337D01*
X56381338Y5599688D01*
X56502993Y5526771D01*
X56616926Y5442273D01*
X56722020Y5347020D01*
X56817273Y5241926D01*
X56901771Y5127993D01*
X56974688Y5006338D01*
X57035337Y4878106D01*
X57083118Y4744567D01*
X57117582Y4606978D01*
X57138395Y4466671D01*
X57145355Y4325000D01*
X57138395Y4183329D01*
X57117582Y4043022D01*
X57083118Y3905433D01*
X57035337Y3771894D01*
X56974688Y3643662D01*
X56901771Y3522007D01*
X56817273Y3408074D01*
X56722020Y3302980D01*
X56616926Y3207727D01*
X56502993Y3123229D01*
X56381338Y3050312D01*
X56253106Y2989663D01*
X56119567Y2941882D01*
X55981978Y2907418D01*
X55841671Y2886605D01*
X55700000Y2879645D01*
D02*
G37*
%LPD*%
G01*
%LPD*%
G75*
D10*
X23050000Y5350000D03*
D10*
X23050000Y2850000D03*
D11*
X15700000Y10675000D03*
D11*
X4280000Y10675000D03*
D11*
X4280000Y4325000D03*
D11*
X4280000Y17025000D03*
D11*
X15700000Y17025000D03*
D11*
X15700000Y4325000D03*
D12*
X34930000Y30270000D03*
D12*
X37470000Y29000000D03*
D13*
X13740000Y42120000D03*
D13*
X11200000Y39580000D03*
D13*
X8660000Y42120000D03*
D14*
X3400000Y36890000D03*
D14*
X3400000Y44510000D03*
D15*
X27752917Y39698737D03*
D15*
X42752917Y39698737D03*
D15*
X20252917Y39698737D03*
D15*
X30252917Y39698737D03*
D15*
X35252917Y39698737D03*
D15*
X25252917Y39698737D03*
D15*
X40252917Y39698737D03*
D15*
X37752917Y39698737D03*
D15*
X22752917Y39698737D03*
D15*
X32752917Y39698737D03*
D11*
X55700000Y10675000D03*
D11*
X44280000Y10675000D03*
D11*
X44280000Y4325000D03*
D11*
X44280000Y17025000D03*
D11*
X55700000Y17025000D03*
D11*
X55700000Y4325000D03*
D16*
X46410000Y41850000D03*
D16*
X28119995Y28810001D03*
D17*
X31500000Y1000000D03*
D17*
X62000000Y46000000D03*
D16*
X58350000Y25350000D03*
D16*
X17145000Y28330000D03*
D16*
X44230000Y32715000D03*
D17*
X1000000Y8500000D03*
D16*
X39350000Y11562922D03*
D18*
X13705000Y29970000D03*
D18*
X36200000Y27600000D03*
D16*
X39125000Y8500000D03*
D17*
X62000000Y38500000D03*
D16*
X7965000Y23660000D03*
D16*
X8625000Y38500000D03*
D16*
X15095000Y20920000D03*
D17*
X46750000Y46000000D03*
D17*
X39125000Y1000000D03*
D19*
X57800000Y43410000D03*
D16*
X43030000Y31415000D03*
D17*
X62000000Y31000000D03*
D20*
X34350000Y15702922D03*
D16*
X48810000Y35550000D03*
D16*
X13035000Y24420000D03*
D16*
X41790000Y13202922D03*
D16*
X19950000Y10767954D03*
D16*
X36340000Y31265000D03*
D17*
X46750000Y1000000D03*
D16*
X47610000Y33850000D03*
D20*
X59675000Y31270000D03*
D17*
X54375000Y46000000D03*
D16*
X11165000Y30450000D03*
D17*
X8625000Y1000000D03*
D16*
X7275000Y31120000D03*
D16*
X18450000Y12067954D03*
D16*
X40080000Y29025000D03*
D17*
X1000000Y23500000D03*
D16*
X29950000Y8802922D03*
D17*
X1000000Y31000000D03*
D17*
X16250000Y1000000D03*
D16*
X48810000Y41850000D03*
D20*
X17695000Y26730000D03*
D16*
X49430000Y20800000D03*
D16*
X58350000Y22050000D03*
D19*
X50110000Y33550000D03*
D17*
X39125000Y46000000D03*
D20*
X18605000Y23990000D03*
D16*
X46600000Y20170000D03*
D17*
X62000000Y23500000D03*
D16*
X47610000Y37250000D03*
D16*
X8625000Y16000000D03*
D17*
X23875000Y1000000D03*
D19*
X57800000Y40870000D03*
D16*
X54375000Y39500000D03*
D16*
X28119995Y32090001D03*
D17*
X31500000Y46000000D03*
D16*
X46750000Y8500000D03*
D17*
X62000000Y16000000D03*
D16*
X43760000Y20800000D03*
D17*
X62000000Y8500000D03*
D17*
X1000000Y1000000D03*
D20*
X41550000Y23700000D03*
D17*
X62000000Y1000000D03*
D16*
X54375000Y8500000D03*
D16*
X23605000Y23440000D03*
D16*
X47610000Y40150000D03*
D16*
X16250000Y37800000D03*
D17*
X23875000Y46000000D03*
D16*
X16250000Y8500000D03*
D20*
X53350000Y26200000D03*
D17*
X16250000Y46000000D03*
D16*
X46750000Y16000000D03*
D16*
X26055000Y21790000D03*
D16*
X53775000Y16000000D03*
D17*
X8625000Y46000000D03*
D16*
X8625000Y8500000D03*
D20*
X41680000Y28515000D03*
D17*
X1000000Y46000000D03*
D16*
X39350000Y14852922D03*
D16*
X19825000Y33670002D03*
D16*
X21450000Y12067954D03*
D20*
X23179995Y32850001D03*
D17*
X1000000Y38500000D03*
D17*
X54375000Y1000000D03*
D17*
X1000000Y16000000D03*
M02*
