M48
FMAT,2
METRIC,TZ
T3C0.350
T5C0.500
T4C0.600
T1C1.000
T2C1.500
%
G90
G05
M71
T3
X34.930Y30.270
X37.470Y29.000
X46.410Y41.850
X28.120Y28.810
X31.500Y1.000
X62.000Y46.000
X58.350Y25.350
X17.145Y28.330
X44.230Y32.715
X1.000Y8.500
X39.350Y11.563
X39.125Y8.500
X62.000Y38.500
X7.965Y23.660
X8.625Y38.500
X15.095Y20.920
X46.750Y46.000
X39.125Y1.000
X43.030Y31.415
X62.000Y31.000
X48.810Y35.550
X13.035Y24.420
X41.790Y13.203
X19.950Y10.768
X36.340Y31.265
X46.750Y1.000
X47.610Y33.850
X54.375Y46.000
X11.165Y30.450
X8.625Y1.000
X7.275Y31.120
X18.450Y12.068
X40.080Y29.025
X1.000Y23.500
X29.950Y8.803
X1.000Y31.000
X16.250Y1.000
X48.810Y41.850
X49.430Y20.800
X58.350Y22.050
X39.125Y46.000
X46.600Y20.170
X62.000Y23.500
X47.610Y37.250
X8.625Y16.000
X23.875Y1.000
X54.375Y39.500
X28.120Y32.090
X31.500Y46.000
X46.750Y8.500
X62.000Y16.000
X43.760Y20.800
X62.000Y8.500
X1.000Y1.000
X62.000Y1.000
X54.375Y8.500
X23.605Y23.440
X47.610Y40.150
X16.250Y37.800
X23.875Y46.000
X16.250Y8.500
X16.250Y46.000
X46.750Y16.000
X26.055Y21.790
X53.775Y16.000
X8.625Y46.000
X8.625Y8.500
X1.000Y46.000
X39.350Y14.853
X19.825Y33.670
X21.450Y12.068
X1.000Y38.500
X54.375Y1.000
X1.000Y16.000
T5
X57.800Y43.410
X50.110Y33.550
X57.800Y40.870
T4
X13.740Y42.120
X11.200Y39.580
X8.660Y42.120
X13.705Y29.970
X36.200Y27.600
T1
X23.050Y5.350
X23.050Y2.850
X3.400Y36.890
X3.400Y44.510
X27.753Y39.699
X42.753Y39.699
X20.253Y39.699
X30.253Y39.699
X35.253Y39.699
X25.253Y39.699
X40.253Y39.699
X37.753Y39.699
X22.753Y39.699
X32.753Y39.699
X34.350Y15.703
X59.675Y31.270
X17.695Y26.730
X18.605Y23.990
X41.550Y23.700
X53.350Y26.200
X41.680Y28.515
X23.180Y32.850
T2
X15.700Y10.675
X4.280Y10.675
X4.280Y4.325
X4.280Y17.025
X15.700Y17.025
X15.700Y4.325
X55.700Y10.675
X44.280Y10.675
X44.280Y4.325
X44.280Y17.025
X55.700Y17.025
X55.700Y4.325
M30
