%FSLAX46Y46*%
%MOMM*%
%AMPS12*
1,1,0.600000,0.000000,0.000000*
%
%ADD12PS12*%
%AMPS11*
1,1,2.300000,0.000000,0.000000*
%
%ADD11PS11*%
%AMPS13*
1,1,1.300000,0.000000,0.000000*
%
%ADD13PS13*%
%AMPS14*
1,1,1.700000,0.000000,0.000000*
%
%ADD14PS14*%
%AMPS15*
1,1,1.700000,0.000000,0.000000*
%
%ADD15PS15*%
%AMPS10*
1,1,1.700000,0.000000,0.000000*
%
%ADD10PS10*%
%AMPS20*
1,1,1.400000,0.000000,0.000000*
%
%ADD20PS20*%
%AMPS17*
1,1,0.700000,0.000000,0.000000*
%
%ADD17PS17*%
%AMPS19*
1,1,0.900000,0.000000,0.000000*
%
%ADD19PS19*%
%AMPS18*
1,1,1.000000,0.000000,0.000000*
%
%ADD18PS18*%
%AMPS16*
1,1,0.700000,0.000000,0.000000*
%
%ADD16PS16*%
G01*
%LPD*%
G36*
X62640000Y360000D02*
X62640000Y46640000D01*
X360000Y46640000D01*
X360000Y360000D01*
X62640000Y360000D01*
D02*
G37*
%LPC*%
G36*
X57800000Y42754753D02*
X57735774Y42757909D01*
X57672167Y42767345D01*
X57609790Y42782968D01*
X57549243Y42804634D01*
X57491122Y42832123D01*
X57435966Y42865182D01*
X57384316Y42903488D01*
X57336670Y42946670D01*
X57293488Y42994316D01*
X57255182Y43045966D01*
X57222123Y43101122D01*
X57194634Y43159243D01*
X57172968Y43219790D01*
X57157345Y43282167D01*
X57147909Y43345774D01*
X57144753Y43410000D01*
X57147909Y43474226D01*
X57157345Y43537833D01*
X57172968Y43600210D01*
X57194634Y43660757D01*
X57222123Y43718878D01*
X57255182Y43774034D01*
X57293488Y43825684D01*
X57336670Y43873330D01*
X57384316Y43916512D01*
X57435966Y43954818D01*
X57491122Y43987877D01*
X57549243Y44015366D01*
X57609790Y44037032D01*
X57672167Y44052655D01*
X57735774Y44062091D01*
X57800000Y44065247D01*
X57864226Y44062091D01*
X57927833Y44052655D01*
X57990210Y44037032D01*
X58050757Y44015366D01*
X58108878Y43987877D01*
X58164034Y43954818D01*
X58215684Y43916512D01*
X58263330Y43873330D01*
X58306512Y43825684D01*
X58344818Y43774034D01*
X58377877Y43718878D01*
X58405366Y43660757D01*
X58427032Y43600210D01*
X58442655Y43537833D01*
X58452091Y43474226D01*
X58455247Y43410000D01*
X58452091Y43345774D01*
X58442655Y43282167D01*
X58427032Y43219790D01*
X58405366Y43159243D01*
X58377877Y43101122D01*
X58344818Y43045966D01*
X58306512Y42994316D01*
X58263330Y42946670D01*
X58215684Y42903488D01*
X58164034Y42865182D01*
X58108878Y42832123D01*
X58050757Y42804634D01*
X57990210Y42782968D01*
X57927833Y42767345D01*
X57864226Y42757909D01*
X57800000Y42754753D01*
D02*
G37*
%LPC*%
G36*
X8660000Y41174645D02*
X8567339Y41179197D01*
X8475565Y41192811D01*
X8385578Y41215351D01*
X8298229Y41246606D01*
X8214356Y41286275D01*
X8134794Y41333962D01*
X8060274Y41389231D01*
X7991533Y41451533D01*
X7929231Y41520274D01*
X7873962Y41594794D01*
X7826275Y41674356D01*
X7786606Y41758229D01*
X7755351Y41845578D01*
X7732811Y41935565D01*
X7719197Y42027339D01*
X7714645Y42120000D01*
X7719197Y42212661D01*
X7732811Y42304435D01*
X7755351Y42394422D01*
X7786606Y42481771D01*
X7826275Y42565644D01*
X7873962Y42645206D01*
X7929231Y42719726D01*
X7991533Y42788467D01*
X8060274Y42850769D01*
X8134794Y42906038D01*
X8214356Y42953725D01*
X8298229Y42993394D01*
X8385578Y43024649D01*
X8475565Y43047189D01*
X8567339Y43060803D01*
X8660000Y43065355D01*
X8752661Y43060803D01*
X8844435Y43047189D01*
X8934422Y43024649D01*
X9021771Y42993394D01*
X9105644Y42953725D01*
X9185206Y42906038D01*
X9259726Y42850769D01*
X9328467Y42788467D01*
X9390769Y42719726D01*
X9446038Y42645206D01*
X9493725Y42565644D01*
X9533394Y42481771D01*
X9564649Y42394422D01*
X9587189Y42304435D01*
X9600803Y42212661D01*
X9605355Y42120000D01*
X9600803Y42027339D01*
X9587189Y41935565D01*
X9564649Y41845578D01*
X9533394Y41758229D01*
X9493725Y41674356D01*
X9446038Y41594794D01*
X9390769Y41520274D01*
X9328467Y41451533D01*
X9259726Y41389231D01*
X9185206Y41333962D01*
X9105644Y41286275D01*
X9021771Y41246606D01*
X8934422Y41215351D01*
X8844435Y41192811D01*
X8752661Y41179197D01*
X8660000Y41174645D01*
D02*
G37*
%LPC*%
G36*
X13740000Y41174645D02*
X13647339Y41179197D01*
X13555565Y41192811D01*
X13465578Y41215351D01*
X13378229Y41246606D01*
X13294356Y41286275D01*
X13214794Y41333962D01*
X13140274Y41389231D01*
X13071533Y41451533D01*
X13009231Y41520274D01*
X12953962Y41594794D01*
X12906275Y41674356D01*
X12866606Y41758229D01*
X12835351Y41845578D01*
X12812811Y41935565D01*
X12799197Y42027339D01*
X12794645Y42120000D01*
X12799197Y42212661D01*
X12812811Y42304435D01*
X12835351Y42394422D01*
X12866606Y42481771D01*
X12906275Y42565644D01*
X12953962Y42645206D01*
X13009231Y42719726D01*
X13071533Y42788467D01*
X13140274Y42850769D01*
X13214794Y42906038D01*
X13294356Y42953725D01*
X13378229Y42993394D01*
X13465578Y43024649D01*
X13555565Y43047189D01*
X13647339Y43060803D01*
X13740000Y43065355D01*
X13832661Y43060803D01*
X13924435Y43047189D01*
X14014422Y43024649D01*
X14101771Y42993394D01*
X14185644Y42953725D01*
X14265206Y42906038D01*
X14339726Y42850769D01*
X14408467Y42788467D01*
X14470769Y42719726D01*
X14526038Y42645206D01*
X14573725Y42565644D01*
X14613394Y42481771D01*
X14644649Y42394422D01*
X14667189Y42304435D01*
X14680803Y42212661D01*
X14685355Y42120000D01*
X14680803Y42027339D01*
X14667189Y41935565D01*
X14644649Y41845578D01*
X14613394Y41758229D01*
X14573725Y41674356D01*
X14526038Y41594794D01*
X14470769Y41520274D01*
X14408467Y41451533D01*
X14339726Y41389231D01*
X14265206Y41333962D01*
X14185644Y41286275D01*
X14101771Y41246606D01*
X14014422Y41215351D01*
X13924435Y41192811D01*
X13832661Y41179197D01*
X13740000Y41174645D01*
D02*
G37*
%LPC*%
G36*
X57800000Y40214753D02*
X57735774Y40217909D01*
X57672167Y40227345D01*
X57609790Y40242968D01*
X57549243Y40264634D01*
X57491122Y40292123D01*
X57435966Y40325182D01*
X57384316Y40363488D01*
X57336670Y40406670D01*
X57293488Y40454316D01*
X57255182Y40505966D01*
X57222123Y40561122D01*
X57194634Y40619243D01*
X57172968Y40679790D01*
X57157345Y40742167D01*
X57147909Y40805774D01*
X57144753Y40870000D01*
X57147909Y40934226D01*
X57157345Y40997833D01*
X57172968Y41060210D01*
X57194634Y41120757D01*
X57222123Y41178878D01*
X57255182Y41234034D01*
X57293488Y41285684D01*
X57336670Y41333330D01*
X57384316Y41376512D01*
X57435966Y41414818D01*
X57491122Y41447877D01*
X57549243Y41475366D01*
X57609790Y41497032D01*
X57672167Y41512655D01*
X57735774Y41522091D01*
X57800000Y41525247D01*
X57864226Y41522091D01*
X57927833Y41512655D01*
X57990210Y41497032D01*
X58050757Y41475366D01*
X58108878Y41447877D01*
X58164034Y41414818D01*
X58215684Y41376512D01*
X58263330Y41333330D01*
X58306512Y41285684D01*
X58344818Y41234034D01*
X58377877Y41178878D01*
X58405366Y41120757D01*
X58427032Y41060210D01*
X58442655Y40997833D01*
X58452091Y40934226D01*
X58455247Y40870000D01*
X58452091Y40805774D01*
X58442655Y40742167D01*
X58427032Y40679790D01*
X58405366Y40619243D01*
X58377877Y40561122D01*
X58344818Y40505966D01*
X58306512Y40454316D01*
X58263330Y40406670D01*
X58215684Y40363488D01*
X58164034Y40325182D01*
X58108878Y40292123D01*
X58050757Y40264634D01*
X57990210Y40242968D01*
X57927833Y40227345D01*
X57864226Y40217909D01*
X57800000Y40214753D01*
D02*
G37*
%LPC*%
G36*
X36705000Y11645000D02*
X31745000Y11645000D01*
X31745000Y16245000D01*
X18700000Y16245000D01*
X18700000Y14141000D01*
X12045965Y14141000D01*
X11979031Y31790000D01*
X17295000Y31790000D01*
X17295000Y29945000D01*
X20845000Y29945000D01*
X20845000Y34555000D01*
X26595000Y34555000D01*
X26595000Y41245000D01*
X31629387Y41245000D01*
X34135000Y41256136D01*
X34135000Y33755000D01*
X46800000Y33755000D01*
X46800000Y28830000D01*
X58190000Y28830000D01*
X58190000Y36755000D01*
X61255000Y36755000D01*
X61255000Y20045000D01*
X50345000Y20045000D01*
X50345000Y24800000D01*
X42855000Y24800000D01*
X42855000Y18545000D01*
X36705000Y18545000D01*
X36705000Y11645000D01*
D02*
G37*
%LPD*%
G36*
X36450000Y11900000D02*
X36450000Y18800000D01*
X42600000Y18800000D01*
X42600000Y24800000D01*
X33885000Y24800000D01*
X33885000Y25055000D01*
X33880000Y25055000D01*
X33880000Y41000000D01*
X31630000Y40990000D01*
X31630000Y20080000D01*
X16999966Y20090000D01*
X16245000Y20090000D01*
X16245000Y25500000D01*
X20845000Y25500000D01*
X20845000Y29690000D01*
X17040000Y29690000D01*
X17040000Y31535000D01*
X12235000Y31535000D01*
X12300000Y14396000D01*
X18445000Y14396000D01*
X18445000Y16500000D01*
X32000000Y16500000D01*
X32000000Y11900000D01*
X36450000Y11900000D01*
D02*
G37*
%LPC*%
G36*
X17145000Y27774752D02*
X17090583Y27777426D01*
X17036672Y27785423D01*
X16983825Y27798660D01*
X16932514Y27817020D01*
X16883256Y27840317D01*
X16836520Y27868329D01*
X16792760Y27900784D01*
X16752381Y27937381D01*
X16715784Y27977760D01*
X16683329Y28021520D01*
X16655317Y28068256D01*
X16632020Y28117514D01*
X16613660Y28168825D01*
X16600423Y28221672D01*
X16592426Y28275583D01*
X16589752Y28330000D01*
X16592426Y28384417D01*
X16600423Y28438328D01*
X16613660Y28491175D01*
X16632020Y28542486D01*
X16655317Y28591744D01*
X16683329Y28638480D01*
X16715784Y28682240D01*
X16752381Y28722619D01*
X16792760Y28759216D01*
X16836520Y28791671D01*
X16883256Y28819683D01*
X16932514Y28842980D01*
X16983825Y28861340D01*
X17036672Y28874577D01*
X17090583Y28882574D01*
X17145000Y28885248D01*
X17199417Y28882574D01*
X17253328Y28874577D01*
X17306175Y28861340D01*
X17357486Y28842980D01*
X17406744Y28819683D01*
X17453480Y28791671D01*
X17497240Y28759216D01*
X17537619Y28722619D01*
X17574216Y28682240D01*
X17606671Y28638480D01*
X17634683Y28591744D01*
X17657980Y28542486D01*
X17676340Y28491175D01*
X17689577Y28438328D01*
X17697574Y28384417D01*
X17700248Y28330000D01*
X17697574Y28275583D01*
X17689577Y28221672D01*
X17676340Y28168825D01*
X17657980Y28117514D01*
X17634683Y28068256D01*
X17606671Y28021520D01*
X17574216Y27977760D01*
X17537619Y27937381D01*
X17497240Y27900784D01*
X17453480Y27868329D01*
X17406744Y27840317D01*
X17357486Y27817020D01*
X17306175Y27798660D01*
X17253328Y27785423D01*
X17199417Y27777426D01*
X17145000Y27774752D01*
D02*
G37*
%LPD*%
G36*
X17145000Y28030059D02*
X17174385Y28031504D01*
X17203522Y28035826D01*
X17232060Y28042973D01*
X17259788Y28052895D01*
X17286394Y28065478D01*
X17311635Y28080608D01*
X17335278Y28098143D01*
X17357089Y28117911D01*
X17376857Y28139722D01*
X17394392Y28163365D01*
X17409522Y28188606D01*
X17422105Y28215212D01*
X17432027Y28242940D01*
X17439174Y28271478D01*
X17443496Y28300615D01*
X17444941Y28330000D01*
X17443496Y28359385D01*
X17439174Y28388522D01*
X17432027Y28417060D01*
X17422105Y28444788D01*
X17409522Y28471394D01*
X17394392Y28496635D01*
X17376857Y28520278D01*
X17357089Y28542089D01*
X17335278Y28561857D01*
X17311635Y28579392D01*
X17286394Y28594522D01*
X17259788Y28607105D01*
X17232060Y28617027D01*
X17203522Y28624174D01*
X17174385Y28628496D01*
X17145000Y28629941D01*
X17115615Y28628496D01*
X17086478Y28624174D01*
X17057940Y28617027D01*
X17030212Y28607105D01*
X17003606Y28594522D01*
X16978365Y28579392D01*
X16954722Y28561857D01*
X16932911Y28542089D01*
X16913143Y28520278D01*
X16895608Y28496635D01*
X16880478Y28471394D01*
X16867895Y28444788D01*
X16857973Y28417060D01*
X16850826Y28388522D01*
X16846504Y28359385D01*
X16845059Y28330000D01*
X16846504Y28300615D01*
X16850826Y28271478D01*
X16857973Y28242940D01*
X16867895Y28215212D01*
X16880478Y28188606D01*
X16895608Y28163365D01*
X16913143Y28139722D01*
X16932911Y28117911D01*
X16954722Y28098143D01*
X16978365Y28080608D01*
X17003606Y28065478D01*
X17030212Y28052895D01*
X17057940Y28042973D01*
X17086478Y28035826D01*
X17115615Y28031504D01*
X17145000Y28030059D01*
D02*
G37*
%LPC*%
G36*
X13035000Y23864752D02*
X12980583Y23867426D01*
X12926672Y23875423D01*
X12873825Y23888660D01*
X12822514Y23907020D01*
X12773256Y23930317D01*
X12726520Y23958329D01*
X12682760Y23990784D01*
X12642381Y24027381D01*
X12605784Y24067760D01*
X12573329Y24111520D01*
X12545317Y24158256D01*
X12522020Y24207514D01*
X12503660Y24258825D01*
X12490423Y24311672D01*
X12482426Y24365583D01*
X12479752Y24420000D01*
X12482426Y24474417D01*
X12490423Y24528328D01*
X12503660Y24581175D01*
X12522020Y24632486D01*
X12545317Y24681744D01*
X12573329Y24728480D01*
X12605784Y24772240D01*
X12642381Y24812619D01*
X12682760Y24849216D01*
X12726520Y24881671D01*
X12773256Y24909683D01*
X12822514Y24932980D01*
X12873825Y24951340D01*
X12926672Y24964577D01*
X12980583Y24972574D01*
X13035000Y24975248D01*
X13089417Y24972574D01*
X13143328Y24964577D01*
X13196175Y24951340D01*
X13247486Y24932980D01*
X13296744Y24909683D01*
X13343480Y24881671D01*
X13387240Y24849216D01*
X13427619Y24812619D01*
X13464216Y24772240D01*
X13496671Y24728480D01*
X13524683Y24681744D01*
X13547980Y24632486D01*
X13566340Y24581175D01*
X13579577Y24528328D01*
X13587574Y24474417D01*
X13590248Y24420000D01*
X13587574Y24365583D01*
X13579577Y24311672D01*
X13566340Y24258825D01*
X13547980Y24207514D01*
X13524683Y24158256D01*
X13496671Y24111520D01*
X13464216Y24067760D01*
X13427619Y24027381D01*
X13387240Y23990784D01*
X13343480Y23958329D01*
X13296744Y23930317D01*
X13247486Y23907020D01*
X13196175Y23888660D01*
X13143328Y23875423D01*
X13089417Y23867426D01*
X13035000Y23864752D01*
D02*
G37*
%LPD*%
G36*
X13035000Y24120059D02*
X13064385Y24121504D01*
X13093522Y24125826D01*
X13122060Y24132973D01*
X13149788Y24142895D01*
X13176394Y24155478D01*
X13201635Y24170608D01*
X13225278Y24188143D01*
X13247089Y24207911D01*
X13266857Y24229722D01*
X13284392Y24253365D01*
X13299522Y24278606D01*
X13312105Y24305212D01*
X13322027Y24332940D01*
X13329174Y24361478D01*
X13333496Y24390615D01*
X13334941Y24420000D01*
X13333496Y24449385D01*
X13329174Y24478522D01*
X13322027Y24507060D01*
X13312105Y24534788D01*
X13299522Y24561394D01*
X13284392Y24586635D01*
X13266857Y24610278D01*
X13247089Y24632089D01*
X13225278Y24651857D01*
X13201635Y24669392D01*
X13176394Y24684522D01*
X13149788Y24697105D01*
X13122060Y24707027D01*
X13093522Y24714174D01*
X13064385Y24718496D01*
X13035000Y24719941D01*
X13005615Y24718496D01*
X12976478Y24714174D01*
X12947940Y24707027D01*
X12920212Y24697105D01*
X12893606Y24684522D01*
X12868365Y24669392D01*
X12844722Y24651857D01*
X12822911Y24632089D01*
X12803143Y24610278D01*
X12785608Y24586635D01*
X12770478Y24561394D01*
X12757895Y24534788D01*
X12747973Y24507060D01*
X12740826Y24478522D01*
X12736504Y24449385D01*
X12735059Y24420000D01*
X12736504Y24390615D01*
X12740826Y24361478D01*
X12747973Y24332940D01*
X12757895Y24305212D01*
X12770478Y24278606D01*
X12785608Y24253365D01*
X12803143Y24229722D01*
X12822911Y24207911D01*
X12844722Y24188143D01*
X12868365Y24170608D01*
X12893606Y24155478D01*
X12920212Y24142895D01*
X12947940Y24132973D01*
X12976478Y24125826D01*
X13005615Y24121504D01*
X13035000Y24120059D01*
D02*
G37*
%LPC*%
G36*
X15095000Y20364752D02*
X15040583Y20367426D01*
X14986672Y20375423D01*
X14933825Y20388660D01*
X14882514Y20407020D01*
X14833256Y20430317D01*
X14786520Y20458329D01*
X14742760Y20490784D01*
X14702381Y20527381D01*
X14665784Y20567760D01*
X14633329Y20611520D01*
X14605317Y20658256D01*
X14582020Y20707514D01*
X14563660Y20758825D01*
X14550423Y20811672D01*
X14542426Y20865583D01*
X14539752Y20920000D01*
X14542426Y20974417D01*
X14550423Y21028328D01*
X14563660Y21081175D01*
X14582020Y21132486D01*
X14605317Y21181744D01*
X14633329Y21228480D01*
X14665784Y21272240D01*
X14702381Y21312619D01*
X14742760Y21349216D01*
X14786520Y21381671D01*
X14833256Y21409683D01*
X14882514Y21432980D01*
X14933825Y21451340D01*
X14986672Y21464577D01*
X15040583Y21472574D01*
X15095000Y21475248D01*
X15149417Y21472574D01*
X15203328Y21464577D01*
X15256175Y21451340D01*
X15307486Y21432980D01*
X15356744Y21409683D01*
X15403480Y21381671D01*
X15447240Y21349216D01*
X15487619Y21312619D01*
X15524216Y21272240D01*
X15556671Y21228480D01*
X15584683Y21181744D01*
X15607980Y21132486D01*
X15626340Y21081175D01*
X15639577Y21028328D01*
X15647574Y20974417D01*
X15650248Y20920000D01*
X15647574Y20865583D01*
X15639577Y20811672D01*
X15626340Y20758825D01*
X15607980Y20707514D01*
X15584683Y20658256D01*
X15556671Y20611520D01*
X15524216Y20567760D01*
X15487619Y20527381D01*
X15447240Y20490784D01*
X15403480Y20458329D01*
X15356744Y20430317D01*
X15307486Y20407020D01*
X15256175Y20388660D01*
X15203328Y20375423D01*
X15149417Y20367426D01*
X15095000Y20364752D01*
D02*
G37*
%LPD*%
G36*
X15095000Y20620059D02*
X15124385Y20621504D01*
X15153522Y20625826D01*
X15182060Y20632973D01*
X15209788Y20642895D01*
X15236394Y20655478D01*
X15261635Y20670608D01*
X15285278Y20688143D01*
X15307089Y20707911D01*
X15326857Y20729722D01*
X15344392Y20753365D01*
X15359522Y20778606D01*
X15372105Y20805212D01*
X15382027Y20832940D01*
X15389174Y20861478D01*
X15393496Y20890615D01*
X15394941Y20920000D01*
X15393496Y20949385D01*
X15389174Y20978522D01*
X15382027Y21007060D01*
X15372105Y21034788D01*
X15359522Y21061394D01*
X15344392Y21086635D01*
X15326857Y21110278D01*
X15307089Y21132089D01*
X15285278Y21151857D01*
X15261635Y21169392D01*
X15236394Y21184522D01*
X15209788Y21197105D01*
X15182060Y21207027D01*
X15153522Y21214174D01*
X15124385Y21218496D01*
X15095000Y21219941D01*
X15065615Y21218496D01*
X15036478Y21214174D01*
X15007940Y21207027D01*
X14980212Y21197105D01*
X14953606Y21184522D01*
X14928365Y21169392D01*
X14904722Y21151857D01*
X14882911Y21132089D01*
X14863143Y21110278D01*
X14845608Y21086635D01*
X14830478Y21061394D01*
X14817895Y21034788D01*
X14807973Y21007060D01*
X14800826Y20978522D01*
X14796504Y20949385D01*
X14795059Y20920000D01*
X14796504Y20890615D01*
X14800826Y20861478D01*
X14807973Y20832940D01*
X14817895Y20805212D01*
X14830478Y20778606D01*
X14845608Y20753365D01*
X14863143Y20729722D01*
X14882911Y20707911D01*
X14904722Y20688143D01*
X14928365Y20670608D01*
X14953606Y20655478D01*
X14980212Y20642895D01*
X15007940Y20632973D01*
X15036478Y20625826D01*
X15065615Y20621504D01*
X15095000Y20620059D01*
D02*
G37*
%LPC*%
G36*
X15700000Y15579645D02*
X15558329Y15586605D01*
X15418022Y15607418D01*
X15280433Y15641882D01*
X15146894Y15689663D01*
X15018662Y15750312D01*
X14897007Y15823229D01*
X14783074Y15907727D01*
X14677980Y16002980D01*
X14582727Y16108074D01*
X14498229Y16222007D01*
X14425312Y16343662D01*
X14364663Y16471894D01*
X14316882Y16605433D01*
X14282418Y16743022D01*
X14261605Y16883329D01*
X14254645Y17025000D01*
X14261605Y17166671D01*
X14282418Y17306978D01*
X14316882Y17444567D01*
X14364663Y17578106D01*
X14425312Y17706338D01*
X14498229Y17827993D01*
X14582727Y17941926D01*
X14677980Y18047020D01*
X14783074Y18142273D01*
X14897007Y18226771D01*
X15018662Y18299688D01*
X15146894Y18360337D01*
X15280433Y18408118D01*
X15418022Y18442582D01*
X15558329Y18463395D01*
X15700000Y18470355D01*
X15841671Y18463395D01*
X15981978Y18442582D01*
X16119567Y18408118D01*
X16253106Y18360337D01*
X16381338Y18299688D01*
X16502993Y18226771D01*
X16616926Y18142273D01*
X16722020Y18047020D01*
X16817273Y17941926D01*
X16901771Y17827993D01*
X16974688Y17706338D01*
X17035337Y17578106D01*
X17083118Y17444567D01*
X17117582Y17306978D01*
X17138395Y17166671D01*
X17145355Y17025000D01*
X17138395Y16883329D01*
X17117582Y16743022D01*
X17083118Y16605433D01*
X17035337Y16471894D01*
X16974688Y16343662D01*
X16901771Y16222007D01*
X16817273Y16108074D01*
X16722020Y16002980D01*
X16616926Y15907727D01*
X16502993Y15823229D01*
X16381338Y15750312D01*
X16253106Y15689663D01*
X16119567Y15641882D01*
X15981978Y15607418D01*
X15841671Y15586605D01*
X15700000Y15579645D01*
D02*
G37*
%LPD*%
G36*
X31375000Y20335175D02*
X31375000Y40990000D01*
X29130000Y40990000D01*
X29130000Y25245000D01*
X16500000Y25245000D01*
X16500000Y20345000D01*
X17000019Y20345000D01*
X31375000Y20335175D01*
D02*
G37*
%LPC*%
G36*
X23605000Y22884752D02*
X23550583Y22887426D01*
X23496672Y22895423D01*
X23443825Y22908660D01*
X23392514Y22927020D01*
X23343256Y22950317D01*
X23296520Y22978329D01*
X23252760Y23010784D01*
X23212381Y23047381D01*
X23175784Y23087760D01*
X23143329Y23131520D01*
X23115317Y23178256D01*
X23092020Y23227514D01*
X23073660Y23278825D01*
X23060423Y23331672D01*
X23052426Y23385583D01*
X23049752Y23440000D01*
X23052426Y23494417D01*
X23060423Y23548328D01*
X23073660Y23601175D01*
X23092020Y23652486D01*
X23115317Y23701744D01*
X23143329Y23748480D01*
X23175784Y23792240D01*
X23212381Y23832619D01*
X23252760Y23869216D01*
X23296520Y23901671D01*
X23343256Y23929683D01*
X23392514Y23952980D01*
X23443825Y23971340D01*
X23496672Y23984577D01*
X23550583Y23992574D01*
X23605000Y23995248D01*
X23659417Y23992574D01*
X23713328Y23984577D01*
X23766175Y23971340D01*
X23817486Y23952980D01*
X23866744Y23929683D01*
X23913480Y23901671D01*
X23957240Y23869216D01*
X23997619Y23832619D01*
X24034216Y23792240D01*
X24066671Y23748480D01*
X24094683Y23701744D01*
X24117980Y23652486D01*
X24136340Y23601175D01*
X24149577Y23548328D01*
X24157574Y23494417D01*
X24160248Y23440000D01*
X24157574Y23385583D01*
X24149577Y23331672D01*
X24136340Y23278825D01*
X24117980Y23227514D01*
X24094683Y23178256D01*
X24066671Y23131520D01*
X24034216Y23087760D01*
X23997619Y23047381D01*
X23957240Y23010784D01*
X23913480Y22978329D01*
X23866744Y22950317D01*
X23817486Y22927020D01*
X23766175Y22908660D01*
X23713328Y22895423D01*
X23659417Y22887426D01*
X23605000Y22884752D01*
D02*
G37*
%LPD*%
G36*
X23605000Y23140059D02*
X23634385Y23141504D01*
X23663522Y23145826D01*
X23692060Y23152973D01*
X23719788Y23162895D01*
X23746394Y23175478D01*
X23771635Y23190608D01*
X23795278Y23208143D01*
X23817089Y23227911D01*
X23836857Y23249722D01*
X23854392Y23273365D01*
X23869522Y23298606D01*
X23882105Y23325212D01*
X23892027Y23352940D01*
X23899174Y23381478D01*
X23903496Y23410615D01*
X23904941Y23440000D01*
X23903496Y23469385D01*
X23899174Y23498522D01*
X23892027Y23527060D01*
X23882105Y23554788D01*
X23869522Y23581394D01*
X23854392Y23606635D01*
X23836857Y23630278D01*
X23817089Y23652089D01*
X23795278Y23671857D01*
X23771635Y23689392D01*
X23746394Y23704522D01*
X23719788Y23717105D01*
X23692060Y23727027D01*
X23663522Y23734174D01*
X23634385Y23738496D01*
X23605000Y23739941D01*
X23575615Y23738496D01*
X23546478Y23734174D01*
X23517940Y23727027D01*
X23490212Y23717105D01*
X23463606Y23704522D01*
X23438365Y23689392D01*
X23414722Y23671857D01*
X23392911Y23652089D01*
X23373143Y23630278D01*
X23355608Y23606635D01*
X23340478Y23581394D01*
X23327895Y23554788D01*
X23317973Y23527060D01*
X23310826Y23498522D01*
X23306504Y23469385D01*
X23305059Y23440000D01*
X23306504Y23410615D01*
X23310826Y23381478D01*
X23317973Y23352940D01*
X23327895Y23325212D01*
X23340478Y23298606D01*
X23355608Y23273365D01*
X23373143Y23249722D01*
X23392911Y23227911D01*
X23414722Y23208143D01*
X23438365Y23190608D01*
X23463606Y23175478D01*
X23490212Y23162895D01*
X23517940Y23152973D01*
X23546478Y23145826D01*
X23575615Y23141504D01*
X23605000Y23140059D01*
D02*
G37*
%LPC*%
G36*
X26055000Y21234752D02*
X26000583Y21237426D01*
X25946672Y21245423D01*
X25893825Y21258660D01*
X25842514Y21277020D01*
X25793256Y21300317D01*
X25746520Y21328329D01*
X25702760Y21360784D01*
X25662381Y21397381D01*
X25625784Y21437760D01*
X25593329Y21481520D01*
X25565317Y21528256D01*
X25542020Y21577514D01*
X25523660Y21628825D01*
X25510423Y21681672D01*
X25502426Y21735583D01*
X25499752Y21790000D01*
X25502426Y21844417D01*
X25510423Y21898328D01*
X25523660Y21951175D01*
X25542020Y22002486D01*
X25565317Y22051744D01*
X25593329Y22098480D01*
X25625784Y22142240D01*
X25662381Y22182619D01*
X25702760Y22219216D01*
X25746520Y22251671D01*
X25793256Y22279683D01*
X25842514Y22302980D01*
X25893825Y22321340D01*
X25946672Y22334577D01*
X26000583Y22342574D01*
X26055000Y22345248D01*
X26109417Y22342574D01*
X26163328Y22334577D01*
X26216175Y22321340D01*
X26267486Y22302980D01*
X26316744Y22279683D01*
X26363480Y22251671D01*
X26407240Y22219216D01*
X26447619Y22182619D01*
X26484216Y22142240D01*
X26516671Y22098480D01*
X26544683Y22051744D01*
X26567980Y22002486D01*
X26586340Y21951175D01*
X26599577Y21898328D01*
X26607574Y21844417D01*
X26610248Y21790000D01*
X26607574Y21735583D01*
X26599577Y21681672D01*
X26586340Y21628825D01*
X26567980Y21577514D01*
X26544683Y21528256D01*
X26516671Y21481520D01*
X26484216Y21437760D01*
X26447619Y21397381D01*
X26407240Y21360784D01*
X26363480Y21328329D01*
X26316744Y21300317D01*
X26267486Y21277020D01*
X26216175Y21258660D01*
X26163328Y21245423D01*
X26109417Y21237426D01*
X26055000Y21234752D01*
D02*
G37*
%LPD*%
G36*
X26055000Y21490059D02*
X26084385Y21491504D01*
X26113522Y21495826D01*
X26142060Y21502973D01*
X26169788Y21512895D01*
X26196394Y21525478D01*
X26221635Y21540608D01*
X26245278Y21558143D01*
X26267089Y21577911D01*
X26286857Y21599722D01*
X26304392Y21623365D01*
X26319522Y21648606D01*
X26332105Y21675212D01*
X26342027Y21702940D01*
X26349174Y21731478D01*
X26353496Y21760615D01*
X26354941Y21790000D01*
X26353496Y21819385D01*
X26349174Y21848522D01*
X26342027Y21877060D01*
X26332105Y21904788D01*
X26319522Y21931394D01*
X26304392Y21956635D01*
X26286857Y21980278D01*
X26267089Y22002089D01*
X26245278Y22021857D01*
X26221635Y22039392D01*
X26196394Y22054522D01*
X26169788Y22067105D01*
X26142060Y22077027D01*
X26113522Y22084174D01*
X26084385Y22088496D01*
X26055000Y22089941D01*
X26025615Y22088496D01*
X25996478Y22084174D01*
X25967940Y22077027D01*
X25940212Y22067105D01*
X25913606Y22054522D01*
X25888365Y22039392D01*
X25864722Y22021857D01*
X25842911Y22002089D01*
X25823143Y21980278D01*
X25805608Y21956635D01*
X25790478Y21931394D01*
X25777895Y21904788D01*
X25767973Y21877060D01*
X25760826Y21848522D01*
X25756504Y21819385D01*
X25755059Y21790000D01*
X25756504Y21760615D01*
X25760826Y21731478D01*
X25767973Y21702940D01*
X25777895Y21675212D01*
X25790478Y21648606D01*
X25805608Y21623365D01*
X25823143Y21599722D01*
X25842911Y21577911D01*
X25864722Y21558143D01*
X25888365Y21540608D01*
X25913606Y21525478D01*
X25940212Y21512895D01*
X25967940Y21502973D01*
X25996478Y21495826D01*
X26025615Y21491504D01*
X26055000Y21490059D01*
D02*
G37*
%LPD*%
G36*
X28875000Y25500000D02*
X28875000Y40990000D01*
X26850000Y40990000D01*
X26850000Y34300000D01*
X21100000Y34300000D01*
X21100000Y25500000D01*
X28875000Y25500000D01*
D02*
G37*
%LPC*%
G36*
X28119995Y31534753D02*
X28065578Y31537427D01*
X28011667Y31545424D01*
X27958820Y31558661D01*
X27907509Y31577021D01*
X27858251Y31600318D01*
X27811515Y31628330D01*
X27767755Y31660785D01*
X27727376Y31697382D01*
X27690779Y31737761D01*
X27658324Y31781521D01*
X27630312Y31828257D01*
X27607015Y31877515D01*
X27588655Y31928826D01*
X27575418Y31981673D01*
X27567421Y32035584D01*
X27564747Y32090001D01*
X27567421Y32144418D01*
X27575418Y32198329D01*
X27588655Y32251176D01*
X27607015Y32302487D01*
X27630312Y32351745D01*
X27658324Y32398481D01*
X27690779Y32442241D01*
X27727376Y32482620D01*
X27767755Y32519217D01*
X27811515Y32551672D01*
X27858251Y32579684D01*
X27907509Y32602981D01*
X27958820Y32621341D01*
X28011667Y32634578D01*
X28065578Y32642575D01*
X28119995Y32645249D01*
X28174412Y32642575D01*
X28228323Y32634578D01*
X28281170Y32621341D01*
X28332481Y32602981D01*
X28381739Y32579684D01*
X28428475Y32551672D01*
X28472235Y32519217D01*
X28512614Y32482620D01*
X28549211Y32442241D01*
X28581666Y32398481D01*
X28609678Y32351745D01*
X28632975Y32302487D01*
X28651335Y32251176D01*
X28664572Y32198329D01*
X28672569Y32144419D01*
X28675243Y32090001D01*
X28672569Y32035583D01*
X28664572Y31981673D01*
X28651335Y31928826D01*
X28632975Y31877515D01*
X28609678Y31828257D01*
X28581666Y31781521D01*
X28549211Y31737761D01*
X28512614Y31697382D01*
X28472235Y31660785D01*
X28428475Y31628330D01*
X28381739Y31600318D01*
X28332481Y31577021D01*
X28281170Y31558661D01*
X28228323Y31545424D01*
X28174412Y31537427D01*
X28119995Y31534753D01*
D02*
G37*
%LPD*%
G36*
X28119995Y31790060D02*
X28149380Y31791505D01*
X28178517Y31795827D01*
X28207055Y31802974D01*
X28234783Y31812896D01*
X28261389Y31825479D01*
X28286630Y31840609D01*
X28310273Y31858144D01*
X28332084Y31877912D01*
X28351852Y31899723D01*
X28369387Y31923366D01*
X28384517Y31948607D01*
X28397100Y31975213D01*
X28407021Y32002938D01*
X28414172Y32031486D01*
X28418491Y32060608D01*
X28419936Y32090001D01*
X28418491Y32119394D01*
X28414172Y32148516D01*
X28407021Y32177064D01*
X28397100Y32204789D01*
X28384517Y32231395D01*
X28369387Y32256636D01*
X28351852Y32280279D01*
X28332084Y32302090D01*
X28310273Y32321858D01*
X28286630Y32339393D01*
X28261389Y32354523D01*
X28234783Y32367106D01*
X28207055Y32377028D01*
X28178517Y32384175D01*
X28149380Y32388497D01*
X28119995Y32389942D01*
X28090610Y32388497D01*
X28061473Y32384175D01*
X28032935Y32377028D01*
X28005207Y32367106D01*
X27978601Y32354523D01*
X27953360Y32339393D01*
X27929717Y32321858D01*
X27907906Y32302090D01*
X27888138Y32280279D01*
X27870603Y32256636D01*
X27855473Y32231395D01*
X27842890Y32204789D01*
X27832968Y32177061D01*
X27825821Y32148523D01*
X27821499Y32119386D01*
X27820054Y32090001D01*
X27821499Y32060616D01*
X27825821Y32031479D01*
X27832968Y32002941D01*
X27842890Y31975213D01*
X27855473Y31948607D01*
X27870603Y31923366D01*
X27888138Y31899723D01*
X27907906Y31877912D01*
X27929717Y31858144D01*
X27953360Y31840609D01*
X27978601Y31825479D01*
X28005207Y31812896D01*
X28032935Y31802974D01*
X28061473Y31795827D01*
X28090610Y31791505D01*
X28119995Y31790060D01*
D02*
G37*
%LPC*%
G36*
X28119995Y28254753D02*
X28065578Y28257427D01*
X28011667Y28265424D01*
X27958820Y28278661D01*
X27907509Y28297021D01*
X27858251Y28320318D01*
X27811515Y28348330D01*
X27767755Y28380785D01*
X27727376Y28417382D01*
X27690779Y28457761D01*
X27658324Y28501521D01*
X27630312Y28548257D01*
X27607015Y28597515D01*
X27588655Y28648826D01*
X27575418Y28701673D01*
X27567421Y28755584D01*
X27564747Y28810001D01*
X27567421Y28864418D01*
X27575418Y28918329D01*
X27588655Y28971176D01*
X27607015Y29022487D01*
X27630312Y29071745D01*
X27658324Y29118481D01*
X27690779Y29162241D01*
X27727376Y29202620D01*
X27767755Y29239217D01*
X27811515Y29271672D01*
X27858251Y29299684D01*
X27907509Y29322981D01*
X27958820Y29341341D01*
X28011667Y29354578D01*
X28065578Y29362575D01*
X28119995Y29365249D01*
X28174412Y29362575D01*
X28228323Y29354578D01*
X28281170Y29341341D01*
X28332481Y29322981D01*
X28381739Y29299684D01*
X28428475Y29271672D01*
X28472235Y29239217D01*
X28512614Y29202620D01*
X28549211Y29162241D01*
X28581666Y29118481D01*
X28609678Y29071745D01*
X28632975Y29022487D01*
X28651335Y28971176D01*
X28664572Y28918329D01*
X28672569Y28864419D01*
X28675243Y28810001D01*
X28672569Y28755583D01*
X28664572Y28701673D01*
X28651335Y28648826D01*
X28632975Y28597515D01*
X28609678Y28548257D01*
X28581666Y28501521D01*
X28549211Y28457761D01*
X28512614Y28417382D01*
X28472235Y28380785D01*
X28428475Y28348330D01*
X28381739Y28320318D01*
X28332481Y28297021D01*
X28281170Y28278661D01*
X28228323Y28265424D01*
X28174412Y28257427D01*
X28119995Y28254753D01*
D02*
G37*
%LPD*%
G36*
X28119995Y28510060D02*
X28149380Y28511505D01*
X28178517Y28515827D01*
X28207055Y28522974D01*
X28234783Y28532896D01*
X28261389Y28545479D01*
X28286630Y28560609D01*
X28310273Y28578144D01*
X28332084Y28597912D01*
X28351852Y28619723D01*
X28369387Y28643366D01*
X28384517Y28668607D01*
X28397100Y28695213D01*
X28407021Y28722938D01*
X28414172Y28751486D01*
X28418491Y28780608D01*
X28419936Y28810001D01*
X28418491Y28839394D01*
X28414172Y28868516D01*
X28407021Y28897064D01*
X28397100Y28924789D01*
X28384517Y28951395D01*
X28369387Y28976636D01*
X28351852Y29000279D01*
X28332084Y29022090D01*
X28310273Y29041858D01*
X28286630Y29059393D01*
X28261389Y29074523D01*
X28234783Y29087106D01*
X28207055Y29097028D01*
X28178517Y29104175D01*
X28149380Y29108497D01*
X28119995Y29109942D01*
X28090610Y29108497D01*
X28061473Y29104175D01*
X28032935Y29097028D01*
X28005207Y29087106D01*
X27978601Y29074523D01*
X27953360Y29059393D01*
X27929717Y29041858D01*
X27907906Y29022090D01*
X27888138Y29000279D01*
X27870603Y28976636D01*
X27855473Y28951395D01*
X27842890Y28924789D01*
X27832968Y28897061D01*
X27825821Y28868523D01*
X27821499Y28839386D01*
X27820054Y28810001D01*
X27821499Y28780616D01*
X27825821Y28751479D01*
X27832968Y28722941D01*
X27842890Y28695213D01*
X27855473Y28668607D01*
X27870603Y28643366D01*
X27888138Y28619723D01*
X27907906Y28597912D01*
X27929717Y28578144D01*
X27953360Y28560609D01*
X27978601Y28545479D01*
X28005207Y28532896D01*
X28032935Y28522974D01*
X28061473Y28515827D01*
X28090610Y28511505D01*
X28119995Y28510060D01*
D02*
G37*
%LPD*%
G36*
X61000000Y20300000D02*
X61000000Y36500000D01*
X58445000Y36500000D01*
X58445000Y28575000D01*
X46545000Y28575000D01*
X46545000Y33500000D01*
X34140000Y33500000D01*
X34140000Y25055000D01*
X50600000Y25055000D01*
X50600000Y20300000D01*
X61000000Y20300000D01*
D02*
G37*
%LPC*%
G36*
X44230000Y32159752D02*
X44175583Y32162426D01*
X44121672Y32170423D01*
X44068825Y32183660D01*
X44017514Y32202020D01*
X43968256Y32225317D01*
X43921520Y32253329D01*
X43877760Y32285784D01*
X43837381Y32322381D01*
X43800784Y32362760D01*
X43768329Y32406520D01*
X43740317Y32453256D01*
X43717020Y32502514D01*
X43698660Y32553825D01*
X43685423Y32606672D01*
X43677426Y32660583D01*
X43674752Y32715000D01*
X43677426Y32769417D01*
X43685423Y32823328D01*
X43698660Y32876175D01*
X43717020Y32927486D01*
X43740317Y32976744D01*
X43768329Y33023480D01*
X43800784Y33067240D01*
X43837381Y33107619D01*
X43877760Y33144216D01*
X43921520Y33176671D01*
X43968256Y33204683D01*
X44017514Y33227980D01*
X44068825Y33246340D01*
X44121672Y33259577D01*
X44175583Y33267574D01*
X44230000Y33270248D01*
X44284417Y33267574D01*
X44338328Y33259577D01*
X44391175Y33246340D01*
X44442486Y33227980D01*
X44491744Y33204683D01*
X44538480Y33176671D01*
X44582240Y33144216D01*
X44622619Y33107619D01*
X44659216Y33067240D01*
X44691671Y33023480D01*
X44719683Y32976744D01*
X44742980Y32927486D01*
X44761340Y32876175D01*
X44774577Y32823328D01*
X44782574Y32769417D01*
X44785248Y32715000D01*
X44782574Y32660583D01*
X44774577Y32606672D01*
X44761340Y32553825D01*
X44742980Y32502514D01*
X44719683Y32453256D01*
X44691671Y32406520D01*
X44659216Y32362760D01*
X44622619Y32322381D01*
X44582240Y32285784D01*
X44538480Y32253329D01*
X44491744Y32225317D01*
X44442486Y32202020D01*
X44391175Y32183660D01*
X44338328Y32170423D01*
X44284417Y32162426D01*
X44230000Y32159752D01*
D02*
G37*
%LPD*%
G36*
X44230000Y32415059D02*
X44259385Y32416504D01*
X44288522Y32420826D01*
X44317060Y32427973D01*
X44344788Y32437895D01*
X44371394Y32450478D01*
X44396635Y32465608D01*
X44420278Y32483143D01*
X44442089Y32502911D01*
X44461857Y32524722D01*
X44479392Y32548365D01*
X44494522Y32573606D01*
X44507105Y32600212D01*
X44517027Y32627940D01*
X44524174Y32656478D01*
X44528496Y32685615D01*
X44529941Y32715000D01*
X44528496Y32744385D01*
X44524174Y32773522D01*
X44517027Y32802060D01*
X44507105Y32829788D01*
X44494522Y32856394D01*
X44479392Y32881635D01*
X44461857Y32905278D01*
X44442089Y32927089D01*
X44420278Y32946857D01*
X44396635Y32964392D01*
X44371394Y32979522D01*
X44344788Y32992105D01*
X44317060Y33002027D01*
X44288522Y33009174D01*
X44259385Y33013496D01*
X44230000Y33014941D01*
X44200615Y33013496D01*
X44171478Y33009174D01*
X44142940Y33002027D01*
X44115212Y32992105D01*
X44088606Y32979522D01*
X44063365Y32964392D01*
X44039722Y32946857D01*
X44017911Y32927089D01*
X43998143Y32905278D01*
X43980608Y32881635D01*
X43965478Y32856394D01*
X43952895Y32829788D01*
X43942973Y32802060D01*
X43935826Y32773522D01*
X43931504Y32744385D01*
X43930059Y32715000D01*
X43931504Y32685615D01*
X43935826Y32656478D01*
X43942973Y32627940D01*
X43952895Y32600212D01*
X43965478Y32573606D01*
X43980608Y32548365D01*
X43998143Y32524722D01*
X44017911Y32502911D01*
X44039722Y32483143D01*
X44063365Y32465608D01*
X44088606Y32450478D01*
X44115212Y32437895D01*
X44142940Y32427973D01*
X44171478Y32420826D01*
X44200615Y32416504D01*
X44230000Y32415059D01*
D02*
G37*
%LPC*%
G36*
X43030000Y30859752D02*
X42975583Y30862426D01*
X42921672Y30870423D01*
X42868825Y30883660D01*
X42817514Y30902020D01*
X42768256Y30925317D01*
X42721520Y30953329D01*
X42677760Y30985784D01*
X42637381Y31022381D01*
X42600784Y31062760D01*
X42568329Y31106520D01*
X42540317Y31153256D01*
X42517020Y31202514D01*
X42498660Y31253825D01*
X42485423Y31306672D01*
X42477426Y31360583D01*
X42474752Y31415000D01*
X42477426Y31469417D01*
X42485423Y31523328D01*
X42498660Y31576175D01*
X42517020Y31627486D01*
X42540317Y31676744D01*
X42568329Y31723480D01*
X42600784Y31767240D01*
X42637381Y31807619D01*
X42677760Y31844216D01*
X42721520Y31876671D01*
X42768256Y31904683D01*
X42817514Y31927980D01*
X42868825Y31946340D01*
X42921672Y31959577D01*
X42975583Y31967574D01*
X43030000Y31970248D01*
X43084417Y31967574D01*
X43138328Y31959577D01*
X43191175Y31946340D01*
X43242486Y31927980D01*
X43291744Y31904683D01*
X43338480Y31876671D01*
X43382240Y31844216D01*
X43422619Y31807619D01*
X43459216Y31767240D01*
X43491671Y31723480D01*
X43519683Y31676744D01*
X43542980Y31627486D01*
X43561340Y31576175D01*
X43574577Y31523328D01*
X43582574Y31469417D01*
X43585248Y31415000D01*
X43582574Y31360583D01*
X43574577Y31306672D01*
X43561340Y31253825D01*
X43542980Y31202514D01*
X43519683Y31153256D01*
X43491671Y31106520D01*
X43459216Y31062760D01*
X43422619Y31022381D01*
X43382240Y30985784D01*
X43338480Y30953329D01*
X43291744Y30925317D01*
X43242486Y30902020D01*
X43191175Y30883660D01*
X43138328Y30870423D01*
X43084417Y30862426D01*
X43030000Y30859752D01*
D02*
G37*
%LPD*%
G36*
X43030000Y31115059D02*
X43059385Y31116504D01*
X43088522Y31120826D01*
X43117060Y31127973D01*
X43144788Y31137895D01*
X43171394Y31150478D01*
X43196635Y31165608D01*
X43220278Y31183143D01*
X43242089Y31202911D01*
X43261857Y31224722D01*
X43279392Y31248365D01*
X43294522Y31273606D01*
X43307105Y31300212D01*
X43317027Y31327940D01*
X43324174Y31356478D01*
X43328496Y31385615D01*
X43329941Y31415000D01*
X43328496Y31444385D01*
X43324174Y31473522D01*
X43317027Y31502060D01*
X43307105Y31529788D01*
X43294522Y31556394D01*
X43279392Y31581635D01*
X43261857Y31605278D01*
X43242089Y31627089D01*
X43220278Y31646857D01*
X43196635Y31664392D01*
X43171394Y31679522D01*
X43144788Y31692105D01*
X43117060Y31702027D01*
X43088522Y31709174D01*
X43059385Y31713496D01*
X43030000Y31714941D01*
X43000615Y31713496D01*
X42971478Y31709174D01*
X42942940Y31702027D01*
X42915212Y31692105D01*
X42888606Y31679522D01*
X42863365Y31664392D01*
X42839722Y31646857D01*
X42817911Y31627089D01*
X42798143Y31605278D01*
X42780608Y31581635D01*
X42765478Y31556394D01*
X42752895Y31529788D01*
X42742973Y31502060D01*
X42735826Y31473522D01*
X42731504Y31444385D01*
X42730059Y31415000D01*
X42731504Y31385615D01*
X42735826Y31356478D01*
X42742973Y31327940D01*
X42752895Y31300212D01*
X42765478Y31273606D01*
X42780608Y31248365D01*
X42798143Y31224722D01*
X42817911Y31202911D01*
X42839722Y31183143D01*
X42863365Y31165608D01*
X42888606Y31150478D01*
X42915212Y31137895D01*
X42942940Y31127973D01*
X42971478Y31120826D01*
X43000615Y31116504D01*
X43030000Y31115059D01*
D02*
G37*
%LPC*%
G36*
X36340000Y30709752D02*
X36285583Y30712426D01*
X36231672Y30720423D01*
X36178825Y30733660D01*
X36127514Y30752020D01*
X36078256Y30775317D01*
X36031520Y30803329D01*
X35987760Y30835784D01*
X35947381Y30872381D01*
X35910784Y30912760D01*
X35878329Y30956520D01*
X35850317Y31003256D01*
X35827020Y31052514D01*
X35808660Y31103825D01*
X35795423Y31156672D01*
X35787426Y31210583D01*
X35784752Y31265000D01*
X35787426Y31319417D01*
X35795423Y31373328D01*
X35808660Y31426175D01*
X35827020Y31477486D01*
X35850317Y31526744D01*
X35878329Y31573480D01*
X35910784Y31617240D01*
X35947381Y31657619D01*
X35987760Y31694216D01*
X36031520Y31726671D01*
X36078256Y31754683D01*
X36127514Y31777980D01*
X36178825Y31796340D01*
X36231672Y31809577D01*
X36285583Y31817574D01*
X36340000Y31820248D01*
X36394417Y31817574D01*
X36448328Y31809577D01*
X36501175Y31796340D01*
X36552486Y31777980D01*
X36601744Y31754683D01*
X36648480Y31726671D01*
X36692240Y31694216D01*
X36732619Y31657619D01*
X36769216Y31617240D01*
X36801671Y31573480D01*
X36829683Y31526744D01*
X36852980Y31477486D01*
X36871340Y31426175D01*
X36884577Y31373328D01*
X36892574Y31319417D01*
X36895248Y31265000D01*
X36892574Y31210583D01*
X36884577Y31156672D01*
X36871340Y31103825D01*
X36852980Y31052514D01*
X36829683Y31003256D01*
X36801671Y30956520D01*
X36769216Y30912760D01*
X36732619Y30872381D01*
X36692240Y30835784D01*
X36648480Y30803329D01*
X36601744Y30775317D01*
X36552486Y30752020D01*
X36501175Y30733660D01*
X36448328Y30720423D01*
X36394417Y30712426D01*
X36340000Y30709752D01*
D02*
G37*
%LPD*%
G36*
X36340000Y30965059D02*
X36369385Y30966504D01*
X36398522Y30970826D01*
X36427060Y30977973D01*
X36454788Y30987895D01*
X36481394Y31000478D01*
X36506635Y31015608D01*
X36530278Y31033143D01*
X36552089Y31052911D01*
X36571857Y31074722D01*
X36589392Y31098365D01*
X36604522Y31123606D01*
X36617105Y31150212D01*
X36627027Y31177940D01*
X36634174Y31206478D01*
X36638496Y31235615D01*
X36639941Y31265000D01*
X36638496Y31294385D01*
X36634174Y31323522D01*
X36627027Y31352060D01*
X36617105Y31379788D01*
X36604522Y31406394D01*
X36589392Y31431635D01*
X36571857Y31455278D01*
X36552089Y31477089D01*
X36530278Y31496857D01*
X36506635Y31514392D01*
X36481394Y31529522D01*
X36454788Y31542105D01*
X36427060Y31552027D01*
X36398522Y31559174D01*
X36369385Y31563496D01*
X36340000Y31564941D01*
X36310615Y31563496D01*
X36281478Y31559174D01*
X36252940Y31552027D01*
X36225212Y31542105D01*
X36198606Y31529522D01*
X36173365Y31514392D01*
X36149722Y31496857D01*
X36127911Y31477089D01*
X36108143Y31455278D01*
X36090608Y31431635D01*
X36075478Y31406394D01*
X36062895Y31379788D01*
X36052973Y31352060D01*
X36045826Y31323522D01*
X36041504Y31294385D01*
X36040059Y31265000D01*
X36041504Y31235615D01*
X36045826Y31206478D01*
X36052973Y31177940D01*
X36062895Y31150212D01*
X36075478Y31123606D01*
X36090608Y31098365D01*
X36108143Y31074722D01*
X36127911Y31052911D01*
X36149722Y31033143D01*
X36173365Y31015608D01*
X36198606Y31000478D01*
X36225212Y30987895D01*
X36252940Y30977973D01*
X36281478Y30970826D01*
X36310615Y30966504D01*
X36340000Y30965059D01*
D02*
G37*
%LPC*%
G36*
X34930000Y29674643D02*
X34871651Y29677510D01*
X34813849Y29686085D01*
X34757178Y29700280D01*
X34702161Y29719966D01*
X34649357Y29744940D01*
X34599236Y29774982D01*
X34552316Y29809781D01*
X34509020Y29849020D01*
X34469781Y29892316D01*
X34434982Y29939236D01*
X34404940Y29989357D01*
X34379966Y30042161D01*
X34360280Y30097178D01*
X34346085Y30153848D01*
X34328855Y30270000D01*
X34346085Y30386152D01*
X34360280Y30442822D01*
X34379966Y30497839D01*
X34404940Y30550643D01*
X34434982Y30600764D01*
X34469781Y30647684D01*
X34509020Y30690980D01*
X34552316Y30730219D01*
X34599236Y30765018D01*
X34649357Y30795060D01*
X34702161Y30820034D01*
X34757178Y30839720D01*
X34813849Y30853915D01*
X34871651Y30862490D01*
X34930000Y30865357D01*
X34988349Y30862490D01*
X35046151Y30853915D01*
X35102822Y30839720D01*
X35157839Y30820034D01*
X35210643Y30795060D01*
X35260764Y30765018D01*
X35307684Y30730219D01*
X35350980Y30690980D01*
X35390219Y30647684D01*
X35425018Y30600764D01*
X35455060Y30550643D01*
X35480034Y30497839D01*
X35499720Y30442822D01*
X35513915Y30386151D01*
X35522490Y30328349D01*
X35525357Y30270000D01*
X35522490Y30211651D01*
X35513915Y30153849D01*
X35499720Y30097178D01*
X35480034Y30042161D01*
X35455060Y29989357D01*
X35425018Y29939236D01*
X35390219Y29892316D01*
X35350980Y29849020D01*
X35307684Y29809781D01*
X35260764Y29774982D01*
X35210643Y29744940D01*
X35157839Y29719966D01*
X35102822Y29700280D01*
X35046151Y29686085D01*
X34988349Y29677510D01*
X34930000Y29674643D01*
D02*
G37*
%LPD*%
G36*
X34930000Y29929950D02*
X34963318Y29931588D01*
X34996340Y29936486D01*
X35028714Y29944596D01*
X35060137Y29955839D01*
X35090292Y29970101D01*
X35118925Y29987264D01*
X35145719Y30007136D01*
X35170450Y30029550D01*
X35192864Y30054281D01*
X35212736Y30081075D01*
X35229899Y30109708D01*
X35244161Y30139863D01*
X35255404Y30171286D01*
X35263514Y30203660D01*
X35268412Y30236682D01*
X35270050Y30270000D01*
X35268412Y30303318D01*
X35263514Y30336340D01*
X35255404Y30368714D01*
X35244161Y30400137D01*
X35229899Y30430292D01*
X35212736Y30458925D01*
X35192864Y30485719D01*
X35170450Y30510450D01*
X35145719Y30532864D01*
X35118925Y30552736D01*
X35090292Y30569899D01*
X35060137Y30584161D01*
X35028714Y30595404D01*
X34996340Y30603514D01*
X34963318Y30608412D01*
X34930000Y30610050D01*
X34896682Y30608412D01*
X34863660Y30603514D01*
X34831286Y30595404D01*
X34799863Y30584161D01*
X34769708Y30569899D01*
X34741075Y30552736D01*
X34714281Y30532864D01*
X34689550Y30510450D01*
X34667136Y30485719D01*
X34647264Y30458925D01*
X34630101Y30430292D01*
X34615839Y30400137D01*
X34604593Y30368706D01*
X34596486Y30336343D01*
X34586645Y30270000D01*
X34596486Y30203657D01*
X34604593Y30171294D01*
X34615839Y30139863D01*
X34630101Y30109708D01*
X34647264Y30081075D01*
X34667136Y30054281D01*
X34689550Y30029550D01*
X34714281Y30007136D01*
X34741075Y29987264D01*
X34769708Y29970101D01*
X34799863Y29955839D01*
X34831286Y29944596D01*
X34863660Y29936486D01*
X34896682Y29931588D01*
X34930000Y29929950D01*
D02*
G37*
%LPC*%
G36*
X37470000Y28404643D02*
X37411651Y28407510D01*
X37353849Y28416085D01*
X37297178Y28430280D01*
X37242161Y28449966D01*
X37189357Y28474940D01*
X37139236Y28504982D01*
X37092316Y28539781D01*
X37049020Y28579020D01*
X37009781Y28622316D01*
X36974982Y28669236D01*
X36944940Y28719357D01*
X36919966Y28772161D01*
X36900280Y28827178D01*
X36886085Y28883849D01*
X36877510Y28941651D01*
X36874643Y29000000D01*
X36877510Y29058349D01*
X36886085Y29116151D01*
X36900280Y29172822D01*
X36919966Y29227839D01*
X36944940Y29280643D01*
X36974982Y29330764D01*
X37009781Y29377684D01*
X37049020Y29420980D01*
X37092316Y29460219D01*
X37139236Y29495018D01*
X37189357Y29525060D01*
X37242161Y29550034D01*
X37297178Y29569720D01*
X37353849Y29583915D01*
X37411651Y29592490D01*
X37470000Y29595357D01*
X37528349Y29592490D01*
X37586151Y29583915D01*
X37642822Y29569720D01*
X37697839Y29550034D01*
X37750643Y29525060D01*
X37800764Y29495018D01*
X37847684Y29460219D01*
X37890980Y29420980D01*
X37930219Y29377684D01*
X37965018Y29330764D01*
X37995060Y29280643D01*
X38020034Y29227839D01*
X38039720Y29172822D01*
X38053915Y29116151D01*
X38062490Y29058349D01*
X38065357Y29000000D01*
X38062490Y28941651D01*
X38053915Y28883849D01*
X38039720Y28827178D01*
X38020034Y28772161D01*
X37995060Y28719357D01*
X37965018Y28669236D01*
X37930219Y28622316D01*
X37890980Y28579020D01*
X37847684Y28539781D01*
X37800764Y28504982D01*
X37750643Y28474940D01*
X37697839Y28449966D01*
X37642822Y28430280D01*
X37586151Y28416085D01*
X37528349Y28407510D01*
X37470000Y28404643D01*
D02*
G37*
%LPD*%
G36*
X37470000Y28659950D02*
X37503318Y28661588D01*
X37536340Y28666486D01*
X37568714Y28674596D01*
X37600137Y28685839D01*
X37630292Y28700101D01*
X37658925Y28717264D01*
X37685719Y28737136D01*
X37710450Y28759550D01*
X37732864Y28784281D01*
X37752736Y28811075D01*
X37769899Y28839708D01*
X37784161Y28869863D01*
X37795404Y28901286D01*
X37803514Y28933660D01*
X37808412Y28966682D01*
X37810050Y29000000D01*
X37808412Y29033318D01*
X37803514Y29066340D01*
X37795404Y29098714D01*
X37784161Y29130137D01*
X37769899Y29160292D01*
X37752736Y29188925D01*
X37732864Y29215719D01*
X37710450Y29240450D01*
X37685719Y29262864D01*
X37658925Y29282736D01*
X37630292Y29299899D01*
X37600137Y29314161D01*
X37568714Y29325404D01*
X37536340Y29333514D01*
X37503318Y29338412D01*
X37470000Y29340050D01*
X37436682Y29338412D01*
X37403660Y29333514D01*
X37371286Y29325404D01*
X37339863Y29314161D01*
X37309708Y29299899D01*
X37281075Y29282736D01*
X37254281Y29262864D01*
X37229550Y29240450D01*
X37207136Y29215719D01*
X37187264Y29188925D01*
X37170101Y29160292D01*
X37155839Y29130137D01*
X37144596Y29098714D01*
X37136486Y29066340D01*
X37131588Y29033318D01*
X37129950Y29000000D01*
X37131588Y28966682D01*
X37136486Y28933660D01*
X37144596Y28901286D01*
X37155839Y28869863D01*
X37170101Y28839708D01*
X37187264Y28811075D01*
X37207136Y28784281D01*
X37229550Y28759550D01*
X37254281Y28737136D01*
X37281075Y28717264D01*
X37309708Y28700101D01*
X37339863Y28685839D01*
X37371286Y28674596D01*
X37403660Y28666486D01*
X37436682Y28661588D01*
X37470000Y28659950D01*
D02*
G37*
%LPC*%
G36*
X40080000Y28469752D02*
X40025583Y28472426D01*
X39971672Y28480423D01*
X39918825Y28493660D01*
X39867514Y28512020D01*
X39818256Y28535317D01*
X39771520Y28563329D01*
X39727760Y28595784D01*
X39687381Y28632381D01*
X39650784Y28672760D01*
X39618329Y28716520D01*
X39590317Y28763256D01*
X39567020Y28812514D01*
X39548660Y28863825D01*
X39535423Y28916672D01*
X39527426Y28970583D01*
X39524752Y29025000D01*
X39527426Y29079417D01*
X39535423Y29133328D01*
X39548660Y29186175D01*
X39567020Y29237486D01*
X39590317Y29286744D01*
X39618329Y29333480D01*
X39650784Y29377240D01*
X39687381Y29417619D01*
X39727760Y29454216D01*
X39771520Y29486671D01*
X39818256Y29514683D01*
X39867514Y29537980D01*
X39918825Y29556340D01*
X39971672Y29569577D01*
X40025583Y29577574D01*
X40080000Y29580248D01*
X40134417Y29577574D01*
X40188328Y29569577D01*
X40241175Y29556340D01*
X40292486Y29537980D01*
X40341744Y29514683D01*
X40388480Y29486671D01*
X40432240Y29454216D01*
X40472619Y29417619D01*
X40509216Y29377240D01*
X40541671Y29333480D01*
X40569683Y29286744D01*
X40592980Y29237486D01*
X40611340Y29186175D01*
X40624577Y29133328D01*
X40632574Y29079417D01*
X40635248Y29025000D01*
X40632574Y28970583D01*
X40624577Y28916672D01*
X40611340Y28863825D01*
X40592980Y28812514D01*
X40569683Y28763256D01*
X40541671Y28716520D01*
X40509216Y28672760D01*
X40472619Y28632381D01*
X40432240Y28595784D01*
X40388480Y28563329D01*
X40341744Y28535317D01*
X40292486Y28512020D01*
X40241175Y28493660D01*
X40188328Y28480423D01*
X40134417Y28472426D01*
X40080000Y28469752D01*
D02*
G37*
%LPD*%
G36*
X40080000Y28725059D02*
X40109385Y28726504D01*
X40138522Y28730826D01*
X40167060Y28737973D01*
X40194788Y28747895D01*
X40221394Y28760478D01*
X40246635Y28775608D01*
X40270278Y28793143D01*
X40292089Y28812911D01*
X40311857Y28834722D01*
X40329392Y28858365D01*
X40344522Y28883606D01*
X40357105Y28910212D01*
X40367027Y28937940D01*
X40374174Y28966478D01*
X40378496Y28995615D01*
X40379941Y29025000D01*
X40378496Y29054385D01*
X40374174Y29083522D01*
X40367027Y29112060D01*
X40357105Y29139788D01*
X40344522Y29166394D01*
X40329392Y29191635D01*
X40311857Y29215278D01*
X40292089Y29237089D01*
X40270278Y29256857D01*
X40246635Y29274392D01*
X40221394Y29289522D01*
X40194788Y29302105D01*
X40167060Y29312027D01*
X40138522Y29319174D01*
X40109385Y29323496D01*
X40080000Y29324941D01*
X40050615Y29323496D01*
X40021478Y29319174D01*
X39992940Y29312027D01*
X39965212Y29302105D01*
X39938606Y29289522D01*
X39913365Y29274392D01*
X39889722Y29256857D01*
X39867911Y29237089D01*
X39848143Y29215278D01*
X39830608Y29191635D01*
X39815478Y29166394D01*
X39802895Y29139788D01*
X39792973Y29112060D01*
X39785826Y29083522D01*
X39781504Y29054385D01*
X39780059Y29025000D01*
X39781504Y28995615D01*
X39785826Y28966478D01*
X39792973Y28937940D01*
X39802895Y28910212D01*
X39815478Y28883606D01*
X39830608Y28858365D01*
X39848143Y28834722D01*
X39867911Y28812911D01*
X39889722Y28793143D01*
X39913365Y28775608D01*
X39938606Y28760478D01*
X39965212Y28747895D01*
X39992940Y28737973D01*
X40021478Y28730826D01*
X40050615Y28726504D01*
X40080000Y28725059D01*
D02*
G37*
%LPC*%
G36*
X58350000Y24794752D02*
X58295583Y24797426D01*
X58241672Y24805423D01*
X58188825Y24818660D01*
X58137514Y24837020D01*
X58088256Y24860317D01*
X58041520Y24888329D01*
X57997760Y24920784D01*
X57957381Y24957381D01*
X57920784Y24997760D01*
X57888329Y25041520D01*
X57860317Y25088256D01*
X57837020Y25137514D01*
X57818660Y25188825D01*
X57805423Y25241672D01*
X57797426Y25295583D01*
X57794752Y25350000D01*
X57797426Y25404417D01*
X57805423Y25458328D01*
X57818660Y25511175D01*
X57837020Y25562486D01*
X57860317Y25611744D01*
X57888329Y25658480D01*
X57920784Y25702240D01*
X57957381Y25742619D01*
X57997760Y25779216D01*
X58041520Y25811671D01*
X58088256Y25839683D01*
X58137514Y25862980D01*
X58188825Y25881340D01*
X58241672Y25894577D01*
X58295583Y25902574D01*
X58350000Y25905248D01*
X58404417Y25902574D01*
X58458328Y25894577D01*
X58511175Y25881340D01*
X58562486Y25862980D01*
X58611744Y25839683D01*
X58658480Y25811671D01*
X58702240Y25779216D01*
X58742619Y25742619D01*
X58779216Y25702240D01*
X58811671Y25658480D01*
X58839683Y25611744D01*
X58862980Y25562486D01*
X58881340Y25511175D01*
X58894577Y25458328D01*
X58902574Y25404417D01*
X58905248Y25350000D01*
X58902574Y25295583D01*
X58894577Y25241672D01*
X58881340Y25188825D01*
X58862980Y25137514D01*
X58839683Y25088256D01*
X58811671Y25041520D01*
X58779216Y24997760D01*
X58742619Y24957381D01*
X58702240Y24920784D01*
X58658480Y24888329D01*
X58611744Y24860317D01*
X58562486Y24837020D01*
X58511175Y24818660D01*
X58458328Y24805423D01*
X58404417Y24797426D01*
X58350000Y24794752D01*
D02*
G37*
%LPD*%
G36*
X58350000Y25050059D02*
X58379385Y25051504D01*
X58408522Y25055826D01*
X58437060Y25062973D01*
X58464788Y25072895D01*
X58491394Y25085478D01*
X58516635Y25100608D01*
X58540278Y25118143D01*
X58562089Y25137911D01*
X58581857Y25159722D01*
X58599392Y25183365D01*
X58614522Y25208606D01*
X58627105Y25235212D01*
X58637027Y25262940D01*
X58644174Y25291478D01*
X58648496Y25320615D01*
X58649941Y25350000D01*
X58648496Y25379385D01*
X58644174Y25408522D01*
X58637027Y25437060D01*
X58627105Y25464788D01*
X58614522Y25491394D01*
X58599392Y25516635D01*
X58581857Y25540278D01*
X58562089Y25562089D01*
X58540278Y25581857D01*
X58516635Y25599392D01*
X58491394Y25614522D01*
X58464788Y25627105D01*
X58437060Y25637027D01*
X58408522Y25644174D01*
X58379385Y25648496D01*
X58350000Y25649941D01*
X58320615Y25648496D01*
X58291478Y25644174D01*
X58262940Y25637027D01*
X58235212Y25627105D01*
X58208606Y25614522D01*
X58183365Y25599392D01*
X58159722Y25581857D01*
X58137911Y25562089D01*
X58118143Y25540278D01*
X58100608Y25516635D01*
X58085478Y25491394D01*
X58072895Y25464788D01*
X58062973Y25437060D01*
X58055826Y25408522D01*
X58051504Y25379385D01*
X58050059Y25350000D01*
X58051504Y25320615D01*
X58055826Y25291478D01*
X58062973Y25262940D01*
X58072895Y25235212D01*
X58085478Y25208606D01*
X58100608Y25183365D01*
X58118143Y25159722D01*
X58137911Y25137911D01*
X58159722Y25118143D01*
X58183365Y25100608D01*
X58208606Y25085478D01*
X58235212Y25072895D01*
X58262940Y25062973D01*
X58291478Y25055826D01*
X58320615Y25051504D01*
X58350000Y25050059D01*
D02*
G37*
%LPC*%
G36*
X58350000Y21494752D02*
X58295583Y21497426D01*
X58241672Y21505423D01*
X58188825Y21518660D01*
X58137514Y21537020D01*
X58088256Y21560317D01*
X58041520Y21588329D01*
X57997760Y21620784D01*
X57957381Y21657381D01*
X57920784Y21697760D01*
X57888329Y21741520D01*
X57860317Y21788256D01*
X57837020Y21837514D01*
X57818660Y21888825D01*
X57805423Y21941672D01*
X57797426Y21995583D01*
X57794752Y22050000D01*
X57797426Y22104417D01*
X57805423Y22158328D01*
X57818660Y22211175D01*
X57837020Y22262486D01*
X57860317Y22311744D01*
X57888329Y22358480D01*
X57920784Y22402240D01*
X57957381Y22442619D01*
X57997760Y22479216D01*
X58041520Y22511671D01*
X58088256Y22539683D01*
X58137514Y22562980D01*
X58188825Y22581340D01*
X58241672Y22594577D01*
X58295583Y22602574D01*
X58350000Y22605248D01*
X58404417Y22602574D01*
X58458328Y22594577D01*
X58511175Y22581340D01*
X58562486Y22562980D01*
X58611744Y22539683D01*
X58658480Y22511671D01*
X58702240Y22479216D01*
X58742619Y22442619D01*
X58779216Y22402240D01*
X58811671Y22358480D01*
X58839683Y22311744D01*
X58862980Y22262486D01*
X58881340Y22211175D01*
X58894577Y22158328D01*
X58902574Y22104417D01*
X58905248Y22050000D01*
X58902574Y21995583D01*
X58894577Y21941672D01*
X58881340Y21888825D01*
X58862980Y21837514D01*
X58839683Y21788256D01*
X58811671Y21741520D01*
X58779216Y21697760D01*
X58742619Y21657381D01*
X58702240Y21620784D01*
X58658480Y21588329D01*
X58611744Y21560317D01*
X58562486Y21537020D01*
X58511175Y21518660D01*
X58458328Y21505423D01*
X58404417Y21497426D01*
X58350000Y21494752D01*
D02*
G37*
%LPD*%
G36*
X58350000Y21750059D02*
X58379385Y21751504D01*
X58408522Y21755826D01*
X58437060Y21762973D01*
X58464788Y21772895D01*
X58491394Y21785478D01*
X58516635Y21800608D01*
X58540278Y21818143D01*
X58562089Y21837911D01*
X58581857Y21859722D01*
X58599392Y21883365D01*
X58614522Y21908606D01*
X58627105Y21935212D01*
X58637027Y21962940D01*
X58644174Y21991478D01*
X58648496Y22020615D01*
X58649941Y22050000D01*
X58648496Y22079385D01*
X58644174Y22108522D01*
X58637027Y22137060D01*
X58627105Y22164788D01*
X58614522Y22191394D01*
X58599392Y22216635D01*
X58581857Y22240278D01*
X58562089Y22262089D01*
X58540278Y22281857D01*
X58516635Y22299392D01*
X58491394Y22314522D01*
X58464788Y22327105D01*
X58437060Y22337027D01*
X58408522Y22344174D01*
X58379385Y22348496D01*
X58350000Y22349941D01*
X58320615Y22348496D01*
X58291478Y22344174D01*
X58262940Y22337027D01*
X58235212Y22327105D01*
X58208606Y22314522D01*
X58183365Y22299392D01*
X58159722Y22281857D01*
X58137911Y22262089D01*
X58118143Y22240278D01*
X58100608Y22216635D01*
X58085478Y22191394D01*
X58072895Y22164788D01*
X58062973Y22137060D01*
X58055826Y22108522D01*
X58051504Y22079385D01*
X58050059Y22050000D01*
X58051504Y22020615D01*
X58055826Y21991478D01*
X58062973Y21962940D01*
X58072895Y21935212D01*
X58085478Y21908606D01*
X58100608Y21883365D01*
X58118143Y21859722D01*
X58137911Y21837911D01*
X58159722Y21818143D01*
X58183365Y21800608D01*
X58208606Y21785478D01*
X58235212Y21772895D01*
X58262940Y21762973D01*
X58291478Y21755826D01*
X58320615Y21751504D01*
X58350000Y21750059D01*
D02*
G37*
%LPC*%
G36*
X42752917Y38553382D02*
X42640653Y38558897D01*
X42529464Y38575391D01*
X42420436Y38602701D01*
X42314612Y38640565D01*
X42213007Y38688620D01*
X42116589Y38746411D01*
X42026308Y38813368D01*
X41943029Y38888849D01*
X41867548Y38972128D01*
X41800591Y39062409D01*
X41742800Y39158827D01*
X41694745Y39260432D01*
X41656881Y39366256D01*
X41629571Y39475284D01*
X41613077Y39586473D01*
X41607562Y39698737D01*
X41613077Y39811001D01*
X41629571Y39922190D01*
X41656881Y40031218D01*
X41694745Y40137042D01*
X41742800Y40238647D01*
X41800591Y40335065D01*
X41867548Y40425346D01*
X41943029Y40508625D01*
X42026308Y40584106D01*
X42116589Y40651063D01*
X42213007Y40708854D01*
X42314612Y40756909D01*
X42420436Y40794773D01*
X42529464Y40822083D01*
X42640653Y40838577D01*
X42752917Y40844092D01*
X42865181Y40838577D01*
X42976370Y40822083D01*
X43085398Y40794773D01*
X43191222Y40756909D01*
X43292827Y40708854D01*
X43389245Y40651063D01*
X43479526Y40584106D01*
X43562805Y40508625D01*
X43638286Y40425346D01*
X43705243Y40335065D01*
X43763034Y40238647D01*
X43811089Y40137042D01*
X43848953Y40031218D01*
X43876263Y39922190D01*
X43892757Y39811001D01*
X43898272Y39698737D01*
X43892757Y39586473D01*
X43876263Y39475284D01*
X43848953Y39366256D01*
X43811089Y39260432D01*
X43763034Y39158827D01*
X43705243Y39062409D01*
X43638286Y38972128D01*
X43562805Y38888849D01*
X43479526Y38813368D01*
X43389245Y38746411D01*
X43292827Y38688620D01*
X43191222Y38640565D01*
X43085398Y38602701D01*
X42976370Y38575391D01*
X42865181Y38558897D01*
X42752917Y38553382D01*
D02*
G37*
%LPC*%
G36*
X37752917Y38553382D02*
X37640653Y38558897D01*
X37529464Y38575391D01*
X37420436Y38602701D01*
X37314612Y38640565D01*
X37213007Y38688620D01*
X37116589Y38746411D01*
X37026308Y38813368D01*
X36943029Y38888849D01*
X36867548Y38972128D01*
X36800591Y39062409D01*
X36742800Y39158827D01*
X36694745Y39260432D01*
X36656881Y39366256D01*
X36629571Y39475284D01*
X36613077Y39586473D01*
X36607562Y39698737D01*
X36613077Y39811001D01*
X36629571Y39922190D01*
X36656881Y40031218D01*
X36694745Y40137042D01*
X36742800Y40238647D01*
X36800591Y40335065D01*
X36867548Y40425346D01*
X36943029Y40508625D01*
X37026308Y40584106D01*
X37116589Y40651063D01*
X37213007Y40708854D01*
X37314612Y40756909D01*
X37420436Y40794773D01*
X37529464Y40822083D01*
X37640653Y40838577D01*
X37752917Y40844092D01*
X37865181Y40838577D01*
X37976370Y40822083D01*
X38085398Y40794773D01*
X38191222Y40756909D01*
X38292827Y40708854D01*
X38389245Y40651063D01*
X38479526Y40584106D01*
X38562805Y40508625D01*
X38638286Y40425346D01*
X38705243Y40335065D01*
X38763034Y40238647D01*
X38811089Y40137042D01*
X38848953Y40031218D01*
X38876263Y39922190D01*
X38892757Y39811001D01*
X38898272Y39698737D01*
X38892757Y39586473D01*
X38876263Y39475284D01*
X38848953Y39366256D01*
X38811089Y39260432D01*
X38763034Y39158827D01*
X38705243Y39062409D01*
X38638286Y38972128D01*
X38562805Y38888849D01*
X38479526Y38813368D01*
X38389245Y38746411D01*
X38292827Y38688620D01*
X38191222Y38640565D01*
X38085398Y38602701D01*
X37976370Y38575391D01*
X37865181Y38558897D01*
X37752917Y38553382D01*
D02*
G37*
%LPC*%
G36*
X25252917Y38553382D02*
X25140653Y38558897D01*
X25029464Y38575391D01*
X24920436Y38602701D01*
X24814612Y38640565D01*
X24713007Y38688620D01*
X24616589Y38746411D01*
X24526308Y38813368D01*
X24443029Y38888849D01*
X24367548Y38972128D01*
X24300591Y39062409D01*
X24242800Y39158827D01*
X24194745Y39260432D01*
X24156881Y39366256D01*
X24129571Y39475284D01*
X24113077Y39586473D01*
X24107562Y39698737D01*
X24113077Y39811001D01*
X24129571Y39922190D01*
X24156881Y40031218D01*
X24194745Y40137042D01*
X24242800Y40238647D01*
X24300591Y40335065D01*
X24367548Y40425346D01*
X24443029Y40508625D01*
X24526308Y40584106D01*
X24616589Y40651063D01*
X24713007Y40708854D01*
X24814612Y40756909D01*
X24920436Y40794773D01*
X25029464Y40822083D01*
X25140653Y40838577D01*
X25252917Y40844092D01*
X25365181Y40838577D01*
X25476370Y40822083D01*
X25585398Y40794773D01*
X25691222Y40756909D01*
X25792827Y40708854D01*
X25889245Y40651063D01*
X25979526Y40584106D01*
X26062805Y40508625D01*
X26138286Y40425346D01*
X26205243Y40335065D01*
X26263034Y40238647D01*
X26311089Y40137042D01*
X26348953Y40031218D01*
X26376263Y39922190D01*
X26392757Y39811001D01*
X26398272Y39698737D01*
X26392757Y39586473D01*
X26376263Y39475284D01*
X26348953Y39366256D01*
X26311089Y39260432D01*
X26263034Y39158827D01*
X26205243Y39062409D01*
X26138286Y38972128D01*
X26062805Y38888849D01*
X25979526Y38813368D01*
X25889245Y38746411D01*
X25792827Y38688620D01*
X25691222Y38640565D01*
X25585398Y38602701D01*
X25476370Y38575391D01*
X25365181Y38558897D01*
X25252917Y38553382D01*
D02*
G37*
%LPC*%
G36*
X20252917Y38553382D02*
X20140653Y38558897D01*
X20029464Y38575391D01*
X19920436Y38602701D01*
X19814612Y38640565D01*
X19713007Y38688620D01*
X19616589Y38746411D01*
X19526308Y38813368D01*
X19443029Y38888849D01*
X19367548Y38972128D01*
X19300591Y39062409D01*
X19242800Y39158827D01*
X19194745Y39260432D01*
X19156881Y39366256D01*
X19129571Y39475284D01*
X19113077Y39586473D01*
X19107562Y39698737D01*
X19113077Y39811001D01*
X19129571Y39922190D01*
X19156881Y40031218D01*
X19194745Y40137042D01*
X19242800Y40238647D01*
X19300591Y40335065D01*
X19367548Y40425346D01*
X19443029Y40508625D01*
X19526308Y40584106D01*
X19616589Y40651063D01*
X19713007Y40708854D01*
X19814612Y40756909D01*
X19920436Y40794773D01*
X20029464Y40822083D01*
X20140653Y40838577D01*
X20252917Y40844092D01*
X20365181Y40838577D01*
X20476370Y40822083D01*
X20585398Y40794773D01*
X20691222Y40756909D01*
X20792827Y40708854D01*
X20889245Y40651063D01*
X20979526Y40584106D01*
X21062805Y40508625D01*
X21138286Y40425346D01*
X21205243Y40335065D01*
X21263034Y40238647D01*
X21311089Y40137042D01*
X21348953Y40031218D01*
X21376263Y39922190D01*
X21392757Y39811001D01*
X21398272Y39698737D01*
X21392757Y39586473D01*
X21376263Y39475284D01*
X21348953Y39366256D01*
X21311089Y39260432D01*
X21263034Y39158827D01*
X21205243Y39062409D01*
X21138286Y38972128D01*
X21062805Y38888849D01*
X20979526Y38813368D01*
X20889245Y38746411D01*
X20792827Y38688620D01*
X20691222Y38640565D01*
X20585398Y38602701D01*
X20476370Y38575391D01*
X20365181Y38558897D01*
X20252917Y38553382D01*
D02*
G37*
%LPC*%
G36*
X11200000Y38634645D02*
X11107339Y38639197D01*
X11015565Y38652811D01*
X10925578Y38675351D01*
X10838229Y38706606D01*
X10754356Y38746275D01*
X10674794Y38793962D01*
X10600274Y38849231D01*
X10531533Y38911533D01*
X10469231Y38980274D01*
X10413962Y39054794D01*
X10366275Y39134356D01*
X10326606Y39218229D01*
X10295351Y39305578D01*
X10272811Y39395565D01*
X10259197Y39487339D01*
X10254645Y39580000D01*
X10259197Y39672661D01*
X10272811Y39764435D01*
X10295351Y39854422D01*
X10326606Y39941771D01*
X10366275Y40025644D01*
X10413962Y40105206D01*
X10469231Y40179726D01*
X10531533Y40248467D01*
X10600274Y40310769D01*
X10674794Y40366038D01*
X10754356Y40413725D01*
X10838229Y40453394D01*
X10925578Y40484649D01*
X11015565Y40507189D01*
X11107339Y40520803D01*
X11200000Y40525355D01*
X11292661Y40520803D01*
X11384435Y40507189D01*
X11474422Y40484649D01*
X11561771Y40453394D01*
X11645644Y40413725D01*
X11725206Y40366038D01*
X11799726Y40310769D01*
X11868467Y40248467D01*
X11930769Y40179726D01*
X11986038Y40105206D01*
X12033725Y40025644D01*
X12073394Y39941771D01*
X12104649Y39854422D01*
X12127189Y39764435D01*
X12140803Y39672661D01*
X12145355Y39580000D01*
X12140803Y39487339D01*
X12127189Y39395565D01*
X12104649Y39305578D01*
X12073394Y39218229D01*
X12033725Y39134356D01*
X11986038Y39054794D01*
X11930769Y38980274D01*
X11868467Y38911533D01*
X11799726Y38849231D01*
X11725206Y38793962D01*
X11645644Y38746275D01*
X11561771Y38706606D01*
X11474422Y38675351D01*
X11384435Y38652811D01*
X11292661Y38639197D01*
X11200000Y38634645D01*
D02*
G37*
%LPC*%
G36*
X3400000Y35744645D02*
X3287736Y35750160D01*
X3176547Y35766654D01*
X3067519Y35793964D01*
X2961695Y35831828D01*
X2860090Y35879883D01*
X2763672Y35937674D01*
X2673391Y36004631D01*
X2590112Y36080112D01*
X2514631Y36163391D01*
X2447674Y36253672D01*
X2389883Y36350090D01*
X2341828Y36451695D01*
X2303964Y36557519D01*
X2276654Y36666547D01*
X2260160Y36777736D01*
X2254645Y36890000D01*
X2260160Y37002264D01*
X2276654Y37113453D01*
X2303964Y37222481D01*
X2341828Y37328305D01*
X2389883Y37429910D01*
X2447674Y37526328D01*
X2514631Y37616609D01*
X2590112Y37699888D01*
X2673391Y37775369D01*
X2763672Y37842326D01*
X2860090Y37900117D01*
X2961695Y37948172D01*
X3067519Y37986036D01*
X3176547Y38013346D01*
X3287736Y38029840D01*
X3400000Y38035355D01*
X3512264Y38029840D01*
X3623453Y38013346D01*
X3732481Y37986036D01*
X3838305Y37948172D01*
X3939910Y37900117D01*
X4036328Y37842326D01*
X4126609Y37775369D01*
X4209888Y37699888D01*
X4285369Y37616609D01*
X4352326Y37526328D01*
X4410117Y37429910D01*
X4458172Y37328305D01*
X4496036Y37222481D01*
X4523346Y37113453D01*
X4539840Y37002264D01*
X4545355Y36890000D01*
X4539840Y36777736D01*
X4523346Y36666547D01*
X4496036Y36557519D01*
X4458172Y36451695D01*
X4410117Y36350090D01*
X4352326Y36253672D01*
X4285369Y36163391D01*
X4209888Y36080112D01*
X4126609Y36004631D01*
X4036328Y35937674D01*
X3939910Y35879883D01*
X3838305Y35831828D01*
X3732481Y35793964D01*
X3623453Y35766654D01*
X3512264Y35750160D01*
X3400000Y35744645D01*
D02*
G37*
%LPC*%
G36*
X50110000Y32894753D02*
X50045774Y32897909D01*
X49982167Y32907345D01*
X49919790Y32922968D01*
X49859243Y32944634D01*
X49801122Y32972123D01*
X49745966Y33005182D01*
X49694316Y33043488D01*
X49646670Y33086670D01*
X49603488Y33134316D01*
X49565182Y33185966D01*
X49532123Y33241122D01*
X49504634Y33299243D01*
X49482968Y33359790D01*
X49467345Y33422167D01*
X49457909Y33485774D01*
X49454753Y33550000D01*
X49457909Y33614226D01*
X49467345Y33677833D01*
X49482968Y33740210D01*
X49504634Y33800757D01*
X49532123Y33858878D01*
X49565182Y33914034D01*
X49603488Y33965684D01*
X49646670Y34013330D01*
X49694316Y34056512D01*
X49745966Y34094818D01*
X49801122Y34127877D01*
X49859243Y34155366D01*
X49919790Y34177032D01*
X49982167Y34192655D01*
X50045774Y34202091D01*
X50110000Y34205247D01*
X50174226Y34202091D01*
X50237833Y34192655D01*
X50300210Y34177032D01*
X50360757Y34155366D01*
X50418878Y34127877D01*
X50474034Y34094818D01*
X50525684Y34056512D01*
X50573330Y34013330D01*
X50616512Y33965684D01*
X50654818Y33914034D01*
X50687877Y33858878D01*
X50715366Y33800757D01*
X50737032Y33740210D01*
X50752655Y33677833D01*
X50762091Y33614226D01*
X50765247Y33550000D01*
X50762091Y33485774D01*
X50752655Y33422167D01*
X50737032Y33359790D01*
X50715366Y33299243D01*
X50687877Y33241122D01*
X50654818Y33185966D01*
X50616512Y33134316D01*
X50573330Y33086670D01*
X50525684Y33043488D01*
X50474034Y33005182D01*
X50418878Y32972123D01*
X50360757Y32944634D01*
X50300210Y32922968D01*
X50237833Y32907345D01*
X50174226Y32897909D01*
X50110000Y32894753D01*
D02*
G37*
%LPC*%
G36*
X55700000Y15579645D02*
X55558329Y15586605D01*
X55418022Y15607418D01*
X55280433Y15641882D01*
X55146894Y15689663D01*
X55018662Y15750312D01*
X54897007Y15823229D01*
X54783074Y15907727D01*
X54677980Y16002980D01*
X54582727Y16108074D01*
X54498229Y16222007D01*
X54425312Y16343662D01*
X54364663Y16471894D01*
X54316882Y16605433D01*
X54282418Y16743022D01*
X54261605Y16883329D01*
X54254645Y17025000D01*
X54261605Y17166671D01*
X54282418Y17306978D01*
X54316882Y17444567D01*
X54364663Y17578106D01*
X54425312Y17706338D01*
X54498229Y17827993D01*
X54582727Y17941926D01*
X54677980Y18047020D01*
X54783074Y18142273D01*
X54897007Y18226771D01*
X55018662Y18299688D01*
X55146894Y18360337D01*
X55280433Y18408118D01*
X55418022Y18442582D01*
X55558329Y18463395D01*
X55700000Y18470355D01*
X55841671Y18463395D01*
X55981978Y18442582D01*
X56119567Y18408118D01*
X56253106Y18360337D01*
X56381338Y18299688D01*
X56502993Y18226771D01*
X56616926Y18142273D01*
X56722020Y18047020D01*
X56817273Y17941926D01*
X56901771Y17827993D01*
X56974688Y17706338D01*
X57035337Y17578106D01*
X57083118Y17444567D01*
X57117582Y17306978D01*
X57138395Y17166671D01*
X57145355Y17025000D01*
X57138395Y16883329D01*
X57117582Y16743022D01*
X57083118Y16605433D01*
X57035337Y16471894D01*
X56974688Y16343662D01*
X56901771Y16222007D01*
X56817273Y16108074D01*
X56722020Y16002980D01*
X56616926Y15907727D01*
X56502993Y15823229D01*
X56381338Y15750312D01*
X56253106Y15689663D01*
X56119567Y15641882D01*
X55981978Y15607418D01*
X55841671Y15586605D01*
X55700000Y15579645D01*
D02*
G37*
%LPC*%
G36*
X44280000Y15579645D02*
X44138329Y15586605D01*
X43998022Y15607418D01*
X43860433Y15641882D01*
X43726894Y15689663D01*
X43598662Y15750312D01*
X43477007Y15823229D01*
X43363074Y15907727D01*
X43257980Y16002980D01*
X43162727Y16108074D01*
X43078229Y16222007D01*
X43005312Y16343662D01*
X42944663Y16471894D01*
X42896882Y16605433D01*
X42862418Y16743022D01*
X42841605Y16883329D01*
X42834645Y17025000D01*
X42841605Y17166671D01*
X42862418Y17306978D01*
X42896882Y17444567D01*
X42944663Y17578106D01*
X43005312Y17706338D01*
X43078229Y17827993D01*
X43162727Y17941926D01*
X43257980Y18047020D01*
X43363074Y18142273D01*
X43477007Y18226771D01*
X43598662Y18299688D01*
X43726894Y18360337D01*
X43860433Y18408118D01*
X43998022Y18442582D01*
X44138329Y18463395D01*
X44280000Y18470355D01*
X44421671Y18463395D01*
X44561978Y18442582D01*
X44699567Y18408118D01*
X44833106Y18360337D01*
X44961338Y18299688D01*
X45082993Y18226771D01*
X45196926Y18142273D01*
X45302020Y18047020D01*
X45397273Y17941926D01*
X45481771Y17827993D01*
X45554688Y17706338D01*
X45615337Y17578106D01*
X45663118Y17444567D01*
X45697582Y17306978D01*
X45718395Y17166671D01*
X45725355Y17025000D01*
X45718395Y16883329D01*
X45697582Y16743022D01*
X45663118Y16605433D01*
X45615337Y16471894D01*
X45554688Y16343662D01*
X45481771Y16222007D01*
X45397273Y16108074D01*
X45302020Y16002980D01*
X45196926Y15907727D01*
X45082993Y15823229D01*
X44961338Y15750312D01*
X44833106Y15689663D01*
X44699567Y15641882D01*
X44561978Y15607418D01*
X44421671Y15586605D01*
X44280000Y15579645D01*
D02*
G37*
%LPC*%
G36*
X4280000Y15579645D02*
X4138329Y15586605D01*
X3998022Y15607418D01*
X3860433Y15641882D01*
X3726894Y15689663D01*
X3598662Y15750312D01*
X3477007Y15823229D01*
X3363074Y15907727D01*
X3257980Y16002980D01*
X3162727Y16108074D01*
X3078229Y16222007D01*
X3005312Y16343662D01*
X2944663Y16471894D01*
X2896882Y16605433D01*
X2862418Y16743022D01*
X2841605Y16883329D01*
X2834645Y17025000D01*
X2841605Y17166671D01*
X2862418Y17306978D01*
X2896882Y17444567D01*
X2944663Y17578106D01*
X3005312Y17706338D01*
X3078229Y17827993D01*
X3162727Y17941926D01*
X3257980Y18047020D01*
X3363074Y18142273D01*
X3477007Y18226771D01*
X3598662Y18299688D01*
X3726894Y18360337D01*
X3860433Y18408118D01*
X3998022Y18442582D01*
X4138329Y18463395D01*
X4280000Y18470355D01*
X4421671Y18463395D01*
X4561978Y18442582D01*
X4699567Y18408118D01*
X4833106Y18360337D01*
X4961338Y18299688D01*
X5082993Y18226771D01*
X5196926Y18142273D01*
X5302020Y18047020D01*
X5397273Y17941926D01*
X5481771Y17827993D01*
X5554688Y17706338D01*
X5615337Y17578106D01*
X5663118Y17444567D01*
X5697582Y17306978D01*
X5718395Y17166671D01*
X5725355Y17025000D01*
X5718395Y16883329D01*
X5697582Y16743022D01*
X5663118Y16605433D01*
X5615337Y16471894D01*
X5554688Y16343662D01*
X5481771Y16222007D01*
X5397273Y16108074D01*
X5302020Y16002980D01*
X5196926Y15907727D01*
X5082993Y15823229D01*
X4961338Y15750312D01*
X4833106Y15689663D01*
X4699567Y15641882D01*
X4561978Y15607418D01*
X4421671Y15586605D01*
X4280000Y15579645D01*
D02*
G37*
%LPC*%
G36*
X55700000Y9229645D02*
X55558329Y9236605D01*
X55418022Y9257418D01*
X55280433Y9291882D01*
X55146894Y9339663D01*
X55018662Y9400312D01*
X54897007Y9473229D01*
X54783074Y9557727D01*
X54677980Y9652980D01*
X54582727Y9758074D01*
X54498229Y9872007D01*
X54425312Y9993662D01*
X54364663Y10121894D01*
X54316882Y10255433D01*
X54282418Y10393022D01*
X54261605Y10533329D01*
X54254645Y10675000D01*
X54261605Y10816671D01*
X54282418Y10956978D01*
X54316882Y11094567D01*
X54364663Y11228106D01*
X54425312Y11356338D01*
X54498229Y11477993D01*
X54582727Y11591926D01*
X54677980Y11697020D01*
X54783074Y11792273D01*
X54897007Y11876771D01*
X55018662Y11949688D01*
X55146894Y12010337D01*
X55280433Y12058118D01*
X55418022Y12092582D01*
X55558329Y12113395D01*
X55700000Y12120355D01*
X55841671Y12113395D01*
X55981978Y12092582D01*
X56119567Y12058118D01*
X56253106Y12010337D01*
X56381338Y11949688D01*
X56502993Y11876771D01*
X56616926Y11792273D01*
X56722020Y11697020D01*
X56817273Y11591926D01*
X56901771Y11477993D01*
X56974688Y11356338D01*
X57035337Y11228106D01*
X57083118Y11094567D01*
X57117582Y10956978D01*
X57138395Y10816671D01*
X57145355Y10675000D01*
X57138395Y10533329D01*
X57117582Y10393022D01*
X57083118Y10255433D01*
X57035337Y10121894D01*
X56974688Y9993662D01*
X56901771Y9872007D01*
X56817273Y9758074D01*
X56722020Y9652980D01*
X56616926Y9557727D01*
X56502993Y9473229D01*
X56381338Y9400312D01*
X56253106Y9339663D01*
X56119567Y9291882D01*
X55981978Y9257418D01*
X55841671Y9236605D01*
X55700000Y9229645D01*
D02*
G37*
%LPC*%
G36*
X44280000Y9229645D02*
X44138329Y9236605D01*
X43998022Y9257418D01*
X43860433Y9291882D01*
X43726894Y9339663D01*
X43598662Y9400312D01*
X43477007Y9473229D01*
X43363074Y9557727D01*
X43257980Y9652980D01*
X43162727Y9758074D01*
X43078229Y9872007D01*
X43005312Y9993662D01*
X42944663Y10121894D01*
X42896882Y10255433D01*
X42862418Y10393022D01*
X42841605Y10533329D01*
X42834645Y10675000D01*
X42841605Y10816671D01*
X42862418Y10956978D01*
X42896882Y11094567D01*
X42944663Y11228106D01*
X43005312Y11356338D01*
X43078229Y11477993D01*
X43162727Y11591926D01*
X43257980Y11697020D01*
X43363074Y11792273D01*
X43477007Y11876771D01*
X43598662Y11949688D01*
X43726894Y12010337D01*
X43860433Y12058118D01*
X43998022Y12092582D01*
X44138329Y12113395D01*
X44280000Y12120355D01*
X44421671Y12113395D01*
X44561978Y12092582D01*
X44699567Y12058118D01*
X44833106Y12010337D01*
X44961338Y11949688D01*
X45082993Y11876771D01*
X45196926Y11792273D01*
X45302020Y11697020D01*
X45397273Y11591926D01*
X45481771Y11477993D01*
X45554688Y11356338D01*
X45615337Y11228106D01*
X45663118Y11094567D01*
X45697582Y10956978D01*
X45718395Y10816671D01*
X45725355Y10675000D01*
X45718395Y10533329D01*
X45697582Y10393022D01*
X45663118Y10255433D01*
X45615337Y10121894D01*
X45554688Y9993662D01*
X45481771Y9872007D01*
X45397273Y9758074D01*
X45302020Y9652980D01*
X45196926Y9557727D01*
X45082993Y9473229D01*
X44961338Y9400312D01*
X44833106Y9339663D01*
X44699567Y9291882D01*
X44561978Y9257418D01*
X44421671Y9236605D01*
X44280000Y9229645D01*
D02*
G37*
%LPC*%
G36*
X15700000Y9229645D02*
X15558329Y9236605D01*
X15418022Y9257418D01*
X15280433Y9291882D01*
X15146894Y9339663D01*
X15018662Y9400312D01*
X14897007Y9473229D01*
X14783074Y9557727D01*
X14677980Y9652980D01*
X14582727Y9758074D01*
X14498229Y9872007D01*
X14425312Y9993662D01*
X14364663Y10121894D01*
X14316882Y10255433D01*
X14282418Y10393022D01*
X14261605Y10533329D01*
X14254645Y10675000D01*
X14261605Y10816671D01*
X14282418Y10956978D01*
X14316882Y11094567D01*
X14364663Y11228106D01*
X14425312Y11356338D01*
X14498229Y11477993D01*
X14582727Y11591926D01*
X14677980Y11697020D01*
X14783074Y11792273D01*
X14897007Y11876771D01*
X15018662Y11949688D01*
X15146894Y12010337D01*
X15280433Y12058118D01*
X15418022Y12092582D01*
X15558329Y12113395D01*
X15700000Y12120355D01*
X15841671Y12113395D01*
X15981978Y12092582D01*
X16119567Y12058118D01*
X16253106Y12010337D01*
X16381338Y11949688D01*
X16502993Y11876771D01*
X16616926Y11792273D01*
X16722020Y11697020D01*
X16817273Y11591926D01*
X16901771Y11477993D01*
X16974688Y11356338D01*
X17035337Y11228106D01*
X17083118Y11094567D01*
X17117582Y10956978D01*
X17138395Y10816671D01*
X17145355Y10675000D01*
X17138395Y10533329D01*
X17117582Y10393022D01*
X17083118Y10255433D01*
X17035337Y10121894D01*
X16974688Y9993662D01*
X16901771Y9872007D01*
X16817273Y9758074D01*
X16722020Y9652980D01*
X16616926Y9557727D01*
X16502993Y9473229D01*
X16381338Y9400312D01*
X16253106Y9339663D01*
X16119567Y9291882D01*
X15981978Y9257418D01*
X15841671Y9236605D01*
X15700000Y9229645D01*
D02*
G37*
%LPC*%
G36*
X4280000Y9229645D02*
X4138329Y9236605D01*
X3998022Y9257418D01*
X3860433Y9291882D01*
X3726894Y9339663D01*
X3598662Y9400312D01*
X3477007Y9473229D01*
X3363074Y9557727D01*
X3257980Y9652980D01*
X3162727Y9758074D01*
X3078229Y9872007D01*
X3005312Y9993662D01*
X2944663Y10121894D01*
X2896882Y10255433D01*
X2862418Y10393022D01*
X2841605Y10533329D01*
X2834645Y10675000D01*
X2841605Y10816671D01*
X2862418Y10956978D01*
X2896882Y11094567D01*
X2944663Y11228106D01*
X3005312Y11356338D01*
X3078229Y11477993D01*
X3162727Y11591926D01*
X3257980Y11697020D01*
X3363074Y11792273D01*
X3477007Y11876771D01*
X3598662Y11949688D01*
X3726894Y12010337D01*
X3860433Y12058118D01*
X3998022Y12092582D01*
X4138329Y12113395D01*
X4280000Y12120355D01*
X4421671Y12113395D01*
X4561978Y12092582D01*
X4699567Y12058118D01*
X4833106Y12010337D01*
X4961338Y11949688D01*
X5082993Y11876771D01*
X5196926Y11792273D01*
X5302020Y11697020D01*
X5397273Y11591926D01*
X5481771Y11477993D01*
X5554688Y11356338D01*
X5615337Y11228106D01*
X5663118Y11094567D01*
X5697582Y10956978D01*
X5718395Y10816671D01*
X5725355Y10675000D01*
X5718395Y10533329D01*
X5697582Y10393022D01*
X5663118Y10255433D01*
X5615337Y10121894D01*
X5554688Y9993662D01*
X5481771Y9872007D01*
X5397273Y9758074D01*
X5302020Y9652980D01*
X5196926Y9557727D01*
X5082993Y9473229D01*
X4961338Y9400312D01*
X4833106Y9339663D01*
X4699567Y9291882D01*
X4561978Y9257418D01*
X4421671Y9236605D01*
X4280000Y9229645D01*
D02*
G37*
%LPC*%
G36*
X23050000Y4204645D02*
X22937736Y4210160D01*
X22826547Y4226654D01*
X22717519Y4253964D01*
X22611695Y4291828D01*
X22510090Y4339883D01*
X22413672Y4397674D01*
X22323391Y4464631D01*
X22240112Y4540112D01*
X22164631Y4623391D01*
X22097674Y4713672D01*
X22039883Y4810090D01*
X21991828Y4911695D01*
X21953964Y5017519D01*
X21926654Y5126547D01*
X21910160Y5237736D01*
X21904645Y5350000D01*
X21910160Y5462264D01*
X21926654Y5573453D01*
X21953964Y5682481D01*
X21991828Y5788305D01*
X22039883Y5889910D01*
X22097674Y5986328D01*
X22164631Y6076609D01*
X22240112Y6159888D01*
X22323391Y6235369D01*
X22413672Y6302326D01*
X22510090Y6360117D01*
X22611695Y6408172D01*
X22717519Y6446036D01*
X22826547Y6473346D01*
X22937736Y6489840D01*
X23050000Y6495355D01*
X23162264Y6489840D01*
X23273453Y6473346D01*
X23382481Y6446036D01*
X23488305Y6408172D01*
X23589910Y6360117D01*
X23686328Y6302326D01*
X23776609Y6235369D01*
X23859888Y6159888D01*
X23935369Y6076609D01*
X24002326Y5986328D01*
X24060117Y5889910D01*
X24108172Y5788305D01*
X24146036Y5682481D01*
X24173346Y5573453D01*
X24189840Y5462264D01*
X24195355Y5350000D01*
X24189840Y5237736D01*
X24173346Y5126547D01*
X24146036Y5017519D01*
X24108172Y4911695D01*
X24060117Y4810090D01*
X24002326Y4713672D01*
X23935369Y4623391D01*
X23859888Y4540112D01*
X23776609Y4464631D01*
X23686328Y4397674D01*
X23589910Y4339883D01*
X23488305Y4291828D01*
X23382481Y4253964D01*
X23273453Y4226654D01*
X23162264Y4210160D01*
X23050000Y4204645D01*
D02*
G37*
%LPC*%
G36*
X55700000Y2879645D02*
X55558329Y2886605D01*
X55418022Y2907418D01*
X55280433Y2941882D01*
X55146894Y2989663D01*
X55018662Y3050312D01*
X54897007Y3123229D01*
X54783074Y3207727D01*
X54677980Y3302980D01*
X54582727Y3408074D01*
X54498229Y3522007D01*
X54425312Y3643662D01*
X54364663Y3771894D01*
X54316882Y3905433D01*
X54282418Y4043022D01*
X54261605Y4183329D01*
X54254645Y4325000D01*
X54261605Y4466671D01*
X54282418Y4606978D01*
X54316882Y4744567D01*
X54364663Y4878106D01*
X54425312Y5006338D01*
X54498229Y5127993D01*
X54582727Y5241926D01*
X54677980Y5347020D01*
X54783074Y5442273D01*
X54897007Y5526771D01*
X55018662Y5599688D01*
X55146894Y5660337D01*
X55280433Y5708118D01*
X55418022Y5742582D01*
X55558329Y5763395D01*
X55700000Y5770355D01*
X55841671Y5763395D01*
X55981978Y5742582D01*
X56119567Y5708118D01*
X56253106Y5660337D01*
X56381338Y5599688D01*
X56502993Y5526771D01*
X56616926Y5442273D01*
X56722020Y5347020D01*
X56817273Y5241926D01*
X56901771Y5127993D01*
X56974688Y5006338D01*
X57035337Y4878106D01*
X57083118Y4744567D01*
X57117582Y4606978D01*
X57138395Y4466671D01*
X57145355Y4325000D01*
X57138395Y4183329D01*
X57117582Y4043022D01*
X57083118Y3905433D01*
X57035337Y3771894D01*
X56974688Y3643662D01*
X56901771Y3522007D01*
X56817273Y3408074D01*
X56722020Y3302980D01*
X56616926Y3207727D01*
X56502993Y3123229D01*
X56381338Y3050312D01*
X56253106Y2989663D01*
X56119567Y2941882D01*
X55981978Y2907418D01*
X55841671Y2886605D01*
X55700000Y2879645D01*
D02*
G37*
%LPC*%
G36*
X15700000Y2879645D02*
X15558329Y2886605D01*
X15418022Y2907418D01*
X15280433Y2941882D01*
X15146894Y2989663D01*
X15018662Y3050312D01*
X14897007Y3123229D01*
X14783074Y3207727D01*
X14677980Y3302980D01*
X14582727Y3408074D01*
X14498229Y3522007D01*
X14425312Y3643662D01*
X14364663Y3771894D01*
X14316882Y3905433D01*
X14282418Y4043022D01*
X14261605Y4183329D01*
X14254645Y4325000D01*
X14261605Y4466671D01*
X14282418Y4606978D01*
X14316882Y4744567D01*
X14364663Y4878106D01*
X14425312Y5006338D01*
X14498229Y5127993D01*
X14582727Y5241926D01*
X14677980Y5347020D01*
X14783074Y5442273D01*
X14897007Y5526771D01*
X15018662Y5599688D01*
X15146894Y5660337D01*
X15280433Y5708118D01*
X15418022Y5742582D01*
X15558329Y5763395D01*
X15700000Y5770355D01*
X15841671Y5763395D01*
X15981978Y5742582D01*
X16119567Y5708118D01*
X16253106Y5660337D01*
X16381338Y5599688D01*
X16502993Y5526771D01*
X16616926Y5442273D01*
X16722020Y5347020D01*
X16817273Y5241926D01*
X16901771Y5127993D01*
X16974688Y5006338D01*
X17035337Y4878106D01*
X17083118Y4744567D01*
X17117582Y4606978D01*
X17138395Y4466671D01*
X17145355Y4325000D01*
X17138395Y4183329D01*
X17117582Y4043022D01*
X17083118Y3905433D01*
X17035337Y3771894D01*
X16974688Y3643662D01*
X16901771Y3522007D01*
X16817273Y3408074D01*
X16722020Y3302980D01*
X16616926Y3207727D01*
X16502993Y3123229D01*
X16381338Y3050312D01*
X16253106Y2989663D01*
X16119567Y2941882D01*
X15981978Y2907418D01*
X15841671Y2886605D01*
X15700000Y2879645D01*
D02*
G37*
%LPD*%
G01*
%LPD*%
G75*
D10*
X23050000Y5350000D03*
D10*
X23050000Y2850000D03*
D11*
X15700000Y10675000D03*
D11*
X4280000Y10675000D03*
D11*
X4280000Y4325000D03*
D11*
X4280000Y17025000D03*
D11*
X15700000Y17025000D03*
D11*
X15700000Y4325000D03*
D12*
X34930000Y30270000D03*
D12*
X37470000Y29000000D03*
D13*
X13740000Y42120000D03*
D13*
X11200000Y39580000D03*
D13*
X8660000Y42120000D03*
D14*
X3400000Y36890000D03*
D14*
X3400000Y44510000D03*
D15*
X27752917Y39698737D03*
D15*
X42752917Y39698737D03*
D15*
X20252917Y39698737D03*
D15*
X30252917Y39698737D03*
D15*
X35252917Y39698737D03*
D15*
X25252917Y39698737D03*
D15*
X40252917Y39698737D03*
D15*
X37752917Y39698737D03*
D15*
X22752917Y39698737D03*
D15*
X32752917Y39698737D03*
D11*
X55700000Y10675000D03*
D11*
X44280000Y10675000D03*
D11*
X44280000Y4325000D03*
D11*
X44280000Y17025000D03*
D11*
X55700000Y17025000D03*
D11*
X55700000Y4325000D03*
D16*
X46410000Y41850000D03*
D16*
X28119995Y28810001D03*
D17*
X31500000Y1000000D03*
D17*
X62000000Y46000000D03*
D16*
X58350000Y25350000D03*
D16*
X17145000Y28330000D03*
D16*
X44230000Y32715000D03*
D17*
X1000000Y8500000D03*
D16*
X39350000Y11562922D03*
D18*
X13705000Y29970000D03*
D18*
X36200000Y27600000D03*
D16*
X39125000Y8500000D03*
D17*
X62000000Y38500000D03*
D16*
X7965000Y23660000D03*
D16*
X8625000Y38500000D03*
D16*
X15095000Y20920000D03*
D17*
X46750000Y46000000D03*
D17*
X39125000Y1000000D03*
D19*
X57800000Y43410000D03*
D16*
X43030000Y31415000D03*
D17*
X62000000Y31000000D03*
D20*
X34350000Y15702922D03*
D16*
X48810000Y35550000D03*
D16*
X13035000Y24420000D03*
D16*
X41790000Y13202922D03*
D16*
X19950000Y10767954D03*
D16*
X36340000Y31265000D03*
D17*
X46750000Y1000000D03*
D16*
X47610000Y33850000D03*
D20*
X59675000Y31270000D03*
D17*
X54375000Y46000000D03*
D16*
X11165000Y30450000D03*
D17*
X8625000Y1000000D03*
D16*
X7275000Y31120000D03*
D16*
X18450000Y12067954D03*
D16*
X40080000Y29025000D03*
D17*
X1000000Y23500000D03*
D16*
X29950000Y8802922D03*
D17*
X1000000Y31000000D03*
D17*
X16250000Y1000000D03*
D16*
X48810000Y41850000D03*
D20*
X17695000Y26730000D03*
D16*
X49430000Y20800000D03*
D16*
X58350000Y22050000D03*
D19*
X50110000Y33550000D03*
D17*
X39125000Y46000000D03*
D20*
X18605000Y23990000D03*
D16*
X46600000Y20170000D03*
D17*
X62000000Y23500000D03*
D16*
X47610000Y37250000D03*
D16*
X8625000Y16000000D03*
D17*
X23875000Y1000000D03*
D19*
X57800000Y40870000D03*
D16*
X54375000Y39500000D03*
D16*
X28119995Y32090001D03*
D17*
X31500000Y46000000D03*
D16*
X46750000Y8500000D03*
D17*
X62000000Y16000000D03*
D16*
X43760000Y20800000D03*
D17*
X62000000Y8500000D03*
D17*
X1000000Y1000000D03*
D20*
X41550000Y23700000D03*
D17*
X62000000Y1000000D03*
D16*
X54375000Y8500000D03*
D16*
X23605000Y23440000D03*
D16*
X47610000Y40150000D03*
D16*
X16250000Y37800000D03*
D17*
X23875000Y46000000D03*
D16*
X16250000Y8500000D03*
D20*
X53350000Y26200000D03*
D17*
X16250000Y46000000D03*
D16*
X46750000Y16000000D03*
D16*
X26055000Y21790000D03*
D16*
X53775000Y16000000D03*
D17*
X8625000Y46000000D03*
D16*
X8625000Y8500000D03*
D20*
X41680000Y28515000D03*
D17*
X1000000Y46000000D03*
D16*
X39350000Y14852922D03*
D16*
X19825000Y33670002D03*
D16*
X21450000Y12067954D03*
D20*
X23179995Y32850001D03*
D17*
X1000000Y38500000D03*
D17*
X54375000Y1000000D03*
D17*
X1000000Y16000000D03*
M02*
