%FSLAX46Y46*%
%MOMM*%
%AMPS27*
21,1,0.800000,0.600000,0.000000,0.000000,90.000000*
%
%ADD27PS27*%
%AMPS26*
21,1,0.800000,0.600000,0.000000,0.000000,270.000000*
%
%ADD26PS26*%
%AMPS37*
21,1,0.600000,1.550000,0.000000,0.000000,90.000000*
%
%ADD37PS37*%
%AMPS36*
21,1,0.600000,1.550000,0.000000,0.000000,270.000000*
%
%ADD36PS36*%
%AMPS32*
21,1,1.600000,2.500000,0.000000,0.000000,90.000000*
%
%ADD32PS32*%
%AMPS33*
21,1,1.600000,2.500000,0.000000,0.000000,270.000000*
%
%ADD33PS33*%
%AMPS22*
21,1,0.900000,1.000000,0.000000,0.000000,0.000000*
%
%ADD22PS22*%
%AMPS23*
21,1,0.900000,1.000000,0.000000,0.000000,180.000000*
%
%ADD23PS23*%
%AMPS15*
21,1,1.600000,3.200000,0.000000,0.000000,90.000000*
%
%ADD15PS15*%
%AMPS14*
21,1,1.600000,3.200000,0.000000,0.000000,270.000000*
%
%ADD14PS14*%
%AMPS38*
21,1,0.400000,0.900000,0.000000,0.000000,90.000000*
%
%ADD38PS38*%
%AMPS39*
21,1,0.400000,0.900000,0.000000,0.000000,270.000000*
%
%ADD39PS39*%
%AMPS10*
21,1,1.300000,1.000000,0.000000,0.000000,0.000000*
%
%ADD10PS10*%
%AMPS11*
21,1,1.300000,1.000000,0.000000,0.000000,180.000000*
%
%ADD11PS11*%
%AMPS24*
21,1,0.600000,1.800000,0.000000,0.000000,0.000000*
%
%ADD24PS24*%
%AMPS25*
21,1,0.600000,1.800000,0.000000,0.000000,180.000000*
%
%ADD25PS25*%
%AMPS35*
21,1,0.701421,1.491421,0.000000,0.000000,90.000000*
%
%ADD35PS35*%
%AMPS34*
21,1,0.701421,1.491421,0.000000,0.000000,270.000000*
%
%ADD34PS34*%
%AMPS19*
21,1,0.700000,0.900000,0.000000,0.000000,90.000000*
%
%ADD19PS19*%
%AMPS18*
21,1,0.700000,0.900000,0.000000,0.000000,270.000000*
%
%ADD18PS18*%
%AMPS31*
21,1,1.800000,1.100000,0.000000,0.000000,0.000000*
%
%ADD31PS31*%
%AMPS17*
21,1,1.800000,1.100000,0.000000,0.000000,90.000000*
%
%ADD17PS17*%
%AMPS30*
21,1,1.800000,1.100000,0.000000,0.000000,180.000000*
%
%ADD30PS30*%
%AMPS16*
21,1,1.800000,1.100000,0.000000,0.000000,270.000000*
%
%ADD16PS16*%
%AMPS29*
21,1,1.831662,1.171341,0.000000,0.000000,0.000000*
%
%ADD29PS29*%
%AMPS28*
21,1,1.831662,1.171341,0.000000,0.000000,180.000000*
%
%ADD28PS28*%
%AMPS20*
21,1,1.000000,0.900000,0.000000,0.000000,0.000000*
%
%ADD20PS20*%
%AMPS12*
21,1,1.000000,0.900000,0.000000,0.000000,90.000000*
%
%ADD12PS12*%
%AMPS21*
21,1,1.000000,0.900000,0.000000,0.000000,180.000000*
%
%ADD21PS21*%
%AMPS13*
21,1,1.000000,0.900000,0.000000,0.000000,270.000000*
%
%ADD13PS13*%
G01*
%LPD*%
G01*
%LPD*%
G75*
D10*
X19950000Y10967954D03*
D11*
X19950000Y14302922D03*
D12*
X10330000Y18755000D03*
D13*
X8730000Y18755000D03*
D14*
X34350000Y12102922D03*
D15*
X39350000Y12102922D03*
D16*
X16530000Y23580000D03*
D17*
X19530000Y23580000D03*
D18*
X44120000Y27120000D03*
D18*
X44120000Y25820000D03*
D19*
X46020000Y26470000D03*
D20*
X47000000Y20200000D03*
D21*
X47000000Y21800000D03*
D22*
X30250000Y12102922D03*
D23*
X29300000Y14302922D03*
D22*
X28350000Y12102922D03*
D23*
X48890000Y21800000D03*
D22*
X49840000Y19600000D03*
D23*
X50790000Y21800000D03*
D24*
X50110000Y29600000D03*
D25*
X47610000Y35900000D03*
D25*
X50110000Y35900000D03*
D24*
X47610000Y29600000D03*
D26*
X8315000Y27313001D03*
D27*
X10014998Y27313001D03*
D26*
X21580000Y20145000D03*
D27*
X23279998Y20145000D03*
D28*
X24520000Y14302922D03*
D29*
X24520000Y11350000D03*
D12*
X45530000Y29605000D03*
D13*
X43930000Y29605000D03*
D30*
X5920000Y24655000D03*
D31*
X5920000Y21655000D03*
D12*
X23279998Y24005000D03*
D13*
X21679998Y24005000D03*
D12*
X29950000Y9002922D03*
D13*
X28350000Y9002922D03*
D12*
X45530000Y31535000D03*
D13*
X43930000Y31535000D03*
D32*
X59110000Y22300000D03*
D33*
X55610000Y22300000D03*
D27*
X23279998Y22075000D03*
D26*
X21580000Y22075000D03*
D16*
X16530000Y20650000D03*
D17*
X19530000Y20650000D03*
D34*
X52525000Y29700000D03*
D35*
X59675000Y32240000D03*
D35*
X59675000Y37320000D03*
D35*
X59675000Y34780000D03*
D34*
X52525000Y32240000D03*
D34*
X52525000Y37320000D03*
D35*
X59675000Y29700000D03*
D34*
X52525000Y34780000D03*
D31*
X25679998Y21005000D03*
D30*
X25679998Y24005000D03*
D31*
X19180000Y26235000D03*
D30*
X19180000Y29235000D03*
D13*
X15220000Y26775000D03*
D12*
X16820000Y26775000D03*
D12*
X23279998Y27305000D03*
D13*
X21679998Y27305000D03*
D20*
X52670000Y20200000D03*
D21*
X52670000Y21800000D03*
D21*
X3490000Y24655000D03*
D20*
X3490000Y23055000D03*
D31*
X25679998Y26235000D03*
D30*
X25679998Y29235000D03*
D36*
X8730000Y20845000D03*
D36*
X8730000Y23385000D03*
D36*
X8730000Y24655000D03*
D37*
X14070000Y24655000D03*
D37*
X14070000Y22115000D03*
D36*
X8730000Y22115000D03*
D37*
X14070000Y20845000D03*
D37*
X14070000Y23385000D03*
D26*
X8315002Y29235000D03*
D27*
X10015000Y29235000D03*
D16*
X30800000Y30920000D03*
D17*
X33800000Y30920000D03*
D36*
X36340000Y27415000D03*
D36*
X36340000Y29955000D03*
D36*
X36340000Y31225000D03*
D37*
X41680000Y31225000D03*
D37*
X41680000Y28685000D03*
D36*
X36340000Y28685000D03*
D37*
X41680000Y27415000D03*
D37*
X41680000Y29955000D03*
D38*
X59675000Y26880000D03*
D39*
X57475000Y26880000D03*
D26*
X21580000Y29235000D03*
D27*
X23279998Y29235000D03*
D13*
X40080000Y25335000D03*
D12*
X41680000Y25335000D03*
M02*
