%FSLAX46Y46*%
%MOMM*%
%AMPS11*
1,1,0.800000,0.000000,0.000000*
%
%ADD11PS11*%
%AMPS13*
1,1,2.500000,0.000000,0.000000*
%
%ADD13PS13*%
%AMPS14*
1,1,1.500000,0.000000,0.000000*
%
%ADD14PS14*%
%AMPS15*
1,1,1.900000,0.000000,0.000000*
%
%ADD15PS15*%
%AMPS10*
1,1,1.900000,0.000000,0.000000*
%
%ADD10PS10*%
%AMPS12*
1,1,1.900000,0.000000,0.000000*
%
%ADD12PS12*%
%AMPS19*
1,1,1.200000,0.000000,0.000000*
%
%ADD19PS19*%
%AMPS17*
1,1,0.550000,0.000000,0.000000*
%
%ADD17PS17*%
%AMPS16*
1,1,0.700000,0.000000,0.000000*
%
%ADD16PS16*%
%AMPS18*
1,1,0.800000,0.000000,0.000000*
%
%ADD18PS18*%
G01*
%LPD*%
G01*
%LPD*%
G75*
D10*
X27752917Y39698737D03*
D10*
X42752917Y39698737D03*
D10*
X20252917Y39698737D03*
D10*
X30252917Y39698737D03*
D10*
X35252917Y39698737D03*
D10*
X25252917Y39698737D03*
D10*
X40252917Y39698737D03*
D10*
X37752917Y39698737D03*
D10*
X22752917Y39698737D03*
D10*
X32752917Y39698737D03*
D11*
X36900000Y29850000D03*
D11*
X35630000Y28580000D03*
D11*
X38170000Y28580000D03*
D12*
X23050000Y5350000D03*
D12*
X23050000Y2850000D03*
D13*
X15700000Y10675000D03*
D13*
X4280000Y10675000D03*
D13*
X4280000Y4325000D03*
D13*
X4280000Y17025000D03*
D13*
X15700000Y17025000D03*
D13*
X15700000Y4325000D03*
D14*
X13740000Y42120000D03*
D14*
X11200000Y39580000D03*
D14*
X8660000Y42120000D03*
D15*
X3400000Y36890000D03*
D15*
X3400000Y44510000D03*
D13*
X55700000Y10675000D03*
D13*
X44280000Y10675000D03*
D13*
X44280000Y4325000D03*
D13*
X44280000Y17025000D03*
D13*
X55700000Y17025000D03*
D13*
X55700000Y4325000D03*
D16*
X56420000Y43410000D03*
D17*
X31500000Y1000000D03*
D17*
X62000000Y46000000D03*
D17*
X1000000Y8500000D03*
D18*
X13705000Y29970000D03*
D18*
X38170000Y26980000D03*
D17*
X62000000Y38500000D03*
D17*
X46750000Y46000000D03*
D17*
X39125000Y1000000D03*
D17*
X62000000Y31000000D03*
D19*
X34350000Y15702922D03*
D17*
X46750000Y1000000D03*
D19*
X59675000Y31270000D03*
D17*
X54375000Y46000000D03*
D17*
X8625000Y1000000D03*
D17*
X1000000Y23500000D03*
D17*
X1000000Y31000000D03*
D17*
X16250000Y1000000D03*
D19*
X17695000Y26730000D03*
D16*
X50110000Y33550000D03*
D17*
X39125000Y46000000D03*
D19*
X18605000Y23990000D03*
D17*
X62000000Y23500000D03*
D17*
X23875000Y1000000D03*
D16*
X57800000Y40870000D03*
D17*
X31500000Y46000000D03*
D17*
X62000000Y16000000D03*
D17*
X62000000Y8500000D03*
D17*
X1000000Y1000000D03*
D19*
X41550000Y23700000D03*
D17*
X62000000Y1000000D03*
D17*
X23875000Y46000000D03*
D19*
X53350000Y26200000D03*
D17*
X16250000Y46000000D03*
D17*
X8625000Y46000000D03*
D19*
X41680000Y28515000D03*
D17*
X1000000Y46000000D03*
D19*
X23179995Y32850001D03*
D17*
X1000000Y38500000D03*
D17*
X54375000Y1000000D03*
D17*
X1000000Y16000000D03*
M02*
