%FSLAX46Y46*%
%MOMM*%
%AMPS25*
21,1,0.800000,0.600000,0.000000,0.000000,0.000000*
%
%ADD25PS25*%
%AMPS24*
21,1,0.800000,0.600000,0.000000,0.000000,180.000000*
%
%ADD24PS24*%
%AMPS35*
21,1,0.600000,1.550000,0.000000,0.000000,0.000000*
%
%ADD35PS35*%
%AMPS38*
21,1,0.600000,1.550000,0.000000,0.000000,90.000000*
%
%ADD38PS38*%
%AMPS36*
21,1,0.600000,1.550000,0.000000,0.000000,180.000000*
%
%ADD36PS36*%
%AMPS37*
21,1,0.600000,1.550000,0.000000,0.000000,270.000000*
%
%ADD37PS37*%
%AMPS20*
21,1,0.900000,1.000000,0.000000,0.000000,0.000000*
%
%ADD20PS20*%
%AMPS21*
21,1,0.900000,1.000000,0.000000,0.000000,180.000000*
%
%ADD21PS21*%
%AMPS15*
21,1,1.600000,3.200000,0.000000,0.000000,90.000000*
%
%ADD15PS15*%
%AMPS14*
21,1,1.600000,3.200000,0.000000,0.000000,270.000000*
%
%ADD14PS14*%
%AMPS39*
21,1,0.400000,0.900000,0.000000,0.000000,90.000000*
%
%ADD39PS39*%
%AMPS40*
21,1,0.400000,0.900000,0.000000,0.000000,270.000000*
%
%ADD40PS40*%
%AMPS10*
21,1,1.300000,1.000000,0.000000,0.000000,0.000000*
%
%ADD10PS10*%
%AMPS11*
21,1,1.300000,1.000000,0.000000,0.000000,180.000000*
%
%ADD11PS11*%
%AMPS22*
21,1,0.600000,1.800000,0.000000,0.000000,0.000000*
%
%ADD22PS22*%
%AMPS23*
21,1,0.600000,1.800000,0.000000,0.000000,180.000000*
%
%ADD23PS23*%
%AMPS33*
21,1,0.701421,1.491421,0.000000,0.000000,90.000000*
%
%ADD33PS33*%
%AMPS32*
21,1,0.701421,1.491421,0.000000,0.000000,270.000000*
%
%ADD32PS32*%
%AMPS34*
21,1,0.500000,0.500000,0.000000,0.000000,0.000000*
%
%ADD34PS34*%
%AMPS19*
21,1,0.700000,0.900000,0.000000,0.000000,0.000000*
%
%ADD19PS19*%
%AMPS18*
21,1,0.700000,0.900000,0.000000,0.000000,180.000000*
%
%ADD18PS18*%
%AMPS30*
21,1,1.800000,1.100000,0.000000,0.000000,0.000000*
%
%ADD30PS30*%
%AMPS16*
21,1,1.800000,1.100000,0.000000,0.000000,90.000000*
%
%ADD16PS16*%
%AMPS31*
21,1,1.800000,1.100000,0.000000,0.000000,180.000000*
%
%ADD31PS31*%
%AMPS17*
21,1,1.800000,1.100000,0.000000,0.000000,270.000000*
%
%ADD17PS17*%
%AMPS27*
21,1,1.831662,1.171341,0.000000,0.000000,0.000000*
%
%ADD27PS27*%
%AMPS26*
21,1,1.831662,1.171341,0.000000,0.000000,180.000000*
%
%ADD26PS26*%
%AMPS13*
21,1,1.000000,0.900000,0.000000,0.000000,0.000000*
%
%ADD13PS13*%
%AMPS28*
21,1,1.000000,0.900000,0.000000,0.000000,90.000000*
%
%ADD28PS28*%
%AMPS12*
21,1,1.000000,0.900000,0.000000,0.000000,180.000000*
%
%ADD12PS12*%
%AMPS29*
21,1,1.000000,0.900000,0.000000,0.000000,270.000000*
%
%ADD29PS29*%
G01*
%LPD*%
G01*
%LPD*%
G75*
D10*
X19950000Y12067954D03*
D11*
X19950000Y15402922D03*
D12*
X15795000Y28330000D03*
D13*
X15795000Y26730000D03*
D14*
X34350000Y13202922D03*
D15*
X39350000Y13202922D03*
D16*
X12665000Y34880000D03*
D17*
X9665000Y34880000D03*
D18*
X45530000Y31415000D03*
D18*
X44230000Y31415000D03*
D19*
X44880000Y29515000D03*
D13*
X43760000Y22100000D03*
D12*
X43760000Y23700000D03*
D20*
X30250000Y13202922D03*
D21*
X29300000Y15402922D03*
D20*
X28350000Y13202922D03*
D14*
X23179995Y30450001D03*
D15*
X28179995Y30450001D03*
D21*
X45650000Y23700000D03*
D20*
X46600000Y21500000D03*
D21*
X47550000Y23700000D03*
D22*
X50110000Y35550000D03*
D23*
X47610000Y41850000D03*
D23*
X50110000Y41850000D03*
D22*
X47610000Y35550000D03*
D24*
X9895000Y22520000D03*
D25*
X9895000Y20820002D03*
D24*
X15965000Y32480000D03*
D25*
X15965000Y30780002D03*
D26*
X24520000Y15402922D03*
D27*
X24520000Y12450000D03*
D28*
X45530000Y34595000D03*
D29*
X43930000Y34595000D03*
D30*
X7275000Y26730000D03*
D31*
X7275000Y29730000D03*
D13*
X19825000Y30780002D03*
D12*
X19825000Y32380002D03*
D28*
X29950000Y10102922D03*
D29*
X28350000Y10102922D03*
D28*
X45530000Y36525000D03*
D29*
X43930000Y36525000D03*
D25*
X17895000Y30780002D03*
D24*
X17895000Y32480000D03*
D17*
X14895000Y34880000D03*
D16*
X17895000Y34880000D03*
D32*
X52525000Y35790000D03*
D33*
X59675000Y38330000D03*
D33*
X59675000Y43410000D03*
D33*
X59675000Y40870000D03*
D32*
X52525000Y38330000D03*
D32*
X52525000Y43410000D03*
D33*
X59675000Y35790000D03*
D32*
X52525000Y40870000D03*
D31*
X4345000Y29730000D03*
D30*
X4345000Y26730000D03*
D13*
X7585000Y33280000D03*
D12*
X7585000Y34880000D03*
D14*
X53350000Y23700000D03*
D15*
X58350000Y23700000D03*
D12*
X13755000Y22520000D03*
D13*
X13755000Y20920000D03*
D34*
X36200000Y30270000D03*
D34*
X37470000Y30270000D03*
D34*
X34930000Y29000000D03*
D34*
X36200000Y29000000D03*
D13*
X49430000Y22100000D03*
D12*
X49430000Y23700000D03*
D29*
X9895000Y24420000D03*
D28*
X11495000Y24420000D03*
D35*
X13705000Y26730000D03*
D35*
X11165000Y26730000D03*
D35*
X9895000Y26730000D03*
D36*
X9895000Y32070000D03*
D36*
X12435000Y32070000D03*
D35*
X12435000Y26730000D03*
D36*
X13705000Y32070000D03*
D36*
X11165000Y32070000D03*
D24*
X7965000Y22520000D03*
D25*
X7965000Y20820002D03*
D17*
X30740000Y36005000D03*
D16*
X33740000Y36005000D03*
D37*
X36340000Y32405000D03*
D37*
X36340000Y34945000D03*
D37*
X36340000Y36215000D03*
D38*
X41680000Y36215000D03*
D38*
X41680000Y33675000D03*
D37*
X36340000Y33675000D03*
D38*
X41680000Y32405000D03*
D38*
X41680000Y34945000D03*
D39*
X59675000Y32970000D03*
D40*
X57475000Y32970000D03*
D25*
X11825000Y20820002D03*
D24*
X11825000Y22520000D03*
D29*
X40080000Y30325000D03*
D28*
X41680000Y30325000D03*
D15*
X23605000Y21790000D03*
D14*
X18605000Y21790000D03*
M02*
