M48
FMAT,2
METRIC,TZ
T1C0.350
T6C0.400
T4C0.600
T2C0.700
T5C1.000
T3C1.500
%
G90
G05
M71
T1
X36.900Y25.350
X35.630Y24.080
X38.170Y24.080
X46.750Y16.125
X16.250Y8.500
X1.000Y39.000
X31.500Y1.000
X29.950Y7.703
X54.375Y31.375
X54.375Y8.500
X34.640Y27.415
X3.490Y21.755
X54.375Y39.000
X21.380Y25.605
X48.810Y29.600
X41.790Y12.103
X62.000Y23.750
X19.950Y9.668
X46.750Y39.000
X47.610Y27.900
X39.125Y1.000
X40.080Y24.035
X44.120Y24.520
X48.810Y35.900
X1.000Y16.125
X52.670Y18.900
X46.750Y1.000
X1.000Y23.750
X8.625Y1.000
X39.525Y16.125
X49.840Y18.270
X12.370Y23.385
X31.500Y39.000
X47.610Y31.300
X27.580Y26.235
X27.580Y21.005
X16.250Y1.000
X62.000Y8.500
X62.000Y31.375
X47.000Y18.900
X16.250Y39.000
X5.920Y20.255
X10.330Y17.455
X59.110Y20.500
X1.000Y1.000
X54.375Y1.000
X62.000Y1.000
X47.610Y34.200
X46.750Y8.500
X62.000Y16.125
X18.450Y10.968
X7.115Y29.235
X39.125Y39.000
X62.000Y39.000
X1.000Y8.500
X53.975Y16.125
X23.875Y1.000
X23.875Y39.000
X1.000Y31.375
X21.450Y10.968
X39.525Y8.500
X46.410Y35.900
X8.625Y39.000
X8.625Y8.500
T6
X56.420Y37.320
X50.110Y27.700
X57.800Y34.780
T4
X15.440Y34.840
X12.900Y32.300
X10.360Y34.840
X8.730Y17.155
X27.680Y24.005
X23.280Y18.645
X27.680Y29.235
X59.675Y25.180
X45.190Y21.875
X55.610Y24.200
X41.680Y23.720
T2
X40.503Y33.859
X24.503Y33.859
X38.503Y33.859
X36.503Y33.859
X30.503Y33.859
X28.503Y33.859
X22.503Y33.859
X34.503Y33.859
X32.503Y33.859
X26.503Y33.859
X23.450Y3.247
X23.450Y5.347
T5
X4.000Y29.620
X4.000Y37.240
X34.350Y14.803
T3
X15.700Y10.675
X4.280Y10.675
X4.280Y4.325
X4.280Y17.025
X15.700Y17.025
X15.700Y4.325
X55.700Y10.675
X44.280Y10.675
X44.280Y4.325
X44.280Y17.025
X55.700Y17.025
X55.700Y4.325
M30
