%FSLAX46Y46*%
%MOMM*%
%AMPS17*
1,1,0.800000,0.000000,0.000000*
%
%ADD17PS17*%
%AMPS37*
1,1,2.500000,0.000000,0.000000*
%
%ADD37PS37*%
%AMPS41*
1,1,1.500000,0.000000,0.000000*
%
%ADD41PS41*%
%AMPS44*
1,1,1.900000,0.000000,0.000000*
%
%ADD44PS44*%
%AMPS38*
1,1,1.600000,0.000000,0.000000*
%
%ADD38PS38*%
%AMPS28*
1,1,1.600000,0.000000,0.000000*
%
%ADD28PS28*%
%AMPS30*
21,1,1.000000,0.800000,0.000000,0.000000,90.000000*
%
%ADD30PS30*%
%AMPS29*
21,1,1.000000,0.800000,0.000000,0.000000,270.000000*
%
%ADD29PS29*%
%AMPS43*
21,1,0.800000,1.750000,0.000000,0.000000,90.000000*
%
%ADD43PS43*%
%AMPS42*
21,1,0.800000,1.750000,0.000000,0.000000,270.000000*
%
%ADD42PS42*%
%AMPS35*
21,1,1.800000,2.700000,0.000000,0.000000,90.000000*
%
%ADD35PS35*%
%AMPS36*
21,1,1.800000,2.700000,0.000000,0.000000,270.000000*
%
%ADD36PS36*%
%AMPS24*
21,1,1.100000,1.200000,0.000000,0.000000,0.000000*
%
%ADD24PS24*%
%AMPS25*
21,1,1.100000,1.200000,0.000000,0.000000,180.000000*
%
%ADD25PS25*%
%AMPS15*
21,1,1.800000,3.400000,0.000000,0.000000,90.000000*
%
%ADD15PS15*%
%AMPS14*
21,1,1.800000,3.400000,0.000000,0.000000,270.000000*
%
%ADD14PS14*%
%AMPS45*
21,1,0.600000,1.100000,0.000000,0.000000,90.000000*
%
%ADD45PS45*%
%AMPS46*
21,1,0.600000,1.100000,0.000000,0.000000,270.000000*
%
%ADD46PS46*%
%AMPS10*
21,1,1.500000,1.200000,0.000000,0.000000,0.000000*
%
%ADD10PS10*%
%AMPS11*
21,1,1.500000,1.200000,0.000000,0.000000,180.000000*
%
%ADD11PS11*%
%AMPS26*
21,1,0.800000,2.000000,0.000000,0.000000,0.000000*
%
%ADD26PS26*%
%AMPS27*
21,1,0.800000,2.000000,0.000000,0.000000,180.000000*
%
%ADD27PS27*%
%AMPS40*
21,1,0.901421,1.691421,0.000000,0.000000,90.000000*
%
%ADD40PS40*%
%AMPS39*
21,1,0.901421,1.691421,0.000000,0.000000,270.000000*
%
%ADD39PS39*%
%AMPS21*
21,1,0.900000,1.100000,0.000000,0.000000,90.000000*
%
%ADD21PS21*%
%AMPS20*
21,1,0.900000,1.100000,0.000000,0.000000,270.000000*
%
%ADD20PS20*%
%AMPS34*
21,1,2.000000,1.300000,0.000000,0.000000,0.000000*
%
%ADD34PS34*%
%AMPS19*
21,1,2.000000,1.300000,0.000000,0.000000,90.000000*
%
%ADD19PS19*%
%AMPS33*
21,1,2.000000,1.300000,0.000000,0.000000,180.000000*
%
%ADD33PS33*%
%AMPS18*
21,1,2.000000,1.300000,0.000000,0.000000,270.000000*
%
%ADD18PS18*%
%AMPS32*
21,1,2.031662,1.371341,0.000000,0.000000,0.000000*
%
%ADD32PS32*%
%AMPS31*
21,1,2.031662,1.371341,0.000000,0.000000,180.000000*
%
%ADD31PS31*%
%AMPS22*
21,1,1.200000,1.100000,0.000000,0.000000,0.000000*
%
%ADD22PS22*%
%AMPS12*
21,1,1.200000,1.100000,0.000000,0.000000,90.000000*
%
%ADD12PS12*%
%AMPS23*
21,1,1.200000,1.100000,0.000000,0.000000,180.000000*
%
%ADD23PS23*%
%AMPS13*
21,1,1.200000,1.100000,0.000000,0.000000,270.000000*
%
%ADD13PS13*%
%AMPS47*
1,1,0.600000,0.000000,0.000000*
%
%ADD47PS47*%
%AMPS50*
1,1,1.200000,0.000000,0.000000*
%
%ADD50PS50*%
%AMPS48*
1,1,0.550000,0.000000,0.000000*
%
%ADD48PS48*%
%AMPS49*
1,1,0.800000,0.000000,0.000000*
%
%ADD49PS49*%
%AMPS16*
21,1,0.700000,0.700000,0.000000,0.000000,0.000000*
%
%ADD16PS16*%
G01*
%LPD*%
G01*
%LPD*%
G75*
D10*
X19950000Y10967954D03*
D11*
X19950000Y14302922D03*
D12*
X10330000Y18755000D03*
D13*
X8730000Y18755000D03*
D14*
X34350000Y12102922D03*
D15*
X39350000Y12102922D03*
D16*
X36900000Y24080000D03*
D16*
X38170000Y25350000D03*
D16*
X35630000Y25350000D03*
D17*
X36900000Y25350000D03*
D17*
X35630000Y24080000D03*
D17*
X38170000Y24080000D03*
D18*
X16530000Y23580000D03*
D19*
X19530000Y23580000D03*
D20*
X44120000Y27120000D03*
D20*
X44120000Y25820000D03*
D21*
X46020000Y26470000D03*
D22*
X47000000Y20200000D03*
D23*
X47000000Y21800000D03*
D24*
X30250000Y12102922D03*
D25*
X29300000Y14302922D03*
D24*
X28350000Y12102922D03*
D25*
X48890000Y21800000D03*
D24*
X49840000Y19600000D03*
D25*
X50790000Y21800000D03*
D26*
X50110000Y29600000D03*
D27*
X47610000Y35900000D03*
D27*
X50110000Y35900000D03*
D26*
X47610000Y29600000D03*
D28*
X40502917Y33858737D03*
D28*
X24502917Y33858737D03*
D28*
X38502917Y33858737D03*
D28*
X36502917Y33858737D03*
D28*
X30502917Y33858737D03*
D28*
X28502917Y33858737D03*
D28*
X22502917Y33858737D03*
D28*
X34502917Y33858737D03*
D28*
X32502917Y33858737D03*
D28*
X26502917Y33858737D03*
D29*
X8315000Y27313001D03*
D30*
X10014998Y27313001D03*
D29*
X21580000Y20145000D03*
D30*
X23279998Y20145000D03*
D31*
X24520000Y14302922D03*
D32*
X24520000Y11350000D03*
D12*
X45530000Y29605000D03*
D13*
X43930000Y29605000D03*
D33*
X5920000Y24655000D03*
D34*
X5920000Y21655000D03*
D12*
X23279998Y24005000D03*
D13*
X21679998Y24005000D03*
D12*
X29950000Y9002922D03*
D13*
X28350000Y9002922D03*
D12*
X45530000Y31535000D03*
D13*
X43930000Y31535000D03*
D35*
X59110000Y22300000D03*
D36*
X55610000Y22300000D03*
D37*
X15700000Y10675000D03*
D37*
X4280000Y10675000D03*
D37*
X4280000Y4325000D03*
D37*
X4280000Y17025000D03*
D37*
X15700000Y17025000D03*
D37*
X15700000Y4325000D03*
D38*
X23450263Y3247083D03*
D38*
X23450263Y5347083D03*
D30*
X23279998Y22075000D03*
D29*
X21580000Y22075000D03*
D18*
X16530000Y20650000D03*
D19*
X19530000Y20650000D03*
D39*
X52525000Y29700000D03*
D40*
X59675000Y32240000D03*
D40*
X59675000Y37320000D03*
D40*
X59675000Y34780000D03*
D39*
X52525000Y32240000D03*
D39*
X52525000Y37320000D03*
D40*
X59675000Y29700000D03*
D39*
X52525000Y34780000D03*
D34*
X25679998Y21005000D03*
D33*
X25679998Y24005000D03*
D34*
X19180000Y26235000D03*
D33*
X19180000Y29235000D03*
D13*
X15220000Y26775000D03*
D12*
X16820000Y26775000D03*
D12*
X23279998Y27305000D03*
D13*
X21679998Y27305000D03*
D22*
X52670000Y20200000D03*
D23*
X52670000Y21800000D03*
D23*
X3490000Y24655000D03*
D22*
X3490000Y23055000D03*
D34*
X25679998Y26235000D03*
D33*
X25679998Y29235000D03*
D41*
X15440000Y34840000D03*
D41*
X12900000Y32300000D03*
D41*
X10360000Y34840000D03*
D42*
X8730000Y20845000D03*
D42*
X8730000Y23385000D03*
D42*
X8730000Y24655000D03*
D43*
X14070000Y24655000D03*
D43*
X14070000Y22115000D03*
D42*
X8730000Y22115000D03*
D43*
X14070000Y20845000D03*
D43*
X14070000Y23385000D03*
D29*
X8315002Y29235000D03*
D30*
X10015000Y29235000D03*
D18*
X30800000Y30920000D03*
D19*
X33800000Y30920000D03*
D44*
X4000000Y29620000D03*
D44*
X4000000Y37240000D03*
D42*
X36340000Y27415000D03*
D42*
X36340000Y29955000D03*
D42*
X36340000Y31225000D03*
D43*
X41680000Y31225000D03*
D43*
X41680000Y28685000D03*
D42*
X36340000Y28685000D03*
D43*
X41680000Y27415000D03*
D43*
X41680000Y29955000D03*
D45*
X59675000Y26880000D03*
D46*
X57475000Y26880000D03*
D29*
X21580000Y29235000D03*
D30*
X23279998Y29235000D03*
D13*
X40080000Y25335000D03*
D12*
X41680000Y25335000D03*
D37*
X55700000Y10675000D03*
D37*
X44280000Y10675000D03*
D37*
X44280000Y4325000D03*
D37*
X44280000Y17025000D03*
D37*
X55700000Y17025000D03*
D37*
X55700000Y4325000D03*
D47*
X56420000Y37320000D03*
D48*
X1000000Y39000000D03*
D48*
X31500000Y1000000D03*
D49*
X8730000Y17155000D03*
D48*
X54375000Y31375000D03*
D49*
X27679998Y24005000D03*
D48*
X54375000Y39000000D03*
D50*
X34350000Y14802922D03*
D48*
X62000000Y23750000D03*
D49*
X23279998Y18645000D03*
D49*
X27679998Y29235000D03*
D48*
X46750000Y39000000D03*
D49*
X59675000Y25180000D03*
D48*
X39125000Y1000000D03*
D48*
X1000000Y16125000D03*
D48*
X46750000Y1000000D03*
D48*
X1000000Y23750000D03*
D48*
X8625000Y1000000D03*
D47*
X50110000Y27700000D03*
D48*
X31500000Y39000000D03*
D47*
X57800000Y34780000D03*
D48*
X16250000Y1000000D03*
D48*
X62000000Y8500000D03*
D48*
X62000000Y31375000D03*
D48*
X16250000Y39000000D03*
D48*
X1000000Y1000000D03*
D48*
X54375000Y1000000D03*
D48*
X62000000Y1000000D03*
D49*
X45190000Y21875000D03*
D48*
X62000000Y16125000D03*
D49*
X55610000Y24200000D03*
D48*
X39125000Y39000000D03*
D49*
X41680000Y23720000D03*
D48*
X62000000Y39000000D03*
D48*
X1000000Y8500000D03*
D48*
X23875000Y1000000D03*
D48*
X23875000Y39000000D03*
D48*
X1000000Y31375000D03*
D48*
X8625000Y39000000D03*
M02*
