%FSLAX46Y46*%
%MOMM*%
%AMPS10*
1,1,0.800000,0.000000,0.000000*
%
%ADD10PS10*%
%AMPS12*
1,1,2.500000,0.000000,0.000000*
%
%ADD12PS12*%
%AMPS14*
1,1,1.500000,0.000000,0.000000*
%
%ADD14PS14*%
%AMPS15*
1,1,1.900000,0.000000,0.000000*
%
%ADD15PS15*%
%AMPS13*
1,1,1.600000,0.000000,0.000000*
%
%ADD13PS13*%
%AMPS11*
1,1,1.600000,0.000000,0.000000*
%
%ADD11PS11*%
%AMPS16*
1,1,0.600000,0.000000,0.000000*
%
%ADD16PS16*%
%AMPS19*
1,1,1.200000,0.000000,0.000000*
%
%ADD19PS19*%
%AMPS17*
1,1,0.550000,0.000000,0.000000*
%
%ADD17PS17*%
%AMPS18*
1,1,0.800000,0.000000,0.000000*
%
%ADD18PS18*%
G01*
%LPD*%
G01*
%LPD*%
G75*
D10*
X36900000Y25350000D03*
D10*
X35630000Y24080000D03*
D10*
X38170000Y24080000D03*
D11*
X40502917Y33858737D03*
D11*
X24502917Y33858737D03*
D11*
X38502917Y33858737D03*
D11*
X36502917Y33858737D03*
D11*
X30502917Y33858737D03*
D11*
X28502917Y33858737D03*
D11*
X22502917Y33858737D03*
D11*
X34502917Y33858737D03*
D11*
X32502917Y33858737D03*
D11*
X26502917Y33858737D03*
D12*
X15700000Y10675000D03*
D12*
X4280000Y10675000D03*
D12*
X4280000Y4325000D03*
D12*
X4280000Y17025000D03*
D12*
X15700000Y17025000D03*
D12*
X15700000Y4325000D03*
D13*
X23450263Y3247083D03*
D13*
X23450263Y5347083D03*
D14*
X15440000Y34840000D03*
D14*
X12900000Y32300000D03*
D14*
X10360000Y34840000D03*
D15*
X4000000Y29620000D03*
D15*
X4000000Y37240000D03*
D12*
X55700000Y10675000D03*
D12*
X44280000Y10675000D03*
D12*
X44280000Y4325000D03*
D12*
X44280000Y17025000D03*
D12*
X55700000Y17025000D03*
D12*
X55700000Y4325000D03*
D16*
X56420000Y37320000D03*
D17*
X1000000Y39000000D03*
D17*
X31500000Y1000000D03*
D18*
X8730000Y17155000D03*
D17*
X54375000Y31375000D03*
D18*
X27679998Y24005000D03*
D17*
X54375000Y39000000D03*
D19*
X34350000Y14802922D03*
D17*
X62000000Y23750000D03*
D18*
X23279998Y18645000D03*
D18*
X27679998Y29235000D03*
D17*
X46750000Y39000000D03*
D18*
X59675000Y25180000D03*
D17*
X39125000Y1000000D03*
D17*
X1000000Y16125000D03*
D17*
X46750000Y1000000D03*
D17*
X1000000Y23750000D03*
D17*
X8625000Y1000000D03*
D16*
X50110000Y27700000D03*
D17*
X31500000Y39000000D03*
D16*
X57800000Y34780000D03*
D17*
X16250000Y1000000D03*
D17*
X62000000Y8500000D03*
D17*
X62000000Y31375000D03*
D17*
X16250000Y39000000D03*
D17*
X1000000Y1000000D03*
D17*
X54375000Y1000000D03*
D17*
X62000000Y1000000D03*
D18*
X45190000Y21875000D03*
D17*
X62000000Y16125000D03*
D18*
X55610000Y24200000D03*
D17*
X39125000Y39000000D03*
D18*
X41680000Y23720000D03*
D17*
X62000000Y39000000D03*
D17*
X1000000Y8500000D03*
D17*
X23875000Y1000000D03*
D17*
X23875000Y39000000D03*
D17*
X1000000Y31375000D03*
D17*
X8625000Y39000000D03*
M02*
