%FSLAX46Y46*%
%MOMM*%
%ADD13C,0.200000*%
%ADD12C,0.300000*%
%ADD15C,0.380000*%
%ADD14C,0.500000*%
%ADD11C,0.580000*%
%ADD10C,0.600000*%
%ADD16C,0.800000*%
%AMPS24*
1,1,0.600000,0.000000,0.000000*
%
%ADD24PS24*%
%AMPS44*
1,1,2.300000,0.000000,0.000000*
%
%ADD44PS44*%
%AMPS48*
1,1,1.300000,0.000000,0.000000*
%
%ADD48PS48*%
%AMPS51*
1,1,1.700000,0.000000,0.000000*
%
%ADD51PS51*%
%AMPS45*
1,1,1.400000,0.000000,0.000000*
%
%ADD45PS45*%
%AMPS35*
1,1,1.400000,0.000000,0.000000*
%
%ADD35PS35*%
%AMPS37*
21,1,0.800000,0.600000,0.000000,0.000000,90.000000*
%
%ADD37PS37*%
%AMPS36*
21,1,0.800000,0.600000,0.000000,0.000000,270.000000*
%
%ADD36PS36*%
%AMPS50*
21,1,0.600000,1.550000,0.000000,0.000000,90.000000*
%
%ADD50PS50*%
%AMPS49*
21,1,0.600000,1.550000,0.000000,0.000000,270.000000*
%
%ADD49PS49*%
%AMPS42*
21,1,1.600000,2.500000,0.000000,0.000000,90.000000*
%
%ADD42PS42*%
%AMPS43*
21,1,1.600000,2.500000,0.000000,0.000000,270.000000*
%
%ADD43PS43*%
%AMPS31*
21,1,0.900000,1.000000,0.000000,0.000000,0.000000*
%
%ADD31PS31*%
%AMPS32*
21,1,0.900000,1.000000,0.000000,0.000000,180.000000*
%
%ADD32PS32*%
%AMPS22*
21,1,1.600000,3.200000,0.000000,0.000000,90.000000*
%
%ADD22PS22*%
%AMPS21*
21,1,1.600000,3.200000,0.000000,0.000000,270.000000*
%
%ADD21PS21*%
%AMPS52*
21,1,0.400000,0.900000,0.000000,0.000000,90.000000*
%
%ADD52PS52*%
%AMPS53*
21,1,0.400000,0.900000,0.000000,0.000000,270.000000*
%
%ADD53PS53*%
%AMPS17*
21,1,1.300000,1.000000,0.000000,0.000000,0.000000*
%
%ADD17PS17*%
%AMPS18*
21,1,1.300000,1.000000,0.000000,0.000000,180.000000*
%
%ADD18PS18*%
%AMPS33*
21,1,0.600000,1.800000,0.000000,0.000000,0.000000*
%
%ADD33PS33*%
%AMPS34*
21,1,0.600000,1.800000,0.000000,0.000000,180.000000*
%
%ADD34PS34*%
%AMPS47*
21,1,0.701421,1.491421,0.000000,0.000000,90.000000*
%
%ADD47PS47*%
%AMPS46*
21,1,0.701421,1.491421,0.000000,0.000000,270.000000*
%
%ADD46PS46*%
%AMPS28*
21,1,0.700000,0.900000,0.000000,0.000000,90.000000*
%
%ADD28PS28*%
%AMPS27*
21,1,0.700000,0.900000,0.000000,0.000000,270.000000*
%
%ADD27PS27*%
%AMPS41*
21,1,1.800000,1.100000,0.000000,0.000000,0.000000*
%
%ADD41PS41*%
%AMPS26*
21,1,1.800000,1.100000,0.000000,0.000000,90.000000*
%
%ADD26PS26*%
%AMPS40*
21,1,1.800000,1.100000,0.000000,0.000000,180.000000*
%
%ADD40PS40*%
%AMPS25*
21,1,1.800000,1.100000,0.000000,0.000000,270.000000*
%
%ADD25PS25*%
%AMPS39*
21,1,1.831662,1.171341,0.000000,0.000000,0.000000*
%
%ADD39PS39*%
%AMPS38*
21,1,1.831662,1.171341,0.000000,0.000000,180.000000*
%
%ADD38PS38*%
%AMPS29*
21,1,1.000000,0.900000,0.000000,0.000000,0.000000*
%
%ADD29PS29*%
%AMPS19*
21,1,1.000000,0.900000,0.000000,0.000000,90.000000*
%
%ADD19PS19*%
%AMPS30*
21,1,1.000000,0.900000,0.000000,0.000000,180.000000*
%
%ADD30PS30*%
%AMPS20*
21,1,1.000000,0.900000,0.000000,0.000000,270.000000*
%
%ADD20PS20*%
%AMPS54*
1,1,0.800000,0.000000,0.000000*
%
%ADD54PS54*%
%AMPS58*
1,1,1.400000,0.000000,0.000000*
%
%ADD58PS58*%
%AMPS56*
1,1,0.700000,0.000000,0.000000*
%
%ADD56PS56*%
%AMPS57*
1,1,1.000000,0.000000,0.000000*
%
%ADD57PS57*%
%AMPS23*
21,1,0.500000,0.500000,0.000000,0.000000,0.000000*
%
%ADD23PS23*%
%AMPS55*
1,1,0.700000,0.000000,0.000000*
%
%ADD55PS55*%
G01*
%LPD*%
G36*
X62640000Y360000D02*
X62640000Y39640000D01*
X360000Y39640000D01*
X360000Y360000D01*
X62640000Y360000D01*
D02*
G37*
%LPC*%
G36*
X3850000Y37390000D02*
X2971906Y37390000D01*
X2979759Y37442937D01*
X3004565Y37541966D01*
X3038955Y37638079D01*
X3082595Y37730350D01*
X3135084Y37817923D01*
X3195895Y37899917D01*
X3264448Y37975552D01*
X3340083Y38044105D01*
X3422077Y38104916D01*
X3509650Y38157405D01*
X3601921Y38201045D01*
X3698034Y38235435D01*
X3797058Y38260240D01*
X3850000Y38268094D01*
X3850000Y37390000D01*
D02*
G37*
%LPC*%
G36*
X5028094Y37390000D02*
X4150000Y37390000D01*
X4150000Y38268094D01*
X4202942Y38260240D01*
X4301966Y38235435D01*
X4398079Y38201045D01*
X4490350Y38157405D01*
X4577923Y38104916D01*
X4659917Y38044105D01*
X4735552Y37975552D01*
X4804105Y37899917D01*
X4864916Y37817923D01*
X4917405Y37730350D01*
X4961045Y37638079D01*
X4995435Y37541966D01*
X5020241Y37442937D01*
X5028094Y37390000D01*
D02*
G37*
%LPC*%
G36*
X22502917Y32963501D02*
X22415177Y32967813D01*
X22328261Y32980705D01*
X22243046Y33002050D01*
X22160324Y33031650D01*
X22080907Y33069210D01*
X22005554Y33114375D01*
X21934990Y33166709D01*
X21869891Y33225711D01*
X21810889Y33290810D01*
X21758555Y33361374D01*
X21713390Y33436727D01*
X21675830Y33516144D01*
X21646230Y33598866D01*
X21624885Y33684081D01*
X21611993Y33770997D01*
X21607681Y33858737D01*
X21611993Y33946477D01*
X21624885Y34033393D01*
X21646230Y34118608D01*
X21675830Y34201330D01*
X21713390Y34280747D01*
X21758555Y34356100D01*
X21810889Y34426664D01*
X21869891Y34491763D01*
X21934990Y34550765D01*
X22005554Y34603099D01*
X22080907Y34648264D01*
X22160324Y34685824D01*
X22243046Y34715424D01*
X22328261Y34736769D01*
X22415177Y34749661D01*
X22522908Y34754955D01*
X24612401Y36844448D01*
X24618877Y36852220D01*
X24672222Y36895996D01*
X24733770Y36928893D01*
X24800548Y36949151D01*
X24859923Y36955000D01*
X44952953Y36955000D01*
X46072401Y38074448D01*
X46078877Y38082220D01*
X46132222Y38125996D01*
X46193770Y38158893D01*
X46260548Y38179151D01*
X46319923Y38185000D01*
X51580077Y38185000D01*
X51639451Y38179151D01*
X51706229Y38158893D01*
X51767776Y38125996D01*
X51813902Y38088144D01*
X52036337Y37865710D01*
X53465710Y37865710D01*
X53465710Y36774290D01*
X51584290Y36774290D01*
X51584290Y37313663D01*
X51422953Y37475000D01*
X46477047Y37475000D01*
X45357598Y36355551D01*
X45351122Y36347779D01*
X45297777Y36304003D01*
X45236229Y36271106D01*
X45169451Y36250849D01*
X45110066Y36245000D01*
X25017047Y36245000D01*
X23196551Y34424505D01*
X23247277Y34356103D01*
X23292444Y34280747D01*
X23330004Y34201330D01*
X23359604Y34118608D01*
X23380949Y34033393D01*
X23393841Y33946477D01*
X23398153Y33858737D01*
X23393841Y33770997D01*
X23380949Y33684081D01*
X23359604Y33598866D01*
X23330004Y33516144D01*
X23292444Y33436727D01*
X23247279Y33361374D01*
X23194945Y33290810D01*
X23135943Y33225711D01*
X23070844Y33166709D01*
X23000280Y33114375D01*
X22924927Y33069210D01*
X22845510Y33031650D01*
X22762788Y33002050D01*
X22677573Y32980705D01*
X22590657Y32967813D01*
X22502917Y32963501D01*
D02*
G37*
%LPC*%
G36*
X56420000Y36714752D02*
X56360681Y36717668D01*
X56301924Y36726382D01*
X56244308Y36740815D01*
X56188382Y36760826D01*
X56134686Y36786222D01*
X56083741Y36816757D01*
X56036037Y36852136D01*
X55992027Y36892027D01*
X55952136Y36936037D01*
X55916757Y36983741D01*
X55886222Y37034686D01*
X55860826Y37088382D01*
X55840815Y37144308D01*
X55826382Y37201924D01*
X55817668Y37260681D01*
X55814752Y37320000D01*
X55817668Y37379319D01*
X55826382Y37438076D01*
X55840815Y37495692D01*
X55860826Y37551618D01*
X55886222Y37605314D01*
X55916757Y37656259D01*
X55952136Y37703963D01*
X55992027Y37747973D01*
X56036037Y37787864D01*
X56083741Y37823243D01*
X56134686Y37853778D01*
X56188382Y37879174D01*
X56244308Y37899185D01*
X56301924Y37913618D01*
X56360681Y37922332D01*
X56420000Y37925248D01*
X56479319Y37922332D01*
X56538076Y37913618D01*
X56595692Y37899185D01*
X56651618Y37879174D01*
X56705314Y37853778D01*
X56756259Y37823243D01*
X56803963Y37787864D01*
X56847973Y37747973D01*
X56914116Y37675000D01*
X58734290Y37675000D01*
X58734290Y37865710D01*
X60615710Y37865710D01*
X60615710Y36774290D01*
X58734290Y36774290D01*
X58734290Y36965000D01*
X56914116Y36965000D01*
X56847973Y36892027D01*
X56803963Y36852136D01*
X56756259Y36816757D01*
X56705314Y36786222D01*
X56651618Y36760826D01*
X56595692Y36740815D01*
X56538076Y36726382D01*
X56479319Y36717668D01*
X56420000Y36714752D01*
D02*
G37*
%LPC*%
G36*
X3850000Y36211906D02*
X3797058Y36219760D01*
X3698034Y36244565D01*
X3601921Y36278955D01*
X3509650Y36322595D01*
X3422077Y36375084D01*
X3340083Y36435895D01*
X3264448Y36504448D01*
X3195895Y36580083D01*
X3135084Y36662077D01*
X3082595Y36749650D01*
X3038955Y36841921D01*
X3004565Y36938034D01*
X2979760Y37037058D01*
X2971906Y37090000D01*
X3850000Y37090000D01*
X3850000Y36211906D01*
D02*
G37*
%LPC*%
G36*
X4150000Y36211906D02*
X4150000Y37090000D01*
X5028094Y37090000D01*
X5020240Y37037058D01*
X4995435Y36938034D01*
X4961045Y36841921D01*
X4917405Y36749650D01*
X4864916Y36662077D01*
X4804105Y36580083D01*
X4735552Y36504448D01*
X4659917Y36435895D01*
X4577923Y36375084D01*
X4490350Y36322595D01*
X4398079Y36278955D01*
X4301966Y36244565D01*
X4202942Y36219760D01*
X4150000Y36211906D01*
D02*
G37*
%LPC*%
G36*
X46175000Y30840000D02*
X44885000Y30840000D01*
X44885000Y32230000D01*
X45793666Y32230000D01*
X46517758Y32954093D01*
X46524232Y32961862D01*
X46569998Y32999421D01*
X46622900Y33027698D01*
X46680300Y33045112D01*
X46729923Y33050000D01*
X47588665Y33050000D01*
X49615000Y35076335D01*
X49615000Y36995000D01*
X50605000Y36995000D01*
X50605000Y34805000D01*
X50206335Y34805000D01*
X47937241Y32535906D01*
X47930767Y32528137D01*
X47885001Y32490578D01*
X47832098Y32462301D01*
X47774699Y32444887D01*
X47725066Y32440000D01*
X46866335Y32440000D01*
X46175000Y31748666D01*
X46175000Y30840000D01*
D02*
G37*
%LPC*%
G36*
X48100000Y36050000D02*
X47760000Y36050000D01*
X47760000Y36990000D01*
X48100000Y36990000D01*
X48100000Y36050000D01*
D02*
G37*
%LPC*%
G36*
X47460000Y36050000D02*
X47120000Y36050000D01*
X47120000Y36990000D01*
X47460000Y36990000D01*
X47460000Y36050000D01*
D02*
G37*
%LPC*%
G36*
X48100000Y34810000D02*
X47760000Y34810000D01*
X47760000Y35750000D01*
X48100000Y35750000D01*
X48100000Y34810000D01*
D02*
G37*
%LPC*%
G36*
X47460000Y34810000D02*
X47120000Y34810000D01*
X47120000Y35750000D01*
X47460000Y35750000D01*
X47460000Y34810000D01*
D02*
G37*
%LPC*%
G36*
X31545000Y29825000D02*
X30055000Y29825000D01*
X30055000Y31021533D01*
X29381533Y31695000D01*
X13489585Y31695000D01*
X13436211Y31646625D01*
X13369589Y31597214D01*
X13298439Y31554570D01*
X13223456Y31519105D01*
X13145356Y31491159D01*
X13064905Y31471009D01*
X12982848Y31458836D01*
X12900000Y31454765D01*
X12817152Y31458836D01*
X12735095Y31471009D01*
X12654644Y31491159D01*
X12576544Y31519105D01*
X12501561Y31554570D01*
X12430411Y31597214D01*
X12363789Y31646625D01*
X12302329Y31702329D01*
X12246625Y31763789D01*
X12197214Y31830411D01*
X12154570Y31901561D01*
X12119105Y31976544D01*
X12091159Y32054644D01*
X12071009Y32135095D01*
X12058836Y32217152D01*
X12054765Y32300000D01*
X12058836Y32382848D01*
X12073672Y32482862D01*
X10542862Y34013672D01*
X10442848Y33998836D01*
X10360000Y33994765D01*
X10277152Y33998836D01*
X10195095Y34011009D01*
X10114644Y34031159D01*
X10036544Y34059105D01*
X9961561Y34094570D01*
X9890411Y34137214D01*
X9823789Y34186625D01*
X9762329Y34242329D01*
X9706625Y34303789D01*
X9657214Y34370411D01*
X9614570Y34441561D01*
X9579105Y34516544D01*
X9551159Y34594644D01*
X9531009Y34675095D01*
X9518836Y34757152D01*
X9514765Y34840000D01*
X9518836Y34922848D01*
X9531009Y35004905D01*
X9551159Y35085356D01*
X9579105Y35163456D01*
X9614570Y35238439D01*
X9657214Y35309589D01*
X9706625Y35376211D01*
X9762329Y35437671D01*
X9823789Y35493375D01*
X9890411Y35542786D01*
X9961561Y35585430D01*
X10036544Y35620895D01*
X10114644Y35648841D01*
X10195095Y35668991D01*
X10277152Y35681164D01*
X10360000Y35685235D01*
X10442848Y35681164D01*
X10524905Y35668991D01*
X10605356Y35648841D01*
X10683456Y35620895D01*
X10758439Y35585430D01*
X10829589Y35542786D01*
X10896211Y35493375D01*
X10957671Y35437671D01*
X11013375Y35376211D01*
X11062786Y35309589D01*
X11105430Y35238439D01*
X11140895Y35163456D01*
X11168841Y35085356D01*
X11188991Y35004905D01*
X11201164Y34922848D01*
X11205235Y34840000D01*
X11201164Y34757150D01*
X11186328Y34657137D01*
X12717138Y33126328D01*
X12817152Y33141164D01*
X12900000Y33145235D01*
X12982848Y33141164D01*
X13064905Y33128991D01*
X13145356Y33108841D01*
X13223456Y33080895D01*
X13298439Y33045430D01*
X13369589Y33002786D01*
X13436211Y32953375D01*
X13497671Y32897671D01*
X13553375Y32836211D01*
X13602786Y32769589D01*
X13645433Y32698435D01*
X13689626Y32605000D01*
X29580075Y32605000D01*
X29658958Y32597230D01*
X29744502Y32571279D01*
X29823333Y32529144D01*
X29884611Y32478854D01*
X30348466Y32015000D01*
X31545000Y32015000D01*
X31545000Y29825000D01*
D02*
G37*
%LPC*%
G36*
X15440000Y33994765D02*
X15357152Y33998836D01*
X15275095Y34011009D01*
X15194644Y34031159D01*
X15116544Y34059105D01*
X15041561Y34094570D01*
X14970411Y34137214D01*
X14903789Y34186625D01*
X14842329Y34242329D01*
X14786625Y34303789D01*
X14737214Y34370411D01*
X14694570Y34441561D01*
X14659105Y34516544D01*
X14631159Y34594644D01*
X14611009Y34675095D01*
X14598836Y34757152D01*
X14594765Y34840000D01*
X14598836Y34922848D01*
X14611009Y35004905D01*
X14631159Y35085356D01*
X14659105Y35163456D01*
X14694570Y35238439D01*
X14737214Y35309589D01*
X14786625Y35376211D01*
X14842329Y35437671D01*
X14903789Y35493375D01*
X14970411Y35542786D01*
X15041561Y35585430D01*
X15116544Y35620895D01*
X15194644Y35648841D01*
X15275095Y35668991D01*
X15357152Y35681164D01*
X15440000Y35685235D01*
X15522848Y35681164D01*
X15604905Y35668991D01*
X15685356Y35648841D01*
X15763456Y35620895D01*
X15838439Y35585430D01*
X15909589Y35542786D01*
X15976211Y35493375D01*
X16037671Y35437671D01*
X16093375Y35376211D01*
X16142786Y35309589D01*
X16185430Y35238439D01*
X16220895Y35163456D01*
X16248841Y35085356D01*
X16268991Y35004905D01*
X16281164Y34922848D01*
X16285235Y34840000D01*
X16281164Y34757152D01*
X16268991Y34675095D01*
X16248841Y34594644D01*
X16220895Y34516544D01*
X16185430Y34441561D01*
X16142786Y34370411D01*
X16093375Y34303789D01*
X16037671Y34242329D01*
X15976211Y34186625D01*
X15909589Y34137214D01*
X15838439Y34094570D01*
X15763456Y34059105D01*
X15685356Y34031159D01*
X15604905Y34011009D01*
X15522848Y33998836D01*
X15440000Y33994765D01*
D02*
G37*
%LPC*%
G36*
X57800000Y34174752D02*
X57740681Y34177668D01*
X57681924Y34186382D01*
X57624308Y34200815D01*
X57568382Y34220826D01*
X57514686Y34246222D01*
X57463741Y34276757D01*
X57416037Y34312136D01*
X57372027Y34352027D01*
X57332136Y34396037D01*
X57296757Y34443741D01*
X57266222Y34494686D01*
X57240826Y34548382D01*
X57220815Y34604308D01*
X57206382Y34661924D01*
X57197668Y34720681D01*
X57194752Y34780000D01*
X57197668Y34839319D01*
X57206382Y34898076D01*
X57220815Y34955692D01*
X57240826Y35011618D01*
X57266222Y35065314D01*
X57296757Y35116259D01*
X57332136Y35163963D01*
X57372027Y35207973D01*
X57416037Y35247864D01*
X57463741Y35283243D01*
X57514686Y35313778D01*
X57568382Y35339174D01*
X57624308Y35359185D01*
X57681924Y35373618D01*
X57740681Y35382332D01*
X57800000Y35385248D01*
X57859319Y35382332D01*
X57918076Y35373618D01*
X57975692Y35359185D01*
X58031618Y35339174D01*
X58085314Y35313778D01*
X58136259Y35283243D01*
X58183963Y35247864D01*
X58227973Y35207973D01*
X58294116Y35135000D01*
X58734290Y35135000D01*
X58734290Y35325710D01*
X60615710Y35325710D01*
X60615710Y34234290D01*
X58734290Y34234290D01*
X58734290Y34425000D01*
X58294116Y34425000D01*
X58227973Y34352027D01*
X58183963Y34312136D01*
X58136259Y34276757D01*
X58085314Y34246222D01*
X58031618Y34220826D01*
X57975692Y34200815D01*
X57918076Y34186382D01*
X57859319Y34177668D01*
X57800000Y34174752D01*
D02*
G37*
%LPC*%
G36*
X50110000Y27094752D02*
X50050681Y27097668D01*
X49991924Y27106382D01*
X49934308Y27120815D01*
X49878382Y27140826D01*
X49824686Y27166222D01*
X49773741Y27196757D01*
X49726037Y27232136D01*
X49682027Y27272027D01*
X49642136Y27316037D01*
X49606757Y27363741D01*
X49576222Y27414686D01*
X49550826Y27468382D01*
X49530815Y27524308D01*
X49516382Y27581924D01*
X49507668Y27640681D01*
X49504752Y27700000D01*
X49507668Y27759319D01*
X49516382Y27818076D01*
X49530815Y27875692D01*
X49550826Y27931618D01*
X49576222Y27985314D01*
X49606757Y28036259D01*
X49642136Y28083963D01*
X49682027Y28127973D01*
X49755000Y28194116D01*
X49755000Y28505000D01*
X49615000Y28505000D01*
X49615000Y30695000D01*
X49755000Y30695000D01*
X49755000Y32375066D01*
X49760849Y32434451D01*
X49781106Y32501229D01*
X49814003Y32562777D01*
X49857779Y32616122D01*
X49865551Y32622598D01*
X51584290Y34341336D01*
X51584290Y35325710D01*
X53465710Y35325710D01*
X53465710Y34234290D01*
X52481336Y34234290D01*
X50465000Y32217953D01*
X50465000Y30695000D01*
X50605000Y30695000D01*
X50605000Y28505000D01*
X50465000Y28505000D01*
X50465000Y28194116D01*
X50537973Y28127973D01*
X50577864Y28083963D01*
X50613243Y28036259D01*
X50643778Y27985314D01*
X50669174Y27931618D01*
X50689185Y27875692D01*
X50703618Y27818076D01*
X50712332Y27759319D01*
X50715248Y27700000D01*
X50712332Y27640681D01*
X50703618Y27581924D01*
X50689185Y27524308D01*
X50669174Y27468382D01*
X50643778Y27414686D01*
X50613243Y27363741D01*
X50577864Y27316037D01*
X50537973Y27272027D01*
X50493963Y27232136D01*
X50446259Y27196757D01*
X50395314Y27166222D01*
X50341618Y27140826D01*
X50285692Y27120815D01*
X50228076Y27106382D01*
X50169319Y27097668D01*
X50110000Y27094752D01*
D02*
G37*
%LPC*%
G36*
X26502917Y32963501D02*
X26415177Y32967813D01*
X26328261Y32980705D01*
X26243046Y33002050D01*
X26160324Y33031650D01*
X26080907Y33069210D01*
X26005554Y33114375D01*
X25934990Y33166709D01*
X25869891Y33225711D01*
X25810889Y33290810D01*
X25758555Y33361374D01*
X25713390Y33436727D01*
X25675830Y33516144D01*
X25646230Y33598866D01*
X25624885Y33684081D01*
X25611993Y33770997D01*
X25607681Y33858737D01*
X25611993Y33946477D01*
X25624885Y34033393D01*
X25646230Y34118608D01*
X25675830Y34201330D01*
X25713390Y34280747D01*
X25758555Y34356100D01*
X25810889Y34426664D01*
X25869891Y34491763D01*
X25934990Y34550765D01*
X26005554Y34603099D01*
X26080907Y34648264D01*
X26160324Y34685824D01*
X26243046Y34715424D01*
X26328261Y34736769D01*
X26415177Y34749661D01*
X26502917Y34753973D01*
X26590657Y34749661D01*
X26677573Y34736769D01*
X26762788Y34715424D01*
X26845510Y34685824D01*
X26924927Y34648264D01*
X27000280Y34603099D01*
X27070844Y34550765D01*
X27135943Y34491763D01*
X27194945Y34426664D01*
X27247279Y34356100D01*
X27292444Y34280747D01*
X27330004Y34201330D01*
X27359604Y34118608D01*
X27380949Y34033393D01*
X27393841Y33946477D01*
X27398153Y33858737D01*
X27393841Y33770997D01*
X27380949Y33684081D01*
X27359604Y33598866D01*
X27330004Y33516144D01*
X27292444Y33436727D01*
X27247279Y33361374D01*
X27194945Y33290810D01*
X27135943Y33225711D01*
X27070844Y33166709D01*
X27000280Y33114375D01*
X26924927Y33069210D01*
X26845510Y33031650D01*
X26762788Y33002050D01*
X26677573Y32980705D01*
X26590657Y32967813D01*
X26502917Y32963501D01*
D02*
G37*
%LPC*%
G36*
X28502917Y32963501D02*
X28415177Y32967813D01*
X28328261Y32980705D01*
X28243046Y33002050D01*
X28160324Y33031650D01*
X28080907Y33069210D01*
X28005554Y33114375D01*
X27934990Y33166709D01*
X27869891Y33225711D01*
X27810889Y33290810D01*
X27758555Y33361374D01*
X27713390Y33436727D01*
X27675830Y33516144D01*
X27646230Y33598866D01*
X27624885Y33684081D01*
X27611993Y33770997D01*
X27607681Y33858737D01*
X27611993Y33946477D01*
X27624885Y34033393D01*
X27646230Y34118608D01*
X27675830Y34201330D01*
X27713390Y34280747D01*
X27758555Y34356100D01*
X27810889Y34426664D01*
X27869891Y34491763D01*
X27934990Y34550765D01*
X28005554Y34603099D01*
X28080907Y34648264D01*
X28160324Y34685824D01*
X28243046Y34715424D01*
X28328261Y34736769D01*
X28415177Y34749661D01*
X28502917Y34753973D01*
X28590657Y34749661D01*
X28677573Y34736769D01*
X28762788Y34715424D01*
X28845510Y34685824D01*
X28924927Y34648264D01*
X29000280Y34603099D01*
X29070844Y34550765D01*
X29135943Y34491763D01*
X29194945Y34426664D01*
X29247279Y34356100D01*
X29292444Y34280747D01*
X29330004Y34201330D01*
X29359604Y34118608D01*
X29380949Y34033393D01*
X29393841Y33946477D01*
X29398153Y33858737D01*
X29393841Y33770997D01*
X29380949Y33684081D01*
X29359604Y33598866D01*
X29330004Y33516144D01*
X29292444Y33436727D01*
X29247279Y33361374D01*
X29194945Y33290810D01*
X29135943Y33225711D01*
X29070844Y33166709D01*
X29000280Y33114375D01*
X28924927Y33069210D01*
X28845510Y33031650D01*
X28762788Y33002050D01*
X28677573Y32980705D01*
X28590657Y32967813D01*
X28502917Y32963501D01*
D02*
G37*
%LPC*%
G36*
X30502917Y32963501D02*
X30415177Y32967813D01*
X30328261Y32980705D01*
X30243046Y33002050D01*
X30160324Y33031650D01*
X30080907Y33069210D01*
X30005554Y33114375D01*
X29934990Y33166709D01*
X29869891Y33225711D01*
X29810889Y33290810D01*
X29758555Y33361374D01*
X29713390Y33436727D01*
X29675830Y33516144D01*
X29646230Y33598866D01*
X29624885Y33684081D01*
X29611993Y33770997D01*
X29607681Y33858737D01*
X29611993Y33946477D01*
X29624885Y34033393D01*
X29646230Y34118608D01*
X29675830Y34201330D01*
X29713390Y34280747D01*
X29758555Y34356100D01*
X29810889Y34426664D01*
X29869891Y34491763D01*
X29934990Y34550765D01*
X30005554Y34603099D01*
X30080907Y34648264D01*
X30160324Y34685824D01*
X30243046Y34715424D01*
X30328261Y34736769D01*
X30415177Y34749661D01*
X30502917Y34753973D01*
X30590657Y34749661D01*
X30677573Y34736769D01*
X30762788Y34715424D01*
X30845510Y34685824D01*
X30924927Y34648264D01*
X31000280Y34603099D01*
X31070844Y34550765D01*
X31135943Y34491763D01*
X31194945Y34426664D01*
X31247279Y34356100D01*
X31292444Y34280747D01*
X31330004Y34201330D01*
X31359604Y34118608D01*
X31380949Y34033393D01*
X31393841Y33946477D01*
X31398153Y33858737D01*
X31393841Y33770997D01*
X31380949Y33684081D01*
X31359604Y33598866D01*
X31330004Y33516144D01*
X31292444Y33436727D01*
X31247279Y33361374D01*
X31194945Y33290810D01*
X31135943Y33225711D01*
X31070844Y33166709D01*
X31000280Y33114375D01*
X30924927Y33069210D01*
X30845510Y33031650D01*
X30762788Y33002050D01*
X30677573Y32980705D01*
X30590657Y32967813D01*
X30502917Y32963501D01*
D02*
G37*
%LPC*%
G36*
X32502917Y32963501D02*
X32415177Y32967813D01*
X32328261Y32980705D01*
X32243046Y33002050D01*
X32160324Y33031650D01*
X32080907Y33069210D01*
X32005554Y33114375D01*
X31934990Y33166709D01*
X31869891Y33225711D01*
X31810889Y33290810D01*
X31758555Y33361374D01*
X31713390Y33436727D01*
X31675830Y33516144D01*
X31646230Y33598866D01*
X31624885Y33684081D01*
X31611993Y33770997D01*
X31607681Y33858737D01*
X31611993Y33946477D01*
X31624885Y34033393D01*
X31646230Y34118608D01*
X31675830Y34201330D01*
X31713390Y34280747D01*
X31758555Y34356100D01*
X31810889Y34426664D01*
X31869891Y34491763D01*
X31934990Y34550765D01*
X32005554Y34603099D01*
X32080907Y34648264D01*
X32160324Y34685824D01*
X32243046Y34715424D01*
X32328261Y34736769D01*
X32415177Y34749661D01*
X32502917Y34753973D01*
X32590657Y34749661D01*
X32677573Y34736769D01*
X32762788Y34715424D01*
X32845510Y34685824D01*
X32924927Y34648264D01*
X33000280Y34603099D01*
X33070844Y34550765D01*
X33135943Y34491763D01*
X33194945Y34426664D01*
X33247279Y34356100D01*
X33292444Y34280747D01*
X33330004Y34201330D01*
X33359604Y34118608D01*
X33380949Y34033393D01*
X33393841Y33946477D01*
X33398153Y33858737D01*
X33393841Y33770997D01*
X33380949Y33684081D01*
X33359604Y33598866D01*
X33330004Y33516144D01*
X33292444Y33436727D01*
X33247279Y33361374D01*
X33194945Y33290810D01*
X33135943Y33225711D01*
X33070844Y33166709D01*
X33000280Y33114375D01*
X32924927Y33069210D01*
X32845510Y33031650D01*
X32762788Y33002050D01*
X32677573Y32980705D01*
X32590657Y32967813D01*
X32502917Y32963501D01*
D02*
G37*
%LPC*%
G36*
X42650000Y28190000D02*
X40710000Y28190000D01*
X40710000Y28380000D01*
X39904935Y28380000D01*
X39855301Y28384887D01*
X39797901Y28402301D01*
X39745001Y28430576D01*
X39698509Y28468732D01*
X39692095Y28476570D01*
X38691570Y29477095D01*
X38683732Y29483509D01*
X38645576Y29530001D01*
X38617301Y29582901D01*
X38599887Y29640301D01*
X38595000Y29689935D01*
X38595000Y30873665D01*
X36505280Y32963385D01*
X36415177Y32967813D01*
X36328261Y32980705D01*
X36243046Y33002050D01*
X36160324Y33031650D01*
X36080907Y33069210D01*
X36005554Y33114375D01*
X35934990Y33166709D01*
X35869891Y33225711D01*
X35810889Y33290810D01*
X35758555Y33361374D01*
X35713390Y33436727D01*
X35675830Y33516144D01*
X35646230Y33598866D01*
X35624885Y33684081D01*
X35611993Y33770997D01*
X35607681Y33858737D01*
X35611993Y33946477D01*
X35624885Y34033393D01*
X35646230Y34118608D01*
X35675830Y34201330D01*
X35713390Y34280747D01*
X35758555Y34356100D01*
X35810889Y34426664D01*
X35869891Y34491763D01*
X35934990Y34550765D01*
X36005554Y34603099D01*
X36080907Y34648264D01*
X36160324Y34685824D01*
X36243046Y34715424D01*
X36328261Y34736769D01*
X36415177Y34749661D01*
X36502917Y34753973D01*
X36590657Y34749661D01*
X36677573Y34736769D01*
X36762788Y34715424D01*
X36845510Y34685824D01*
X36924927Y34648264D01*
X37000280Y34603099D01*
X37070844Y34550765D01*
X37135943Y34491763D01*
X37194945Y34426664D01*
X37247279Y34356100D01*
X37292444Y34280747D01*
X37330004Y34201330D01*
X37359604Y34118608D01*
X37380949Y34033393D01*
X37393841Y33946477D01*
X37398153Y33858737D01*
X37393841Y33770997D01*
X37380949Y33684081D01*
X37359604Y33598866D01*
X37330004Y33516144D01*
X37292444Y33436727D01*
X37247279Y33361374D01*
X37194941Y33290804D01*
X37121525Y33209809D01*
X39122792Y31208542D01*
X39154421Y31170002D01*
X39182699Y31117097D01*
X39200110Y31059703D01*
X39205000Y31010075D01*
X39205000Y29826335D01*
X40041335Y28990000D01*
X40710000Y28990000D01*
X40710000Y29180000D01*
X42650000Y29180000D01*
X42650000Y28190000D01*
D02*
G37*
%LPC*%
G36*
X40502917Y32963501D02*
X40415177Y32967813D01*
X40328261Y32980705D01*
X40243046Y33002050D01*
X40160324Y33031650D01*
X40080907Y33069210D01*
X40005554Y33114375D01*
X39934990Y33166709D01*
X39869891Y33225711D01*
X39810889Y33290810D01*
X39758555Y33361374D01*
X39713390Y33436727D01*
X39675830Y33516144D01*
X39646230Y33598866D01*
X39624885Y33684081D01*
X39611993Y33770997D01*
X39607681Y33858737D01*
X39611993Y33946477D01*
X39624885Y34033393D01*
X39646230Y34118608D01*
X39675830Y34201330D01*
X39713390Y34280747D01*
X39758555Y34356100D01*
X39810889Y34426664D01*
X39869891Y34491763D01*
X39934990Y34550765D01*
X40005554Y34603099D01*
X40080907Y34648264D01*
X40160324Y34685824D01*
X40243046Y34715424D01*
X40328261Y34736769D01*
X40415177Y34749661D01*
X40502917Y34753973D01*
X40590657Y34749661D01*
X40677573Y34736769D01*
X40762788Y34715424D01*
X40845510Y34685824D01*
X40924927Y34648264D01*
X41000280Y34603099D01*
X41070844Y34550765D01*
X41135943Y34491763D01*
X41194945Y34426664D01*
X41247279Y34356100D01*
X41292444Y34280747D01*
X41330004Y34201330D01*
X41359604Y34118608D01*
X41380949Y34033393D01*
X41393841Y33946477D01*
X41398153Y33858737D01*
X41393841Y33770997D01*
X41380949Y33684081D01*
X41359604Y33598866D01*
X41330004Y33516144D01*
X41292444Y33436727D01*
X41247279Y33361374D01*
X41194945Y33290810D01*
X41135943Y33225711D01*
X41070844Y33166709D01*
X41000280Y33114375D01*
X40924927Y33069210D01*
X40845510Y33031650D01*
X40762788Y33002050D01*
X40677573Y32980705D01*
X40590657Y32967813D01*
X40502917Y32963501D01*
D02*
G37*
%LPC*%
G36*
X39379552Y34008737D02*
X38652917Y34008737D01*
X38652917Y34735372D01*
X38676596Y34731859D01*
X38761330Y34710634D01*
X38843597Y34681199D01*
X38922570Y34643847D01*
X38997499Y34598937D01*
X39067675Y34546891D01*
X39132403Y34488223D01*
X39191071Y34423495D01*
X39243117Y34353319D01*
X39288027Y34278390D01*
X39325379Y34199417D01*
X39354814Y34117150D01*
X39376039Y34032416D01*
X39379552Y34008737D01*
D02*
G37*
%LPC*%
G36*
X38352917Y34008737D02*
X37626282Y34008737D01*
X37629795Y34032416D01*
X37651020Y34117150D01*
X37680455Y34199417D01*
X37717807Y34278390D01*
X37762717Y34353319D01*
X37814763Y34423495D01*
X37873431Y34488223D01*
X37938159Y34546891D01*
X38008335Y34598937D01*
X38083264Y34643847D01*
X38162237Y34681199D01*
X38244504Y34710634D01*
X38329238Y34731859D01*
X38352917Y34735372D01*
X38352917Y34008737D01*
D02*
G37*
%LPC*%
G36*
X35379552Y34008737D02*
X34652917Y34008737D01*
X34652917Y34735372D01*
X34676596Y34731859D01*
X34761330Y34710634D01*
X34843597Y34681199D01*
X34922570Y34643847D01*
X34997499Y34598937D01*
X35067675Y34546891D01*
X35132403Y34488223D01*
X35191071Y34423495D01*
X35243117Y34353319D01*
X35288027Y34278390D01*
X35325379Y34199417D01*
X35354814Y34117150D01*
X35376039Y34032416D01*
X35379552Y34008737D01*
D02*
G37*
%LPC*%
G36*
X34352917Y34008737D02*
X33626282Y34008737D01*
X33629795Y34032416D01*
X33651020Y34117150D01*
X33680455Y34199417D01*
X33717807Y34278390D01*
X33762717Y34353319D01*
X33814763Y34423495D01*
X33873431Y34488223D01*
X33938159Y34546891D01*
X34008335Y34598937D01*
X34083264Y34643847D01*
X34162237Y34681199D01*
X34244504Y34710634D01*
X34329238Y34731859D01*
X34352917Y34735372D01*
X34352917Y34008737D01*
D02*
G37*
%LPC*%
G36*
X24352917Y34008737D02*
X23626282Y34008737D01*
X23629795Y34032416D01*
X23651020Y34117150D01*
X23680455Y34199417D01*
X23717807Y34278390D01*
X23762717Y34353319D01*
X23814763Y34423495D01*
X23873431Y34488223D01*
X23938159Y34546891D01*
X24008335Y34598937D01*
X24083264Y34643847D01*
X24162237Y34681199D01*
X24244504Y34710634D01*
X24329238Y34731859D01*
X24352917Y34735372D01*
X24352917Y34008737D01*
D02*
G37*
%LPC*%
G36*
X25379552Y34008737D02*
X24652917Y34008737D01*
X24652917Y34735372D01*
X24676596Y34731859D01*
X24761330Y34710634D01*
X24843597Y34681199D01*
X24922570Y34643847D01*
X24997499Y34598937D01*
X25067675Y34546891D01*
X25132403Y34488223D01*
X25191071Y34423495D01*
X25243117Y34353319D01*
X25288027Y34278390D01*
X25325379Y34199417D01*
X25354814Y34117150D01*
X25376039Y34032416D01*
X25379552Y34008737D01*
D02*
G37*
%LPC*%
G36*
X38652917Y32982102D02*
X38652917Y33708737D01*
X39379552Y33708737D01*
X39376039Y33685058D01*
X39354814Y33600324D01*
X39325379Y33518057D01*
X39288027Y33439084D01*
X39243117Y33364155D01*
X39191071Y33293979D01*
X39132403Y33229251D01*
X39067675Y33170583D01*
X38997499Y33118537D01*
X38922570Y33073627D01*
X38843597Y33036275D01*
X38761330Y33006840D01*
X38676596Y32985615D01*
X38652917Y32982102D01*
D02*
G37*
%LPC*%
G36*
X38352917Y32982102D02*
X38329238Y32985615D01*
X38244504Y33006840D01*
X38162237Y33036275D01*
X38083264Y33073627D01*
X38008335Y33118537D01*
X37938159Y33170583D01*
X37873431Y33229251D01*
X37814763Y33293979D01*
X37762717Y33364155D01*
X37717807Y33439084D01*
X37680455Y33518057D01*
X37651020Y33600324D01*
X37629795Y33685058D01*
X37626282Y33708737D01*
X38352917Y33708737D01*
X38352917Y32982102D01*
D02*
G37*
%LPC*%
G36*
X34652917Y32982102D02*
X34652917Y33708737D01*
X35379552Y33708737D01*
X35376039Y33685058D01*
X35354814Y33600324D01*
X35325379Y33518057D01*
X35288027Y33439084D01*
X35243117Y33364155D01*
X35191071Y33293979D01*
X35132403Y33229251D01*
X35067675Y33170583D01*
X34997499Y33118537D01*
X34922570Y33073627D01*
X34843597Y33036275D01*
X34761330Y33006840D01*
X34676596Y32985615D01*
X34652917Y32982102D01*
D02*
G37*
%LPC*%
G36*
X34352917Y32982102D02*
X34329238Y32985615D01*
X34244504Y33006840D01*
X34162237Y33036275D01*
X34083264Y33073627D01*
X34008335Y33118537D01*
X33938159Y33170583D01*
X33873431Y33229251D01*
X33814763Y33293979D01*
X33762717Y33364155D01*
X33717807Y33439084D01*
X33680455Y33518057D01*
X33651020Y33600324D01*
X33629795Y33685058D01*
X33626282Y33708737D01*
X34352917Y33708737D01*
X34352917Y32982102D01*
D02*
G37*
%LPC*%
G36*
X24652917Y32982102D02*
X24652917Y33708737D01*
X25379552Y33708737D01*
X25376039Y33685058D01*
X25354814Y33600324D01*
X25325379Y33518057D01*
X25288027Y33439084D01*
X25243117Y33364155D01*
X25191071Y33293979D01*
X25132403Y33229251D01*
X25067675Y33170583D01*
X24997499Y33118537D01*
X24922570Y33073627D01*
X24843597Y33036275D01*
X24761330Y33006840D01*
X24676596Y32985615D01*
X24652917Y32982102D01*
D02*
G37*
%LPC*%
G36*
X24352917Y32982102D02*
X24329238Y32985615D01*
X24244504Y33006840D01*
X24162237Y33036275D01*
X24083264Y33073627D01*
X24008335Y33118537D01*
X23938159Y33170583D01*
X23873431Y33229251D01*
X23814763Y33293979D01*
X23762717Y33364155D01*
X23717807Y33439084D01*
X23680455Y33518057D01*
X23651020Y33600324D01*
X23629795Y33685058D01*
X23626282Y33708737D01*
X24352917Y33708737D01*
X24352917Y32982102D01*
D02*
G37*
%LPC*%
G36*
X53465710Y31694290D02*
X51584290Y31694290D01*
X51584290Y32785710D01*
X53465710Y32785710D01*
X53465710Y32595000D01*
X58734290Y32595000D01*
X58734290Y32785710D01*
X60615710Y32785710D01*
X60615710Y31694290D01*
X58734290Y31694290D01*
X58734290Y31885000D01*
X53465710Y31885000D01*
X53465710Y31694290D01*
D02*
G37*
%LPC*%
G36*
X42650000Y30730000D02*
X40710000Y30730000D01*
X40710000Y31720000D01*
X42650000Y31720000D01*
X42650000Y31530000D01*
X43285000Y31530000D01*
X43285000Y32230000D01*
X44575000Y32230000D01*
X44575000Y30840000D01*
X43285000Y30840000D01*
X43285000Y30920000D01*
X42650000Y30920000D01*
X42650000Y30730000D01*
D02*
G37*
%LPC*%
G36*
X34545000Y29825000D02*
X33055000Y29825000D01*
X33055000Y32015000D01*
X34545000Y32015000D01*
X34545000Y31720000D01*
X37310000Y31720000D01*
X37310000Y30730000D01*
X34545000Y30730000D01*
X34545000Y29825000D01*
D02*
G37*
%LPC*%
G36*
X37310000Y28190000D02*
X35370000Y28190000D01*
X35370000Y28380000D01*
X30194935Y28380000D01*
X30145301Y28384887D01*
X30087901Y28402301D01*
X30035001Y28430576D01*
X29988509Y28468732D01*
X29982095Y28476570D01*
X27943665Y30515000D01*
X5326335Y30515000D01*
X4922534Y30111200D01*
X4965670Y30019994D01*
X5000228Y29923414D01*
X5025149Y29823922D01*
X5040201Y29722451D01*
X5045235Y29620000D01*
X5040201Y29517549D01*
X5025149Y29416078D01*
X5000228Y29316586D01*
X4965669Y29220002D01*
X4921818Y29127285D01*
X4869081Y29039299D01*
X4807976Y28956910D01*
X4739092Y28880908D01*
X4663090Y28812024D01*
X4580701Y28750919D01*
X4492715Y28698182D01*
X4399998Y28654331D01*
X4303414Y28619772D01*
X4203922Y28594851D01*
X4102451Y28579799D01*
X4000000Y28574765D01*
X3897549Y28579799D01*
X3796078Y28594851D01*
X3696586Y28619772D01*
X3600002Y28654331D01*
X3507285Y28698182D01*
X3419299Y28750919D01*
X3336910Y28812024D01*
X3260908Y28880908D01*
X3192024Y28956910D01*
X3130919Y29039299D01*
X3078182Y29127285D01*
X3034331Y29220002D01*
X2999772Y29316586D01*
X2974851Y29416078D01*
X2959799Y29517549D01*
X2954765Y29620000D01*
X2959799Y29722451D01*
X2974851Y29823922D01*
X2999772Y29923414D01*
X3034331Y30019998D01*
X3078182Y30112715D01*
X3130919Y30200701D01*
X3192024Y30283090D01*
X3260908Y30359092D01*
X3336910Y30427976D01*
X3419299Y30489081D01*
X3507285Y30541818D01*
X3600002Y30585669D01*
X3696586Y30620228D01*
X3796078Y30645149D01*
X3897549Y30660201D01*
X4000000Y30665235D01*
X4102451Y30660201D01*
X4203922Y30645149D01*
X4303414Y30620228D01*
X4399994Y30585670D01*
X4491200Y30542534D01*
X4977758Y31029093D01*
X4984232Y31036862D01*
X5029998Y31074421D01*
X5082900Y31102698D01*
X5140300Y31120112D01*
X5189923Y31125000D01*
X28080075Y31125000D01*
X28129703Y31120110D01*
X28187097Y31102699D01*
X28240002Y31074421D01*
X28278542Y31042792D01*
X30331335Y28990000D01*
X35370000Y28990000D01*
X35370000Y29180000D01*
X37310000Y29180000D01*
X37310000Y28190000D01*
D02*
G37*
%LPC*%
G36*
X47460000Y29750000D02*
X47120000Y29750000D01*
X47120000Y30690000D01*
X47460000Y30690000D01*
X47460000Y29750000D01*
D02*
G37*
%LPC*%
G36*
X48100000Y29750000D02*
X47760000Y29750000D01*
X47760000Y30690000D01*
X48100000Y30690000D01*
X48100000Y29750000D01*
D02*
G37*
%LPC*%
G36*
X36900000Y24854764D02*
X36851464Y24857150D01*
X36803378Y24864282D01*
X36756247Y24876087D01*
X36710482Y24892463D01*
X36666543Y24913244D01*
X36624860Y24938229D01*
X36585832Y24967174D01*
X36549816Y24999816D01*
X36517174Y25035832D01*
X36488229Y25074860D01*
X36463244Y25116543D01*
X36442463Y25160482D01*
X36426087Y25206247D01*
X36414282Y25253378D01*
X36407150Y25301464D01*
X36404764Y25350000D01*
X36407150Y25398536D01*
X36414282Y25446622D01*
X36426087Y25493753D01*
X36442463Y25539518D01*
X36463244Y25583457D01*
X36488229Y25625140D01*
X36517174Y25664168D01*
X36549816Y25700184D01*
X36602341Y25747788D01*
X36617301Y25797099D01*
X36645578Y25850001D01*
X36683137Y25895767D01*
X36690906Y25902241D01*
X37795000Y27006335D01*
X37795000Y28983665D01*
X37318665Y29460000D01*
X35370000Y29460000D01*
X35370000Y30450000D01*
X37310000Y30450000D01*
X37310000Y30256528D01*
X37372106Y30237694D01*
X37425002Y30209421D01*
X37463542Y30177792D01*
X38322792Y29318542D01*
X38354422Y29280000D01*
X38382699Y29227097D01*
X38400110Y29169703D01*
X38405000Y29120075D01*
X38405000Y26869923D01*
X38400112Y26820300D01*
X38382698Y26762900D01*
X38354421Y26709998D01*
X38316862Y26664232D01*
X38309093Y26657758D01*
X37298551Y25647216D01*
X37336756Y25583457D01*
X37357537Y25539518D01*
X37373913Y25493753D01*
X37385718Y25446622D01*
X37392850Y25398536D01*
X37395236Y25350000D01*
X37392850Y25301464D01*
X37385718Y25253378D01*
X37373913Y25206247D01*
X37357537Y25160482D01*
X37336756Y25116543D01*
X37311771Y25074860D01*
X37282826Y25035832D01*
X37250184Y24999816D01*
X37214168Y24967174D01*
X37175140Y24938229D01*
X37133457Y24913244D01*
X37089518Y24892463D01*
X37043753Y24876087D01*
X36996622Y24864282D01*
X36948536Y24857150D01*
X36900000Y24854764D01*
D02*
G37*
%LPC*%
G36*
X44575000Y28910000D02*
X43285000Y28910000D01*
X43285000Y29650000D01*
X42650000Y29650000D01*
X42650000Y29460000D01*
X40710000Y29460000D01*
X40710000Y30450000D01*
X42650000Y30450000D01*
X42650000Y30260000D01*
X43285000Y30260000D01*
X43285000Y30300000D01*
X44575000Y30300000D01*
X44575000Y28910000D01*
D02*
G37*
%LPC*%
G36*
X44765000Y26575000D02*
X43475000Y26575000D01*
X43475000Y27665000D01*
X43820144Y27665000D01*
X43865578Y27750001D01*
X43903137Y27795767D01*
X43910906Y27802241D01*
X44885000Y28776335D01*
X44885000Y30300000D01*
X46175000Y30300000D01*
X46175000Y28910000D01*
X45832528Y28910000D01*
X45784421Y28819998D01*
X45746862Y28774232D01*
X45739093Y28767758D01*
X44765000Y27793665D01*
X44765000Y26575000D01*
D02*
G37*
%LPC*%
G36*
X59675000Y24474752D02*
X59605883Y24478148D01*
X59537405Y24488307D01*
X59470284Y24505118D01*
X59405114Y24528438D01*
X59342551Y24558027D01*
X59283179Y24593614D01*
X59227599Y24634834D01*
X59176315Y24681315D01*
X59129834Y24732599D01*
X59088614Y24788179D01*
X59053027Y24847551D01*
X59023438Y24910114D01*
X59000118Y24975284D01*
X58983307Y25042405D01*
X58973148Y25110883D01*
X58969752Y25180000D01*
X58973148Y25249117D01*
X58983307Y25317595D01*
X59000118Y25384716D01*
X59023438Y25449886D01*
X59053028Y25512450D01*
X59070000Y25540767D01*
X59070000Y26485000D01*
X59030000Y26485000D01*
X59030000Y27275000D01*
X59170000Y27275000D01*
X59170000Y29154290D01*
X58734290Y29154290D01*
X58734290Y30245710D01*
X60615710Y30245710D01*
X60615710Y29154290D01*
X60180000Y29154290D01*
X60180000Y27275000D01*
X60320000Y27275000D01*
X60320000Y26485000D01*
X60280000Y26485000D01*
X60280000Y25540767D01*
X60296972Y25512450D01*
X60326562Y25449886D01*
X60349882Y25384716D01*
X60366693Y25317595D01*
X60376852Y25249117D01*
X60380248Y25180000D01*
X60376852Y25110883D01*
X60366693Y25042405D01*
X60349882Y24975284D01*
X60326562Y24910114D01*
X60296973Y24847551D01*
X60261386Y24788179D01*
X60220166Y24732599D01*
X60173685Y24681315D01*
X60122401Y24634834D01*
X60066821Y24593614D01*
X60007449Y24558027D01*
X59944886Y24528438D01*
X59879716Y24505118D01*
X59812595Y24488307D01*
X59744117Y24478148D01*
X59675000Y24474752D01*
D02*
G37*
%LPC*%
G36*
X51715066Y25555000D02*
X47629935Y25555000D01*
X47541284Y25563731D01*
X47446363Y25592525D01*
X47358885Y25639283D01*
X47282090Y25702305D01*
X47275673Y25710149D01*
X47020821Y25965000D01*
X46665000Y25965000D01*
X46665000Y25925000D01*
X45375000Y25925000D01*
X45375000Y27015000D01*
X46665000Y27015000D01*
X46665000Y26975000D01*
X47240075Y26975000D01*
X47328713Y26966269D01*
X47423636Y26937474D01*
X47511113Y26890716D01*
X47579962Y26834215D01*
X47849179Y26565000D01*
X51495821Y26565000D01*
X52020000Y27089179D01*
X52020000Y29154290D01*
X51584290Y29154290D01*
X51584290Y30245710D01*
X53465710Y30245710D01*
X53465710Y29154290D01*
X53030000Y29154290D01*
X53030000Y27385000D01*
X56633075Y27385000D01*
X56721713Y27376269D01*
X56816636Y27347474D01*
X56904113Y27300716D01*
X56935449Y27275000D01*
X58120000Y27275000D01*
X58120000Y26485000D01*
X56935450Y26485000D01*
X56904114Y26459283D01*
X56816636Y26412525D01*
X56721715Y26383731D01*
X56633066Y26375000D01*
X52734179Y26375000D01*
X52068662Y25709484D01*
X52062187Y25701714D01*
X51986113Y25639283D01*
X51898636Y25592525D01*
X51803715Y25563731D01*
X51715066Y25555000D01*
D02*
G37*
%LPC*%
G36*
X23924998Y26610000D02*
X22634998Y26610000D01*
X22634998Y28000000D01*
X22774998Y28000000D01*
X22774998Y29245066D01*
X22784998Y29346608D01*
X22784998Y29830000D01*
X23774998Y29830000D01*
X23774998Y29740000D01*
X24584998Y29740000D01*
X24584998Y29980000D01*
X26774998Y29980000D01*
X26774998Y29740000D01*
X27188282Y29740000D01*
X27232598Y29780166D01*
X27288177Y29821386D01*
X27347549Y29856973D01*
X27410112Y29886562D01*
X27475282Y29909882D01*
X27542403Y29926693D01*
X27610881Y29936852D01*
X27679998Y29940248D01*
X27749115Y29936852D01*
X27817593Y29926693D01*
X27884714Y29909882D01*
X27949884Y29886562D01*
X28012447Y29856973D01*
X28071819Y29821386D01*
X28127399Y29780166D01*
X28178683Y29733685D01*
X28225164Y29682401D01*
X28266384Y29626821D01*
X28301971Y29567449D01*
X28331560Y29504886D01*
X28354880Y29439716D01*
X28371691Y29372595D01*
X28381850Y29304117D01*
X28385246Y29235000D01*
X28381850Y29165883D01*
X28371691Y29097405D01*
X28354880Y29030284D01*
X28331560Y28965114D01*
X28301971Y28902551D01*
X28266384Y28843179D01*
X28225164Y28787599D01*
X28178683Y28736315D01*
X28127399Y28689834D01*
X28071819Y28648614D01*
X28012447Y28613027D01*
X27949884Y28583438D01*
X27884714Y28560118D01*
X27817593Y28543307D01*
X27749115Y28533148D01*
X27679998Y28529752D01*
X27610881Y28533148D01*
X27542403Y28543307D01*
X27475282Y28560118D01*
X27410112Y28583438D01*
X27347549Y28613027D01*
X27288177Y28648614D01*
X27232598Y28689834D01*
X27188282Y28730000D01*
X26774998Y28730000D01*
X26774998Y28490000D01*
X24584998Y28490000D01*
X24584998Y28730000D01*
X23784998Y28730000D01*
X23784998Y28000000D01*
X23924998Y28000000D01*
X23924998Y26610000D01*
D02*
G37*
%LPC*%
G36*
X10509998Y26718001D02*
X9519998Y26718001D01*
X9519998Y29244993D01*
X9520000Y29245013D01*
X9520000Y29830000D01*
X10510000Y29830000D01*
X10510000Y29730000D01*
X18085000Y29730000D01*
X18085000Y29980000D01*
X20275000Y29980000D01*
X20275000Y29740000D01*
X21085000Y29740000D01*
X21085000Y29830000D01*
X22075000Y29830000D01*
X22075000Y29346590D01*
X22085992Y29235000D01*
X22075000Y29123410D01*
X22075000Y28640000D01*
X21085000Y28640000D01*
X21085000Y28730000D01*
X20275000Y28730000D01*
X20275000Y28490000D01*
X18085000Y28490000D01*
X18085000Y28740000D01*
X10510000Y28740000D01*
X10510000Y28640000D01*
X10509998Y28640000D01*
X10509998Y26718001D01*
D02*
G37*
%LPC*%
G36*
X8165002Y29385000D02*
X7825002Y29385000D01*
X7825002Y29825000D01*
X8165002Y29825000D01*
X8165002Y29385000D01*
D02*
G37*
%LPC*%
G36*
X8805002Y29385000D02*
X8465002Y29385000D01*
X8465002Y29825000D01*
X8805002Y29825000D01*
X8805002Y29385000D01*
D02*
G37*
%LPC*%
G36*
X48100000Y28510000D02*
X47760000Y28510000D01*
X47760000Y29450000D01*
X48100000Y29450000D01*
X48100000Y28510000D01*
D02*
G37*
%LPC*%
G36*
X47460000Y28510000D02*
X47120000Y28510000D01*
X47120000Y29450000D01*
X47460000Y29450000D01*
X47460000Y28510000D01*
D02*
G37*
%LPC*%
G36*
X8805002Y28645000D02*
X8465002Y28645000D01*
X8465002Y29085000D01*
X8805002Y29085000D01*
X8805002Y28645000D01*
D02*
G37*
%LPC*%
G36*
X8165002Y28645000D02*
X7825002Y28645000D01*
X7825002Y29085000D01*
X8165002Y29085000D01*
X8165002Y28645000D01*
D02*
G37*
%LPC*%
G36*
X22319998Y27455000D02*
X21829998Y27455000D01*
X21829998Y27995000D01*
X22319998Y27995000D01*
X22319998Y27455000D01*
D02*
G37*
%LPC*%
G36*
X21529998Y27455000D02*
X21039998Y27455000D01*
X21039998Y27995000D01*
X21529998Y27995000D01*
X21529998Y27455000D01*
D02*
G37*
%LPC*%
G36*
X41680000Y23014752D02*
X41610883Y23018148D01*
X41542405Y23028307D01*
X41475284Y23045118D01*
X41410114Y23068438D01*
X41347551Y23098027D01*
X41288179Y23133614D01*
X41232599Y23174834D01*
X41181315Y23221315D01*
X41134834Y23272599D01*
X41093614Y23328179D01*
X41058027Y23387551D01*
X41028438Y23450114D01*
X41005118Y23515284D01*
X40988307Y23582405D01*
X40978148Y23650883D01*
X40974752Y23720000D01*
X40978148Y23789117D01*
X40988307Y23857595D01*
X41005118Y23924716D01*
X41028438Y23989886D01*
X41058027Y24052449D01*
X41093614Y24111821D01*
X41134834Y24167400D01*
X41175000Y24211716D01*
X41175000Y24640000D01*
X41035000Y24640000D01*
X41035000Y26030000D01*
X41185000Y26030000D01*
X41185000Y26920000D01*
X40710000Y26920000D01*
X40710000Y27910000D01*
X41669928Y27910000D01*
X41680000Y27910992D01*
X41690072Y27910000D01*
X42650000Y27910000D01*
X42650000Y26920000D01*
X42175000Y26920000D01*
X42175000Y26030000D01*
X42325000Y26030000D01*
X42325000Y24640000D01*
X42185000Y24640000D01*
X42185000Y24211716D01*
X42225166Y24167400D01*
X42266386Y24111821D01*
X42301973Y24052449D01*
X42331562Y23989886D01*
X42354882Y23924716D01*
X42371693Y23857595D01*
X42381852Y23789117D01*
X42385248Y23720000D01*
X42381852Y23650883D01*
X42371693Y23582405D01*
X42354882Y23515284D01*
X42331562Y23450114D01*
X42301973Y23387551D01*
X42266386Y23328179D01*
X42225166Y23272599D01*
X42178685Y23221315D01*
X42127401Y23174834D01*
X42071821Y23133614D01*
X42012449Y23098027D01*
X41949886Y23068438D01*
X41884716Y23045118D01*
X41817595Y23028307D01*
X41749117Y23018148D01*
X41680000Y23014752D01*
D02*
G37*
%LPC*%
G36*
X7015000Y23910000D02*
X4825000Y23910000D01*
X4825000Y24150000D01*
X4185000Y24150000D01*
X4185000Y24010000D01*
X2795000Y24010000D01*
X2795000Y25300000D01*
X4185000Y25300000D01*
X4185000Y25160000D01*
X4825000Y25160000D01*
X4825000Y25400000D01*
X7015000Y25400000D01*
X7015000Y25150000D01*
X7820000Y25150000D01*
X7820000Y27908001D01*
X8810000Y27908001D01*
X8810000Y25150000D01*
X9700000Y25150000D01*
X9700000Y24160000D01*
X7015000Y24160000D01*
X7015000Y23910000D01*
D02*
G37*
%LPC*%
G36*
X37305000Y27565000D02*
X36490000Y27565000D01*
X36490000Y27905000D01*
X37305000Y27905000D01*
X37305000Y27565000D01*
D02*
G37*
%LPC*%
G36*
X36190000Y27565000D02*
X35375000Y27565000D01*
X35375000Y27905000D01*
X36190000Y27905000D01*
X36190000Y27565000D01*
D02*
G37*
%LPC*%
G36*
X20275000Y22485000D02*
X18785000Y22485000D01*
X18785000Y24675000D01*
X19025000Y24675000D01*
X19025000Y25490000D01*
X18085000Y25490000D01*
X18085000Y26270000D01*
X17465000Y26270000D01*
X17465000Y26080000D01*
X16175000Y26080000D01*
X16175000Y27470000D01*
X17465000Y27470000D01*
X17465000Y27280000D01*
X18650075Y27280000D01*
X18738713Y27271269D01*
X18833636Y27242474D01*
X18921113Y27195716D01*
X18989962Y27139215D01*
X19149178Y26980000D01*
X20275000Y26980000D01*
X20275000Y25490000D01*
X20035000Y25490000D01*
X20035000Y24675000D01*
X20275000Y24675000D01*
X20275000Y22485000D01*
D02*
G37*
%LPC*%
G36*
X14070000Y24149007D02*
X13958392Y24160000D01*
X13100000Y24160000D01*
X13100000Y25150000D01*
X13565000Y25150000D01*
X13565000Y25635066D01*
X13573731Y25723715D01*
X13602525Y25818636D01*
X13649283Y25906113D01*
X13711714Y25982187D01*
X13719484Y25988662D01*
X14575000Y26844178D01*
X14575000Y27470000D01*
X15865000Y27470000D01*
X15865000Y26080000D01*
X15239178Y26080000D01*
X14575000Y25415821D01*
X14575000Y25150000D01*
X15040000Y25150000D01*
X15040000Y24160000D01*
X14181607Y24160000D01*
X14070000Y24149007D01*
D02*
G37*
%LPC*%
G36*
X37305000Y26925000D02*
X36490000Y26925000D01*
X36490000Y27265000D01*
X37305000Y27265000D01*
X37305000Y26925000D01*
D02*
G37*
%LPC*%
G36*
X36190000Y26925000D02*
X35375000Y26925000D01*
X35375000Y27265000D01*
X36190000Y27265000D01*
X36190000Y26925000D01*
D02*
G37*
%LPC*%
G36*
X22319998Y26615000D02*
X21829998Y26615000D01*
X21829998Y27155000D01*
X22319998Y27155000D01*
X22319998Y26615000D01*
D02*
G37*
%LPC*%
G36*
X21529998Y26615000D02*
X21039998Y26615000D01*
X21039998Y27155000D01*
X21529998Y27155000D01*
X21529998Y26615000D01*
D02*
G37*
%LPC*%
G36*
X26769998Y26385000D02*
X25829998Y26385000D01*
X25829998Y26975000D01*
X26769998Y26975000D01*
X26769998Y26385000D01*
D02*
G37*
%LPC*%
G36*
X25529998Y26385000D02*
X24589998Y26385000D01*
X24589998Y26975000D01*
X25529998Y26975000D01*
X25529998Y26385000D01*
D02*
G37*
%LPC*%
G36*
X43970000Y25970000D02*
X43480000Y25970000D01*
X43480000Y26360000D01*
X43970000Y26360000D01*
X43970000Y25970000D01*
D02*
G37*
%LPC*%
G36*
X44760000Y25970000D02*
X44270000Y25970000D01*
X44270000Y26360000D01*
X44760000Y26360000D01*
X44760000Y25970000D01*
D02*
G37*
%LPC*%
G36*
X25529998Y25495000D02*
X24589998Y25495000D01*
X24589998Y26085000D01*
X25529998Y26085000D01*
X25529998Y25495000D01*
D02*
G37*
%LPC*%
G36*
X26769998Y25495000D02*
X25829998Y25495000D01*
X25829998Y26085000D01*
X26769998Y26085000D01*
X26769998Y25495000D01*
D02*
G37*
%LPC*%
G36*
X39930000Y25485000D02*
X39440000Y25485000D01*
X39440000Y26025000D01*
X39930000Y26025000D01*
X39930000Y25485000D01*
D02*
G37*
%LPC*%
G36*
X40720000Y25485000D02*
X40230000Y25485000D01*
X40230000Y26025000D01*
X40720000Y26025000D01*
X40720000Y25485000D01*
D02*
G37*
%LPC*%
G36*
X38615000Y24905000D02*
X37725000Y24905000D01*
X37725000Y25795000D01*
X38615000Y25795000D01*
X38615000Y24905000D01*
D02*
G37*
%LPC*%
G36*
X36075000Y24905000D02*
X35185000Y24905000D01*
X35185000Y25795000D01*
X36075000Y25795000D01*
X36075000Y24905000D01*
D02*
G37*
%LPC*%
G36*
X44760000Y25280000D02*
X44270000Y25280000D01*
X44270000Y25670000D01*
X44760000Y25670000D01*
X44760000Y25280000D01*
D02*
G37*
%LPC*%
G36*
X43970000Y25280000D02*
X43480000Y25280000D01*
X43480000Y25670000D01*
X43970000Y25670000D01*
X43970000Y25280000D01*
D02*
G37*
%LPC*%
G36*
X51765000Y20745000D02*
X49985000Y20745000D01*
X49985000Y22900000D01*
X53585000Y22900000D01*
X53585000Y25255000D01*
X57345000Y25255000D01*
X57345000Y21045000D01*
X51765000Y21045000D01*
X51765000Y20745000D01*
D02*
G37*
%LPD*%
G36*
X51510000Y21000000D02*
X51510000Y21300000D01*
X57090000Y21300000D01*
X57090000Y25000000D01*
X53840000Y25000000D01*
X53840000Y22645000D01*
X50240000Y22645000D01*
X50240000Y21000000D01*
X51510000Y21000000D01*
D02*
G37*
%LPC*%
G36*
X40720000Y24645000D02*
X40230000Y24645000D01*
X40230000Y25185000D01*
X40720000Y25185000D01*
X40720000Y24645000D01*
D02*
G37*
%LPC*%
G36*
X39930000Y24645000D02*
X39440000Y24645000D01*
X39440000Y25185000D01*
X39930000Y25185000D01*
X39930000Y24645000D01*
D02*
G37*
%LPC*%
G36*
X23774998Y21480000D02*
X22784998Y21480000D01*
X22784998Y21963391D01*
X22774998Y22064935D01*
X22774998Y23310000D01*
X22634998Y23310000D01*
X22634998Y24700000D01*
X23924998Y24700000D01*
X23924998Y24510000D01*
X24584998Y24510000D01*
X24584998Y24750000D01*
X26774998Y24750000D01*
X26774998Y24510000D01*
X27188282Y24510000D01*
X27232598Y24550166D01*
X27288177Y24591386D01*
X27347549Y24626973D01*
X27410112Y24656562D01*
X27475282Y24679882D01*
X27542403Y24696693D01*
X27610881Y24706852D01*
X27679998Y24710248D01*
X27749115Y24706852D01*
X27817593Y24696693D01*
X27884714Y24679882D01*
X27949884Y24656562D01*
X28012447Y24626973D01*
X28071819Y24591386D01*
X28127399Y24550166D01*
X28178683Y24503685D01*
X28225164Y24452401D01*
X28266384Y24396821D01*
X28301971Y24337449D01*
X28331560Y24274886D01*
X28354880Y24209716D01*
X28371691Y24142595D01*
X28381850Y24074117D01*
X28385246Y24005000D01*
X28381850Y23935883D01*
X28371691Y23867405D01*
X28354880Y23800284D01*
X28331560Y23735114D01*
X28301971Y23672551D01*
X28266384Y23613179D01*
X28225164Y23557599D01*
X28178683Y23506315D01*
X28127399Y23459834D01*
X28071819Y23418614D01*
X28012447Y23383027D01*
X27949884Y23353438D01*
X27884714Y23330118D01*
X27817593Y23313307D01*
X27749115Y23303148D01*
X27679998Y23299752D01*
X27610881Y23303148D01*
X27542403Y23313307D01*
X27475282Y23330118D01*
X27410112Y23353438D01*
X27347549Y23383027D01*
X27288177Y23418614D01*
X27232598Y23459834D01*
X27188282Y23500000D01*
X26774998Y23500000D01*
X26774998Y23260000D01*
X24584998Y23260000D01*
X24584998Y23500000D01*
X23924998Y23500000D01*
X23924998Y23310000D01*
X23784998Y23310000D01*
X23784998Y22064925D01*
X23774998Y21963410D01*
X23774998Y21480000D01*
D02*
G37*
%LPC*%
G36*
X22319998Y24155000D02*
X21829998Y24155000D01*
X21829998Y24695000D01*
X22319998Y24695000D01*
X22319998Y24155000D01*
D02*
G37*
%LPC*%
G36*
X21529998Y24155000D02*
X21039998Y24155000D01*
X21039998Y24695000D01*
X21529998Y24695000D01*
X21529998Y24155000D01*
D02*
G37*
%LPC*%
G36*
X17275000Y19555000D02*
X15785000Y19555000D01*
X15785000Y21620000D01*
X13100000Y21620000D01*
X13100000Y22610000D01*
X15785000Y22610000D01*
X15785000Y24675000D01*
X17275000Y24675000D01*
X17275000Y22485000D01*
X17035000Y22485000D01*
X17035000Y21745000D01*
X17275000Y21745000D01*
X17275000Y19555000D01*
D02*
G37*
%LPC*%
G36*
X38170000Y23584764D02*
X38121464Y23587150D01*
X38073378Y23594282D01*
X38026247Y23606087D01*
X37980482Y23622463D01*
X37936543Y23643244D01*
X37894860Y23668229D01*
X37855832Y23697174D01*
X37819816Y23729816D01*
X37787174Y23765832D01*
X37758229Y23804860D01*
X37733244Y23846543D01*
X37712463Y23890482D01*
X37696087Y23936247D01*
X37684282Y23983378D01*
X37677150Y24031464D01*
X37674764Y24080000D01*
X37677150Y24128536D01*
X37684282Y24176622D01*
X37696087Y24223753D01*
X37712463Y24269518D01*
X37733244Y24313457D01*
X37758229Y24355140D01*
X37787174Y24394168D01*
X37819816Y24430184D01*
X37855832Y24462826D01*
X37894860Y24491771D01*
X37936543Y24516756D01*
X37980482Y24537537D01*
X38026247Y24553913D01*
X38073378Y24565718D01*
X38121464Y24572850D01*
X38170000Y24575236D01*
X38218536Y24572850D01*
X38266622Y24565718D01*
X38313753Y24553913D01*
X38359518Y24537537D01*
X38403457Y24516756D01*
X38445140Y24491771D01*
X38484168Y24462826D01*
X38520184Y24430184D01*
X38552826Y24394168D01*
X38581771Y24355140D01*
X38606756Y24313457D01*
X38627537Y24269518D01*
X38643913Y24223753D01*
X38655718Y24176622D01*
X38662850Y24128536D01*
X38665236Y24080000D01*
X38662850Y24031464D01*
X38655718Y23983378D01*
X38643913Y23936247D01*
X38627537Y23890482D01*
X38606756Y23846543D01*
X38581771Y23804860D01*
X38552826Y23765832D01*
X38520184Y23729816D01*
X38484168Y23697174D01*
X38445140Y23668229D01*
X38403457Y23643244D01*
X38359518Y23622463D01*
X38313753Y23606087D01*
X38266622Y23594282D01*
X38218536Y23587150D01*
X38170000Y23584764D01*
D02*
G37*
%LPC*%
G36*
X36096367Y24230000D02*
X35780000Y24230000D01*
X35780000Y24546367D01*
X35817605Y24532911D01*
X35861089Y24512345D01*
X35902362Y24487606D01*
X35940992Y24458957D01*
X35976645Y24426645D01*
X36008957Y24390992D01*
X36037606Y24352362D01*
X36062345Y24311089D01*
X36082911Y24267605D01*
X36096367Y24230000D01*
D02*
G37*
%LPC*%
G36*
X35480000Y24230000D02*
X35163633Y24230000D01*
X35177089Y24267605D01*
X35197655Y24311089D01*
X35222394Y24352362D01*
X35251043Y24390992D01*
X35283355Y24426645D01*
X35319008Y24458957D01*
X35357638Y24487606D01*
X35398911Y24512345D01*
X35442395Y24532911D01*
X35480000Y24546367D01*
X35480000Y24230000D01*
D02*
G37*
%LPC*%
G36*
X37345000Y23635000D02*
X36455000Y23635000D01*
X36455000Y24525000D01*
X37345000Y24525000D01*
X37345000Y23635000D01*
D02*
G37*
%LPC*%
G36*
X35780000Y23613633D02*
X35780000Y23930000D01*
X36096367Y23930000D01*
X36082911Y23892395D01*
X36062345Y23848911D01*
X36037606Y23807638D01*
X36008957Y23769008D01*
X35976645Y23733355D01*
X35940992Y23701043D01*
X35902362Y23672394D01*
X35861089Y23647655D01*
X35817605Y23627089D01*
X35780000Y23613633D01*
D02*
G37*
%LPC*%
G36*
X35480000Y23613633D02*
X35442395Y23627089D01*
X35398911Y23647655D01*
X35357638Y23672394D01*
X35319008Y23701043D01*
X35283355Y23733355D01*
X35251043Y23769008D01*
X35222394Y23807638D01*
X35197655Y23848911D01*
X35177089Y23892395D01*
X35163633Y23930000D01*
X35480000Y23930000D01*
X35480000Y23613633D01*
D02*
G37*
%LPC*%
G36*
X9700000Y22890000D02*
X7760000Y22890000D01*
X7760000Y23880000D01*
X9700000Y23880000D01*
X9700000Y22890000D01*
D02*
G37*
%LPC*%
G36*
X15035000Y23535000D02*
X14220000Y23535000D01*
X14220000Y23875000D01*
X15035000Y23875000D01*
X15035000Y23535000D01*
D02*
G37*
%LPC*%
G36*
X13920000Y23535000D02*
X13105000Y23535000D01*
X13105000Y23875000D01*
X13920000Y23875000D01*
X13920000Y23535000D01*
D02*
G37*
%LPC*%
G36*
X22319998Y23315000D02*
X21829998Y23315000D01*
X21829998Y23855000D01*
X22319998Y23855000D01*
X22319998Y23315000D01*
D02*
G37*
%LPC*%
G36*
X21529998Y23315000D02*
X21039998Y23315000D01*
X21039998Y23855000D01*
X21529998Y23855000D01*
X21529998Y23315000D01*
D02*
G37*
%LPC*%
G36*
X4180000Y23205000D02*
X3640000Y23205000D01*
X3640000Y23695000D01*
X4180000Y23695000D01*
X4180000Y23205000D01*
D02*
G37*
%LPC*%
G36*
X3340000Y23205000D02*
X2800000Y23205000D01*
X2800000Y23695000D01*
X3340000Y23695000D01*
X3340000Y23205000D01*
D02*
G37*
%LPC*%
G36*
X60550000Y22450000D02*
X59260000Y22450000D01*
X59260000Y23290000D01*
X60550000Y23290000D01*
X60550000Y22450000D01*
D02*
G37*
%LPC*%
G36*
X58960000Y22450000D02*
X57670000Y22450000D01*
X57670000Y23290000D01*
X58960000Y23290000D01*
X58960000Y22450000D01*
D02*
G37*
%LPC*%
G36*
X15035000Y22895000D02*
X14220000Y22895000D01*
X14220000Y23235000D01*
X15035000Y23235000D01*
X15035000Y22895000D01*
D02*
G37*
%LPC*%
G36*
X13920000Y22895000D02*
X13105000Y22895000D01*
X13105000Y23235000D01*
X13920000Y23235000D01*
X13920000Y22895000D01*
D02*
G37*
%LPC*%
G36*
X4180000Y22415000D02*
X3640000Y22415000D01*
X3640000Y22905000D01*
X4180000Y22905000D01*
X4180000Y22415000D01*
D02*
G37*
%LPC*%
G36*
X3340000Y22415000D02*
X2800000Y22415000D01*
X2800000Y22905000D01*
X3340000Y22905000D01*
X3340000Y22415000D01*
D02*
G37*
%LPC*%
G36*
X49695000Y20745000D02*
X47915000Y20745000D01*
X47915000Y21045000D01*
X46095000Y21045000D01*
X46095000Y20845000D01*
X44285000Y20845000D01*
X44285000Y22900000D01*
X49695000Y22900000D01*
X49695000Y20745000D01*
D02*
G37*
%LPD*%
G36*
X49440000Y21000000D02*
X49440000Y22645000D01*
X44540000Y22645000D01*
X44540000Y21100000D01*
X45840000Y21100000D01*
X45840000Y21300000D01*
X48170000Y21300000D01*
X48170000Y21000000D01*
X49440000Y21000000D01*
D02*
G37*
%LPC*%
G36*
X22075000Y19550000D02*
X21085000Y19550000D01*
X21085000Y19640000D01*
X20275000Y19640000D01*
X20275000Y19555000D01*
X18785000Y19555000D01*
X18785000Y21745000D01*
X20275000Y21745000D01*
X20275000Y20650000D01*
X21075000Y20650000D01*
X21075000Y22085066D01*
X21085000Y22186608D01*
X21085000Y22670000D01*
X22075000Y22670000D01*
X22075000Y22186590D01*
X22085000Y22085075D01*
X22085000Y20134925D01*
X22075000Y20033410D01*
X22075000Y19550000D01*
D02*
G37*
%LPC*%
G36*
X9700000Y21620000D02*
X7760000Y21620000D01*
X7760000Y22610000D01*
X9700000Y22610000D01*
X9700000Y21620000D01*
D02*
G37*
%LPC*%
G36*
X7010000Y21805000D02*
X6070000Y21805000D01*
X6070000Y22395000D01*
X7010000Y22395000D01*
X7010000Y21805000D01*
D02*
G37*
%LPC*%
G36*
X5770000Y21805000D02*
X4830000Y21805000D01*
X4830000Y22395000D01*
X5770000Y22395000D01*
X5770000Y21805000D01*
D02*
G37*
%LPC*%
G36*
X60550000Y21310000D02*
X59260000Y21310000D01*
X59260000Y22150000D01*
X60550000Y22150000D01*
X60550000Y21310000D01*
D02*
G37*
%LPC*%
G36*
X58960000Y21310000D02*
X57670000Y21310000D01*
X57670000Y22150000D01*
X58960000Y22150000D01*
X58960000Y21310000D01*
D02*
G37*
%LPC*%
G36*
X26769998Y21155000D02*
X25829998Y21155000D01*
X25829998Y21745000D01*
X26769998Y21745000D01*
X26769998Y21155000D01*
D02*
G37*
%LPC*%
G36*
X25529998Y21155000D02*
X24589998Y21155000D01*
X24589998Y21745000D01*
X25529998Y21745000D01*
X25529998Y21155000D01*
D02*
G37*
%LPC*%
G36*
X7010000Y20915000D02*
X6070000Y20915000D01*
X6070000Y21505000D01*
X7010000Y21505000D01*
X7010000Y20915000D01*
D02*
G37*
%LPC*%
G36*
X5770000Y20915000D02*
X4830000Y20915000D01*
X4830000Y21505000D01*
X5770000Y21505000D01*
X5770000Y20915000D01*
D02*
G37*
%LPC*%
G36*
X8730000Y16449752D02*
X8660883Y16453148D01*
X8592405Y16463307D01*
X8525284Y16480118D01*
X8460114Y16503438D01*
X8397551Y16533027D01*
X8338179Y16568614D01*
X8282599Y16609834D01*
X8231315Y16656315D01*
X8184834Y16707599D01*
X8143614Y16763179D01*
X8108027Y16822551D01*
X8078438Y16885114D01*
X8055118Y16950284D01*
X8038307Y17017405D01*
X8028148Y17085883D01*
X8024752Y17155000D01*
X8028148Y17224117D01*
X8038307Y17292595D01*
X8055118Y17359716D01*
X8078438Y17424886D01*
X8108027Y17487449D01*
X8143614Y17546821D01*
X8184834Y17602401D01*
X8235000Y17657751D01*
X8235000Y18060000D01*
X8085000Y18060000D01*
X8085000Y19450000D01*
X8235000Y19450000D01*
X8235000Y20350000D01*
X7760000Y20350000D01*
X7760000Y21340000D01*
X15040000Y21340000D01*
X15040000Y20350000D01*
X9225000Y20350000D01*
X9225000Y19450000D01*
X9375000Y19450000D01*
X9375000Y18060000D01*
X9225000Y18060000D01*
X9225000Y17657751D01*
X9275166Y17602401D01*
X9316386Y17546821D01*
X9351973Y17487449D01*
X9381562Y17424886D01*
X9404882Y17359716D01*
X9421693Y17292595D01*
X9431852Y17224117D01*
X9435248Y17155000D01*
X9431852Y17085883D01*
X9421693Y17017405D01*
X9404882Y16950284D01*
X9381562Y16885114D01*
X9351973Y16822551D01*
X9316386Y16763179D01*
X9275166Y16707599D01*
X9228685Y16656315D01*
X9177401Y16609834D01*
X9121821Y16568614D01*
X9062449Y16533027D01*
X8999886Y16503438D01*
X8934716Y16480118D01*
X8867595Y16463307D01*
X8799117Y16453148D01*
X8730000Y16449752D01*
D02*
G37*
%LPC*%
G36*
X26769998Y20265000D02*
X25829998Y20265000D01*
X25829998Y20855000D01*
X26769998Y20855000D01*
X26769998Y20265000D01*
D02*
G37*
%LPC*%
G36*
X25529998Y20265000D02*
X24589998Y20265000D01*
X24589998Y20855000D01*
X25529998Y20855000D01*
X25529998Y20265000D01*
D02*
G37*
%LPC*%
G36*
X53360000Y20350000D02*
X52820000Y20350000D01*
X52820000Y20840000D01*
X53360000Y20840000D01*
X53360000Y20350000D01*
D02*
G37*
%LPC*%
G36*
X52520000Y20350000D02*
X51980000Y20350000D01*
X51980000Y20840000D01*
X52520000Y20840000D01*
X52520000Y20350000D01*
D02*
G37*
%LPC*%
G36*
X47690000Y20350000D02*
X47150000Y20350000D01*
X47150000Y20840000D01*
X47690000Y20840000D01*
X47690000Y20350000D01*
D02*
G37*
%LPC*%
G36*
X46850000Y20350000D02*
X46310000Y20350000D01*
X46310000Y20840000D01*
X46850000Y20840000D01*
X46850000Y20350000D01*
D02*
G37*
%LPC*%
G36*
X23279998Y17939752D02*
X23210881Y17943148D01*
X23142403Y17953307D01*
X23075282Y17970118D01*
X23010112Y17993438D01*
X22947549Y18023027D01*
X22888177Y18058614D01*
X22832597Y18099834D01*
X22781313Y18146315D01*
X22734832Y18197599D01*
X22693612Y18253179D01*
X22658025Y18312551D01*
X22628436Y18375114D01*
X22605116Y18440284D01*
X22588305Y18507405D01*
X22578146Y18575883D01*
X22574750Y18645000D01*
X22578146Y18714117D01*
X22588305Y18782595D01*
X22605116Y18849716D01*
X22628436Y18914886D01*
X22658025Y18977449D01*
X22693612Y19036821D01*
X22734832Y19092401D01*
X22784998Y19147751D01*
X22784998Y20740000D01*
X23774998Y20740000D01*
X23774998Y19147751D01*
X23825164Y19092401D01*
X23866384Y19036821D01*
X23901971Y18977449D01*
X23931560Y18914886D01*
X23954880Y18849716D01*
X23971691Y18782595D01*
X23981850Y18714117D01*
X23985246Y18645000D01*
X23981850Y18575883D01*
X23971691Y18507405D01*
X23954880Y18440284D01*
X23931560Y18375114D01*
X23901971Y18312551D01*
X23866384Y18253179D01*
X23825164Y18197599D01*
X23778683Y18146315D01*
X23727399Y18099834D01*
X23671819Y18058614D01*
X23612447Y18023027D01*
X23549884Y17993438D01*
X23484714Y17970118D01*
X23417593Y17953307D01*
X23349115Y17943148D01*
X23279998Y17939752D01*
D02*
G37*
%LPC*%
G36*
X50480000Y19750000D02*
X49990000Y19750000D01*
X49990000Y20290000D01*
X50480000Y20290000D01*
X50480000Y19750000D01*
D02*
G37*
%LPC*%
G36*
X49690000Y19750000D02*
X49200000Y19750000D01*
X49200000Y20290000D01*
X49690000Y20290000D01*
X49690000Y19750000D01*
D02*
G37*
%LPC*%
G36*
X53360000Y19560000D02*
X52820000Y19560000D01*
X52820000Y20050000D01*
X53360000Y20050000D01*
X53360000Y19560000D01*
D02*
G37*
%LPC*%
G36*
X52520000Y19560000D02*
X51980000Y19560000D01*
X51980000Y20050000D01*
X52520000Y20050000D01*
X52520000Y19560000D01*
D02*
G37*
%LPC*%
G36*
X47690000Y19560000D02*
X47150000Y19560000D01*
X47150000Y20050000D01*
X47690000Y20050000D01*
X47690000Y19560000D01*
D02*
G37*
%LPC*%
G36*
X46850000Y19560000D02*
X46310000Y19560000D01*
X46310000Y20050000D01*
X46850000Y20050000D01*
X46850000Y19560000D01*
D02*
G37*
%LPC*%
G36*
X50480000Y18910000D02*
X49990000Y18910000D01*
X49990000Y19450000D01*
X50480000Y19450000D01*
X50480000Y18910000D01*
D02*
G37*
%LPC*%
G36*
X49690000Y18910000D02*
X49200000Y18910000D01*
X49200000Y19450000D01*
X49690000Y19450000D01*
X49690000Y18910000D01*
D02*
G37*
%LPC*%
G36*
X10970000Y18905000D02*
X10480000Y18905000D01*
X10480000Y19445000D01*
X10970000Y19445000D01*
X10970000Y18905000D01*
D02*
G37*
%LPC*%
G36*
X10180000Y18905000D02*
X9690000Y18905000D01*
X9690000Y19445000D01*
X10180000Y19445000D01*
X10180000Y18905000D01*
D02*
G37*
%LPC*%
G36*
X10970000Y18065000D02*
X10480000Y18065000D01*
X10480000Y18605000D01*
X10970000Y18605000D01*
X10970000Y18065000D01*
D02*
G37*
%LPC*%
G36*
X10180000Y18065000D02*
X9690000Y18065000D01*
X9690000Y18605000D01*
X10180000Y18605000D01*
X10180000Y18065000D01*
D02*
G37*
%LPC*%
G36*
X44280000Y15679765D02*
X44148141Y15686244D01*
X44017555Y15705614D01*
X43889496Y15737691D01*
X43765204Y15782164D01*
X43645862Y15838608D01*
X43532631Y15906476D01*
X43426590Y15985121D01*
X43328776Y16073776D01*
X43240121Y16171590D01*
X43161476Y16277631D01*
X43093608Y16390862D01*
X43037164Y16510204D01*
X42992691Y16634496D01*
X42960614Y16762555D01*
X42941244Y16893141D01*
X42934765Y17025000D01*
X42941244Y17156859D01*
X42960614Y17287445D01*
X42992691Y17415504D01*
X43037164Y17539796D01*
X43093608Y17659138D01*
X43161476Y17772369D01*
X43240121Y17878410D01*
X43328776Y17976224D01*
X43426590Y18064879D01*
X43532631Y18143524D01*
X43645862Y18211392D01*
X43765204Y18267836D01*
X43889496Y18312309D01*
X44017555Y18344386D01*
X44148141Y18363756D01*
X44280000Y18370235D01*
X44411859Y18363756D01*
X44542445Y18344386D01*
X44670504Y18312309D01*
X44794796Y18267836D01*
X44914138Y18211392D01*
X45027369Y18143524D01*
X45133410Y18064879D01*
X45231224Y17976224D01*
X45319879Y17878410D01*
X45398524Y17772369D01*
X45466392Y17659138D01*
X45522836Y17539796D01*
X45567309Y17415504D01*
X45599386Y17287445D01*
X45618756Y17156859D01*
X45625235Y17025000D01*
X45618756Y16893141D01*
X45599386Y16762555D01*
X45567309Y16634496D01*
X45522836Y16510204D01*
X45466392Y16390862D01*
X45398524Y16277631D01*
X45319879Y16171590D01*
X45231224Y16073776D01*
X45133410Y15985121D01*
X45027369Y15906476D01*
X44914138Y15838608D01*
X44794796Y15782164D01*
X44670504Y15737691D01*
X44542445Y15705614D01*
X44411859Y15686244D01*
X44280000Y15679765D01*
D02*
G37*
%LPC*%
G36*
X55700000Y15679765D02*
X55568141Y15686244D01*
X55437555Y15705614D01*
X55309496Y15737691D01*
X55185204Y15782164D01*
X55065862Y15838608D01*
X54952631Y15906476D01*
X54846590Y15985121D01*
X54748776Y16073776D01*
X54660121Y16171590D01*
X54581476Y16277631D01*
X54513608Y16390862D01*
X54457164Y16510204D01*
X54412691Y16634496D01*
X54380614Y16762555D01*
X54361244Y16893141D01*
X54354765Y17025000D01*
X54361244Y17156859D01*
X54380614Y17287445D01*
X54412691Y17415504D01*
X54457164Y17539796D01*
X54513608Y17659138D01*
X54581476Y17772369D01*
X54660121Y17878410D01*
X54748776Y17976224D01*
X54846590Y18064879D01*
X54952631Y18143524D01*
X55065862Y18211392D01*
X55185204Y18267836D01*
X55309496Y18312309D01*
X55437555Y18344386D01*
X55568141Y18363756D01*
X55700000Y18370235D01*
X55831859Y18363756D01*
X55962445Y18344386D01*
X56090504Y18312309D01*
X56214796Y18267836D01*
X56334138Y18211392D01*
X56447369Y18143524D01*
X56553410Y18064879D01*
X56651224Y17976224D01*
X56739879Y17878410D01*
X56818524Y17772369D01*
X56886392Y17659138D01*
X56942836Y17539796D01*
X56987309Y17415504D01*
X57019386Y17287445D01*
X57038756Y17156859D01*
X57045235Y17025000D01*
X57038756Y16893141D01*
X57019386Y16762555D01*
X56987309Y16634496D01*
X56942836Y16510204D01*
X56886392Y16390862D01*
X56818524Y16277631D01*
X56739879Y16171590D01*
X56651224Y16073776D01*
X56553410Y15985121D01*
X56447369Y15906476D01*
X56334138Y15838608D01*
X56214796Y15782164D01*
X56090504Y15737691D01*
X55962445Y15705614D01*
X55831859Y15686244D01*
X55700000Y15679765D01*
D02*
G37*
%LPC*%
G36*
X15700000Y15679765D02*
X15568141Y15686244D01*
X15437555Y15705614D01*
X15309496Y15737691D01*
X15185204Y15782164D01*
X15065862Y15838608D01*
X14952631Y15906476D01*
X14846590Y15985121D01*
X14748776Y16073776D01*
X14660121Y16171590D01*
X14581476Y16277631D01*
X14513608Y16390862D01*
X14457164Y16510204D01*
X14412691Y16634496D01*
X14380614Y16762555D01*
X14361244Y16893141D01*
X14354765Y17025000D01*
X14361244Y17156859D01*
X14380614Y17287445D01*
X14412691Y17415504D01*
X14457164Y17539796D01*
X14513608Y17659138D01*
X14581476Y17772369D01*
X14660121Y17878410D01*
X14748776Y17976224D01*
X14846590Y18064879D01*
X14952631Y18143524D01*
X15065862Y18211392D01*
X15185204Y18267836D01*
X15309496Y18312309D01*
X15437555Y18344386D01*
X15568141Y18363756D01*
X15700000Y18370235D01*
X15831859Y18363756D01*
X15962445Y18344386D01*
X16090504Y18312309D01*
X16214796Y18267836D01*
X16334138Y18211392D01*
X16447369Y18143524D01*
X16553410Y18064879D01*
X16651224Y17976224D01*
X16739879Y17878410D01*
X16818524Y17772369D01*
X16886392Y17659138D01*
X16942836Y17539796D01*
X16987309Y17415504D01*
X17019386Y17287445D01*
X17038756Y17156859D01*
X17045235Y17025000D01*
X17038756Y16893141D01*
X17019386Y16762555D01*
X16987309Y16634496D01*
X16942836Y16510204D01*
X16886392Y16390862D01*
X16818524Y16277631D01*
X16739879Y16171590D01*
X16651224Y16073776D01*
X16553410Y15985121D01*
X16447369Y15906476D01*
X16334138Y15838608D01*
X16214796Y15782164D01*
X16090504Y15737691D01*
X15962445Y15705614D01*
X15831859Y15686244D01*
X15700000Y15679765D01*
D02*
G37*
%LPC*%
G36*
X4280000Y15679765D02*
X4148141Y15686244D01*
X4017555Y15705614D01*
X3889496Y15737691D01*
X3765204Y15782164D01*
X3645862Y15838608D01*
X3532631Y15906476D01*
X3426590Y15985121D01*
X3328776Y16073776D01*
X3240121Y16171590D01*
X3161476Y16277631D01*
X3093608Y16390862D01*
X3037164Y16510204D01*
X2992691Y16634496D01*
X2960614Y16762555D01*
X2941244Y16893141D01*
X2934765Y17025000D01*
X2941244Y17156859D01*
X2960614Y17287445D01*
X2992691Y17415504D01*
X3037164Y17539796D01*
X3093608Y17659138D01*
X3161476Y17772369D01*
X3240121Y17878410D01*
X3328776Y17976224D01*
X3426590Y18064879D01*
X3532631Y18143524D01*
X3645862Y18211392D01*
X3765204Y18267836D01*
X3889496Y18312309D01*
X4017555Y18344386D01*
X4148141Y18363756D01*
X4280000Y18370235D01*
X4411859Y18363756D01*
X4542445Y18344386D01*
X4670504Y18312309D01*
X4794796Y18267836D01*
X4914138Y18211392D01*
X5027369Y18143524D01*
X5133410Y18064879D01*
X5231224Y17976224D01*
X5319879Y17878410D01*
X5398524Y17772369D01*
X5466392Y17659138D01*
X5522836Y17539796D01*
X5567309Y17415504D01*
X5599386Y17287445D01*
X5618756Y17156859D01*
X5625235Y17025000D01*
X5618756Y16893141D01*
X5599386Y16762555D01*
X5567309Y16634496D01*
X5522836Y16510204D01*
X5466392Y16390862D01*
X5398524Y16277631D01*
X5319879Y16171590D01*
X5231224Y16073776D01*
X5133410Y15985121D01*
X5027369Y15906476D01*
X4914138Y15838608D01*
X4794796Y15782164D01*
X4670504Y15737691D01*
X4542445Y15705614D01*
X4411859Y15686244D01*
X4280000Y15679765D01*
D02*
G37*
%LPC*%
G36*
X36705000Y10545000D02*
X29245000Y10545000D01*
X29245000Y13040844D01*
X18445000Y13040844D01*
X18445000Y15655000D01*
X30595000Y15655000D01*
X30595000Y13295000D01*
X31745000Y13295000D01*
X31745000Y16255000D01*
X36705000Y16255000D01*
X36705000Y10545000D01*
D02*
G37*
%LPD*%
G36*
X36450000Y10800000D02*
X36450000Y16000000D01*
X32000000Y16000000D01*
X32000000Y13040000D01*
X29500000Y13040000D01*
X29500000Y10800000D01*
X36450000Y10800000D01*
D02*
G37*
%LPD*%
G36*
X30340000Y13295844D02*
X30340000Y15400000D01*
X18700000Y15400000D01*
X18700000Y13295844D01*
X30340000Y13295844D01*
D02*
G37*
%LPC*%
G36*
X41140000Y12252922D02*
X39500000Y12252922D01*
X39500000Y13092922D01*
X41140000Y13092922D01*
X41140000Y12252922D01*
D02*
G37*
%LPC*%
G36*
X39200000Y12252922D02*
X37560000Y12252922D01*
X37560000Y13092922D01*
X39200000Y13092922D01*
X39200000Y12252922D01*
D02*
G37*
%LPC*%
G36*
X28995000Y8307922D02*
X27705000Y8307922D01*
X27705000Y9697922D01*
X27845000Y9697922D01*
X27845000Y11407922D01*
X27705000Y11407922D01*
X27705000Y12797922D01*
X28995000Y12797922D01*
X28995000Y11407922D01*
X28855000Y11407922D01*
X28855000Y9697922D01*
X28995000Y9697922D01*
X28995000Y8307922D01*
D02*
G37*
%LPC*%
G36*
X25155000Y4335000D02*
X21145000Y4335000D01*
X21145000Y9255000D01*
X22545000Y9255000D01*
X22545000Y12655000D01*
X26495000Y12655000D01*
X26495000Y6745000D01*
X25155000Y6745000D01*
X25155000Y4335000D01*
D02*
G37*
%LPD*%
G36*
X24900000Y4590000D02*
X24900000Y7000000D01*
X26240000Y7000000D01*
X26240000Y12400000D01*
X22800000Y12400000D01*
X22800000Y9000000D01*
X21400000Y9000000D01*
X21400000Y4590000D01*
X24900000Y4590000D01*
D02*
G37*
%LPC*%
G36*
X4280000Y9329765D02*
X4148141Y9336244D01*
X4017555Y9355614D01*
X3889496Y9387691D01*
X3765204Y9432164D01*
X3645862Y9488608D01*
X3532631Y9556476D01*
X3426590Y9635121D01*
X3328776Y9723776D01*
X3240121Y9821590D01*
X3161476Y9927631D01*
X3093608Y10040862D01*
X3037164Y10160204D01*
X2992691Y10284496D01*
X2960614Y10412555D01*
X2941244Y10543141D01*
X2934765Y10675000D01*
X2941244Y10806859D01*
X2960614Y10937445D01*
X2992691Y11065504D01*
X3037164Y11189796D01*
X3093608Y11309138D01*
X3161476Y11422369D01*
X3240121Y11528410D01*
X3328776Y11626224D01*
X3426590Y11714879D01*
X3532631Y11793524D01*
X3645862Y11861392D01*
X3765204Y11917836D01*
X3889496Y11962309D01*
X4017555Y11994386D01*
X4148141Y12013756D01*
X4280000Y12020235D01*
X4411859Y12013756D01*
X4542445Y11994386D01*
X4670504Y11962309D01*
X4794796Y11917836D01*
X4914138Y11861392D01*
X5027369Y11793524D01*
X5133410Y11714879D01*
X5231224Y11626224D01*
X5319879Y11528410D01*
X5398524Y11422369D01*
X5466392Y11309138D01*
X5522836Y11189796D01*
X5567309Y11065504D01*
X5599386Y10937445D01*
X5618756Y10806859D01*
X5625235Y10675000D01*
X5618756Y10543141D01*
X5599386Y10412555D01*
X5567309Y10284496D01*
X5522836Y10160204D01*
X5466392Y10040862D01*
X5398524Y9927631D01*
X5319879Y9821590D01*
X5231224Y9723776D01*
X5133410Y9635121D01*
X5027369Y9556476D01*
X4914138Y9488608D01*
X4794796Y9432164D01*
X4670504Y9387691D01*
X4542445Y9355614D01*
X4411859Y9336244D01*
X4280000Y9329765D01*
D02*
G37*
%LPC*%
G36*
X15700000Y9329765D02*
X15568141Y9336244D01*
X15437555Y9355614D01*
X15309496Y9387691D01*
X15185204Y9432164D01*
X15065862Y9488608D01*
X14952631Y9556476D01*
X14846590Y9635121D01*
X14748776Y9723776D01*
X14660121Y9821590D01*
X14581476Y9927631D01*
X14513608Y10040862D01*
X14457164Y10160204D01*
X14412691Y10284496D01*
X14380614Y10412555D01*
X14361244Y10543141D01*
X14354765Y10675000D01*
X14361244Y10806859D01*
X14380614Y10937445D01*
X14412691Y11065504D01*
X14457164Y11189796D01*
X14513608Y11309138D01*
X14581476Y11422369D01*
X14660121Y11528410D01*
X14748776Y11626224D01*
X14846590Y11714879D01*
X14952631Y11793524D01*
X15065862Y11861392D01*
X15185204Y11917836D01*
X15309496Y11962309D01*
X15437555Y11994386D01*
X15568141Y12013756D01*
X15700000Y12020235D01*
X15831859Y12013756D01*
X15962445Y11994386D01*
X16090504Y11962309D01*
X16214796Y11917836D01*
X16334138Y11861392D01*
X16447369Y11793524D01*
X16553410Y11714879D01*
X16651224Y11626224D01*
X16739879Y11528410D01*
X16818524Y11422369D01*
X16886392Y11309138D01*
X16942836Y11189796D01*
X16987309Y11065504D01*
X17019386Y10937445D01*
X17038756Y10806859D01*
X17045235Y10675000D01*
X17038756Y10543141D01*
X17019386Y10412555D01*
X16987309Y10284496D01*
X16942836Y10160204D01*
X16886392Y10040862D01*
X16818524Y9927631D01*
X16739879Y9821590D01*
X16651224Y9723776D01*
X16553410Y9635121D01*
X16447369Y9556476D01*
X16334138Y9488608D01*
X16214796Y9432164D01*
X16090504Y9387691D01*
X15962445Y9355614D01*
X15831859Y9336244D01*
X15700000Y9329765D01*
D02*
G37*
%LPC*%
G36*
X44280000Y9329765D02*
X44148141Y9336244D01*
X44017555Y9355614D01*
X43889496Y9387691D01*
X43765204Y9432164D01*
X43645862Y9488608D01*
X43532631Y9556476D01*
X43426590Y9635121D01*
X43328776Y9723776D01*
X43240121Y9821590D01*
X43161476Y9927631D01*
X43093608Y10040862D01*
X43037164Y10160204D01*
X42992691Y10284496D01*
X42960614Y10412555D01*
X42941244Y10543141D01*
X42934765Y10675000D01*
X42941244Y10806859D01*
X42960614Y10937445D01*
X42992691Y11065504D01*
X43037164Y11189796D01*
X43093608Y11309138D01*
X43161476Y11422369D01*
X43240121Y11528410D01*
X43328776Y11626224D01*
X43426590Y11714879D01*
X43532631Y11793524D01*
X43645862Y11861392D01*
X43765204Y11917836D01*
X43889496Y11962309D01*
X44017555Y11994386D01*
X44148141Y12013756D01*
X44280000Y12020235D01*
X44411859Y12013756D01*
X44542445Y11994386D01*
X44670504Y11962309D01*
X44794796Y11917836D01*
X44914138Y11861392D01*
X45027369Y11793524D01*
X45133410Y11714879D01*
X45231224Y11626224D01*
X45319879Y11528410D01*
X45398524Y11422369D01*
X45466392Y11309138D01*
X45522836Y11189796D01*
X45567309Y11065504D01*
X45599386Y10937445D01*
X45618756Y10806859D01*
X45625235Y10675000D01*
X45618756Y10543141D01*
X45599386Y10412555D01*
X45567309Y10284496D01*
X45522836Y10160204D01*
X45466392Y10040862D01*
X45398524Y9927631D01*
X45319879Y9821590D01*
X45231224Y9723776D01*
X45133410Y9635121D01*
X45027369Y9556476D01*
X44914138Y9488608D01*
X44794796Y9432164D01*
X44670504Y9387691D01*
X44542445Y9355614D01*
X44411859Y9336244D01*
X44280000Y9329765D01*
D02*
G37*
%LPC*%
G36*
X55700000Y9329765D02*
X55568141Y9336244D01*
X55437555Y9355614D01*
X55309496Y9387691D01*
X55185204Y9432164D01*
X55065862Y9488608D01*
X54952631Y9556476D01*
X54846590Y9635121D01*
X54748776Y9723776D01*
X54660121Y9821590D01*
X54581476Y9927631D01*
X54513608Y10040862D01*
X54457164Y10160204D01*
X54412691Y10284496D01*
X54380614Y10412555D01*
X54361244Y10543141D01*
X54354765Y10675000D01*
X54361244Y10806859D01*
X54380614Y10937445D01*
X54412691Y11065504D01*
X54457164Y11189796D01*
X54513608Y11309138D01*
X54581476Y11422369D01*
X54660121Y11528410D01*
X54748776Y11626224D01*
X54846590Y11714879D01*
X54952631Y11793524D01*
X55065862Y11861392D01*
X55185204Y11917836D01*
X55309496Y11962309D01*
X55437555Y11994386D01*
X55568141Y12013756D01*
X55700000Y12020235D01*
X55831859Y12013756D01*
X55962445Y11994386D01*
X56090504Y11962309D01*
X56214796Y11917836D01*
X56334138Y11861392D01*
X56447369Y11793524D01*
X56553410Y11714879D01*
X56651224Y11626224D01*
X56739879Y11528410D01*
X56818524Y11422369D01*
X56886392Y11309138D01*
X56942836Y11189796D01*
X56987309Y11065504D01*
X57019386Y10937445D01*
X57038756Y10806859D01*
X57045235Y10675000D01*
X57038756Y10543141D01*
X57019386Y10412555D01*
X56987309Y10284496D01*
X56942836Y10160204D01*
X56886392Y10040862D01*
X56818524Y9927631D01*
X56739879Y9821590D01*
X56651224Y9723776D01*
X56553410Y9635121D01*
X56447369Y9556476D01*
X56334138Y9488608D01*
X56214796Y9432164D01*
X56090504Y9387691D01*
X55962445Y9355614D01*
X55831859Y9336244D01*
X55700000Y9329765D01*
D02*
G37*
%LPC*%
G36*
X39200000Y11112922D02*
X37560000Y11112922D01*
X37560000Y11952922D01*
X39200000Y11952922D01*
X39200000Y11112922D01*
D02*
G37*
%LPC*%
G36*
X41140000Y11112922D02*
X39500000Y11112922D01*
X39500000Y11952922D01*
X41140000Y11952922D01*
X41140000Y11112922D01*
D02*
G37*
%LPC*%
G36*
X20790000Y11117954D02*
X20100000Y11117954D01*
X20100000Y11657954D01*
X20790000Y11657954D01*
X20790000Y11117954D01*
D02*
G37*
%LPC*%
G36*
X19800000Y11117954D02*
X19110000Y11117954D01*
X19110000Y11657954D01*
X19800000Y11657954D01*
X19800000Y11117954D01*
D02*
G37*
%LPC*%
G36*
X20790000Y10277954D02*
X20100000Y10277954D01*
X20100000Y10817954D01*
X20790000Y10817954D01*
X20790000Y10277954D01*
D02*
G37*
%LPC*%
G36*
X19800000Y10277954D02*
X19110000Y10277954D01*
X19110000Y10817954D01*
X19800000Y10817954D01*
X19800000Y10277954D01*
D02*
G37*
%LPC*%
G36*
X30590000Y9152922D02*
X30100000Y9152922D01*
X30100000Y9692922D01*
X30590000Y9692922D01*
X30590000Y9152922D01*
D02*
G37*
%LPC*%
G36*
X29800000Y9152922D02*
X29310000Y9152922D01*
X29310000Y9692922D01*
X29800000Y9692922D01*
X29800000Y9152922D01*
D02*
G37*
%LPC*%
G36*
X29800000Y8312922D02*
X29310000Y8312922D01*
X29310000Y8852922D01*
X29800000Y8852922D01*
X29800000Y8312922D01*
D02*
G37*
%LPC*%
G36*
X30590000Y8312922D02*
X30100000Y8312922D01*
X30100000Y8852922D01*
X30590000Y8852922D01*
X30590000Y8312922D01*
D02*
G37*
%LPC*%
G36*
X55700000Y2979765D02*
X55568141Y2986244D01*
X55437555Y3005614D01*
X55309496Y3037691D01*
X55185204Y3082164D01*
X55065862Y3138608D01*
X54952631Y3206476D01*
X54846590Y3285121D01*
X54748776Y3373776D01*
X54660121Y3471590D01*
X54581476Y3577631D01*
X54513608Y3690862D01*
X54457164Y3810204D01*
X54412691Y3934496D01*
X54380614Y4062555D01*
X54361244Y4193141D01*
X54354765Y4325000D01*
X54361244Y4456859D01*
X54380614Y4587445D01*
X54412691Y4715504D01*
X54457164Y4839796D01*
X54513608Y4959138D01*
X54581476Y5072369D01*
X54660121Y5178410D01*
X54748776Y5276224D01*
X54846590Y5364879D01*
X54952631Y5443524D01*
X55065862Y5511392D01*
X55185204Y5567836D01*
X55309496Y5612309D01*
X55437555Y5644386D01*
X55568141Y5663756D01*
X55700000Y5670235D01*
X55831859Y5663756D01*
X55962445Y5644386D01*
X56090504Y5612309D01*
X56214796Y5567836D01*
X56334138Y5511392D01*
X56447369Y5443524D01*
X56553410Y5364879D01*
X56651224Y5276224D01*
X56739879Y5178410D01*
X56818524Y5072369D01*
X56886392Y4959138D01*
X56942836Y4839796D01*
X56987309Y4715504D01*
X57019386Y4587445D01*
X57038756Y4456859D01*
X57045235Y4325000D01*
X57038756Y4193141D01*
X57019386Y4062555D01*
X56987309Y3934496D01*
X56942836Y3810204D01*
X56886392Y3690862D01*
X56818524Y3577631D01*
X56739879Y3471590D01*
X56651224Y3373776D01*
X56553410Y3285121D01*
X56447369Y3206476D01*
X56334138Y3138608D01*
X56214796Y3082164D01*
X56090504Y3037691D01*
X55962445Y3005614D01*
X55831859Y2986244D01*
X55700000Y2979765D01*
D02*
G37*
%LPC*%
G36*
X15700000Y2979765D02*
X15568141Y2986244D01*
X15437555Y3005614D01*
X15309496Y3037691D01*
X15185204Y3082164D01*
X15065862Y3138608D01*
X14952631Y3206476D01*
X14846590Y3285121D01*
X14748776Y3373776D01*
X14660121Y3471590D01*
X14581476Y3577631D01*
X14513608Y3690862D01*
X14457164Y3810204D01*
X14412691Y3934496D01*
X14380614Y4062555D01*
X14361244Y4193141D01*
X14354765Y4325000D01*
X14361244Y4456859D01*
X14380614Y4587445D01*
X14412691Y4715504D01*
X14457164Y4839796D01*
X14513608Y4959138D01*
X14581476Y5072369D01*
X14660121Y5178410D01*
X14748776Y5276224D01*
X14846590Y5364879D01*
X14952631Y5443524D01*
X15065862Y5511392D01*
X15185204Y5567836D01*
X15309496Y5612309D01*
X15437555Y5644386D01*
X15568141Y5663756D01*
X15700000Y5670235D01*
X15831859Y5663756D01*
X15962445Y5644386D01*
X16090504Y5612309D01*
X16214796Y5567836D01*
X16334138Y5511392D01*
X16447369Y5443524D01*
X16553410Y5364879D01*
X16651224Y5276224D01*
X16739879Y5178410D01*
X16818524Y5072369D01*
X16886392Y4959138D01*
X16942836Y4839796D01*
X16987309Y4715504D01*
X17019386Y4587445D01*
X17038756Y4456859D01*
X17045235Y4325000D01*
X17038756Y4193141D01*
X17019386Y4062555D01*
X16987309Y3934496D01*
X16942836Y3810204D01*
X16886392Y3690862D01*
X16818524Y3577631D01*
X16739879Y3471590D01*
X16651224Y3373776D01*
X16553410Y3285121D01*
X16447369Y3206476D01*
X16334138Y3138608D01*
X16214796Y3082164D01*
X16090504Y3037691D01*
X15962445Y3005614D01*
X15831859Y2986244D01*
X15700000Y2979765D01*
D02*
G37*
%LPC*%
G36*
X44130000Y4475000D02*
X42948989Y4475000D01*
X42965524Y4586469D01*
X42997482Y4714051D01*
X43041789Y4837881D01*
X43098023Y4956777D01*
X43165642Y5069593D01*
X43243987Y5175231D01*
X43332316Y5272684D01*
X43429769Y5361013D01*
X43535407Y5439358D01*
X43648223Y5506977D01*
X43767119Y5563211D01*
X43890949Y5607518D01*
X44018531Y5639476D01*
X44130000Y5656011D01*
X44130000Y4475000D01*
D02*
G37*
%LPC*%
G36*
X45611011Y4475000D02*
X44430000Y4475000D01*
X44430000Y5656011D01*
X44541469Y5639476D01*
X44669051Y5607518D01*
X44792881Y5563211D01*
X44911777Y5506977D01*
X45024593Y5439358D01*
X45130231Y5361013D01*
X45227684Y5272684D01*
X45316013Y5175231D01*
X45394358Y5069593D01*
X45461977Y4956777D01*
X45518211Y4837881D01*
X45562518Y4714051D01*
X45594476Y4586469D01*
X45611011Y4475000D01*
D02*
G37*
%LPC*%
G36*
X5611011Y4475000D02*
X4430000Y4475000D01*
X4430000Y5656011D01*
X4541469Y5639476D01*
X4669051Y5607518D01*
X4792881Y5563211D01*
X4911777Y5506977D01*
X5024593Y5439358D01*
X5130231Y5361013D01*
X5227684Y5272684D01*
X5316013Y5175231D01*
X5394358Y5069593D01*
X5461977Y4956777D01*
X5518211Y4837881D01*
X5562518Y4714051D01*
X5594476Y4586469D01*
X5611011Y4475000D01*
D02*
G37*
%LPC*%
G36*
X4130000Y4475000D02*
X2948989Y4475000D01*
X2965524Y4586469D01*
X2997482Y4714051D01*
X3041789Y4837881D01*
X3098023Y4956777D01*
X3165642Y5069593D01*
X3243987Y5175231D01*
X3332316Y5272684D01*
X3429769Y5361013D01*
X3535407Y5439358D01*
X3648223Y5506977D01*
X3767119Y5563211D01*
X3890949Y5607518D01*
X4018531Y5639476D01*
X4130000Y5656011D01*
X4130000Y4475000D01*
D02*
G37*
%LPC*%
G36*
X44430000Y2993989D02*
X44430000Y4175000D01*
X45611011Y4175000D01*
X45594476Y4063531D01*
X45562518Y3935949D01*
X45518211Y3812119D01*
X45461977Y3693223D01*
X45394358Y3580407D01*
X45316013Y3474769D01*
X45227684Y3377316D01*
X45130231Y3288987D01*
X45024593Y3210642D01*
X44911777Y3143023D01*
X44792881Y3086789D01*
X44669051Y3042482D01*
X44541469Y3010524D01*
X44430000Y2993989D01*
D02*
G37*
%LPC*%
G36*
X44130000Y2993989D02*
X44018531Y3010524D01*
X43890949Y3042482D01*
X43767119Y3086789D01*
X43648223Y3143023D01*
X43535407Y3210642D01*
X43429769Y3288987D01*
X43332316Y3377316D01*
X43243987Y3474769D01*
X43165642Y3580407D01*
X43098023Y3693223D01*
X43041789Y3812119D01*
X42997482Y3935949D01*
X42965524Y4063531D01*
X42948989Y4175000D01*
X44130000Y4175000D01*
X44130000Y2993989D01*
D02*
G37*
%LPC*%
G36*
X4430000Y2993989D02*
X4430000Y4175000D01*
X5611011Y4175000D01*
X5594476Y4063531D01*
X5562518Y3935949D01*
X5518211Y3812119D01*
X5461977Y3693223D01*
X5394358Y3580407D01*
X5316013Y3474769D01*
X5227684Y3377316D01*
X5130231Y3288987D01*
X5024593Y3210642D01*
X4911777Y3143023D01*
X4792881Y3086789D01*
X4669051Y3042482D01*
X4541469Y3010524D01*
X4430000Y2993989D01*
D02*
G37*
%LPC*%
G36*
X4130000Y2993989D02*
X4018531Y3010524D01*
X3890949Y3042482D01*
X3767119Y3086789D01*
X3648223Y3143023D01*
X3535407Y3210642D01*
X3429769Y3288987D01*
X3332316Y3377316D01*
X3243987Y3474769D01*
X3165642Y3580407D01*
X3098023Y3693223D01*
X3041789Y3812119D01*
X2997482Y3935949D01*
X2965524Y4063531D01*
X2948989Y4175000D01*
X4130000Y4175000D01*
X4130000Y2993989D01*
D02*
G37*
%LPC*%
G36*
X23300263Y3397083D02*
X22573628Y3397083D01*
X22577141Y3420762D01*
X22598366Y3505496D01*
X22627801Y3587763D01*
X22665153Y3666736D01*
X22710063Y3741665D01*
X22762109Y3811841D01*
X22820777Y3876569D01*
X22885505Y3935237D01*
X22955681Y3987283D01*
X23030610Y4032193D01*
X23109583Y4069545D01*
X23191850Y4098980D01*
X23276584Y4120205D01*
X23300263Y4123718D01*
X23300263Y3397083D01*
D02*
G37*
%LPC*%
G36*
X24326898Y3397083D02*
X23600263Y3397083D01*
X23600263Y4123718D01*
X23623942Y4120205D01*
X23708676Y4098980D01*
X23790943Y4069545D01*
X23869916Y4032193D01*
X23944845Y3987283D01*
X24015021Y3935237D01*
X24079749Y3876569D01*
X24138417Y3811841D01*
X24190463Y3741665D01*
X24235373Y3666736D01*
X24272725Y3587763D01*
X24302160Y3505496D01*
X24323385Y3420762D01*
X24326898Y3397083D01*
D02*
G37*
%LPC*%
G36*
X23600263Y2370448D02*
X23600263Y3097083D01*
X24326898Y3097083D01*
X24323385Y3073404D01*
X24302160Y2988670D01*
X24272725Y2906403D01*
X24235373Y2827430D01*
X24190463Y2752501D01*
X24138417Y2682325D01*
X24079749Y2617597D01*
X24015021Y2558929D01*
X23944845Y2506883D01*
X23869916Y2461973D01*
X23790943Y2424621D01*
X23708676Y2395186D01*
X23623942Y2373961D01*
X23600263Y2370448D01*
D02*
G37*
%LPC*%
G36*
X23300263Y2370448D02*
X23276584Y2373961D01*
X23191850Y2395186D01*
X23109583Y2424621D01*
X23030610Y2461973D01*
X22955681Y2506883D01*
X22885505Y2558929D01*
X22820777Y2617597D01*
X22762109Y2682325D01*
X22710063Y2752501D01*
X22665153Y2827430D01*
X22627801Y2906403D01*
X22598366Y2988670D01*
X22577141Y3073404D01*
X22573628Y3097083D01*
X23300263Y3097083D01*
X23300263Y2370448D01*
D02*
G37*
%LPD*%
G01*
%LPD*%
D10*
X16820000Y26775000D02*
X18640000Y26775000D01*
D10*
X18640000Y26775000D02*
X19180000Y26235000D01*
D11*
X41680000Y25335000D02*
X41680000Y27415000D01*
D12*
X50110000Y29600000D02*
X50110000Y32365000D01*
D10*
X19530000Y25885000D02*
X19180000Y26235000D01*
D10*
X52525000Y29700000D02*
X52525000Y26880000D01*
D13*
X36900000Y25350000D02*
X36900000Y25680000D01*
D12*
X59675000Y37320000D02*
X56420000Y37320000D01*
D10*
X47640000Y26060000D02*
X51705000Y26060000D01*
D10*
X14070000Y24655000D02*
X14070000Y25625000D01*
D13*
X50110000Y35140000D02*
X50110000Y35900000D01*
D13*
X41680000Y31225000D02*
X43620000Y31225000D01*
D12*
X50110000Y32365000D02*
X52525000Y34780000D01*
D10*
X25679998Y24005000D02*
X27679998Y24005000D01*
D10*
X41680000Y23720000D02*
X41680000Y25335000D01*
D14*
X12900000Y32300000D02*
X13050000Y32150000D01*
D10*
X47230000Y26470000D02*
X46020000Y26470000D01*
D12*
X22502917Y34232917D02*
X24870000Y36600000D01*
D10*
X14070000Y25625000D02*
X15220000Y26775000D01*
D13*
X41680000Y28685000D02*
X39915000Y28685000D01*
D10*
X3490000Y24655000D02*
X5920000Y24655000D01*
D11*
X10015000Y29235000D02*
X19180000Y29235000D01*
D10*
X51705000Y26060000D02*
X52525000Y26880000D01*
D10*
X16530000Y23580000D02*
X16530000Y22110000D01*
D13*
X45530000Y31535000D02*
X46740000Y32745000D01*
D11*
X8315000Y24655000D02*
X8730000Y24655000D01*
D10*
X59675000Y29700000D02*
X59675000Y26880000D01*
D12*
X46330000Y37830000D02*
X51570000Y37830000D01*
D10*
X23279998Y29235000D02*
X25679998Y29235000D01*
D13*
X38100000Y29110000D02*
X38100000Y26880000D01*
D13*
X45530000Y29605000D02*
X45530000Y28990000D01*
D15*
X56623000Y26880000D02*
X57475000Y26880000D01*
D13*
X28070000Y30820000D02*
X5200000Y30820000D01*
D13*
X37255000Y29955000D02*
X36340000Y29955000D01*
D12*
X24870000Y36600000D02*
X45100000Y36600000D01*
D10*
X27679998Y29235000D02*
X25679998Y29235000D01*
D12*
X50110000Y29600000D02*
X50110000Y27700000D01*
D10*
X20035000Y20145000D02*
X19530000Y20650000D01*
D12*
X59675000Y34780000D02*
X57800000Y34780000D01*
D13*
X41680000Y29955000D02*
X43580000Y29955000D01*
D13*
X30205000Y28685000D02*
X28070000Y30820000D01*
D11*
X23279998Y18645000D02*
X23279998Y20145000D01*
D14*
X29570000Y32150000D02*
X30800000Y30920000D01*
D13*
X38900000Y29700000D02*
X38900000Y31000000D01*
D16*
X59675000Y26880000D02*
X59675000Y25180000D01*
D11*
X16525000Y22115000D02*
X14070000Y22115000D01*
D13*
X44120000Y27580000D02*
X44120000Y27120000D01*
D11*
X8730000Y24655000D02*
X5920000Y24655000D01*
D12*
X52080000Y37320000D02*
X52525000Y37320000D01*
D10*
X23279998Y24005000D02*
X25679998Y24005000D01*
D11*
X10014998Y27313001D02*
X10014998Y29234998D01*
D11*
X8315000Y27313001D02*
X8315000Y24655000D01*
D10*
X28350000Y12102922D02*
X28350000Y9002922D01*
D13*
X43580000Y29955000D02*
X43930000Y29605000D01*
D10*
X47640000Y26060000D02*
X47230000Y26470000D01*
D10*
X16530000Y22110000D02*
X16530000Y20650000D01*
D11*
X36340000Y31225000D02*
X34105000Y31225000D01*
D10*
X56623000Y26880000D02*
X52525000Y26880000D01*
D13*
X47715000Y32745000D02*
X50110000Y35140000D01*
D11*
X8730000Y17155000D02*
X8730000Y18755000D01*
D13*
X5200000Y30820000D02*
X4000000Y29620000D01*
D11*
X8730000Y20845000D02*
X14070000Y20845000D01*
D12*
X22502917Y33858737D02*
X22502917Y34232917D01*
D13*
X45530000Y28990000D02*
X44120000Y27580000D01*
D10*
X21580000Y29235000D02*
X19180000Y29235000D01*
D11*
X8730000Y20845000D02*
X8730000Y18755000D01*
D13*
X43620000Y31225000D02*
X43930000Y31535000D01*
D13*
X36502917Y33397083D02*
X36502917Y33858737D01*
D12*
X52525000Y32240000D02*
X59675000Y32240000D01*
D13*
X38100000Y29110000D02*
X37255000Y29955000D01*
D12*
X45100000Y36600000D02*
X46330000Y37830000D01*
D13*
X36340000Y28685000D02*
X30205000Y28685000D01*
D13*
X46740000Y32745000D02*
X47715000Y32745000D01*
D13*
X39915000Y28685000D02*
X38900000Y29700000D01*
D14*
X13050000Y32150000D02*
X29570000Y32150000D01*
D13*
X38100000Y26880000D02*
X36900000Y25680000D01*
D11*
X10014998Y29234998D02*
X10015000Y29235000D01*
D14*
X12900000Y32300000D02*
X10360000Y34840000D01*
D11*
X34105000Y31225000D02*
X33800000Y30920000D01*
D11*
X16530000Y22110000D02*
X16525000Y22115000D01*
D13*
X38900000Y31000000D02*
X36502917Y33397083D01*
D10*
X19530000Y23580000D02*
X19530000Y25885000D01*
D12*
X51570000Y37830000D02*
X52080000Y37320000D01*
D10*
X23279998Y22075000D02*
X23279998Y24005000D01*
D10*
X21580000Y20145000D02*
X21580000Y22075000D01*
D10*
X23279998Y29235000D02*
X23279998Y27305000D01*
D10*
X21580000Y20145000D02*
X20035000Y20145000D01*
G75*
D17*
X19950000Y10967954D03*
D18*
X19950000Y14302922D03*
D19*
X10330000Y18755000D03*
D20*
X8730000Y18755000D03*
D21*
X34350000Y12102922D03*
D22*
X39350000Y12102922D03*
D23*
X36900000Y24080000D03*
D23*
X38170000Y25350000D03*
D23*
X35630000Y25350000D03*
D24*
X36900000Y25350000D03*
D24*
X35630000Y24080000D03*
D24*
X38170000Y24080000D03*
D25*
X16530000Y23580000D03*
D26*
X19530000Y23580000D03*
D27*
X44120000Y27120000D03*
D27*
X44120000Y25820000D03*
D28*
X46020000Y26470000D03*
D29*
X47000000Y20200000D03*
D30*
X47000000Y21800000D03*
D31*
X30250000Y12102922D03*
D32*
X29300000Y14302922D03*
D31*
X28350000Y12102922D03*
D32*
X48890000Y21800000D03*
D31*
X49840000Y19600000D03*
D32*
X50790000Y21800000D03*
D33*
X50110000Y29600000D03*
D34*
X47610000Y35900000D03*
D34*
X50110000Y35900000D03*
D33*
X47610000Y29600000D03*
D35*
X40502917Y33858737D03*
D35*
X24502917Y33858737D03*
D35*
X38502917Y33858737D03*
D35*
X36502917Y33858737D03*
D35*
X30502917Y33858737D03*
D35*
X28502917Y33858737D03*
D35*
X22502917Y33858737D03*
D35*
X34502917Y33858737D03*
D35*
X32502917Y33858737D03*
D35*
X26502917Y33858737D03*
D36*
X8315000Y27313001D03*
D37*
X10014998Y27313001D03*
D36*
X21580000Y20145000D03*
D37*
X23279998Y20145000D03*
D38*
X24520000Y14302922D03*
D39*
X24520000Y11350000D03*
D19*
X45530000Y29605000D03*
D20*
X43930000Y29605000D03*
D40*
X5920000Y24655000D03*
D41*
X5920000Y21655000D03*
D19*
X23279998Y24005000D03*
D20*
X21679998Y24005000D03*
D19*
X29950000Y9002922D03*
D20*
X28350000Y9002922D03*
D19*
X45530000Y31535000D03*
D20*
X43930000Y31535000D03*
D42*
X59110000Y22300000D03*
D43*
X55610000Y22300000D03*
D44*
X15700000Y10675000D03*
D44*
X4280000Y10675000D03*
D44*
X4280000Y4325000D03*
D44*
X4280000Y17025000D03*
D44*
X15700000Y17025000D03*
D44*
X15700000Y4325000D03*
D45*
X23450263Y3247083D03*
D45*
X23450263Y5347083D03*
D37*
X23279998Y22075000D03*
D36*
X21580000Y22075000D03*
D25*
X16530000Y20650000D03*
D26*
X19530000Y20650000D03*
D46*
X52525000Y29700000D03*
D47*
X59675000Y32240000D03*
D47*
X59675000Y37320000D03*
D47*
X59675000Y34780000D03*
D46*
X52525000Y32240000D03*
D46*
X52525000Y37320000D03*
D47*
X59675000Y29700000D03*
D46*
X52525000Y34780000D03*
D41*
X25679998Y21005000D03*
D40*
X25679998Y24005000D03*
D41*
X19180000Y26235000D03*
D40*
X19180000Y29235000D03*
D20*
X15220000Y26775000D03*
D19*
X16820000Y26775000D03*
D19*
X23279998Y27305000D03*
D20*
X21679998Y27305000D03*
D29*
X52670000Y20200000D03*
D30*
X52670000Y21800000D03*
D30*
X3490000Y24655000D03*
D29*
X3490000Y23055000D03*
D41*
X25679998Y26235000D03*
D40*
X25679998Y29235000D03*
D48*
X15440000Y34840000D03*
D48*
X12900000Y32300000D03*
D48*
X10360000Y34840000D03*
D49*
X8730000Y20845000D03*
D49*
X8730000Y23385000D03*
D49*
X8730000Y24655000D03*
D50*
X14070000Y24655000D03*
D50*
X14070000Y22115000D03*
D49*
X8730000Y22115000D03*
D50*
X14070000Y20845000D03*
D50*
X14070000Y23385000D03*
D36*
X8315002Y29235000D03*
D37*
X10015000Y29235000D03*
D25*
X30800000Y30920000D03*
D26*
X33800000Y30920000D03*
D51*
X4000000Y29620000D03*
D51*
X4000000Y37240000D03*
D49*
X36340000Y27415000D03*
D49*
X36340000Y29955000D03*
D49*
X36340000Y31225000D03*
D50*
X41680000Y31225000D03*
D50*
X41680000Y28685000D03*
D49*
X36340000Y28685000D03*
D50*
X41680000Y27415000D03*
D50*
X41680000Y29955000D03*
D52*
X59675000Y26880000D03*
D53*
X57475000Y26880000D03*
D36*
X21580000Y29235000D03*
D37*
X23279998Y29235000D03*
D20*
X40080000Y25335000D03*
D19*
X41680000Y25335000D03*
D44*
X55700000Y10675000D03*
D44*
X44280000Y10675000D03*
D44*
X44280000Y4325000D03*
D44*
X44280000Y17025000D03*
D44*
X55700000Y17025000D03*
D44*
X55700000Y4325000D03*
D54*
X56420000Y37320000D03*
D55*
X46750000Y16125000D03*
D55*
X16250000Y8500000D03*
D56*
X1000000Y39000000D03*
D56*
X31500000Y1000000D03*
D55*
X29950000Y7702922D03*
D57*
X8730000Y17155000D03*
D56*
X54375000Y31375000D03*
D55*
X54375000Y8500000D03*
D55*
X34640000Y27415000D03*
D55*
X3490000Y21755000D03*
D57*
X27679998Y24005000D03*
D56*
X54375000Y39000000D03*
D55*
X21379998Y25605000D03*
D58*
X34350000Y14802922D03*
D55*
X48810000Y29600000D03*
D55*
X41790000Y12102922D03*
D56*
X62000000Y23750000D03*
D55*
X19950000Y9667954D03*
D57*
X23279998Y18645000D03*
D57*
X27679998Y29235000D03*
D56*
X46750000Y39000000D03*
D55*
X47610000Y27900000D03*
D57*
X59675000Y25180000D03*
D56*
X39125000Y1000000D03*
D55*
X40080000Y24035000D03*
D55*
X44120000Y24520000D03*
D55*
X48810000Y35900000D03*
D56*
X1000000Y16125000D03*
D55*
X52670000Y18900000D03*
D56*
X46750000Y1000000D03*
D56*
X1000000Y23750000D03*
D56*
X8625000Y1000000D03*
D54*
X50110000Y27700000D03*
D55*
X39525000Y16125000D03*
D55*
X49840000Y18270000D03*
D55*
X12370000Y23385000D03*
D56*
X31500000Y39000000D03*
D55*
X47610000Y31300000D03*
D55*
X27579998Y26235000D03*
D55*
X27579998Y21005000D03*
D54*
X57800000Y34780000D03*
D56*
X16250000Y1000000D03*
D56*
X62000000Y8500000D03*
D56*
X62000000Y31375000D03*
D55*
X47000000Y18900000D03*
D56*
X16250000Y39000000D03*
D55*
X5920000Y20255000D03*
D55*
X10330000Y17455000D03*
D55*
X59110000Y20500000D03*
D56*
X1000000Y1000000D03*
D56*
X54375000Y1000000D03*
D56*
X62000000Y1000000D03*
D57*
X45190000Y21875000D03*
D55*
X47610000Y34200000D03*
D55*
X46750000Y8500000D03*
D56*
X62000000Y16125000D03*
D55*
X18450000Y10967954D03*
D55*
X7115002Y29235000D03*
D57*
X55610000Y24200000D03*
D56*
X39125000Y39000000D03*
D57*
X41680000Y23720000D03*
D56*
X62000000Y39000000D03*
D56*
X1000000Y8500000D03*
D55*
X53975000Y16125000D03*
D56*
X23875000Y1000000D03*
D56*
X23875000Y39000000D03*
D56*
X1000000Y31375000D03*
D55*
X21450000Y10967954D03*
D55*
X39525000Y8500000D03*
D55*
X46410000Y35900000D03*
D56*
X8625000Y39000000D03*
D55*
X8625000Y8500000D03*
M02*
